<svg xmlns="http://www.w3.org/2000/svg" viewBox="0 0 48 48"><g data-name="11-apricot"><path fill="#f84634" d="M22,5a11.561,11.561,0,0,1,1.19.06L23,7c0,1.11-1.79,2-4,2-3.65,2.01-6,6.85-6,12.5,0,5.95,2.85,11,6.81,12.79A8.089,8.089,0,0,1,16,35C9.92,35,5,28.29,5,20S11,5,17,5Z"/><path fill="#f8695b" d="M19.81,34.29C15.85,32.5,13,27.45,13,21.5c0-5.65,2.35-10.49,6-12.5,2.21,0,4-.89,4-2l.19-1.94C30.5,5.76,35.01,12.87,35,20c-.01,5.98-1.92,11.57-7,14-1.34.64-2,1-5,1A7.583,7.583,0,0,1,19.81,34.29Z"/><path fill="#745a00" d="M33.01,25.21C35.1,25.95,38,28.71,38,32c0,3.87-4,7-6,7s-6-3.13-6-7c0-3.29,2.9-6.05,4.99-6.79a2.534,2.534,0,0,1,2.02,0Z"/><path fill="#f8695b" d="M26,20c-2.91,0-8.63,4.73-8.98,11.35C17.31,22.34,23.9,17,32,17s14.69,5.34,14.98,14.35C46.63,24.73,40.91,20,38,20s-4.86,2.15-4.99,5.21a2.534,2.534,0,0,0-2.02,0C30.86,22.15,28.9,20,26,20Z"/><path fill="#ffa008" d="M46.98,31.35c.02.21.02.43.02.65,0,8.29-4.47,15-10,15a6.079,6.079,0,0,1-5-2.13A6.079,6.079,0,0,1,27,47c-5.53,0-10-6.71-10-15,0-.22,0-.44.02-.65C17.37,24.73,23.09,20,26,20s4.86,2.15,4.99,5.21C28.9,25.95,26,28.71,26,32c0,3.87,4,7,6,7s6-3.13,6-7c0-3.29-2.9-6.05-4.99-6.79C33.14,22.15,35.1,20,38,20S46.63,24.73,46.98,31.35Z"/><rect width="2" height="8" x="18" y="1" fill="#745a00"/><path fill="#807d00" d="M19.993,8.931C19.921,6.611,16.239,4,13,4a1,1,0,0,0,0,2c2.437,0,5,2.082,5,3a.971.971,0,0,0,.172.528A8.632,8.632,0,0,1,19,9,7.74,7.74,0,0,0,19.993,8.931Z"/><path fill="#589e00" d="M13,5.109c1.11,0,2,1.322,2,2.959,0,2.18-3,5.918-11.99,4.932H3C3,8.64,6.92,5.109,13,5.109Z"/><path fill="#8bc808" d="M5.74,1.578C9.51.236,13,2.337,13,5.109,6.92,5.109,3,8.64,3,13c-.94-.01-1.71-1.539-1.95-3.62A7.306,7.306,0,0,1,5.74,1.578Z"/><path fill="#f84634" d="M22,5a11.561,11.561,0,0,1,1.19.06L23,7c0,1.11-1.79,2-4,2-3.65,2.01-6,6.85-6,12.5,0,5.95,2.85,11,6.81,12.79A8.089,8.089,0,0,1,16,35C9.92,35,5,28.29,5,20S11,5,17,5Z"/><path fill="#f8695b" d="M18,7h5l.19-1.94A11.561,11.561,0,0,0,22,5H17C11,5,5,11.71,5,20a18.554,18.554,0,0,0,2.46,9.452A19.261,19.261,0,0,1,6,22C6,13.71,12,7,18,7Z"/><path fill="#fc8b49" d="M19.81,34.29C15.85,32.5,13,27.45,13,21.5c0-5.65,2.35-10.49,6-12.5,2.21,0,4-.89,4-2l.19-1.94C30.5,5.76,35.01,12.87,35,20c-.01,5.98-1.92,11.57-7,14-1.34.64-2,1-5,1A7.583,7.583,0,0,1,19.81,34.29Z"/><path fill="#f8695b" d="M32.575,11.213A17.189,17.189,0,0,1,33,15c-.01,5.98-1.92,11.57-7,14-1.34.64-2,1-5,1a7.583,7.583,0,0,1-3.19-.71,10.447,10.447,0,0,1-4.4-4.009c.915,4.236,3.319,7.614,6.4,9.009A7.583,7.583,0,0,0,23,35c3,0,3.66-.36,5-1,5.08-2.43,6.99-8.02,7-14A16.963,16.963,0,0,0,32.575,11.213Z"/><path fill="#de3f2e" d="M22,5H19V7c0,1.11-1.79,2-4,2-3.65,2.01-6,6.85-6,12.5a17.351,17.351,0,0,0,1.1,6.146A18.867,18.867,0,0,1,5,19.926c0,.025,0,.049,0,.074,0,8.29,4.92,15,11,15a13.814,13.814,0,0,0,1.765-.114,5.013,5.013,0,0,0,2.045-.6,9.828,9.828,0,0,1-3.476-2.739A15.844,15.844,0,0,1,13,21.5c0-5.65,2.35-10.49,6-12.5,2.21,0,4-.89,4-2l.085-.865L23.19,5.06A11.561,11.561,0,0,0,22,5Z"/><path fill="#fca850" d="M23.289,28c4.579,0,8.29-4.7,8.29-10.5S27.868,7,23.289,7c-.1,0-.2.014-.293.019C22.976,8.12,21.2,9,19,9a9.023,9.023,0,0,0-1.655,1.191A12.047,12.047,0,0,0,15,17.5C15,23.3,18.711,28,23.289,28Z"/><path fill="#ffbe68" d="M31.49,18.953a13.075,13.075,0,0,0,.089-1.453c0-5.8-3.711-10.5-8.29-10.5-.1,0-.2.014-.293.019C22.976,8.12,21.2,9,19,9a9.023,9.023,0,0,0-1.655,1.191A10.7,10.7,0,0,0,16.242,12C18.684,15.822,24.513,18.6,31.49,18.953Z"/><path fill="#a82340" d="M20,8.93A4.766,4.766,0,0,0,22.447,8,4.766,4.766,0,0,0,20,7.071Z"/><rect width="2" height="8" x="18" y="1" fill="#745a00"/><rect width="1" height="8" x="19" y="1" fill="#977b00"/><path fill="#807d00" d="M19.993,8.931C19.921,6.611,16.239,4,13,4a1,1,0,0,0,0,2c2.437,0,5,2.082,5,3a.971.971,0,0,0,.172.528A8.632,8.632,0,0,1,19,9,7.74,7.74,0,0,0,19.993,8.931Z"/><path fill="#9e9b00" d="M19.993,8.931C19.921,6.611,16.239,4,13,4a1,1,0,0,0-1,1c2.862,0,6.065,2.038,6.823,4.113.06-.036.116-.079.177-.113A7.74,7.74,0,0,0,19.993,8.931Z"/><path fill="#ffa008" d="M46.98,31.35c.02.21.02.43.02.65,0,8.29-4.47,15-10,15a6.079,6.079,0,0,1-5-2.13A6.079,6.079,0,0,1,27,47c-5.53,0-10-6.71-10-15,0-.22,0-.44.02-.65C17.37,24.73,23.09,20,26,20s4.86,2.15,4.99,5.21C28.9,25.95,26,28.71,26,32c0,3.87,4,7,6,7s6-3.13,6-7c0-3.29-2.9-6.05-4.99-6.79C33.14,22.15,35.1,20,38,20S46.63,24.73,46.98,31.35Z"/><path fill="#fc6b00" d="M24,32c0,5.529,5.333,10,8,10s8-4.471,8-10c0-4.477-3.507-8.261-6.248-9.524a6.169,6.169,0,0,0-.742,2.734C35.1,25.95,38,28.71,38,32c0,3.87-4,7-6,7s-6-3.13-6-7c0-3.29,2.9-6.05,4.99-6.79a6.169,6.169,0,0,0-.742-2.734C27.507,23.739,24,27.523,24,32Z"/><path fill="#de3f2e" d="M33.178,24.24a3.011,3.011,0,0,0-2.356,0C28.383,25.086,25,28.24,25,32c0,4.423,4.667,8,7,8s7-3.577,7-8C39,28.24,35.617,25.086,33.178,24.24ZM32,39c-2,0-6-3.13-6-7,0-3.29,2.9-6.05,4.99-6.79a2.534,2.534,0,0,1,2.02,0C35.1,25.95,38,28.71,38,32,38,35.87,34,39,32,39Z"/><path fill="#745a00" d="M33.01,25.21C35.1,25.95,38,28.71,38,32c0,3.87-4,7-6,7s-6-3.13-6-7c0-3.29,2.9-6.05,4.99-6.79a2.534,2.534,0,0,1,2.02,0Z"/><path fill="#4f4600" d="M33.01,25.21a2.534,2.534,0,0,0-2.02,0C28.9,25.95,26,28.71,26,32c0,3.87,4,7,6,7s6-3.13,6-7C38,28.71,35.1,25.95,33.01,25.21ZM33,38c-1.333,0-4-2.683-4-6a6.854,6.854,0,0,1,3.327-5.82,1.348,1.348,0,0,1,1.346,0A6.854,6.854,0,0,1,37,32C37,35.317,34.333,38,33,38Z"/><path fill="#f8695b" d="M46.98,31.35C46.63,24.73,40.91,20,38,20c-2.739,0-4.618,1.929-4.931,4.719A4.465,4.465,0,0,1,37.6,21c2.716,0,8.055,4.292,8.381,10.3.019.191.019.39.019.59C46,39.411,41.828,45.5,36.667,45.5A5.743,5.743,0,0,1,32,43.567,5.743,5.743,0,0,1,27.333,45.5C22.172,45.5,18,39.411,18,31.889c0-.2,0-.4.019-.59C18.345,25.292,23.684,21,26.4,21a4.465,4.465,0,0,1,4.531,3.719C30.618,21.929,28.739,20,26,20c-2.91,0-8.63,4.73-8.98,11.35-.02.21-.02.43-.02.65,0,8.29,4.47,15,10,15a6.079,6.079,0,0,0,5-2.13A6.079,6.079,0,0,0,37,47c5.53,0,10-6.71,10-15C47,31.78,47,31.56,46.98,31.35Z"/><path fill="#de3f2e" d="M26,20c-2.91,0-8.63,4.73-8.98,11.35C17.31,22.34,23.9,17,32,17s14.69,5.34,14.98,14.35C46.63,24.73,40.91,20,38,20s-4.86,2.15-4.99,5.21a2.534,2.534,0,0,0-2.02,0C30.86,22.15,28.9,20,26,20Z"/><path fill="#f84634" d="M37.818,20.017c.062,0,.119-.017.182-.017,2.91,0,8.63,4.73,8.98,11.35C46.69,22.34,40.1,17,32,17S17.31,22.34,17.02,31.35C17.37,24.73,23.09,20,26,20c.063,0,.12.015.182.017a17.15,17.15,0,0,1,11.636,0Z"/><path fill="#b31700" d="M17.2,34.948A22.344,22.344,0,0,1,17.01,32.3c-.091-.092-.177-.19-.265-.285-.04-.043-.08-.084-.118-.127a12.192,12.192,0,0,1-.819-1.021c-.013-.02-.026-.04-.04-.059a13.938,13.938,0,0,1-1.408-2.528l0-.008a15.734,15.734,0,0,1-.565-1.5,16.7,16.7,0,0,0-.771,4.58c-.02.21-.02.43-.02.65a22.472,22.472,0,0,0,.147,2.473A8.277,8.277,0,0,0,16,35C16.4,35,16.808,34.981,17.2,34.948Z"/><path fill="#c72412" d="M28,17c-6.387,0-11.821,3.331-13.982,9.153-.073.2-.155.393-.221.6a15.812,15.812,0,0,0,.559,1.524l0,.008a13.972,13.972,0,0,0,1.408,2.528c.014.019.027.039.04.059a11.993,11.993,0,0,0,.819,1.021c.038.043.078.084.118.127.084.092.177.17.264.259,0-.093-.009-.184-.009-.277,0-.22,0-.44.02-.65a17.561,17.561,0,0,1,.245-2.335C18.411,22.131,23.547,17.856,30,17.126A17.544,17.544,0,0,0,28,17Z"/><path fill="#de3f2e" d="M8.631,12.957a16.551,16.551,0,0,0-1.847,3.98A26.078,26.078,0,0,0,9.632,16.6a14.493,14.493,0,0,1,2.082-4.542A11.48,11.48,0,0,1,8.631,12.957Z"/><path fill="#d95c50" d="M6.451,13.145a16.8,16.8,0,0,0-1.184,3.849c.514,0,1.019-.025,1.517-.057a16.551,16.551,0,0,1,1.847-3.98A17.668,17.668,0,0,1,6.451,13.145Z"/><path fill="#c72412" d="M16.57,8.84A7.548,7.548,0,0,1,15,9c-.079.044-.151.1-.228.149a5.682,5.682,0,0,1-3.058,2.911A14.493,14.493,0,0,0,9.632,16.6a19.008,19.008,0,0,0,4.41-1.294,12.3,12.3,0,0,1,3.615-5.392A3.865,3.865,0,0,0,16.57,8.84Z"/><path fill="#589e00" d="M13,5.109c1.11,0,2,1.322,2,2.959,0,2.18-3,5.918-11.99,4.932H3C3,8.64,6.92,5.109,13,5.109Z"/><path fill="#8bc808" d="M5.74,1.578C9.51.236,13,2.337,13,5.109,6.92,5.109,3,8.64,3,13c-.94-.01-1.71-1.539-1.95-3.62A7.306,7.306,0,0,1,5.74,1.578Z"/><path fill="#63b300" d="M11.9,11.963c2.212-1.1,3.1-2.72,3.1-3.895,0-1.637-.89-2.959-2-2.959a11.584,11.584,0,0,0-6.874,2.01A13.023,13.023,0,0,0,11.9,11.963Z"/><path fill="#9cdf00" d="M13,5.109C13,2.337,9.51.236,5.74,1.578a6.9,6.9,0,0,0-1.516.784,12.92,12.92,0,0,0,1.9,4.757A11.584,11.584,0,0,1,13,5.109Z"/><path fill="#ffaa78" d="M15 17.5a12.042 12.042 0 0 1 2.345-7.308A13.018 13.018 0 0 0 13.7 16.374c.43.9.9 1.779 1.4 2.639A13.185 13.185 0 0 1 15 17.5zM31.579 17.5c0 5.8-3.711 10.5-8.29 10.5a6.624 6.624 0 0 1-1.094-.1 38.116 38.116 0 0 0 7.24 5.264c4-2.733 5.556-7.786 5.565-13.162.01-7.13-4.5-14.24-11.81-14.94L23 7c0 .006 0 .012 0 .019.1 0 .194-.019.293-.019C27.868 7 31.579 11.7 31.579 17.5z"/><path fill="#ffc385" d="M15.1,19.013A38.108,38.108,0,0,0,22.2,27.9a6.624,6.624,0,0,0,1.094.1c4.579,0,8.29-4.7,8.29-10.5S27.868,7,23.289,7c-.1,0-.2.014-.293.019-.01.55-.458,1.045-1.181,1.4l-.022.009a4.835,4.835,0,0,1-.566.232c-.062.02-.133.034-.2.053-.156.046-.31.093-.479.128-.126.027-.263.042-.4.062-.117.017-.229.041-.351.054-.26.026-.529.04-.8.04a8.132,8.132,0,0,0-.819.521c-.031.022-.062.046-.093.069-.255.187-.5.386-.743.6h0A12.042,12.042,0,0,0,15,17.5,13.185,13.185,0,0,0,15.1,19.013Z"/><path fill="#f84634" d="M26,20c2.9,0,4.86,2.15,4.99,5.21a2.534,2.534,0,0,1,2.02,0C33.14,22.15,35.1,20,38,20s8.63,4.73,8.98,11.35C46.69,22.34,40.1,17,32,17c-5.7,0-10.638,2.652-13.174,7.356.138.166.283.327.424.49C21.267,21.846,24.182,20,26,20Z"/><path fill="#fdf48b" d="M30.99 25.21c-.127-2.993-2.012-5.1-4.808-5.193h0c-.062 0-.119-.017-.182-.017-1.818 0-4.733 1.846-6.75 4.846a38.113 38.113 0 0 0 6.838 6.2A8.226 8.226 0 0 1 30.99 25.21zM38 20c-.063 0-.12.015-.182.017h0c-2.8.092-4.681 2.2-4.808 5.193C35.1 25.95 38 28.71 38 32a6.856 6.856 0 0 1-1.592 4.2 37.948 37.948 0 0 0 9.771 1.757A21.561 21.561 0 0 0 47 32c0-.22 0-.44-.02-.65C46.63 24.73 40.91 20 38 20z"/><path fill="#ff8269" d="M26,20c.063,0,.12.015.182.017a17.15,17.15,0,0,1,11.636,0c.062,0,.119-.017.182-.017,2.91,0,8.63,4.73,8.98,11.35C46.69,22.34,40.1,17,32,17c-5.7,0-10.638,2.652-13.174,7.356.138.166.283.327.424.49C21.267,21.846,24.182,20,26,20Z"/><path fill="#f84634" d="M26.182 20.017c-.062 0-.119-.017-.182-.017.063 0 .12.015.182.017zM38 20c-.063 0-.12.015-.182.017h0C37.88 20.015 37.937 20 38 20z"/><path fill="#ff9202" d="M39 32a7.6 7.6 0 0 1-1.612 4.49c.415.12.831.241 1.251.347A9.761 9.761 0 0 0 40 32c0-4.477-3.507-8.261-6.248-9.524a5.98 5.98 0 0 0-.619 1.751c.016 0 .03.007.045.013C35.617 25.086 39 28.24 39 32zM30.822 24.24c.015-.006.029-.008.045-.013a5.98 5.98 0 0 0-.619-1.751 11.794 11.794 0 0 0-5.94 7.234c.3.238.593.477.9.706A9.584 9.584 0 0 1 30.822 24.24z"/><path fill="#f8695b" d="M33.178,24.24c-.015-.006-.029-.008-.045-.013a2.941,2.941,0,0,0-2.266,0c-.016,0-.03.007-.045.013a9.584,9.584,0,0,0-5.616,6.176c.289.217.587.422.882.631a8.226,8.226,0,0,1,4.9-5.837,2.534,2.534,0,0,1,2.02,0C35.1,25.95,38,28.71,38,32a6.856,6.856,0,0,1-1.592,4.2c.324.1.652.2.98.293A7.6,7.6,0,0,0,39,32C39,28.24,35.617,25.086,33.178,24.24Z"/><path fill="#f8695b" d="M47 32c0-.22 0-.44-.02-.65C46.63 24.73 40.91 20 38 20c-2.739 0-4.618 1.929-4.931 4.719A4.465 4.465 0 0 1 37.6 21c2.716 0 8.055 4.292 8.381 10.3.019.191.019.39.019.59a18.821 18.821 0 0 1-.959 5.986c.379.029.756.061 1.138.079A21.561 21.561 0 0 0 47 32zM26.4 21a4.465 4.465 0 0 1 4.531 3.719C30.618 21.929 28.739 20 26 20c-1.818 0-4.733 1.846-6.75 4.846.23.267.458.535.7.795C21.831 22.779 24.654 21 26.4 21z"/><path fill="#977b00" d="M33.673,26.18a1.348,1.348,0,0,0-1.346,0A6.854,6.854,0,0,0,29,32a6.3,6.3,0,0,0,.08.958,37.746,37.746,0,0,0,6.624,3A7.015,7.015,0,0,0,37,32,6.854,6.854,0,0,0,33.673,26.18Z"/><path fill="#745a00" d="M29,32a6.854,6.854,0,0,1,3.327-5.82,1.348,1.348,0,0,1,1.346,0A6.854,6.854,0,0,1,37,32a7.015,7.015,0,0,1-1.3,3.958c.234.081.468.163.7.239A6.856,6.856,0,0,0,38,32c0-3.29-2.9-6.05-4.99-6.79a2.534,2.534,0,0,0-2.02,0,8.226,8.226,0,0,0-4.9,5.837q1.447,1.023,2.992,1.911A6.3,6.3,0,0,1,29,32Z"/><path fill="#c72412" d="M30,17.126A17.544,17.544,0,0,0,28,17a14.983,14.983,0,0,0-11.237,4.644c.649.936,1.337,1.844,2.066,2.716A14.137,14.137,0,0,1,30,17.126Z"/><ellipse cx="41" cy="25" fill="#f6fafd" rx=".825" ry="1.148" transform="rotate(-45.02 41 25)"/><ellipse cx="34" cy="28" fill="#b39500" rx=".825" ry="1.148" transform="rotate(-45.02 34 28)"/><ellipse cx="42.746" cy="27.5" fill="#f6fafd" rx=".413" ry=".574" transform="rotate(-45.02 42.746 27.5)"/><ellipse cx="35.746" cy="29.5" fill="#b39500" rx=".413" ry=".574" transform="rotate(-45.02 35.745 29.5)"/><ellipse cx="26" cy="10" fill="#f6fafd" rx="1.65" ry="2.297" transform="rotate(-45.02 26 10)"/><ellipse cx="29" cy="14" fill="#f6fafd" rx=".825" ry="1.148" transform="rotate(-45.02 29 14)"/><ellipse cx="26.746" cy="13.5" fill="#f6fafd" rx=".413" ry=".574" transform="rotate(-45.02 26.746 13.5)"/></g></svg>