<svg xmlns="http://www.w3.org/2000/svg" enable-background="new 0 0 512 512" viewBox="0 0 512 512"><path d="M496,264.677C496,396.498,388.548,486,256,486c-132.548,0-240-89.502-240-221.323C16,132.86,123.452,26,256,26
		C388.548,26,496,132.86,496,264.677z"/><radialGradient id="a" cx="256" cy="253.5" r="207.072" gradientUnits="userSpaceOnUse"><stop offset="0" stop-color="#fde6cc"/><stop offset=".242" stop-color="#fbd1a1"/><stop offset=".627" stop-color="#f9b362"/><stop offset=".81" stop-color="#f8a749"/><stop offset=".963" stop-color="#d68d3e"/></radialGradient><path fill="url(#a)" d="M468,261.122c0,115.787-94.916,194.402-212,194.402c-117.084,0-212-78.615-212-194.402
		c0-115.783,94.916-209.645,212-209.645C373.084,51.476,468,145.338,468,261.122z"/><linearGradient id="b" x1="256" x2="256" y1="343.879" y2="392.818" gradientUnits="userSpaceOnUse"><stop offset=".445" stop-color="#d68d3e"/><stop offset=".716" stop-color="#e99b44" stop-opacity=".512"/><stop offset="1" stop-color="#f8a749" stop-opacity="0"/></linearGradient><path fill="url(#b)" d="M56.691,330.801
		c2.239,5.791,4.739,11.429,7.518,16.888C122.004,374.093,187.965,388,256,388c68.035,0,133.996-13.907,191.791-40.31
		c2.779-5.458,5.279-11.097,7.518-16.888C396.981,359.976,328.825,376,256,376S115.019,359.976,56.691,330.801z"/><radialGradient id="c" cx="256.846" cy="231.528" r="205.971" gradientTransform="matrix(0 1 -1.0965 0 510.712 -25.319)" gradientUnits="userSpaceOnUse"><stop offset="0" stop-color="#c1272d"/><stop offset=".169" stop-color="#bd262c"/><stop offset=".338" stop-color="#b12429"/><stop offset=".508" stop-color="#9d2024"/><stop offset=".678" stop-color="#811a1e"/><stop offset=".846" stop-color="#5d1315"/><stop offset=".937" stop-color="#460e10"/></radialGradient><path fill="url(#c)" d="M456.003,330.46
		c8.082-21.108,12.497-44.349,12.497-69.32C468.5,145.083,373.36,51,256,51C138.64,51,43.5,145.083,43.5,261.14
		c0,24.971,4.415,48.212,12.497,69.32C114.478,359.854,182.888,376,256,376S397.522,359.854,456.003,330.46z"/><linearGradient id="d" x1="256" x2="256" y1="302.615" y2="215.871" gradientUnits="userSpaceOnUse"><stop offset="0" stop-color="#d2232a" stop-opacity=".121"/><stop offset=".159" stop-color="#ff4f52" stop-opacity=".5"/><stop offset=".644" stop-color="#db2d32" stop-opacity=".17"/><stop offset=".894" stop-color="#c71920" stop-opacity="0"/></linearGradient><path fill="url(#d)" d="M85.537,213.303
		c74.14,0,137.308,38.326,161.403,92.027h18.121c24.096-53.702,87.262-92.027,161.402-92.027H85.537z"/><linearGradient id="e" x1="442.99" x2="442.99" y1="380.802" y2="336.088" gradientUnits="userSpaceOnUse"><stop offset="0" stop-color="#2845a3"/><stop offset=".304" stop-color="#213885"/><stop offset=".763" stop-color="#17275c"/><stop offset="1" stop-color="#13204c"/></linearGradient><path fill="url(#e)" d="M427.964,378.824
		c12.867-15.822,23.079-33.781,30.052-53.543c-7.261,4.186-14.808,8.155-22.631,11.881
		C434.552,346.717,432.592,361.62,427.964,378.824z"/><linearGradient id="f" x1="69.01" x2="69.01" y1="380.802" y2="336.088" gradientUnits="userSpaceOnUse"><stop offset="0" stop-color="#2845a3"/><stop offset=".304" stop-color="#213885"/><stop offset=".763" stop-color="#17275c"/><stop offset="1" stop-color="#13204c"/></linearGradient><path fill="url(#f)" d="M84.036,378.824
		c-4.628-17.204-6.589-32.107-7.421-41.661c-7.823-3.727-15.37-7.696-22.631-11.881C60.957,345.044,71.169,363.002,84.036,378.824z"/><g display="none"><radialGradient id="g" cx="255.791" cy="420.89" r="51.208" gradientUnits="userSpaceOnUse"><stop offset="0" stop-color="#c1272d"/><stop offset=".169" stop-color="#bd262c"/><stop offset=".338" stop-color="#b12429"/><stop offset=".508" stop-color="#9d2024"/><stop offset=".678" stop-color="#811a1e"/><stop offset=".846" stop-color="#5d1315"/><stop offset=".937" stop-color="#460e10"/></radialGradient><path fill="url(#g)" d="M302.001,451.369
			l-20.482-6.784h-51.037l-20.483,6.784v2c14.822,2.656,30.21,4.046,46.001,4.046s31.179-1.39,46.001-4.046V451.369z"/><polygon fill="#691518" points="302.001 453.369 302.001 451.369 281.519 444.585 281.519 448.67"/><polygon fill="#691518" points="209.999 453.369 209.999 451.369 230.481 444.585 230.481 448.67"/><rect width="51.037" height="4.085" x="230.482" y="444.585" fill="#C1272D"/></g><linearGradient id="h" x1="256" x2="256" y1="303.527" y2="381.921" gradientUnits="userSpaceOnUse"><stop offset="0" stop-color="#c1272d"/><stop offset=".083" stop-color="#b3242a"/><stop offset=".378" stop-color="#841b1f"/><stop offset=".64" stop-color="#621417"/><stop offset=".857" stop-color="#4d1012"/><stop offset="1" stop-color="#460e10"/></linearGradient><polygon fill="url(#h)" points="266 306 255.999 306 246 306 231 375.821 255.999 383 281 375.821"/><linearGradient id="i" x1="268.5" x2="268.5" y1="302.736" y2="389.036" gradientUnits="userSpaceOnUse"><stop offset="0" stop-color="#c1272d"/><stop offset=".15" stop-color="#bb262c"/><stop offset=".345" stop-color="#ab2328"/><stop offset=".566" stop-color="#901d21"/><stop offset=".803" stop-color="#6b1519"/><stop offset="1" stop-color="#460e10"/></linearGradient><polygon fill="url(#i)" points="266 306 255.999 306 255.999 383 281 375.821"/><g display="none"><linearGradient id="j" x1="256" x2="256" y1="333.428" y2="178.012" gradientUnits="userSpaceOnUse"><stop offset="0" stop-color="#fff"/><stop offset=".229" stop-color="#f6f8f9"/><stop offset=".603" stop-color="#dee5e9"/><stop offset="1" stop-color="#bdccd4"/></linearGradient><path fill="url(#j)" d="M460.905,315.822
			c-54.028,27.43-116.239,43.716-182.764,46.68l-0.001,0.007L256,366.956l-22.141-4.447l-0.001-0.007
			c-66.525-2.964-128.736-19.25-182.763-46.68c1.443,4.984,3.076,9.867,4.903,14.638c51.789,26.031,111.368,41.661,175.101,44.9
			l-0.099,0.461L256,383l25-7.179l-0.099-0.461c63.733-3.239,123.313-18.869,175.102-44.9
			C457.83,325.689,459.462,320.806,460.905,315.822z"/><linearGradient id="k" x1="246.623" x2="238.711" y1="344.426" y2="433.042" gradientUnits="userSpaceOnUse"><stop offset="0" stop-color="#fff"/><stop offset=".116" stop-color="#e9eef1"/><stop offset=".263" stop-color="#d6dfe4"/><stop offset=".431" stop-color="#c8d4db"/><stop offset=".639" stop-color="#bfced6"/><stop offset="1" stop-color="#bdccd4"/></linearGradient><polygon fill="url(#k)" points="233.859 362.509 231.098 375.36 230.999 375.821 256 383 256 366.956"/></g><g><linearGradient id="l" x1="256" x2="256" y1="42.644" y2="218.026" gradientUnits="userSpaceOnUse"><stop offset="0" stop-color="#ff3449"/><stop offset=".062" stop-color="#f93549" stop-opacity=".93"/><stop offset=".321" stop-color="#e73a49" stop-opacity=".636"/><stop offset=".591" stop-color="#dc3c49" stop-opacity=".332"/><stop offset=".883" stop-color="#d83d49" stop-opacity="0"/></linearGradient><path fill="url(#l)" d="M435.746,218.591
		C435.746,303.231,355.268,306,256,306c-99.269,0-179.746-2.769-179.746-87.409c0-84.636,80.476-153.248,179.746-153.248
		C355.268,65.342,435.746,133.954,435.746,218.591z"/><linearGradient id="m" x1="256" x2="256" y1="65.374" y2="119.714" gradientUnits="userSpaceOnUse"><stop offset="0" stop-color="#fff"/><stop offset=".072" stop-color="#fff" stop-opacity=".928"/><stop offset="1" stop-color="#fff" stop-opacity="0"/></linearGradient><path fill="url(#m)" d="M324.542,100.63
		c0,13.959-30.688,25.272-68.542,25.272c-37.857,0-68.543-11.313-68.543-25.272c0-13.956,30.686-25.27,68.543-25.27
		C293.854,75.36,324.542,86.674,324.542,100.63z"/></g><g><radialGradient id="n" cx="256.319" cy="108.626" r="190.418" gradientUnits="userSpaceOnUse"><stop offset="0" stop-color="#fff"/><stop offset=".351" stop-color="#fcfdfd"/><stop offset=".561" stop-color="#f4f7f8"/><stop offset=".734" stop-color="#e6ecef"/><stop offset=".886" stop-color="#d2dce2"/><stop offset="1" stop-color="#bdccd4"/></radialGradient><path fill="url(#n)" d="M315.994,232.529
			c43.721-5.238,80.938-16.197,105.869-31.418c-14.098-59.526-62.936-106.598-125.275-121.076C308.52,117.503,316,171.264,316,231
			C316,231.511,315.995,232.019,315.994,232.529z"/><path fill="#2845A3" d="M313.973 97.771c4.698 19.361 8.284 41.088 10.654 64.373l28.336-43.337C341.071 110.062 327.949 102.977 313.973 97.771zM394.548 164.845l-30.429 46.537c16.771-4.41 31.587-9.856 43.727-16.15C404.618 184.644 400.146 174.462 394.548 164.845z"/><radialGradient id="o" cx="255.791" cy="236.275" r="209.264" gradientUnits="userSpaceOnUse"><stop offset="0" stop-color="#c1272d"/><stop offset=".169" stop-color="#bd262c"/><stop offset=".338" stop-color="#b12429"/><stop offset=".508" stop-color="#9d2024"/><stop offset=".678" stop-color="#811a1e"/><stop offset=".846" stop-color="#5d1315"/><stop offset=".937" stop-color="#460e10"/></radialGradient><path fill="url(#o)" d="M327.899,218.801
			c7.612-1.162,14.975-2.517,22.065-4.041l38.702-59.19c-5.698-8.299-12.274-16.099-19.686-23.258
			c-2.622-2.532-5.338-4.961-8.126-7.299l-34.803,53.227C327.046,191.391,327.669,204.954,327.899,218.801z"/><g><radialGradient id="p" cx="462.769" cy="108.626" r="190.418" gradientTransform="matrix(-1 0 0 1 718.45 0)" gradientUnits="userSpaceOnUse"><stop offset="0" stop-color="#fff"/><stop offset=".351" stop-color="#fcfdfd"/><stop offset=".561" stop-color="#f4f7f8"/><stop offset=".734" stop-color="#e6ecef"/><stop offset=".886" stop-color="#d2dce2"/><stop offset="1" stop-color="#bdccd4"/></radialGradient><path fill="url(#p)" d="M196.006,232.529
			c-43.721-5.238-80.938-16.197-105.869-31.418c14.098-59.526,62.936-106.598,125.275-121.076C203.48,117.503,196,171.264,196,231
			C196,231.511,196.005,232.019,196.006,232.529z"/><path fill="#2845A3" d="M198.027 97.771c-4.698 19.361-8.284 41.088-10.654 64.373l-28.336-43.337C170.929 110.062 184.051 102.977 198.027 97.771zM117.452 164.845l30.429 46.537c-16.771-4.41-31.587-9.856-43.727-16.15C107.382 184.644 111.854 174.462 117.452 164.845z"/><radialGradient id="q" cx="255.791" cy="236.275" r="209.264" gradientUnits="userSpaceOnUse"><stop offset="0" stop-color="#c1272d"/><stop offset=".169" stop-color="#bd262c"/><stop offset=".338" stop-color="#b12429"/><stop offset=".508" stop-color="#9d2024"/><stop offset=".678" stop-color="#811a1e"/><stop offset=".846" stop-color="#5d1315"/><stop offset=".937" stop-color="#460e10"/></radialGradient><path fill="url(#q)" d="M184.101,218.801
			c-7.612-1.162-14.975-2.517-22.065-4.041l-38.702-59.19c5.698-8.299,12.274-16.099,19.686-23.258
			c2.622-2.532,5.338-4.961,8.126-7.299l34.803,53.227C184.954,191.391,184.331,204.954,184.101,218.801z"/></g></g><g><linearGradient id="r" x1="365.226" x2="365.226" y1="309.066" y2="237.699" gradientUnits="userSpaceOnUse"><stop offset="0" stop-color="#c1272d"/><stop offset=".155" stop-color="#b02429"/><stop offset=".462" stop-color="#831a1e"/><stop offset=".889" stop-color="#3c0c0e"/><stop offset="1" stop-color="#280809"/></linearGradient><path fill="url(#r)" d="M345.044,304.96
			c48.898,0,89.521-34.105,97.622-78.96l-154.881,61.426C303.955,298.47,323.712,304.96,345.044,304.96z"/><linearGradient id="s" x1="293.67" x2="416.563" y1="265.764" y2="265.764" gradientUnits="userSpaceOnUse"><stop offset="0" stop-color="#fff"/><stop offset=".229" stop-color="#f6f8f9"/><stop offset=".603" stop-color="#dee5e9"/><stop offset="1" stop-color="#bdccd4"/></linearGradient><path fill="url(#s)" d="M289.005,286.945
			c13.02,6.604,27.848,10.352,43.589,10.352c41.903,0,77.376-26.512,89.318-63.066L289.005,286.945z"/><path d="M442.667,226l-20.754,8.232c-1.637,5.008-3.73,9.818-6.204,14.406l23.065-8.127
			C440.443,235.824,441.767,230.984,442.667,226z"/><path fill="#BDCCD4" d="M364.297,257.081l-75.291,29.864c2.564,1.302,5.197,2.483,7.894,3.556l118.81-41.864
			c2.474-4.588,4.567-9.399,6.204-14.406L364.297,257.081z"/><g><linearGradient id="t" x1="146.774" x2="146.774" y1="309.066" y2="237.699" gradientUnits="userSpaceOnUse"><stop offset="0" stop-color="#c1272d"/><stop offset=".155" stop-color="#b02429"/><stop offset=".462" stop-color="#831a1e"/><stop offset=".889" stop-color="#3c0c0e"/><stop offset="1" stop-color="#280809"/></linearGradient><path fill="url(#t)" d="M166.956,304.96
			c-48.898,0-89.521-34.105-97.623-78.96l154.881,61.426C208.045,298.47,188.288,304.96,166.956,304.96z"/><linearGradient id="u" x1="220.088" x2="99.822" y1="265.764" y2="265.764" gradientUnits="userSpaceOnUse"><stop offset="0" stop-color="#fff"/><stop offset=".229" stop-color="#f6f8f9"/><stop offset=".603" stop-color="#dee5e9"/><stop offset="1" stop-color="#bdccd4"/></linearGradient><path fill="url(#u)" d="M222.995,286.945
			c-13.02,6.604-27.848,10.352-43.589,10.352c-41.903,0-77.376-26.512-89.318-63.066L222.995,286.945z"/><path d="M69.333,226l20.754,8.232c1.637,5.008,3.73,9.818,6.204,14.406l-23.065-8.127C71.557,235.824,70.233,230.984,69.333,226z
				"/><path fill="#BDCCD4" d="M147.703,257.081l75.291,29.864c-2.564,1.302-5.197,2.483-7.894,3.556l-118.81-41.864
			c-2.474-4.588-4.567-9.399-6.204-14.406L147.703,257.081z"/></g><g><path fill="#FFE0C2" d="M256.227,411.979c20.244-4.436,39.33-0.863,49.773,8.057c-5.236-13.924-27.416-20.883-51.431-15.614
			c-24.012,5.264-41.245,20.864-40.173,35.691C220.153,427.645,235.985,416.414,256.227,411.979z"/><radialGradient id="v" cx="685.511" cy="278.484" r="55.228" gradientTransform="translate(-432.323 118.408)" gradientUnits="userSpaceOnUse"><stop offset="0" stop-color="#ff7f00"/><stop offset=".036" stop-color="#f57a01"/><stop offset=".308" stop-color="#a95405"/><stop offset=".534" stop-color="#713808"/><stop offset=".701" stop-color="#4f270a"/><stop offset=".791" stop-color="#42210b"/></radialGradient><path fill="url(#v)" d="M254.974,406.239
			c19.948-4.372,39.024,0.431,49.727,11.063c-5.703-16.201-27.987-25.006-51.647-19.812c-23.666,5.185-40.22,22.493-38.624,39.599
			C219.704,422.953,235.028,410.612,254.974,406.239z"/></g></g></svg>