<svg xmlns="http://www.w3.org/2000/svg" viewBox="0 0 48 48"><g data-name="26-fig"><path fill="#5c175b" d="M16,1h3s-1,3,3,6,9,6,9,13S25,32,16,32,1,27,1,20,6,10,10,7s3-6,3-6Z"/><path fill="#fdf1c1" d="M32,16h3s-1,3,3,6,9,6,9,13S41,47,32,47,17,42,17,35s5-10,9-13,3-6,3-6Z"/><path fill="#9c1936" d="M32,22h1a7.648,7.648,0,0,0,3,4.258c2.667,2.129,6,4.258,6,9.226S38,44,32,44s-10-3.548-10-8.516,3.333-7.1,6-9.226A7.648,7.648,0,0,0,31,22Z"/><path fill="#5c175b" d="M16,1h3s-1,3,3,6,9,6,9,13S25,32,16,32,1,27,1,20,6,10,10,7s3-6,3-6Z"/><path fill="#41023b" d="M6 14a11.947 11.947 0 0 1 .9-4.681C3.808 11.755 1 14.754 1 20c0 7 6 12 15 12 7.347 0 12.692-3.334 14.408-8.367A18.108 18.108 0 0 1 21 26C12 26 6 21 6 14zM19.892 4.863a5.5 5.5 0 0 1-.968-2.438A7.389 7.389 0 0 1 16 3a7.389 7.389 0 0 1-2.924-.575 5.5 5.5 0 0 1-.968 2.438A6.581 6.581 0 0 0 16 6 6.581 6.581 0 0 0 19.892 4.863z"/><path fill="#4f4600" d="M18.924,2.425A3.566,3.566,0,0,1,19,1H13a3.566,3.566,0,0,1,.076,1.425A7.389,7.389,0,0,0,16,3,7.389,7.389,0,0,0,18.924,2.425Z"/><path fill="#8c428b" d="M16.183 11.177a1 1 0 0 0-.119.881 1.428 1.428 0 0 0 .525.471 28.349 28.349 0 0 1 7.6 7.124 3.9 3.9 0 0 0 .939 1.03 1.651 1.651 0 0 0 1.462.232 1.487 1.487 0 0 0 .7-.678 6 6 0 0 0 .26-5.155 16 16 0 0 0-3.043-4.72 15.016 15.016 0 0 0-2.344-2.3 5.015 5.015 0 0 0-2.21-1.026C17.31 6.628 16.865 9.734 16.183 11.177zM8.27 9.7a3.915 3.915 0 0 0-1.218 1.681 1.313 1.313 0 0 0 .174 1.107 1.35 1.35 0 0 0 1.1.524 2.467 2.467 0 0 0 .847-.183A6.546 6.546 0 0 0 12.316 10a3.388 3.388 0 0 0 .657-2.249c-.172-.942-1.123-.917-1.9-.332A32.17 32.17 0 0 0 8.27 9.7z"/><path fill="#fdf1c1" d="M32,16h3s-1,3,3,6,9,6,9,13S41,47,32,47,17,42,17,35s5-10,9-13,3-6,3-6Z"/><path fill="#5c175b" d="M38,22a7.3,7.3,0,0,1-2.966-4H34.007A9.549,9.549,0,0,0,37.6,22.613c3.733,2.806,8.4,5.613,8.4,12.161S40.4,46,32,46,18,41.323,18,34.774s4.667-9.355,8.4-12.161A9.549,9.549,0,0,0,29.993,18H28.966A7.3,7.3,0,0,1,26,22c-4,3-9,6-9,13s6,12,15,12,15-5,15-12S42,25,38,22Z"/><path fill="#745a00" d="M30.2,17h3.6a4.073,4.073,0,0,0,.207,1h1.027A3.927,3.927,0,0,1,35,16H29a3.927,3.927,0,0,1-.034,2h1.027A4.073,4.073,0,0,0,30.2,17Z"/><path fill="#fe9a82" d="M32,23h1.2s.4-.484,3.6,2.032,7.2,5.033,7.2,10.9S39.2,46,32,46,20,41.806,20,35.935s4-8.387,7.2-10.9S30.8,23,30.8,23Z"/><path fill="#f75749" d="M32,23h1.1s.367.323,3.3,2.645S43,30.29,43,35.71,38.6,45,32,45s-11-3.871-11-9.29,3.667-7.742,6.6-10.065S30.9,23,30.9,23Z"/><path fill="#9c1936" d="M32,22h1a7.648,7.648,0,0,0,3,4.258c2.667,2.129,6,4.258,6,9.226S38,44,32,44s-10-3.548-10-8.516,3.333-7.1,6-9.226A7.648,7.648,0,0,0,31,22Z"/><path fill="#ff7f00" d="M34.94,43l0-.013c-.653-.042-1.226-.7-1.576-1.7A14.824,14.824,0,0,1,33,38H31a14.824,14.824,0,0,1-.36,3.284c-.35,1-.923,1.661-1.576,1.7l0,.013a2.132,2.132,0,0,0-.06.5A2.784,2.784,0,0,0,32,46a2.784,2.784,0,0,0,3-2.5A2.132,2.132,0,0,0,34.94,43Z"/><path fill="#faba01" d="M33.96,43l0-.013c-.435-.042-.817-.7-1.05-1.7A21.841,21.841,0,0,1,32.667,38H31.333a21.841,21.841,0,0,1-.24,3.284c-.233,1-.615,1.661-1.05,1.7l0,.013a3.153,3.153,0,0,0-.04.5A2.292,2.292,0,0,0,32,46a2.292,2.292,0,0,0,2-2.5A3.153,3.153,0,0,0,33.96,43Z"/><ellipse cx="38" cy="36" fill="#fc6b00" rx=".825" ry="1.148" transform="rotate(-45.02 38 36)"/><ellipse cx="39" cy="39" fill="#fc6b00" rx=".825" ry="1.148" transform="rotate(-45.02 39 39)"/><ellipse cx="39.746" cy="35.5" fill="#fc6b00" rx=".413" ry=".574" transform="rotate(-45.02 39.746 35.5)"/><ellipse cx="34.746" cy="33.5" fill="#fc6b00" rx=".574" ry=".413"/><ellipse cx="32.746" cy="32.5" fill="#fc6b00" rx=".574" ry=".413"/><ellipse cx="37.746" cy="33.5" fill="#fc6b00" rx=".574" ry=".413"/><ellipse cx="35.746" cy="31.5" fill="#fc6b00" rx=".574" ry=".413"/><ellipse cx="33.746" cy="31.5" fill="#fc6b00" rx=".574" ry=".413"/><ellipse cx="40.746" cy="32.5" fill="#fc6b00" rx=".574" ry=".413"/><ellipse cx="38.746" cy="31.5" fill="#fc6b00" rx=".574" ry=".413"/><ellipse cx="39.746" cy="33.5" fill="#fc6b00" rx=".574" ry=".413"/><ellipse cx="32.746" cy="26.5" fill="#fc6b00" rx=".413" ry=".574"/><ellipse cx="32.746" cy="30.5" fill="#fc6b00" rx=".413" ry=".574"/><ellipse cx="32.746" cy="28.5" fill="#fc6b00" rx=".413" ry=".574"/><ellipse cx="31.746" cy="29.5" fill="#fc6b00" rx=".413" ry=".574"/><ellipse cx="34.746" cy="41.5" fill="#fc6b00" rx=".413" ry=".574" transform="rotate(-45.02 34.746 41.5)"/><ellipse cx="35.746" cy="40.5" fill="#fc6b00" rx=".413" ry=".574" transform="rotate(-45.02 35.746 40.5)"/><ellipse cx="36.746" cy="37.5" fill="#fc6b00" rx=".413" ry=".574" transform="rotate(-45.02 36.746 37.5)"/><ellipse cx="35.746" cy="38.5" fill="#fc6b00" rx=".413" ry=".574" transform="rotate(-45.02 35.746 38.5)"/><ellipse cx="37.746" cy="40.5" fill="#fc6b00" rx=".413" ry=".574" transform="rotate(-45.02 37.746 40.5)"/><ellipse cx="33.746" cy="38.5" fill="#fc6b00" rx=".413" ry=".574" transform="rotate(-45.02 33.746 38.5)"/><ellipse cx="34.746" cy="36.5" fill="#fc6b00" rx=".413" ry=".574" transform="rotate(-45.02 34.746 36.5)"/><ellipse cx="36.746" cy="29.5" fill="#fc6b00" rx=".574" ry=".413" transform="rotate(-45.02 36.746 29.5)"/><ellipse cx="38.746" cy="29.5" fill="#fc6b00" rx=".574" ry=".413" transform="rotate(-45.02 38.745 29.5)"/><ellipse cx="34.746" cy="28.5" fill="#fc6b00" rx=".574" ry=".413" transform="rotate(-45.02 34.746 28.5)"/><ellipse cx="35.746" cy="34.5" fill="#fc6b00" rx=".413" ry=".574" transform="rotate(-45.02 35.746 34.5)"/><ellipse cx="40.746" cy="37.5" fill="#fc6b00" rx=".413" ry=".574" transform="rotate(-45.02 40.745 37.5)"/><ellipse cx="32.746" cy="36.5" fill="#fc6b00" rx=".413" ry=".574" transform="rotate(-45.02 32.745 36.5)"/><ellipse cx="33.746" cy="34.5" fill="#fc6b00" rx=".413" ry=".574" transform="rotate(-45.02 33.745 34.5)"/><ellipse cx="24.653" cy="39" fill="#fc6b00" rx="1.148" ry=".825" transform="rotate(-44.98 24.654 39)"/><ellipse cx="23.908" cy="35.5" fill="#fc6b00" rx=".574" ry=".413" transform="rotate(-44.98 23.909 35.5)"/><ellipse cx="28.908" cy="33.5" fill="#fc6b00" rx=".574" ry=".413"/><ellipse cx="30.908" cy="32.5" fill="#fc6b00" rx=".574" ry=".413"/><ellipse cx="25.908" cy="33.5" fill="#fc6b00" rx=".574" ry=".413"/><ellipse cx="27.908" cy="31.5" fill="#fc6b00" rx=".574" ry=".413"/><ellipse cx="29.908" cy="31.5" fill="#fc6b00" rx=".574" ry=".413"/><ellipse cx="24.908" cy="31.5" fill="#fc6b00" rx=".574" ry=".413"/><ellipse cx="23.908" cy="33.5" fill="#fc6b00" rx=".574" ry=".413"/><ellipse cx="30.908" cy="26.5" fill="#fc6b00" rx=".413" ry=".574"/><ellipse cx="30.908" cy="30.5" fill="#fc6b00" rx=".413" ry=".574"/><ellipse cx="30.908" cy="28.5" fill="#fc6b00" rx=".413" ry=".574"/><ellipse cx="28.908" cy="41.5" fill="#fc6b00" rx=".574" ry=".413" transform="rotate(-44.98 28.908 41.5)"/><ellipse cx="27.908" cy="40.5" fill="#fc6b00" rx=".574" ry=".413" transform="rotate(-44.98 27.908 40.5)"/><ellipse cx="26.908" cy="37.5" fill="#fc6b00" rx=".574" ry=".413" transform="rotate(-44.98 26.907 37.5)"/><ellipse cx="25.908" cy="36.5" fill="#fc6b00" rx=".574" ry=".413" transform="rotate(-44.98 25.908 36.5)"/><ellipse cx="27.908" cy="38.5" fill="#fc6b00" rx=".574" ry=".413" transform="rotate(-44.98 27.908 38.5)"/><ellipse cx="25.908" cy="40.5" fill="#fc6b00" rx=".574" ry=".413" transform="rotate(-44.98 25.909 40.5)"/><ellipse cx="29.908" cy="38.5" fill="#fc6b00" rx=".574" ry=".413" transform="rotate(-44.98 29.908 38.5)"/><ellipse cx="28.908" cy="36.5" fill="#fc6b00" rx=".574" ry=".413" transform="rotate(-44.98 28.908 36.5)"/><ellipse cx="28.908" cy="30.5" fill="#fc6b00" rx=".413" ry=".574" transform="rotate(-44.98 28.908 30.5)"/><ellipse cx="26.908" cy="29.5" fill="#fc6b00" rx=".413" ry=".574" transform="rotate(-44.98 26.908 29.5)"/><ellipse cx="25.908" cy="30.5" fill="#fc6b00" rx=".413" ry=".574" transform="rotate(-44.98 25.908 30.5)"/><ellipse cx="28.908" cy="28.5" fill="#fc6b00" rx=".413" ry=".574" transform="rotate(-44.98 28.907 28.5)"/><ellipse cx="27.908" cy="34.5" fill="#fc6b00" rx=".574" ry=".413" transform="rotate(-44.98 27.907 34.5)"/><ellipse cx="22.908" cy="37.5" fill="#fc6b00" rx=".574" ry=".413" transform="rotate(-44.98 22.908 37.5)"/><ellipse cx="30.908" cy="36.5" fill="#fc6b00" rx=".574" ry=".413" transform="rotate(-44.98 30.907 36.5)"/><ellipse cx="29.908" cy="34.5" fill="#fc6b00" rx=".574" ry=".413" transform="rotate(-44.98 29.908 34.5)"/><path fill="#41023b" d="M17.368,31.952C18.58,27.054,22.637,24.522,26,22c4-3,3-6,3-6H25s1,3-3,6c-3.337,2.5-7.359,5.014-8.6,9.839A22.323,22.323,0,0,0,16,32C16.466,32,16.919,31.978,17.368,31.952Z"/><path fill="#360031" d="M17.366,31.96A12.266,12.266,0,0,1,20.964,26a21.7,21.7,0,0,1-3.67-.317,12.56,12.56,0,0,0-3.9,6.157A22.323,22.323,0,0,0,16,32Q16.7,32,17.366,31.96Z"/><path fill="#5c175b" d="M25.128,20.683a1.651,1.651,0,0,0,1.462.232,1.487,1.487,0,0,0,.7-.678A5.7,5.7,0,0,0,27.813,16H25a4.607,4.607,0,0,1-.781,3.693A3.754,3.754,0,0,0,25.128,20.683Z"/><path fill="#8c428b" d="M11.069,7.419c.781-.585,1.732-.61,1.9.332A3.388,3.388,0,0,1,12.316,10a8.791,8.791,0,0,1-.7.977A38,38,0,0,0,24.723,30.036,11.112,11.112,0,0,0,31,20c0-7-5-10-9-13s-3-6-3-6H13s.892,2.7-2.429,5.537c.064.372.123.745.2,1.113C10.87,7.573,10.967,7.5,11.069,7.419Z"/><path fill="#c75dc6" d="M12.973,7.751c-.172-.942-1.123-.917-1.9-.332-.1.077-.2.154-.3.231.23,1.129.517,2.237.845,3.327a8.791,8.791,0,0,0,.7-.977A3.388,3.388,0,0,0,12.973,7.751Z"/><path fill="#5c175b" d="M24.714 30.029a11.451 11.451 0 0 0 5.694-6.4A18.108 18.108 0 0 1 21 26c-.251 0-.49-.018-.737-.026A38.178 38.178 0 0 0 24.714 30.029zM19.892 4.863a5.5 5.5 0 0 1-.968-2.438A7.389 7.389 0 0 1 16 3a7.389 7.389 0 0 1-2.924-.575 5.5 5.5 0 0 1-.968 2.438A6.581 6.581 0 0 0 16 6 6.581 6.581 0 0 0 19.892 4.863z"/><path fill="#807d00" d="M18.924,2.425A3.566,3.566,0,0,1,19,1H13a3.566,3.566,0,0,1,.076,1.425A7.389,7.389,0,0,0,16,3,7.389,7.389,0,0,0,18.924,2.425Z"/><path fill="#c75dc6" d="M16.183,11.177a1,1,0,0,0-.119.881,1.428,1.428,0,0,0,.525.471,28.349,28.349,0,0,1,7.6,7.124,3.9,3.9,0,0,0,.939,1.03,1.651,1.651,0,0,0,1.462.232,1.487,1.487,0,0,0,.7-.678,6,6,0,0,0,.26-5.155,16,16,0,0,0-3.043-4.72,15.016,15.016,0,0,0-2.344-2.3,5.015,5.015,0,0,0-2.21-1.026C17.31,6.628,16.865,9.734,16.183,11.177Z"/><path fill="#5c175b" d="M20.964,26c-.023.022-.044.045-.066.067A49.063,49.063,0,0,1,26,22c4-3,3-6,3-6H27.813a5.7,5.7,0,0,1-.527,4.237,1.487,1.487,0,0,1-.7.678,1.651,1.651,0,0,1-1.462-.232,3.754,3.754,0,0,1-.909-.99h0A8.936,8.936,0,0,1,22,22c-1.023.767-2.11,1.536-3.162,2.371.457.546.932,1.077,1.419,1.6C20.494,25.975,20.722,26,20.964,26Z"/><path fill="#8c428b" d="M25.128,20.683a1.651,1.651,0,0,0,1.462.232,1.487,1.487,0,0,0,.7-.678A5.7,5.7,0,0,0,27.813,16H25l.017.06,0,.022a3.218,3.218,0,0,1,.078.538v.011a4.4,4.4,0,0,1-.055.988h0a5.174,5.174,0,0,1-.41,1.315l-.011.021a6.071,6.071,0,0,1-.4.737h0A3.754,3.754,0,0,0,25.128,20.683Z"/><path fill="#fdfdd7" d="M46.6,37.965A11.314,11.314,0,0,0,47,35c0-7-5-10-9-13s-3-6-3-6H29s1,3-3,6a45.217,45.217,0,0,0-5.386,4.342A37.867,37.867,0,0,0,46.6,37.965Z"/><path fill="#8c428b" d="M37.6 22.613c3.733 2.806 8.4 5.613 8.4 12.161a10.522 10.522 0 0 1-.478 3.137q.537.034 1.077.054A11.314 11.314 0 0 0 47 35c0-7-5-10-9-13a7.3 7.3 0 0 1-2.966-4H34.007A9.549 9.549 0 0 0 37.6 22.613zM21.156 26.907A39.165 39.165 0 0 1 26.4 22.613 9.549 9.549 0 0 0 29.993 18H28.966A7.3 7.3 0 0 1 26 22a45.217 45.217 0 0 0-5.386 4.342C20.8 26.53 20.971 26.723 21.156 26.907z"/><path fill="#807d00" d="M30.2,17h3.6a4.073,4.073,0,0,0,.207,1h1.027A3.927,3.927,0,0,1,35,16H29a3.927,3.927,0,0,1-.034,2h1.027A4.073,4.073,0,0,0,30.2,17Z"/><path fill="#ffb3a1" d="M44,35.935c0-5.87-4-8.387-7.2-10.9S33.2,23,33.2,23H30.8s-.4-.484-3.6,2.032a37.709,37.709,0,0,0-4.231,3.558,37.828,37.828,0,0,0,20.856,9.178A10.066,10.066,0,0,0,44,35.935Z"/><path fill="#f7786d" d="M43,35.71c0-5.42-3.667-7.742-6.6-10.065S33.1,23,33.1,23H30.9s-.367.323-3.3,2.645a32.259,32.259,0,0,0-4.037,3.46A37.824,37.824,0,0,0,42.8,37.638,9.331,9.331,0,0,0,43,35.71Z"/><path fill="#c2294a" d="M42,35.484c0-4.968-3.333-7.1-6-9.226A7.648,7.648,0,0,1,33,22H31a7.648,7.648,0,0,1-3,4.258,27.443,27.443,0,0,0-3.825,3.348,37.815,37.815,0,0,0,17.586,7.877A8.569,8.569,0,0,0,42,35.484Z"/><path fill="#ff9202" d="M38.8 35.679a1.271 1.271 0 0 0-1.4-.626c-.44.177-.524.745-.189 1.268a1.428 1.428 0 0 0 .135.155c.459.134.919.264 1.384.381A.849.849 0 0 0 38.8 35.679zM39.443 35.027c-.22.088-.262.372-.095.634a.638.638 0 0 0 .7.313c.22-.089.262-.373.094-.634A.634.634 0 0 0 39.443 35.027zM35.3 33.621c.093-.218-.078-.449-.381-.515a.634.634 0 0 0-.717.274c-.093.218.078.448.381.515A.636.636 0 0 0 35.3 33.621zM32.578 32.9a.636.636 0 0 0 .717-.274c.093-.218-.078-.449-.381-.515a.634.634 0 0 0-.717.274C32.1 32.6 32.275 32.828 32.578 32.9zM37.578 33.9a.636.636 0 0 0 .717-.274c.093-.218-.078-.449-.381-.515a.634.634 0 0 0-.717.274C37.1 33.6 37.275 33.828 37.578 33.9zM35.578 31.9a.636.636 0 0 0 .717-.274c.093-.218-.078-.449-.381-.515a.634.634 0 0 0-.717.274C35.1 31.6 35.275 31.828 35.578 31.9zM33.578 31.9a.636.636 0 0 0 .717-.274c.093-.218-.078-.449-.381-.515a.634.634 0 0 0-.717.274C33.1 31.6 33.275 31.828 33.578 31.9zM40.578 32.9a.636.636 0 0 0 .717-.274c.093-.218-.078-.449-.381-.515a.634.634 0 0 0-.717.274C40.1 32.6 40.275 32.828 40.578 32.9zM38.578 31.9a.636.636 0 0 0 .717-.274c.093-.218-.078-.449-.381-.515a.634.634 0 0 0-.717.274C38.1 31.6 38.275 31.828 38.578 31.9zM39.2 33.38c-.093.218.078.448.381.515a.636.636 0 0 0 .717-.274c.093-.218-.078-.449-.381-.515A.634.634 0 0 0 39.2 33.38zM32.626 27.049c.217.093.448-.078.514-.381a.636.636 0 0 0-.274-.717c-.218-.093-.448.078-.515.382A.635.635 0 0 0 32.626 27.049zM32.626 31.049c.217.093.448-.078.514-.381a.636.636 0 0 0-.274-.717c-.218-.093-.448.078-.515.382A.635.635 0 0 0 32.626 31.049zM32.626 29.049c.217.093.448-.078.514-.381a.636.636 0 0 0-.274-.717c-.218-.093-.448.078-.515.382A.635.635 0 0 0 32.626 29.049zM31.626 30.049c.217.093.448-.078.514-.381a.636.636 0 0 0-.274-.717c-.218-.093-.448.078-.515.382A.635.635 0 0 0 31.626 30.049zM36.906 29.9a.635.635 0 0 0 .313-.7c-.088-.22-.372-.262-.634-.094a.636.636 0 0 0-.313.7C36.361 30.023 36.645 30.065 36.906 29.9zM38.906 29.9a.635.635 0 0 0 .313-.7c-.088-.22-.372-.262-.634-.094a.636.636 0 0 0-.313.7C38.361 30.023 38.645 30.065 38.906 29.9zM34.906 28.9a.635.635 0 0 0 .313-.7c-.088-.22-.372-.262-.634-.094a.636.636 0 0 0-.313.7C34.361 29.023 34.645 29.065 34.906 28.9zM36.049 34.974c.22-.089.262-.373.094-.634a.634.634 0 0 0-.7-.313c-.22.088-.262.372-.095.634A.638.638 0 0 0 36.049 34.974zM41.143 37.34a.634.634 0 0 0-.7-.313.3.3 0 0 0-.167.188c.292.06.589.107.883.16C41.152 37.363 41.151 37.352 41.143 37.34zM33.443 34.027c-.22.088-.262.372-.095.634a.638.638 0 0 0 .7.313c.22-.089.262-.373.094-.634A.634.634 0 0 0 33.443 34.027zM30.74 32.106c-.3.066-.474.3-.382.515a.637.637 0 0 0 .717.274c.3-.067.474-.3.382-.515A.636.636 0 0 0 30.74 32.106zM27.358 31.621a.637.637 0 0 0 .717.274c.3-.067.474-.3.382-.515a.636.636 0 0 0-.717-.274C27.437 31.172 27.266 31.4 27.358 31.621zM29.358 31.621a.637.637 0 0 0 .717.274c.3-.067.474-.3.382-.515a.636.636 0 0 0-.717-.274C29.437 31.172 29.266 31.4 29.358 31.621zM31.028 27.049a.634.634 0 0 0 .274-.716c-.066-.3-.3-.475-.515-.382a.637.637 0 0 0-.274.717C30.579 26.971 30.81 27.142 31.028 27.049zM31.028 31.049a.634.634 0 0 0 .274-.716c-.066-.3-.3-.475-.515-.382a.637.637 0 0 0-.274.717C30.579 30.971 30.81 31.142 31.028 31.049zM31.028 29.049a.634.634 0 0 0 .274-.716c-.066-.3-.3-.475-.515-.382a.637.637 0 0 0-.274.717C30.579 28.971 30.81 29.142 31.028 29.049zM28.747 30.9c.262.167.545.125.634-.095a.635.635 0 0 0-.313-.7c-.261-.168-.545-.126-.634.094A.638.638 0 0 0 28.747 30.9zM26.747 29.9c.262.167.545.125.634-.095a.635.635 0 0 0-.313-.7c-.261-.168-.545-.126-.634.094A.638.638 0 0 0 26.747 29.9zM26.381 30.8a.635.635 0 0 0-.313-.7c-.261-.168-.545-.126-.634.094a.5.5 0 0 0 .064.43c.167.123.338.241.508.361A.33.33 0 0 0 26.381 30.8zM28.747 28.9c.262.167.545.125.634-.095a.635.635 0 0 0-.313-.7c-.261-.168-.545-.126-.634.094A.638.638 0 0 0 28.747 28.9z"/><ellipse cx="20" cy="9" fill="#f6fafd" rx="1.65" ry="2.297" transform="rotate(-45.02 20 9)"/><ellipse cx="24" cy="11" fill="#f6fafd" rx=".825" ry="1.148" transform="rotate(-45.02 24 11)"/><ellipse cx="21.746" cy="12.5" fill="#f6fafd" rx=".413" ry=".574" transform="rotate(-45.02 21.745 12.5)"/><ellipse cx="42" cy="36" fill="#f6fafd" rx=".825" ry="1.148" transform="rotate(-45.02 42 36)"/><ellipse cx="40.746" cy="34.5" fill="#f6fafd" rx=".413" ry=".574" transform="rotate(-45.02 40.746 34.5)"/></g></svg>