<svg xmlns="http://www.w3.org/2000/svg" viewBox="0 0 48 48"><g data-name="05-cherry"><path fill="#4f4600" d="M25,1V6.52A3.869,3.869,0,0,0,23,6a2.741,2.741,0,0,0-1.95,1.05L21,7V1Z"/><path fill="#b31700" d="M12.18,19.44a7.418,7.418,0,0,0,2.82.6,7.509,7.509,0,0,0,2.83-.6A3.467,3.467,0,0,1,19.47,19h.92C25.74,19,29,23.67,29,29.44A13.617,13.617,0,0,1,15,43,13.617,13.617,0,0,1,1,29.44C1,23.67,4.26,19,9.62,19h.92A3.5,3.5,0,0,1,12.18,19.44Z"/><path fill="#da1202" d="M45.955,30.448c2.66,5.66.11,12.419-6.139,15.319s-13.109.49-15.759-5.18c-2.05-4.349-1.16-9.059,3.03-11l.72-.33a3.133,3.133,0,0,1,1.44-.27,6.026,6.026,0,0,0,4.419-2.05,3.167,3.167,0,0,1,1.13-.92l.72-.33C39.706,23.749,43.905,26.088,45.955,30.448Z"/><path fill="#8bc808" d="M25,5c7.53,0,16,3,16,12Z"/><path fill="#589e00" d="M25,5,41,17C31.59,17,25,11,25,5Z"/><path fill="#4f4600" d="M25,1V6.52A3.869,3.869,0,0,0,23,6a2.741,2.741,0,0,0-1.95,1.05L21,7V1Z"/><path fill="#4f4600" d="M23,6a3.869,3.869,0,0,1,2,.52v-2A3.869,3.869,0,0,0,23,4Z"/><path fill="#403700" d="M21.05,5.05,21,5V7l.05.05A2.741,2.741,0,0,1,23,6V4A2.741,2.741,0,0,0,21.05,5.05Z"/><path fill="#745a00" d="M23,4a3.869,3.869,0,0,1,2,.52V1H23Z"/><path fill="#b31700" d="M12.18,19.44a7.418,7.418,0,0,0,2.82.6,7.509,7.509,0,0,0,2.83-.6A3.467,3.467,0,0,1,19.47,19h.92C25.74,19,29,23.67,29,29.44A13.617,13.617,0,0,1,15,43,13.617,13.617,0,0,1,1,29.44C1,23.67,4.26,19,9.62,19h.92A3.5,3.5,0,0,1,12.18,19.44Z"/><path fill="#961300" d="M27.087,29.588l.72-.33a3.04,3.04,0,0,1,1.178-.252c-.014-.457-.046-.905-.1-1.345a7.378,7.378,0,0,1-1.209.767,6.716,6.716,0,0,1-2.429.56,3.133,3.133,0,0,0-1.44.27l-.72.33c-4.19,1.94-5.08,6.65-3.03,11a11.013,11.013,0,0,0,.7,1.257,13.758,13.758,0,0,0,3.067-1.8C22.1,35.851,23.071,31.447,27.087,29.588Z"/><path fill="#961300" d="M20.39,19h-.92a3.467,3.467,0,0,0-1.64.44,7.509,7.509,0,0,1-2.83.6,7.418,7.418,0,0,1-2.82-.6A3.5,3.5,0,0,0,10.54,19H9.62C4.26,19,1,23.67,1,29.44A13.617,13.617,0,0,0,15,43,13.617,13.617,0,0,0,29,29.44C29,23.67,25.74,19,20.39,19ZM17,40A10.737,10.737,0,0,1,6,29.265C6,24.7,8.561,21,12.773,21H13.5a2.739,2.739,0,0,1,1.288.348A5.793,5.793,0,0,0,17,21.823a5.866,5.866,0,0,0,2.224-.475A2.711,2.711,0,0,1,20.512,21h.723C25.439,21,28,24.7,28,29.265A10.737,10.737,0,0,1,17,40Z"/><path fill="#da1202" d="M45.955 30.448c2.66 5.66.11 12.419-6.139 15.319s-13.109.49-15.759-5.18c-2.05-4.349-1.16-9.059 3.03-11l.72-.33a3.133 3.133 0 0 1 1.44-.27 6.026 6.026 0 0 0 4.419-2.05 3.167 3.167 0 0 1 1.13-.92l.72-.33C39.706 23.749 43.905 26.088 45.955 30.448zM21.235 21h-.723a2.711 2.711 0 0 0-1.288.348 4.5 4.5 0 0 1-1.215.366 3.244 3.244 0 0 1 .41.262l-1.411-.058A2.093 2.093 0 0 1 15 23a2.224 2.224 0 0 1-2-1H11.555a4.783 4.783 0 0 1 2.43-.931A2.362 2.362 0 0 0 13.5 21h-.723a6.281 6.281 0 0 0-5.754 3.672C7.221 27.077 11.606 29 17 29s9.78-1.924 9.981-4.329A6.276 6.276 0 0 0 21.235 21z"/><path fill="#b31700" d="M13,22a2.224,2.224,0,0,0,2,1,2.093,2.093,0,0,0,2.008-1.082l1.411.058a3.244,3.244,0,0,0-.41-.262A6.02,6.02,0,0,1,17,21.823a5.793,5.793,0,0,1-2.216-.475,2.989,2.989,0,0,0-.8-.279,4.783,4.783,0,0,0-2.43.931Z"/><path fill="#780f00" d="M18.9,22.559a1.692,1.692,0,0,0-.476-.583l-1.411-.058A2.093,2.093,0,0,1,15,23a2.224,2.224,0,0,1-2-1H11.555a1.675,1.675,0,0,0-.45.559A4.043,4.043,0,0,0,15,25,4.043,4.043,0,0,0,18.9,22.559Z"/><path fill="#b31700" d="M45.955,30.448c-2.05-4.36-6.249-6.7-10.439-4.76l-.72.33a3.167,3.167,0,0,0-1.13.92,6.026,6.026,0,0,1-4.419,2.05,3.133,3.133,0,0,0-1.44.27l-.72.33c-4.19,1.94-5.08,6.65-3.03,11,2.65,5.67,9.5,8.08,15.759,5.18S48.615,36.108,45.955,30.448ZM40.013,42.991c-5.216,2.373-10.924.4-13.132-4.238-1.708-3.559-.967-7.412,2.525-9l.6-.27a2.653,2.653,0,0,1,1.2-.221,5.676,5.676,0,0,0,2.024-.458,5.568,5.568,0,0,0,1.658-1.219,2.633,2.633,0,0,1,.942-.753l.6-.27c3.491-1.587,6.991.328,8.7,3.895C47.346,35.088,45.221,40.618,40.013,42.991Z"/><path fill="#fe4c4a" d="M36.43,26.563l-.6.27a2.633,2.633,0,0,0-.942.753,5.568,5.568,0,0,1-1.658,1.219,5.676,5.676,0,0,1-2.024.458,2.653,2.653,0,0,0-1.2.221l-.6.27a5.737,5.737,0,0,0-3.355,6.165c2.125,2.147,7.117,2.138,12.037-.218A16.378,16.378,0,0,0,44.9,30.016C43.119,26.739,39.773,25.044,36.43,26.563Z"/><path fill="#780f00" d="M33.321,33.287a5.018,5.018,0,0,0,.531-.208c.052-.025.1-.053.146-.079l-.02.01C33.757,33.113,33.538,33.2,33.321,33.287Z"/><path fill="#b31700" d="M33.011,31.264A2.216,2.216,0,0,0,34.37,29.65a11.321,11.321,0,0,0-1.682.625A10.884,10.884,0,0,0,30.916,31.3,2.356,2.356,0,0,0,33.011,31.264Z"/><path fill="#961300" d="M36.173,30.633a3.282,3.282,0,0,0,.2-1.236,5.639,5.639,0,0,0-2,.253,2.216,2.216,0,0,1-1.359,1.614,2.356,2.356,0,0,1-2.1.039,4.586,4.586,0,0,0-1.411,1.43,3.829,3.829,0,0,0,2.391.787,4.564,4.564,0,0,0,1.425-.233c.217-.086.436-.174.657-.277L34,33A4.35,4.35,0,0,0,36.173,30.633Z"/><path fill="#3f7000" d="M33.434,29.965c-1.015-3.45-1.73-7.039-2.354-10.269-1.314-6.8-2.352-12.169-5.574-14.039A4.891,4.891,0,0,0,23,5a3.684,3.684,0,0,0-2.684,1.37c-1.976,2.131-3.807,6.9-5.713,14.9q-.187.788-.376,1.618A2.729,2.729,0,0,0,15,23a2.444,2.444,0,0,0,1.335-.362c.067-.288.134-.564.2-.844,1.789-7.5,3.552-12.236,5.247-14.065A1.835,1.835,0,0,1,23,7a2.874,2.874,0,0,1,1.5.385c2.439,1.415,3.448,6.64,4.618,12.691a110.216,110.216,0,0,0,2.5,10.776c.067.223.131.447.2.669a2.613,2.613,0,0,0,1.2-.257,2.758,2.758,0,0,0,.68-.443C33.6,30.537,33.519,30.251,33.434,29.965Z"/><ellipse cx="15" cy="23" fill="#3f7000" rx="2" ry="1"/><ellipse cx="33" cy="31" fill="#3f7000" rx="1.612" ry=".807" transform="rotate(-25.054 32.999 31)"/><path fill="#63b300" d="M20.783 7.729c-1.7 1.829-3.458 6.562-5.247 14.065-.067.28-.134.556-.2.844a2.34 2.34 0 0 1-.828.313A2.664 2.664 0 0 0 15 23a2.444 2.444 0 0 0 1.335-.362c.067-.288.134-.564.2-.844 1.789-7.5 3.552-12.236 5.247-14.065a2.448 2.448 0 0 1 .869-.651A3.163 3.163 0 0 0 22 7 1.835 1.835 0 0 0 20.783 7.729zM33.434 29.965c-1.015-3.45-1.73-7.039-2.354-10.269-1.314-6.8-2.352-12.169-5.574-14.039A4.891 4.891 0 0 0 23 5a2.866 2.866 0 0 0-.332.041 4.77 4.77 0 0 1 1.838.616c3.222 1.87 4.26 7.24 5.574 14.039.624 3.23 1.339 6.819 2.354 10.269.085.286.168.572.257.856a2.758 2.758 0 0 1-.68.443c-.085.039-.165.068-.246.1.016.053.031.107.048.16a2.613 2.613 0 0 0 1.2-.257 2.758 2.758 0 0 0 .68-.443C33.6 30.537 33.519 30.251 33.434 29.965z"/><path fill="#fe4c4a" d="M44.666,32.415a14.263,14.263,0,0,0-1.643-3.487c-.174-.284-.36-.556-.551-.82a1.738,1.738,0,0,0-2.036-1.036,2.629,2.629,0,0,0-1.375,3.054c.007.036.02.068.028.1a3.06,3.06,0,0,0,.191.566c.037.038.074.075.112.11.362.33.713.685,1.052,1.055a19.209,19.209,0,0,1,2.843,4.086,2.846,2.846,0,0,0,.488.751.541.541,0,0,0,.7.118,1.081,1.081,0,0,0,.3-.547A7.25,7.25,0,0,0,44.666,32.415Z"/><path fill="#f7786d" d="M44.154,31.049a18.009,18.009,0,0,0-1.131-2.121c-.174-.284-.36-.556-.551-.82a1.738,1.738,0,0,0-2.036-1.036,2.628,2.628,0,0,0-1.375,3.054c.007.036.02.068.028.1a3.06,3.06,0,0,0,.191.566c.037.038.074.075.111.11.363.33.714.685,1.053,1.055a18.375,18.375,0,0,1,1.231,1.515A14.937,14.937,0,0,0,44.154,31.049Z"/><path fill="#fe4c4a" d="M26.564,25.709a8.724,8.724,0,0,0-1.188-2.248c-.118-.16-.245-.313-.378-.461a3.192,3.192,0,0,0-.967-.766c-.052-.025-.105-.049-.159-.07a2.159,2.159,0,0,0-2.226.336A1.956,1.956,0,0,0,21,23.947c0,.014,0,.027,0,.041a2.08,2.08,0,0,0,2.124,1.986c.064,0,.124-.013.187-.018.339.211.679.419,1.015.635a3.6,3.6,0,0,1,.967,1.176.571.571,0,0,0,.129.151A.521.521,0,0,0,25.7,28a2.471,2.471,0,0,0,.7-.054.8.8,0,0,0,.5-.274C27.215,27.209,26.727,26.167,26.564,25.709Z"/><path fill="#da1202" d="M26.582,25.755a4.857,4.857,0,0,1-1.642,1.468c.119.174.231.357.357.544a.571.571,0,0,0,.129.151A.521.521,0,0,0,25.7,28a2.471,2.471,0,0,0,.7-.054.8.8,0,0,0,.5-.274C27.206,27.223,26.757,26.232,26.582,25.755Z"/><ellipse cx="5" cy="35" fill="#b31700" rx="1.65" ry="2.297" transform="rotate(-45.02 5 35)"/><ellipse cx="8" cy="38" fill="#b31700" rx=".825" ry="1.148" transform="rotate(-45.02 8 38)"/><path fill="#8bc808" d="M25,5c7.53,0,16,3,16,12Z"/><path fill="#589e00" d="M25,5,41,17C31.59,17,25,11,25,5Z"/><path fill="#745a00" d="M23 4V1H21V5l.05.05A2.741 2.741 0 0 1 23 4zM23 5a4.972 4.972 0 0 1 2 .406V4.52A3.869 3.869 0 0 0 23 4z"/><path fill="#4f4600" d="M22.668,5.041A2.866,2.866,0,0,1,23,5V4a2.741,2.741,0,0,0-1.95,1.05L21,5v.746a3.346,3.346,0,0,1,1.668-.7Z"/><path fill="#977b00" d="M25,4.52V1H23V4A3.869,3.869,0,0,1,25,4.52Z"/><path fill="#b31700" d="M18.419,21.976l-1.411-.058c0,.01-.013.03-.019.044q.6.849,1.249,1.664a3.066,3.066,0,0,0,.657-1.067A1.692,1.692,0,0,0,18.419,21.976Z"/><path fill="#da1202" d="M27.954 28.271a9.832 9.832 0 0 0-.973-3.6 2.38 2.38 0 0 1-.4 1.084c.059.161.148.382.23.62l.014.04c.024.07.045.14.065.212.007.023.015.046.021.069.018.069.032.136.046.2.005.025.012.05.016.075a1.787 1.787 0 0 1 .019.188c0 .025.006.051.006.075a.948.948 0 0 1-.016.172.607.607 0 0 1-.007.063.56.56 0 0 1-.084.2.8.8 0 0 1-.5.274 2.471 2.471 0 0 1-.7.054.521.521 0 0 1-.271-.077.571.571 0 0 1-.129-.151c-.126-.187-.237-.369-.356-.542v0a10.938 10.938 0 0 1-2.379 1.014c.394.354.794.7 1.2 1.041l.044-.02a3.133 3.133 0 0 1 1.44-.27 6.716 6.716 0 0 0 2.429-.56C27.759 28.389 27.861 28.324 27.954 28.271zM18.009 21.714h0c-.182.034-.36.061-.53.079a4.513 4.513 0 0 1-.476.03c-.033 0-.079-.006-.115-.007.034.049.069.1.1.146.006-.014.016-.034.019-.044l1.411.058a3.244 3.244 0 0 0-.41-.262zM31.009 28.672a5.888 5.888 0 0 1-1.762.316c-.088 0-.175.015-.262.018h0a3.589 3.589 0 0 0-.574.064A2.8 2.8 0 0 0 28 29.2v0c-.064.023-.129.033-.191.061l-.72.33a8.028 8.028 0 0 0-.732.387c-.081.049-.154.1-.232.156-.145.094-.291.187-.425.289-.079.06-.15.126-.226.189l-.03.027.031-.027q.762.563 1.554 1.086c.02-.028.041-.055.061-.082.034-.047.067-.093.1-.138a5.47 5.47 0 0 1 .56-.624c.013-.011.027-.021.039-.032.032-.03.068-.056.1-.085a5.513 5.513 0 0 1 .532-.415c.061-.043.123-.084.186-.125.118-.075.239-.146.365-.215.141-.077.281-.156.433-.225l.6-.27a2.654 2.654 0 0 1 1.167-.219C31.119 29.067 31.061 28.87 31.009 28.672zM45.955 30.448c-2.05-4.36-6.249-6.7-10.439-4.76l-.72.33a3.167 3.167 0 0 0-1.13.92 4.583 4.583 0 0 1-.844.774c.1.378.2.754.307 1.131.031-.013.073-.025.1-.038a5.568 5.568 0 0 0 1.658-1.219 2.633 2.633 0 0 1 .942-.753l.6-.27a6.528 6.528 0 0 1 .641-.251c.074-.025.149-.041.223-.063.138-.04.276-.083.414-.113.092-.02.183-.03.274-.046.12-.02.239-.043.357-.056.1-.01.2-.012.3-.017s.213-.014.318-.014.218.01.327.016.19.01.284.02c.116.013.23.034.344.054.084.015.169.028.253.047.122.027.241.061.36.1.074.021.147.041.219.065.127.042.252.091.376.142.062.025.124.049.186.077.131.059.259.123.386.191.052.028.1.054.154.083.134.076.265.157.395.243.041.027.082.054.123.083q.2.141.4.3l.093.076q.206.169.4.356l.066.064c.136.132.267.27.395.414l.045.051c.132.151.26.309.383.472l.026.035c.127.17.25.346.367.529l.01.017a9.5 9.5 0 0 1 .577 1.026 8.775 8.775 0 0 1 .081 7.429c.465.034.931.061 1.4.078A10.872 10.872 0 0 0 45.955 30.448z"/><path fill="#da1202" d="M33.453 30.026a1.353 1.353 0 0 1 .777.072 1.8 1.8 0 0 0 .14-.448c-.3.085-.616.193-.936.315zM30.916 31.3a2.086 2.086 0 0 0 .588.189.83.83 0 0 1 .167-.444c-.019-.065-.039-.13-.059-.2C31.367 31 31.129 31.15 30.916 31.3z"/><path fill="#b31700" d="M28.885 27.661c-.6-4.919-3.709-8.661-8.5-8.661h-.92a3.467 3.467 0 0 0-1.64.44 4.206 4.206 0 0 1-.783.292c-.142.554-.284 1.123-.426 1.713.086.125.177.247.264.371.036 0 .082.007.115.007.138 0 .3-.012.476-.03s.35-.046.53-.079h0c.091-.016.181-.036.27-.055.141-.032.28-.065.41-.1.038-.011.071-.024.108-.036a2.808 2.808 0 0 0 .427-.171A2.711 2.711 0 0 1 20.512 21h.723a6.757 6.757 0 0 1 .877.061c.088.012.173.03.26.045.2.034.389.075.576.126.091.024.181.051.269.079.188.061.37.131.547.208.071.031.143.058.212.092a5.86 5.86 0 0 1 .7.394l.009.006a6.187 6.187 0 0 1 .625.482c.056.049.109.1.164.153.145.136.285.277.418.426.055.061.109.123.161.186q.2.244.385.51c.036.052.074.1.109.156a7.911 7.911 0 0 1 .433.747h0a9.832 9.832 0 0 1 .973 3.6c-.093.053-.2.118-.278.157a6.716 6.716 0 0 1-2.429.56 3.133 3.133 0 0 0-1.44.27l-.044.02c.556.461 1.128.9 1.709 1.331.076-.063.147-.129.226-.189.134-.1.28-.2.425-.289.078-.051.151-.107.232-.156a8.028 8.028 0 0 1 .732-.387l.72-.33c.062-.028.127-.038.191-.061v0a2.8 2.8 0 0 1 .412-.129 3.086 3.086 0 0 1 .574-.064h0c-.014-.457-.046-.905-.1-1.344zM34.37 29.65a1.8 1.8 0 0 1-.14.448.476.476 0 0 1 .231.22c.188.4-.314 1.037-1.12 1.413s-1.613.355-1.8-.049a.435.435 0 0 1-.035-.19 2.086 2.086 0 0 1-.588-.189 4.586 4.586 0 0 0-1.411 1.43 3.829 3.829 0 0 0 2.391.787 4.564 4.564 0 0 0 1.425-.233c.217-.086.436-.174.657-.277L34 33a4.35 4.35 0 0 0 2.175-2.367 3.282 3.282 0 0 0 .2-1.236A5.639 5.639 0 0 0 34.37 29.65z"/><path fill="#4e8c00" d="M34.461,30.318a.476.476,0,0,0-.231-.22,1.353,1.353,0,0,0-.777-.072c.078.266.155.531.238.8h0a2.823,2.823,0,0,1-.28.216.269.269,0,0,0-.027.02,3.034,3.034,0,0,1-.373.207,2.847,2.847,0,0,1-.346.134c-.061.02-.117.032-.176.046s-.094.026-.139.034a2.186,2.186,0,0,1-.232.032c-.017,0-.034,0-.051.006a2.429,2.429,0,0,1-.254.005h0c-.017-.053-.032-.107-.048-.16.081-.029.161-.058.246-.1a2.758,2.758,0,0,0,.68-.443c-.049-.157-.1-.315-.142-.473l-.005-.018c-.036-.122-.074-.243-.11-.365-.081-.275-.148-.555-.226-.832s-.159-.578-.236-.868C31.2,25.351,30.6,22.4,30.08,19.7c-.507-2.622-.974-5.028-1.54-7.107-.758-2.783-1.7-4.965-3.154-6.274-.126-.113-.253-.224-.386-.324a5.281,5.281,0,0,0-.494-.334A4.73,4.73,0,0,0,23,5.116c-.112-.022-.217-.061-.332-.075A3.346,3.346,0,0,0,21,5.746a5.43,5.43,0,0,0-.684.624C18.527,8.3,16.857,12.4,15.143,19.1c.176.3.353.6.537.9.07.112.143.222.214.333.032-.127.064-.249.1-.375C17.623,13.518,19.231,9.4,20.783,7.729A1.835,1.835,0,0,1,22,7a3.163,3.163,0,0,1,.652.078A.973.973,0,0,1,23,7a2.874,2.874,0,0,1,1.5.385c2.439,1.415,3.448,6.64,4.618,12.691.523,2.7,1.118,5.657,1.893,8.6.052.2.11.395.164.593.144.53.281,1.061.439,1.587.02.066.04.131.059.2a.83.83,0,0,0-.167.444.435.435,0,0,0,.035.19c.189.4.995.426,1.8.049S34.649,30.722,34.461,30.318Z"/><path fill="#8bc808" d="M20.783 7.729c-1.552 1.674-3.16 5.789-4.793 12.226-.032.126-.064.248-.1.375.237.375.477.749.727 1.115.142-.59.284-1.159.426-1.713 1.613-6.309 3.2-10.348 4.736-12a3.338 3.338 0 0 1 .42-.384l.066-.049a1.7 1.7 0 0 1 .383-.218A3.163 3.163 0 0 0 22 7 1.835 1.835 0 0 0 20.783 7.729zM33.434 29.965c-.109-.371-.2-.748-.3-1.122s-.21-.753-.307-1.131c-.7-2.733-1.253-5.484-1.742-8.016-.413-2.137-.8-4.133-1.234-5.924-.1-.4-.2-.793-.3-1.175-.027-.1-.055-.2-.083-.3-.081-.285-.163-.564-.248-.836-.032-.105-.066-.209-.1-.312q-.135-.412-.278-.8c-.028-.077-.056-.156-.085-.231A14.046 14.046 0 0 0 27.9 8.266c-.019-.034-.039-.065-.059-.1q-.2-.357-.428-.677c-.036-.052-.073-.1-.11-.152-.143-.2-.293-.381-.448-.555-.036-.04-.071-.082-.108-.121a5.859 5.859 0 0 0-.6-.561h0c-.053-.043-.109-.082-.163-.123h0a5.163 5.163 0 0 0-.473-.32c-.055-.032-.114-.055-.17-.084-.111-.059-.221-.117-.336-.167A4.972 4.972 0 0 0 23 5a2.866 2.866 0 0 0-.332.041h0c.115.014.22.053.332.075a4.73 4.73 0 0 1 1.506.541A5.281 5.281 0 0 1 25 5.991c.133.1.26.211.386.324 1.455 1.309 2.4 3.491 3.154 6.274.566 2.079 1.033 4.485 1.54 7.107.522 2.7 1.12 5.655 1.892 8.569q.115.435.236.868c.078.277.145.557.226.832.036.122.074.243.11.365l.005.018c.047.158.093.316.142.473a2.758 2.758 0 0 1-.68.443c-.085.039-.165.068-.246.1.016.053.031.107.048.16h0a2.429 2.429 0 0 0 .254-.005l.051-.006c.075-.007.152-.017.232-.032.045-.008.093-.022.139-.034s.115-.026.176-.046a3.022 3.022 0 0 0 .346-.134 2.962 2.962 0 0 0 .373-.207.269.269 0 0 1 .027-.02 2.944 2.944 0 0 0 .28-.216h0c-.083-.264-.16-.529-.238-.8z"/><path fill="#fda893" d="M41.676,33.475a14.956,14.956,0,0,0,2.477-2.425h0c-.162-.367-.34-.724-.527-1.072l-.013-.025c-.188-.349-.386-.691-.591-1.024-.174-.284-.36-.556-.551-.82a1.738,1.738,0,0,0-2.036-1.036,2.628,2.628,0,0,0-1.375,3.054c.007.036.02.068.028.1a3.06,3.06,0,0,0,.191.566c.037.038.074.075.111.11.363.33.714.685,1.053,1.055.224.244.44.5.651.761.2.244.391.5.58.754Z"/><path fill="#f7786d" d="M40.444,31.96c-.339-.37-.69-.725-1.053-1.055-.037-.035-.074-.072-.111-.11a3.06,3.06,0,0,1-.191-.566c-.008-.035-.021-.067-.028-.1a2.628,2.628,0,0,1,1.375-3.054,1.738,1.738,0,0,1,2.036,1.036c.191.264.377.536.551.82.2.333.4.676.591,1.024l.013.025q.283.521.527,1.072h0a10.926,10.926,0,0,0,.743-1.033q-.164-.3-.345-.584l-.01-.017c-.117-.183-.24-.359-.367-.529l-.026-.035q-.184-.245-.383-.472l-.045-.051q-.19-.216-.395-.414l-.066-.064q-.195-.186-.4-.356l-.093-.076q-.2-.157-.4-.3c-.041-.029-.082-.056-.123-.083-.13-.086-.261-.167-.395-.243-.051-.029-.1-.056-.154-.083-.127-.068-.256-.132-.386-.191-.062-.027-.124-.052-.186-.077-.124-.051-.249-.1-.376-.142-.072-.024-.145-.044-.219-.065-.119-.035-.239-.069-.36-.1-.084-.019-.169-.032-.253-.047-.114-.02-.228-.041-.344-.054-.094-.01-.189-.014-.284-.02S39.071,26,38.961,26s-.212.008-.318.014-.2.007-.3.017c-.118.013-.237.036-.357.056-.091.016-.182.026-.274.046-.138.03-.276.073-.414.113-.074.022-.149.038-.223.063a6.528,6.528,0,0,0-.641.251l-.6.27a2.633,2.633,0,0,0-.942.753,5.568,5.568,0,0,1-1.658,1.219c-.028.013-.07.025-.1.038.1.374.2.751.3,1.122.32-.122.635-.23.936-.315a5.639,5.639,0,0,1,2-.253,3.282,3.282,0,0,1-.2,1.236A4.35,4.35,0,0,1,34,33c-.051.026-.094.054-.146.079a5.018,5.018,0,0,1-.531.208,4.564,4.564,0,0,1-1.425.233,3.829,3.829,0,0,1-2.391-.787,4.586,4.586,0,0,1,1.411-1.43c.213-.153.451-.3.7-.451-.158-.526-.295-1.057-.439-1.587a2.654,2.654,0,0,0-1.167.219l-.6.27c-.156.071-.289.16-.434.239-.121.067-.25.128-.364.2-.063.041-.125.083-.186.125a5.577,5.577,0,0,0-.533.421c-.032.028-.069.051-.1.079-.012.011-.026.021-.039.032a5.48,5.48,0,0,0-.56.624c-.035.045-.068.091-.1.138-.02.027-.035.058-.054.086.193.128.391.251.587.376.323.2.646.409.976.6A37.773,37.773,0,0,0,36.7,36.3c.461-.18.923-.374,1.385-.595a19.339,19.339,0,0,0,3.587-2.226q-.284-.386-.58-.754C40.883,32.461,40.668,32.2,40.444,31.96Z"/><path fill="#f7786d" d="M44.666 32.415a10.874 10.874 0 0 0-.512-1.366h0c-.167.211-.344.419-.532.626a15.694 15.694 0 0 1-1.945 1.8h0a19.814 19.814 0 0 1 1.612 2.571 2.846 2.846 0 0 0 .488.751.541.541 0 0 0 .7.118 1.081 1.081 0 0 0 .3-.547A7.25 7.25 0 0 0 44.666 32.415zM25.376 23.461c-.118-.16-.245-.313-.378-.461a3.192 3.192 0 0 0-.967-.766c-.052-.025-.105-.049-.159-.07a2.159 2.159 0 0 0-2.226.336A1.956 1.956 0 0 0 21 23.947c0 .014 0 .027 0 .041a2.08 2.08 0 0 0 2.124 1.986c.064 0 .124-.013.187-.018.339.211.679.419 1.015.635a2.156 2.156 0 0 1 .61.632h0q.273-.162.513-.334l.007 0a5.471 5.471 0 0 0 .444-.354l0 0a3.815 3.815 0 0 0 .674-.771h0l-.018-.046A8.724 8.724 0 0 0 25.376 23.461z"/><path fill="#f75749" d="M44.552,29.432c.122.189.226.4.336.6l.009-.013Q44.733,29.715,44.552,29.432Z"/><path fill="#f75749" d="M45.129 30.458c-.072-.151-.161-.285-.241-.429a11.02 11.02 0 0 1-.734 1.02 10.874 10.874 0 0 1 .512 1.366 7.25 7.25 0 0 1 .106 3.953 1.081 1.081 0 0 1-.3.547.541.541 0 0 1-.7-.118 2.846 2.846 0 0 1-.488-.751 19.814 19.814 0 0 0-1.612-2.571A19.339 19.339 0 0 1 38.088 35.7c-.462.221-.924.415-1.385.595a37.913 37.913 0 0 0 8.507 1.591A8.775 8.775 0 0 0 45.129 30.458zM27.789 30.819c.031-.028.068-.051.1-.079a5.577 5.577 0 0 1 .533-.421 5.513 5.513 0 0 0-.532.415C27.857 30.763 27.821 30.789 27.789 30.819zM27.034 31.7c.019-.028.034-.059.054-.086-.02.027-.041.054-.061.082zM28.608 30.194c.114-.073.243-.134.364-.2.145-.079.278-.168.434-.239-.152.069-.292.148-.433.225C28.847 30.048 28.726 30.119 28.608 30.194zM24.33 26.591c-.336-.216-.676-.424-1.015-.635-.063 0-.123.018-.187.018A2.08 2.08 0 0 1 21 23.988c0-.014 0-.027 0-.041a1.956 1.956 0 0 1 .646-1.447 2.159 2.159 0 0 1 2.226-.336c.054.021.107.045.159.07A3.192 3.192 0 0 1 25 23c.133.148.26.3.378.461a8.724 8.724 0 0 1 1.188 2.248l.018.046a2.38 2.38 0 0 0 .4-1.084h0a7.911 7.911 0 0 0-.433-.747c-.035-.054-.073-.1-.109-.156q-.183-.265-.385-.51c-.052-.063-.106-.125-.161-.186-.133-.149-.273-.291-.418-.426-.055-.051-.108-.1-.164-.153a6.187 6.187 0 0 0-.625-.482l-.009-.006a5.86 5.86 0 0 0-.7-.394c-.069-.034-.141-.061-.212-.092-.177-.077-.359-.147-.547-.208-.088-.028-.178-.055-.269-.079-.187-.051-.38-.092-.576-.126-.087-.015-.172-.033-.26-.045A6.757 6.757 0 0 0 21.235 21h-.723a2.711 2.711 0 0 0-1.288.348 2.808 2.808 0 0 1-.427.171c-.037.012-.07.025-.108.036-.13.039-.269.073-.41.1-.091.02-.177.038-.27.055h0a3.244 3.244 0 0 1 .41.262 1.692 1.692 0 0 1 .476.583 3.066 3.066 0 0 1-.657 1.067 38.173 38.173 0 0 0 4.323 4.611 10.938 10.938 0 0 0 2.379-1.014A2.156 2.156 0 0 0 24.33 26.591zM26.974 26.974c0-.025-.011-.05-.016-.075-.014-.067-.028-.134-.046-.2-.006-.023-.014-.046-.021-.069-.02-.071-.041-.143-.065-.212l-.014-.04c-.082-.238-.171-.459-.23-.62h0a3.815 3.815 0 0 1-.674.771l0 0a5.65 5.65 0 0 1-.444.354l-.007 0q-.24.173-.513.334h0v0c.119.173.23.355.356.542a.571.571 0 0 0 .129.151A.521.521 0 0 0 25.7 28a2.471 2.471 0 0 0 .7-.054.8.8 0 0 0 .5-.274.56.56 0 0 0 .084-.2.607.607 0 0 0 .007-.063A.948.948 0 0 0 27 27.237c0-.024 0-.05-.006-.075A1.787 1.787 0 0 0 26.974 26.974z"/><path fill="#2c4f00" d="M26.5,9.934A21.138,21.138,0,0,1,27.657,13.3,16.34,16.34,0,0,0,29,14.412q-.251-1.086-.526-2.075A12.582,12.582,0,0,1,26.5,9.934Z"/><polygon fill="#3f7000" points="30.181 15.235 30.18 15.234 30.181 15.235 30.181 15.235"/><path fill="#3f7000" d="M30.18 15.234q-.2-.915-.412-1.769a14.126 14.126 0 0 1-1.3-1.128q.276.987.526 2.075c.382.288.774.565 1.186.823zM24.108 5.125l.038.007z"/><path fill="#2c4f00" d="M23.2,5.161a13.427,13.427,0,0,0,.452,1.917,2.714,2.714,0,0,1,.847.307,4.348,4.348,0,0,1,1.414,1.462,9.324,9.324,0,0,1-.818-2.791,5.284,5.284,0,0,0-.588-.4A4.718,4.718,0,0,0,23.2,5.161Z"/><path fill="#3f7000" d="M24.146,5.132l-.038-.007a5.219,5.219,0,0,0-.938-.115c.008.051.02.1.029.151a4.718,4.718,0,0,1,1.307.5,5.284,5.284,0,0,1,.588.4c-.027-.211-.055-.423-.065-.636A4.724,4.724,0,0,0,24.146,5.132Z"/><path fill="#9cdf00" d="M25,5c7.53,0,16,3,16,12Z"/><path fill="#63b300" d="M25,5,41,17C31.59,17,25,11,25,5Z"/><ellipse cx="38" cy="12" fill="#c9ff39" rx=".825" ry="1.148" transform="rotate(-45.02 38 12)"/><ellipse cx="36.746" cy="10.5" fill="#c9ff39" rx=".413" ry=".574" transform="rotate(-45.02 36.745 10.5)"/><ellipse cx="41" cy="30" fill="#f6fafd" rx="1.65" ry="2.297" transform="rotate(-45.02 41 30)"/><ellipse cx="39" cy="32" fill="#f6fafd" rx=".825" ry="1.148" transform="rotate(-45.02 39 32)"/><ellipse cx="37.746" cy="28.5" fill="#f6fafd" rx=".413" ry=".574" transform="rotate(-45.02 37.746 28.5)"/><ellipse cx="24" cy="23" fill="#f6fafd" rx=".825" ry="1.148" transform="rotate(-45.02 24 23)"/><ellipse cx="23.746" cy="24.5" fill="#f6fafd" rx=".413" ry=".574" transform="rotate(-45.02 23.746 24.5)"/></g></svg>