<svg xmlns="http://www.w3.org/2000/svg" viewBox="0 0 48 48"><g data-name="12-papaya"><polygon fill="#baec35" points="34 3 32 7 30 3 34 3"/><path fill="#ffaf12" d="M32.77,45.26a.978.978,0,0,0-1.54,0A4.563,4.563,0,0,1,30,46.41V40.29A5.871,5.871,0,0,0,32,41a5.871,5.871,0,0,0,2-.71v6.12A4.563,4.563,0,0,1,32.77,45.26Z"/><path fill="#ffaf12" d="M32,15c1,0,8,8.82,8,16a10.478,10.478,0,0,1-6,9.29A5.871,5.871,0,0,1,32,41a5.871,5.871,0,0,1-2-.71A10.478,10.478,0,0,1,24,31C24,23.82,31,15,32,15Z"/><path fill="#ff7f00" d="M32 7v8c-1 0-8 8.82-8 16a10.478 10.478 0 0 0 6 9.29v6.12A3.526 3.526 0 0 1 28 47c-6.08 0-11-7.81-11-15 0-10.87 6-16.16 7-22.08A8.173 8.173 0 0 1 30 3zM40 9.92c1 5.92 7 11.21 7 22.08 0 7.19-4.92 15-11 15a3.526 3.526 0 0 1-2-.59V40.29A10.478 10.478 0 0 0 40 31c0-7.18-7-16-8-16V7l2-4A8.173 8.173 0 0 1 40 9.92z"/><path fill="#9cdf00" d="M8.29 21l1.6-3.34a14.573 14.573 0 0 0 1.37-5.15C11.65 7.4 13.17 3 15 3H14A8.173 8.173 0 0 0 8 9.92C7 15.84 1 21.13 1 32A14.843 14.843 0 0 0 13.67 46.82C-.34 37.83 6.38 24.97 8.29 21zM21.823 44.123a24.109 24.109 0 0 1-3.493 2.7 15.041 15.041 0 0 0 4.788-1.587A11.762 11.762 0 0 1 21.823 44.123zM20.74 12.51a14.685 14.685 0 0 0 .8 3.75A23.052 23.052 0 0 0 24 9.92 8.173 8.173 0 0 0 18 3H17C18.83 3 20.35 7.4 20.74 12.51z"/><path fill="#faba01" d="M17,32c0-7.016,2.5-11.7,4.538-15.74a14.685,14.685,0,0,1-.8-3.75C20.35,7.4,18.83,3,17,3H15c-1.83,0-3.35,4.4-3.74,9.51a14.573,14.573,0,0,1-1.37,5.15L8.29,21C6.38,24.97-.34,37.83,13.67,46.82a15.17,15.17,0,0,0,4.66,0,24.109,24.109,0,0,0,3.493-2.7A17.9,17.9,0,0,1,17,32Z"/><polygon fill="#589e00" points="17 3 18 3 16 1 14 3 15 3 17 3"/><path fill="#9cdf00" d="M15 3c-1.83 0-3.35 4.4-3.74 9.51a14.573 14.573 0 0 1-1.37 5.15L8.29 21C6.38 24.97-.34 37.83 13.67 46.82A14.843 14.843 0 0 1 1 32C1 21.13 7 15.84 8 9.92A8.173 8.173 0 0 1 14 3zM18 3a8.173 8.173 0 0 1 6 6.92c1 5.92 7 11.21 7 22.08A14.843 14.843 0 0 1 18.33 46.82C32.34 37.83 25.62 24.97 23.71 21l-1.6-3.34a14.573 14.573 0 0 1-1.37-5.15C20.35 7.4 18.83 3 17 3z"/><path fill="#faba01" d="M17,3c1.83,0,3.35,4.4,3.74,9.51a14.573,14.573,0,0,0,1.37,5.15L23.71,21c1.91,3.97,8.63,16.83-5.38,25.82a15.17,15.17,0,0,1-4.66,0C-.34,37.83,6.38,24.97,8.29,21l1.6-3.34a14.573,14.573,0,0,0,1.37-5.15C11.65,7.4,13.17,3,15,3Z"/><polygon fill="#589e00" points="14 3 16 1 18 3 14 3"/><path fill="#63b300" d="M30.965 30.969L30.942 31a1.139 1.139 0 0 1-2.077-.532A29.866 29.866 0 0 0 25.71 21l-1.6-3.34a14.573 14.573 0 0 1-1.37-5.15c-.264-3.464-1.049-6.6-2.1-8.259A7.515 7.515 0 0 0 18 3H17c1.83 0 3.35 4.4 3.74 9.51a14.573 14.573 0 0 0 1.37 5.15L23.71 21c1.15 2.391 4.04 8.008 3.1 14.062-.621 4-2.908 8.183-8.479 11.758a15.058 15.058 0 0 0 3.344-.923A14.822 14.822 0 0 0 31 32C31 31.645 30.977 31.312 30.965 30.969zM1.035 30.969L1.058 31a1.139 1.139 0 0 0 2.077-.532A29.866 29.866 0 0 1 6.29 21l1.6-3.34a14.573 14.573 0 0 0 1.37-5.15c.264-3.464 1.049-6.6 2.1-8.259A7.515 7.515 0 0 1 14 3h1c-1.83 0-3.35 4.4-3.74 9.51a14.573 14.573 0 0 1-1.37 5.15L8.29 21c-1.15 2.391-4.04 8.008-3.1 14.062.621 4 2.908 8.183 8.479 11.758a15.058 15.058 0 0 1-3.344-.923A14.822 14.822 0 0 1 1 32C1 31.645 1.023 31.312 1.035 30.969z"/><path fill="#ffc501" d="M23.71,21l-1.6-3.34a14.573,14.573,0,0,1-1.37-5.15C20.35,7.4,18.83,3,17,3H15c-1.83,0-3.35,4.4-3.74,9.51a14.573,14.573,0,0,1-1.37,5.15L8.29,21C6.38,24.97-.34,37.83,13.67,46.82a15.17,15.17,0,0,0,4.66,0C32.34,37.83,25.62,24.97,23.71,21ZM17.7,42.845a9.345,9.345,0,0,1-3.39,0C4.117,35.08,9,23.974,10.393,20.545l1.164-2.884a14.493,14.493,0,0,0,1-4.448C12.836,8.8,13.942,5,15.273,5h1.454c1.331,0,2.437,3.8,2.72,8.213a14.493,14.493,0,0,0,1,4.448l1.164,2.884C23,23.974,27.883,35.08,17.7,42.845Z"/><ellipse cx="13" cy="31" fill="#ffd417" rx="4" ry="8"/><path fill="#ffaf12" d="M14.305,42.845a9.345,9.345,0,0,0,3.39,0,15.147,15.147,0,0,0,5.875-8.583,37.7,37.7,0,0,1-7.107.728C15.772,37.385,14.482,39,13,39c-1.59,0-2.959-1.86-3.6-4.547-.33-.058-.646-.125-.966-.191A15.147,15.147,0,0,0,14.305,42.845Z"/><path fill="#abcc00" d="M17.7,42.845a9.345,9.345,0,0,1-3.39,0A15.147,15.147,0,0,1,8.43,34.262a26.8,26.8,0,0,1-3.408-.92c.195,4.493,2.27,9.386,8.648,13.478a15.17,15.17,0,0,0,4.66,0c6.378-4.092,8.453-8.985,8.648-13.478a26.8,26.8,0,0,1-3.408.92A15.147,15.147,0,0,1,17.7,42.845Z"/><path fill="#ffc501" d="M9.4,34.453C10.041,37.14,11.41,39,13,39c1.482,0,2.772-1.615,3.463-4.01-.155,0-.307.01-.463.01A38.894,38.894,0,0,1,9.4,34.453Z"/><ellipse cx="27" cy="21" fill="#c9ff39" rx="1" ry="5" transform="rotate(-25 27 21)"/><ellipse cx="5" cy="21" fill="#c9ff39" rx="5" ry="1" transform="rotate(-65 5 21)"/><path fill="#ff7f00" d="M40,9.92A8.173,8.173,0,0,0,34,3H30a8.173,8.173,0,0,0-6,6.92C23,15.84,17,21.13,17,32c0,7.19,4.92,15,11,15a3.526,3.526,0,0,0,2-.59,4.563,4.563,0,0,0,1.23-1.15.978.978,0,0,1,1.54,0A4.563,4.563,0,0,0,34,46.41,3.526,3.526,0,0,0,36,47c6.08,0,11-7.81,11-15C47,21.13,41,15.84,40,9.92Z"/><path fill="#c8da00" d="M40,9.92A8.173,8.173,0,0,0,34,3H30a8.173,8.173,0,0,0-6,6.92C23,15.84,17,21.13,17,32c0,7.19,4.92,15,11,15a3.526,3.526,0,0,0,2-.59,4.563,4.563,0,0,0,1.23-1.15.978.978,0,0,1,1.54,0A4.563,4.563,0,0,0,34,46.41,3.526,3.526,0,0,0,36,47c6.08,0,11-7.81,11-15C47,21.13,41,15.84,40,9.92ZM35.733,46a3.236,3.236,0,0,1-1.866-.563,4.29,4.29,0,0,1-1.148-1.1.9.9,0,0,0-1.438,0,4.29,4.29,0,0,1-1.148,1.1A3.236,3.236,0,0,1,28.267,46C22.592,46,18,38.545,18,31.682c0-10.376,5.6-15.426,6.533-21.077a7.715,7.715,0,0,1,5.6-6.6h3.734a7.715,7.715,0,0,1,5.6,6.605C40.4,16.256,46,21.306,46,31.682,46,38.545,41.408,46,35.733,46Z"/><path fill="#faba01" d="M39.467,10.605a7.715,7.715,0,0,0-5.6-6.6H30.133a7.715,7.715,0,0,0-5.6,6.605C23.6,16.256,18,21.306,18,31.682,18,38.545,22.592,46,28.267,46a3.236,3.236,0,0,0,1.866-.563,4.29,4.29,0,0,0,1.148-1.1.9.9,0,0,1,1.438,0,4.29,4.29,0,0,0,1.148,1.1A3.236,3.236,0,0,0,35.733,46C41.408,46,46,38.545,46,31.682,46,21.306,40.4,16.256,39.467,10.605ZM35.467,45a2.959,2.959,0,0,1-1.734-.536,4.049,4.049,0,0,1-1.066-1.046.824.824,0,0,0-1.334,0,4.049,4.049,0,0,1-1.066,1.046A2.959,2.959,0,0,1,28.533,45C23.264,45,19,37.9,19,31.364c0-9.882,5.2-14.691,6.067-20.073S30.267,5,30.267,5h3.466s4.334.9,5.2,6.291S45,21.482,45,31.364C45,37.9,40.736,45,35.467,45Z"/><path fill="#ffaf12" d="M32,41a5.871,5.871,0,0,1-2-.71v4.331c.09-.05.18-.1.267-.157a4.049,4.049,0,0,0,1.066-1.046.824.824,0,0,1,1.334,0,4.049,4.049,0,0,0,1.066,1.046c.087.06.177.107.267.157V40.29A5.871,5.871,0,0,1,32,41Z"/><path fill="#ffd417" d="M31.281,44.339a.9.9,0,0,1,1.438,0,4.29,4.29,0,0,0,1.148,1.1c.043.029.089.05.133.077v-.893c-.09-.05-.18-.1-.267-.157a4.049,4.049,0,0,1-1.066-1.046.824.824,0,0,0-1.334,0,4.049,4.049,0,0,1-1.066,1.046c-.087.06-.177.107-.267.157v.893c.044-.027.09-.048.133-.077A4.29,4.29,0,0,0,31.281,44.339Z"/><path fill="#ffaf12" d="M32,15c1,0,8,8.82,8,16a10.478,10.478,0,0,1-6,9.29A5.871,5.871,0,0,1,32,41a5.871,5.871,0,0,1-2-.71A10.478,10.478,0,0,1,24,31C24,23.82,31,15,32,15Z"/><path fill="#ffaf12" d="M32,41v2.077a.819.819,0,0,1,.667.341,4.049,4.049,0,0,0,1.066,1.046c.087.06.177.107.267.157V40.29A5.871,5.871,0,0,1,32,41Z"/><path fill="#ffa008" d="M30,40.29v4.331c.09-.05.18-.1.267-.157a4.049,4.049,0,0,0,1.066-1.046A.819.819,0,0,1,32,43.077V41A5.871,5.871,0,0,1,30,40.29Z"/><path fill="#ffaf12" d="M33,15.754V5H31V15.754c.466-.475.827-.754,1-.754S32.534,15.279,33,15.754Z"/><polygon fill="#63b300" points="34 3 32 7 30 3 34 3"/><path fill="#fdf48b" d="M32,14c-1.125,0-9,9.5-9,17.231,0,5.546,4.05,8.669,6.75,10A6.807,6.807,0,0,0,32,42a6.807,6.807,0,0,0,2.25-.765c2.7-1.335,6.75-4.458,6.75-10C41,23.5,33.125,14,32,14Zm2,26.29A5.871,5.871,0,0,1,32,41a5.871,5.871,0,0,1-2-.71A10.478,10.478,0,0,1,24,31c0-7.18,7-16,8-16s8,8.82,8,16A10.478,10.478,0,0,1,34,40.29Z"/><path fill="#ff7f00" d="M32,16c.875,0,7,8.142,7,14.769a9.687,9.687,0,0,1-5.25,8.576A4.959,4.959,0,0,1,32,40a4.959,4.959,0,0,1-1.75-.655A9.687,9.687,0,0,1,25,30.769C25,24.142,31.125,16,32,16Z"/><circle cx="35" cy="28" r="1" fill="#cc5700"/><circle cx="30" cy="30" r="1" fill="#cc5700"/><circle cx="31" cy="33" r="1" fill="#cc5700"/><circle cx="33" cy="31" r="1" fill="#cc5700"/><circle cx="29" cy="26" r="1" fill="#cc5700"/><circle cx="30" cy="22" r="1" fill="#cc5700"/><circle cx="33" cy="23" r="1" fill="#cc5700"/><circle cx="31" cy="19" r="1" fill="#cc5700"/><circle cx="33" cy="20" r="1" fill="#cc5700"/><circle cx="32" cy="25" r="1" fill="#cc5700"/><circle cx="27" cy="28" r="1" fill="#cc5700"/><circle cx="27" cy="31" r="1" fill="#cc5700"/><circle cx="27" cy="34" r="1" fill="#cc5700"/><circle cx="31" cy="36" r="1" fill="#cc5700"/><circle cx="29" cy="36" r="1" fill="#cc5700"/><circle cx="32" cy="39" r="1" fill="#cc5700"/><circle cx="35" cy="37" r="1" fill="#cc5700"/><circle cx="37" cy="35" r="1" fill="#cc5700"/><circle cx="35" cy="33" r="1" fill="#cc5700"/><circle cx="37" cy="31" r="1" fill="#cc5700"/><circle cx="37" cy="26" r="1" fill="#cc5700"/><circle cx="35" cy="23" r="1" fill="#cc5700"/><circle cx="32" cy="28" r="1" fill="#cc5700"/><circle cx="35" cy="30" r="1" fill="#4f4600"/><circle cx="33" cy="29" r="1" fill="#4f4600"/><circle cx="35" cy="32" r="1" fill="#4f4600"/><circle cx="35" cy="25" r="1" fill="#4f4600"/><circle cx="33" cy="27" r="1" fill="#4f4600"/><circle cx="31" cy="28" r="1" fill="#4f4600"/><circle cx="30" cy="24" r="1" fill="#4f4600"/><circle cx="32" cy="21" r="1" fill="#4f4600"/><circle cx="28" cy="24" r="1" fill="#4f4600"/><circle cx="27" cy="27" r="1" fill="#4f4600"/><circle cx="29" cy="29" r="1" fill="#4f4600"/><circle cx="29" cy="27" r="1" fill="#4f4600"/><circle cx="27" cy="32" r="1" fill="#4f4600"/><circle cx="28" cy="36" r="1" fill="#4f4600"/><circle cx="27" cy="30" r="1" fill="#4f4600"/><circle cx="29" cy="32" r="1" fill="#4f4600"/><circle cx="29" cy="34" r="1" fill="#4f4600"/><circle cx="33" cy="31" r="1" fill="#4f4600"/><circle cx="31" cy="30" r="1" fill="#4f4600"/><circle cx="31" cy="33" r="1" fill="#4f4600"/><circle cx="35" cy="35" r="1" fill="#4f4600"/><circle cx="31" cy="37" r="1" fill="#4f4600"/><circle cx="37" cy="33" r="1" fill="#4f4600"/><circle cx="33" cy="33" r="1" fill="#4f4600"/><circle cx="33" cy="35" r="1" fill="#4f4600"/><circle cx="33" cy="37" r="1" fill="#4f4600"/><circle cx="31" cy="35" r="1" fill="#4f4600"/><circle cx="37" cy="29" r="1" fill="#4f4600"/><circle cx="36" cy="27" r="1" fill="#4f4600"/><circle cx="34" cy="22" r="1" fill="#4f4600"/><circle cx="33" cy="24" r="1" fill="#4f4600"/><circle cx="32" cy="18" r="1" fill="#4f4600"/><circle cx="30" cy="21" r="1" fill="#4f4600"/><circle cx="31" cy="26" r="1" fill="#4f4600"/><circle cx="35" cy="28" r="1" fill="#362f00"/><circle cx="36" cy="31" r="1" fill="#362f00"/><circle cx="33" cy="26" r="1" fill="#362f00"/><circle cx="31" cy="23" r="1" fill="#362f00"/><circle cx="28" cy="25" r="1" fill="#362f00"/><circle cx="29" cy="30" r="1" fill="#362f00"/><circle cx="31" cy="32" r="1" fill="#362f00"/><circle cx="29" cy="36" r="1" fill="#362f00"/><circle cx="34" cy="36" r="1" fill="#362f00"/><circle cx="33" cy="34" r="1" fill="#362f00"/><circle cx="34" cy="21" r="1" fill="#362f00"/><circle cx="29" cy="23" r="1" fill="#362f00"/><path fill="#436600" d="M20.74 12.51a14.685 14.685 0 0 0 .8 3.75A23.052 23.052 0 0 0 24 9.92 8.823 8.823 0 0 0 22 5.5a8.488 8.488 0 0 0-1.758 3.335A30.545 30.545 0 0 1 20.74 12.51zM21.823 44.123A15.1 15.1 0 0 1 19.582 41.2c-.163.162-.334.321-.507.481-.1.088-.19.177-.289.264-.345.3-.7.606-1.091.9-.293.054-.591.093-.89.118a12.057 12.057 0 0 0 3.06 2.787 9.105 9.105 0 0 0 .882.49 14.939 14.939 0 0 0 2.371-1.007A11.762 11.762 0 0 1 21.823 44.123z"/><path fill="#cc5700" d="M20.618,18.093q.466-.942.92-1.833a14.685,14.685,0,0,1-.8-3.75,30.545,30.545,0,0,0-.5-3.673A10.277,10.277,0,0,0,20,9.92a13.292,13.292,0,0,1-.629,2.307l0-.068c-1.2,3.313-3.53,6.691-5.015,11.245A27.005,27.005,0,0,0,13,31.924a17.065,17.065,0,0,0,.262,2.9,18.822,18.822,0,0,0,1.026,3.655l0,.009a17.257,17.257,0,0,0,2.514,4.4c.3-.026.6-.064.89-.119.387-.3.746-.6,1.091-.9.1-.088.194-.177.289-.265.176-.161.338-.325.5-.488a18.65,18.65,0,0,1-2.3-6.228A16.98,16.98,0,0,1,17,31.924a29.642,29.642,0,0,1,3.6-13.875Z"/><path fill="#ffd417" d="M20.443,17.661a14.493,14.493,0,0,1-1-4.448C19.164,8.8,18.058,5,16.727,5H15.273c-1.331,0-2.437,3.8-2.72,8.213-.009.131-.029.259-.041.389A38.044,38.044,0,0,0,23.961,29.438a28.17,28.17,0,0,0-2.354-8.893Z"/><path fill="#f8ef00" d="M12.553,13.213C12.836,8.8,13.942,5,15.273,5h1.454c1.331,0,2.437,3.8,2.72,8.213a14.493,14.493,0,0,0,1,4.448l1.164,2.884a28.17,28.17,0,0,1,2.354,8.893q1.445,1.181,3.007,2.219C26.707,26.979,24.64,22.934,23.71,21l-1.6-3.34a14.573,14.573,0,0,1-1.37-5.15C20.35,7.4,18.83,3,17,3H15c-1.584,0-2.934,3.3-3.522,7.5q.453,1.581,1.034,3.1C12.524,13.472,12.544,13.344,12.553,13.213Z"/><path fill="#c9ff39" d="M15 3H14a7.831 7.831 0 0 0-3.649 2.112A37.88 37.88 0 0 0 11.478 10.5C12.066 6.3 13.416 3 15 3zM24.11 17.66L25.71 21a29.866 29.866 0 0 1 3.155 9.472A1.139 1.139 0 0 0 30.942 31l.023-.035c.012.343.035.676.035 1.031 0-10.87-6-16.16-7-22.08a8.446 8.446 0 0 0-3.357-5.669c1.048 1.662 1.833 4.795 2.1 8.259A14.573 14.573 0 0 0 24.11 17.66z"/><polygon fill="#8bc808" points="17 3 18 3 16 1 14 3 15 3 17 3"/><path fill="#9cdf00" d="M20.74,12.51a14.573,14.573,0,0,0,1.37,5.15L23.71,21c.062.129.129.268.2.415l.051.107c.071.146.144.3.221.461l.052.109q.117.246.24.514l.042.091c.4.867.835,1.9,1.232,3.052l.006.017a22.009,22.009,0,0,1,1.213,5.891,37.934,37.934,0,0,0,3.9,2.266c.008-.061.018-.121.025-.183.016-.142.036-.282.048-.425.036-.433.059-.871.059-1.315,0-.355-.023-.688-.035-1.031L30.942,31a1.139,1.139,0,0,1-2.077-.532A29.866,29.866,0,0,0,25.71,21l-1.6-3.34a14.573,14.573,0,0,1-1.37-5.15c-.264-3.464-1.049-6.6-2.1-8.259h0A7.523,7.523,0,0,0,18,3H17C18.83,3,20.35,7.4,20.74,12.51Z"/><path fill="#527710" d="M20.74,12.51a14.685,14.685,0,0,0,.8,3.75A23.052,23.052,0,0,0,24,9.92,8.823,8.823,0,0,0,22,5.5a8.488,8.488,0,0,0-1.758,3.335A30.545,30.545,0,0,1,20.74,12.51Z"/><path fill="#e86300" d="M20.6,18.049l.018.044q.466-.942.92-1.833a14.685,14.685,0,0,1-.8-3.75,30.545,30.545,0,0,0-.5-3.673A10.277,10.277,0,0,0,20,9.92a13.292,13.292,0,0,1-.629,2.307l0-.068C18.485,14.59,17,17.06,15.682,20a37.879,37.879,0,0,0,2.59,3.67A39.242,39.242,0,0,1,20.6,18.049Z"/><path fill="#ffaf12" d="M45.933,37.942A17.957,17.957,0,0,0,47,32c0-10.87-6-16.16-7-22.08A8.173,8.173,0,0,0,34,3H30a8.173,8.173,0,0,0-6,6.92c-.7,4.175-3.89,8.045-5.711,13.772A37.906,37.906,0,0,0,45.933,37.942Z"/><path fill="#ffd417" d="M33,15.754V5H31V15.754c.466-.475.827-.754,1-.754S32.534,15.279,33,15.754Z"/><path fill="#ffd417" d="M32,15c-.933,0-7.088,7.681-7.906,14.542q.46.373.933.733C25.314,23.744,31.146,16,32,16c.875,0,7,8.142,7,14.769a9.224,9.224,0,0,1-1.848,5.654c.344.1.689.2,1.036.294A9.633,9.633,0,0,0,40,31C40,23.82,33,15,32,15Z"/><path fill="#fdf48b" d="M32,15c1,0,8,8.82,8,16a9.633,9.633,0,0,1-1.812,5.717c.353.094.708.178,1.064.262A10.064,10.064,0,0,0,41,31.231C41,23.5,33.125,14,32,14c-1.011,0-7.452,7.665-8.754,14.83.28.241.561.48.848.712C24.912,22.681,31.067,15,32,15Z"/><path fill="#ffaf12" d="M39,30.769C39,24.142,32.875,16,32,16c-.854,0-6.686,7.744-6.973,14.275a37.846,37.846,0,0,0,12.125,6.148A9.224,9.224,0,0,0,39,30.769Z"/><path fill="#c9ff39" d="M24.533,10.605a7.715,7.715,0,0,1,5.6-6.6h3.734a7.715,7.715,0,0,1,5.6,6.605C40.4,16.256,46,21.306,46,31.682a17.6,17.6,0,0,1-1.173,6.176c.368.031.735.064,1.106.084A17.957,17.957,0,0,0,47,32c0-10.87-6-16.16-7-22.08A8.173,8.173,0,0,0,34,3H30a8.173,8.173,0,0,0-6,6.92c-.7,4.175-3.89,8.045-5.711,13.772.225.281.452.56.684.834C20.618,18.627,23.844,14.776,24.533,10.605Z"/><path fill="#ffd417" d="M39.467,10.605a7.715,7.715,0,0,0-5.6-6.6H30.133a7.715,7.715,0,0,0-5.6,6.605c-.689,4.171-3.915,8.022-5.56,13.921.239.283.48.564.727.84,1.445-6.085,4.7-9.914,5.367-14.075C25.933,5.9,30.267,5,30.267,5h3.466s4.334.9,5.2,6.291S45,21.482,45,31.364a17.21,17.21,0,0,1-1.29,6.389c.371.042.744.074,1.117.1A17.6,17.6,0,0,0,46,31.682C46,21.306,40.4,16.256,39.467,10.605Z"/><polygon fill="#8bc808" points="34 3 32 7 30 3 34 3"/><circle cx="35" cy="28" r="1" fill="#fc6b00"/><circle cx="30" cy="30" r="1" fill="#fc6b00"/><path fill="#fc6b00" d="M32,33a1,1,0,0,0-2,0,.978.978,0,0,0,.212.587c.265.141.533.276.8.41A1,1,0,0,0,32,33Z"/><circle cx="33" cy="31" r="1" fill="#fc6b00"/><circle cx="29" cy="26" r="1" fill="#fc6b00"/><circle cx="30" cy="22" r="1" fill="#fc6b00"/><circle cx="33" cy="23" r="1" fill="#fc6b00"/><circle cx="31" cy="19" r="1" fill="#fc6b00"/><circle cx="33" cy="20" r="1" fill="#fc6b00"/><circle cx="32" cy="25" r="1" fill="#fc6b00"/><circle cx="27" cy="28" r="1" fill="#fc6b00"/><path fill="#fc6b00" d="M28,31a1,1,0,0,0-2-.014q.679.483,1.38.937A1,1,0,0,0,28,31Z"/><circle cx="37" cy="35" r="1" fill="#fc6b00"/><circle cx="35" cy="33" r="1" fill="#fc6b00"/><circle cx="37" cy="31" r="1" fill="#fc6b00"/><circle cx="37" cy="26" r="1" fill="#fc6b00"/><circle cx="35" cy="23" r="1" fill="#fc6b00"/><circle cx="32" cy="28" r="1" fill="#fc6b00"/><path fill="#745a00" d="M31.013,34,31,34c.011,0,.02.006.03.006Z"/><circle cx="35" cy="30" r="1" fill="#745a00"/><circle cx="33" cy="29" r="1" fill="#745a00"/><circle cx="35" cy="32" r="1" fill="#745a00"/><circle cx="35" cy="25" r="1" fill="#745a00"/><circle cx="33" cy="27" r="1" fill="#745a00"/><circle cx="31" cy="28" r="1" fill="#745a00"/><circle cx="30" cy="24" r="1" fill="#745a00"/><circle cx="32" cy="21" r="1" fill="#745a00"/><circle cx="28" cy="24" r="1" fill="#745a00"/><circle cx="27" cy="27" r="1" fill="#745a00"/><circle cx="29" cy="29" r="1" fill="#745a00"/><circle cx="29" cy="27" r="1" fill="#745a00"/><path fill="#745a00" d="M27,31a.984.984,0,0,0-.635.244q.776.537,1.578,1.038A.982.982,0,0,0,28,32,1,1,0,0,0,27,31Z"/><circle cx="27" cy="30" r="1" fill="#745a00"/><path fill="#745a00" d="M30,32a1,1,0,0,0-2,0,.982.982,0,0,0,.074.365c.342.211.691.412,1.04.612A.989.989,0,0,0,30,32Z"/><circle cx="33" cy="31" r="1" fill="#745a00"/><circle cx="31" cy="30" r="1" fill="#745a00"/><path fill="#745a00" d="M32 33a1 1 0 0 0-2 0 .978.978 0 0 0 .212.587c.265.141.533.276.8.41A1 1 0 0 0 32 33zM36 35a1 1 0 0 0-2 0 .979.979 0 0 0 .073.359c.457.18.918.354 1.385.516A.99.99 0 0 0 36 35z"/><circle cx="37" cy="33" r="1" fill="#745a00"/><circle cx="33" cy="33" r="1" fill="#745a00"/><path fill="#745a00" d="M33,34a.989.989,0,0,0-.869.533q.891.409,1.807.773A.975.975,0,0,0,34,35,1,1,0,0,0,33,34Z"/><circle cx="37" cy="29" r="1" fill="#745a00"/><circle cx="36" cy="27" r="1" fill="#745a00"/><circle cx="34" cy="22" r="1" fill="#745a00"/><circle cx="33" cy="24" r="1" fill="#745a00"/><circle cx="32" cy="18" r="1" fill="#745a00"/><circle cx="30" cy="21" r="1" fill="#745a00"/><circle cx="31" cy="26" r="1" fill="#745a00"/><circle cx="35" cy="28" r="1" fill="#4f4600"/><circle cx="36" cy="31" r="1" fill="#4f4600"/><circle cx="33" cy="26" r="1" fill="#4f4600"/><circle cx="31" cy="23" r="1" fill="#4f4600"/><circle cx="28" cy="25" r="1" fill="#4f4600"/><circle cx="29" cy="30" r="1" fill="#4f4600"/><circle cx="31" cy="32" r="1" fill="#4f4600"/><path fill="#4f4600" d="M34 35a.972.972 0 0 0-.482.141c.47.194.942.384 1.422.559A.989.989 0 0 0 34 35zM34 34a1 1 0 0 0-2 0 .968.968 0 0 0 .2.561c.3.14.609.284.92.416A.989.989 0 0 0 34 34z"/><circle cx="34" cy="21" r="1" fill="#4f4600"/><circle cx="29" cy="23" r="1" fill="#4f4600"/><ellipse cx="18" cy="7" fill="#f6fafd" rx="1.65" ry="2.297" transform="rotate(-45.02 18 7)"/><ellipse cx="17" cy="10" fill="#f6fafd" rx=".825" ry="1.148" transform="rotate(-45.02 17 10)"/><ellipse cx="36" cy="9" fill="#f6fafd" rx="1.65" ry="2.297" transform="rotate(-45.02 36 9)"/><ellipse cx="38" cy="18" fill="#f6fafd" rx=".825" ry="1.148" transform="rotate(-45.02 38 18)"/><ellipse cx="38.746" cy="20.5" fill="#f6fafd" rx=".413" ry=".574" transform="rotate(-45.02 38.745 20.5)"/><circle cx="33.5" cy="25.5" r=".5" fill="#fdf48b"/><circle cx="34.5" cy="20.5" r=".5" fill="#fdf48b"/><circle cx="31.5" cy="22.5" r=".5" fill="#fdf48b"/><circle cx="29.5" cy="22.5" r=".5" fill="#fdf48b"/><circle cx="28.5" cy="24.5" r=".5" fill="#fdf48b"/><circle cx="29.5" cy="29.5" r=".5" fill="#fdf48b"/><circle cx="31.5" cy="31.5" r=".5" fill="#fdf48b"/><circle cx="36.5" cy="30.5" r=".5" fill="#fdf48b"/></g></svg>