<svg xmlns="http://www.w3.org/2000/svg" viewBox="0 0 48 48"><g data-name="18-green pear"><rect width="2" height="5" x="14.998" y="1" fill="#745a00"/><path fill="#d1cb00" d="M24.979,15c2.97,6,6.85,9,5.86,15s-5.93,11-13.851,11h-1.98c-7.92,0-12.86-5-13.85-11s2.89-9,5.86-15S11.008,5,16,5,22.009,9,24.979,15Z"/><path fill="#fdf1c1" d="M42,23c2.77,6.04,5,4.95,5,13,0,6.12-4.59,11-10.271,11A5.364,5.364,0,0,1,33,45V39a5.592,5.592,0,0,0,5-5.83C38,28.86,33,25,33,25V13a2.009,2.009,0,0,1,.56-1.29A2.607,2.607,0,0,1,35,11.03a3.046,3.046,0,0,1,2.441.78C40.2,14.31,40.19,19.06,42,23Z"/><path fill="#745a00" d="M33,1h3c0,5.53,0,8-1,10v.03a2.607,2.607,0,0,0-1.44.68A2.009,2.009,0,0,0,33,13a2.009,2.009,0,0,0-.56-1.29A2.607,2.607,0,0,0,31,11.03V11C32.109,11,33,5.97,33,1Z"/><path fill="#dfe778" d="M33,25s5,3.86,5,8.17A5.592,5.592,0,0,1,33,39a5.592,5.592,0,0,1-5-5.83C28,28.86,33,25,33,25Z"/><path fill="#fdf1c1" d="M33,39v6a5.364,5.364,0,0,1-3.73,2C23.589,47,19,42.12,19,36c0-8.05,2.23-6.96,5-13,1.81-3.94,1.8-8.69,4.56-11.19A3.043,3.043,0,0,1,31,11.03a2.607,2.607,0,0,1,1.44.68A2.009,2.009,0,0,1,33,13V25s-5,3.86-5,8.17A5.592,5.592,0,0,0,33,39Z"/><path fill="#cdcc00" d="M24.981,15c2.971,6,6.851,9,5.861,15S24.911,41,16.99,41H15.01C7.089,41,2.148,36,1.158,30s2.89-9,5.861-15S11.009,5,16,5,22.011,9,24.981,15Z"/><path fill="#f2eb17" d="M24.186,15.778c2.376,4.666,5.481,7,4.689,11.666S24.13,36,17.792,36H16.208c-6.337,0-10.29-3.889-11.082-8.556s2.312-7,4.689-11.666S13.007,8,17,8,21.809,11.111,24.186,15.778Z"/><path fill="#745a00" d="M17,5.065V1H15V5.065a7.725,7.725,0,0,1,2,0Z"/><path fill="#b1ad00" d="M17.792,36H16.208c-6.337,0-10.29-3.889-11.082-8.556-.5-2.963.566-4.986,2.021-7.263a22.964,22.964,0,0,1-.891-3.741C3.432,21.516.25,24.5,1.158,30c.99,6,5.931,11,13.852,11h1.98a13.838,13.838,0,0,0,11.225-5.02,23,23,0,0,1-5.578-.877A12.871,12.871,0,0,1,17.792,36Z"/><path fill="#d1cb00" d="M5.126,27.444C5.918,32.111,9.871,36,16.208,36h1.584a12.871,12.871,0,0,0,4.845-.9A23.019,23.019,0,0,1,7.147,20.181C5.692,22.458,4.623,24.481,5.126,27.444Z"/><ellipse cx="19" cy="14" fill="#fff818" rx="2.704" ry="5.165" transform="rotate(-17.152 19 14.001)"/><path fill="#4f4600" d="M15 1V5.065A7.9 7.9 0 0 1 16 5V1zM33 1h3c0 5.53 0 8-1 10v.03a2.607 2.607 0 0 0-1.44.68A2.009 2.009 0 0 0 33 13a2.009 2.009 0 0 0-.56-1.29A2.607 2.607 0 0 0 31 11.03V11C32.11 11 33 5.97 33 1z"/><path fill="#745a00" d="M35,1c0,5.53-1,8-2,10l-.644.644c.028.023.057.041.084.066A2.009,2.009,0,0,1,33,13a2.009,2.009,0,0,1,.56-1.29A2.607,2.607,0,0,1,35,11.03V11c1-2,1-4.47,1-10Z"/><path fill="#fdf1c1" d="M42,23c-1.81-3.94-1.8-8.69-4.56-11.19A3.043,3.043,0,0,0,35,11.03a2.607,2.607,0,0,0-1.44.68A2.009,2.009,0,0,0,33,13a2.009,2.009,0,0,0-.56-1.29A2.607,2.607,0,0,0,31,11.03a3.043,3.043,0,0,0-2.44.78C25.8,14.31,25.81,19.06,24,23c-2.77,6.04-5,4.95-5,13,0,6.12,4.59,11,10.27,11A5.364,5.364,0,0,0,33,45a5.364,5.364,0,0,0,3.73,2C42.41,47,47,42.12,47,36,47,27.95,44.77,29.04,42,23Z"/><path fill="#cdcc00" d="M42,23c-1.81-3.94-1.8-8.691-4.56-11.191a3.043,3.043,0,0,0-2.44-.78,2.607,2.607,0,0,0-1.44.68A2.009,2.009,0,0,0,33,13a2.009,2.009,0,0,0-.56-1.29,2.607,2.607,0,0,0-1.44-.68,3.043,3.043,0,0,0-2.44.78C25.8,14.307,25.81,19.058,24,23c-2.77,6.041-5,4.951-5,13,0,6.121,4.59,11,10.27,11A5.364,5.364,0,0,0,33,45a5.364,5.364,0,0,0,3.73,2C42.41,47,47,42.12,47,36,47,27.949,44.77,29.039,42,23ZM36.464,46A4.96,4.96,0,0,1,33,44.111,4.96,4.96,0,0,1,29.536,46C24.262,46,20,41.391,20,35.61c0-7.6,2.071-6.574,4.643-12.278,1.681-3.722,1.671-8.208,4.234-10.57a2.8,2.8,0,0,1,2.266-.736,2.4,2.4,0,0,1,1.337.642A1.917,1.917,0,0,1,33,13.886a1.917,1.917,0,0,1,.52-1.218,2.4,2.4,0,0,1,1.337-.642,2.8,2.8,0,0,1,2.266.736c2.563,2.362,2.553,6.848,4.234,10.57C43.929,29.036,46,28.007,46,35.61,46,41.391,41.738,46,36.464,46Z"/><path fill="#f3dea5" d="M33,25s5,3.86,5,8.17A5.592,5.592,0,0,1,33,39a5.592,5.592,0,0,1-5-5.83C28,28.86,33,25,33,25Z"/><path fill="#f3dea5" d="M41.357,23.332c-1.681-3.722-1.671-8.208-4.234-10.57a2.8,2.8,0,0,0-2.266-.736,2.372,2.372,0,0,0-.857.3h0a2.419,2.419,0,0,0-.48.346A1.917,1.917,0,0,0,33,13.886a1.917,1.917,0,0,0-.52-1.218,2.419,2.419,0,0,0-.48-.346h0a2.372,2.372,0,0,0-.857-.3,2.8,2.8,0,0,0-2.266.736c-2.563,2.362-2.553,6.848-4.234,10.57C22.071,29.036,20,28.007,20,35.61,20,41.391,24.262,46,29.536,46A4.03,4.03,0,0,0,32,45.039h0a8.384,8.384,0,0,0,1-.928,8.384,8.384,0,0,0,1,.928h0A4.03,4.03,0,0,0,36.464,46C41.738,46,46,41.391,46,35.61,46,28.007,43.929,29.036,41.357,23.332ZM36.2,45a3.627,3.627,0,0,1-2.2-.841V38.78A5.8,5.8,0,0,1,33,39a5.8,5.8,0,0,1-1-.22v5.379A3.627,3.627,0,0,1,29.8,45c-4.869,0-8.8-4.338-8.8-9.779,0-7.156,1.911-6.187,4.286-11.556,1.551-3.5,1.543-7.725,3.908-9.947a2.546,2.546,0,0,1,2.092-.694,2.2,2.2,0,0,1,.714.241V25.876c.584-.552,1-.876,1-.876s.416.324,1,.876V13.265a2.2,2.2,0,0,1,.714-.241,2.546,2.546,0,0,1,2.092.694c2.365,2.222,2.357,6.444,3.908,9.947C43.089,29.034,45,28.065,45,35.221,45,40.662,41.066,45,36.2,45Z"/><ellipse cx="34.5" cy="33" fill="#fdf1c1" rx="1.5" ry="4"/><ellipse cx="31.5" cy="33" fill="#fdf1c1" rx="1.5" ry="4"/><ellipse cx="34.5" cy="33" fill="#403700" rx=".5" ry="1"/><ellipse cx="31.5" cy="33" fill="#403700" rx=".5" ry="1"/><path fill="#807d00" d="M24.186,15.778c.444.873.914,1.664,1.379,2.4.124-.469.249-.932.379-1.386-.326-.572-.65-1.164-.963-1.8-.415-.84-.791-1.636-1.147-2.392a7.744,7.744,0,0,0-.688,1.058C23.466,14.327,23.805,15.03,24.186,15.778Z"/><path fill="#b1ad00" d="M15.373,31.521a23,23,0,0,0,3.706,2.221C19.485,28.12,21.524,28.4,24,23a29.629,29.629,0,0,0,1.565-4.818c-.465-.74-.935-1.531-1.379-2.4-.381-.748-.72-1.451-1.04-2.112C21.728,16.28,21.429,19.89,20,23,17.9,27.571,16.119,28.065,15.373,31.521Z"/><path fill="#807d00" d="M18.66,40.915c.164-.015.322-.039.484-.059.289-.036.571-.084.851-.134A11.657,11.657,0,0,1,19,36v-.051c-.393.033-.8.051-1.209.051H16.208c-.413,0-.815-.018-1.207-.05V36a11.629,11.629,0,0,0,1.12,5h.87C17.564,41,18.118,40.967,18.66,40.915Z"/><path fill="#9e9b00" d="M19.079,33.742a23,23,0,0,1-3.706-2.221A21.342,21.342,0,0,0,15,35.95c.392.032.794.05,1.207.05h1.584c.415,0,.816-.022,1.209-.055C19,35.114,19.031,34.4,19.079,33.742Z"/><path fill="#fdfdd7" d="M47,36c0-8.05-2.23-6.96-5-13-1.81-3.94-1.8-8.69-4.56-11.19A3.043,3.043,0,0,0,35,11.03a2.607,2.607,0,0,0-1.44.68A2.009,2.009,0,0,0,33,13a2.009,2.009,0,0,0-.56-1.29A2.607,2.607,0,0,0,31,11.03a3.043,3.043,0,0,0-2.44.78C25.8,14.31,25.81,19.06,24,23a23.29,23.29,0,0,1-2.5,4.232A37.85,37.85,0,0,0,46.828,37.97,11.9,11.9,0,0,0,47,36Z"/><path fill="none" d="M32 12.322a2.419 2.419 0 0 1 .48.346A2.419 2.419 0 0 0 32 12.322zM31.6 12.14a2.689 2.689 0 0 1 .4.181A2.376 2.376 0 0 0 31.6 12.14zM34.429 12.129a2.28 2.28 0 0 1 .428-.1A2.447 2.447 0 0 0 34.429 12.129zM31.143 12.026a2.28 2.28 0 0 1 .428.1A2.447 2.447 0 0 0 31.143 12.026zM33.52 12.668a2.419 2.419 0 0 1 .48-.346A2.419 2.419 0 0 0 33.52 12.668zM34 12.321a2.689 2.689 0 0 1 .4-.181A2.376 2.376 0 0 0 34 12.321z"/><path fill="#dfe778" d="M24.643,23.332c1.681-3.722,1.671-8.208,4.234-10.57a2.8,2.8,0,0,1,2.266-.736,2.447,2.447,0,0,1,.428.1l.03.011a2.376,2.376,0,0,1,.4.181h0a2.419,2.419,0,0,1,.48.346A1.917,1.917,0,0,1,33,13.886a1.917,1.917,0,0,1,.52-1.218,2.419,2.419,0,0,1,.48-.346h0a2.376,2.376,0,0,1,.4-.181l.03-.011a2.447,2.447,0,0,1,.428-.1,2.8,2.8,0,0,1,2.266.736c2.563,2.362,2.553,6.848,4.234,10.57C43.929,29.036,46,28.007,46,35.61a11.441,11.441,0,0,1-.243,2.319c.355.021.713.031,1.071.041A11.911,11.911,0,0,0,47,36c0-8.05-2.23-6.96-5-13-1.81-3.94-1.8-8.691-4.56-11.191a3.043,3.043,0,0,0-2.44-.78,2.607,2.607,0,0,0-1.44.68A2.009,2.009,0,0,0,33,13a2.009,2.009,0,0,0-.56-1.29,2.607,2.607,0,0,0-1.44-.68,3.043,3.043,0,0,0-2.44.78C25.8,14.307,25.81,19.058,24,23a23.372,23.372,0,0,1-2.5,4.234q.264.256.533.508A23.7,23.7,0,0,0,24.643,23.332Z"/><path fill="#fdf1c1" d="M28.059,32.356a37.767,37.767,0,0,0,9.108,4.071A6.1,6.1,0,0,0,38,33.17c0-3.077-2.542-5.916-4-7.294h0c-.584-.552-1-.876-1-.876s-.416.324-1,.876h0C30.672,27.132,28.445,29.6,28.059,32.356Z"/><path fill="#fdf1c1" d="M41.357,23.332c-1.681-3.722-1.671-8.208-4.234-10.57a2.8,2.8,0,0,0-2.266-.736,2.28,2.28,0,0,0-.428.1l-.03.011a2.689,2.689,0,0,0-.4.181h0a2.419,2.419,0,0,0-.48.346A1.917,1.917,0,0,0,33,13.886a1.917,1.917,0,0,0-.52-1.218,2.419,2.419,0,0,0-.48-.346h0a2.689,2.689,0,0,0-.4-.181l-.03-.011a2.28,2.28,0,0,0-.428-.1,2.8,2.8,0,0,0-2.266.736c-2.563,2.362-2.553,6.848-4.234,10.57a23.7,23.7,0,0,1-2.614,4.408c.183.171.363.344.549.512a25.6,25.6,0,0,0,2.708-4.587c1.551-3.5,1.543-7.725,3.908-9.947a2.546,2.546,0,0,1,2.092-.694,2.2,2.2,0,0,1,.714.241V25.876c.584-.552,1-.876,1-.876s.416.324,1,.876V13.265a2.2,2.2,0,0,1,.714-.241,2.546,2.546,0,0,1,2.092.694c2.365,2.222,2.357,6.444,3.908,9.947C43.089,29.034,45,28.065,45,35.221a10.849,10.849,0,0,1-.327,2.626c.36.031.721.061,1.084.082A11.441,11.441,0,0,0,46,35.61C46,28.007,43.929,29.036,41.357,23.332Z"/><path fill="#f3dea5" d="M31.571,12.129l.03.011Z"/><polygon fill="#f3dea5" points="34 12.322 34 12.322 34 12.322 34 12.321 34 12.322"/><path fill="#f3dea5" d="M34.4,12.14l.03-.011Z"/><polygon fill="#f3dea5" points="32 12.322 32 12.322 32 12.321 32 12.322 32 12.322"/><path fill="#f3dea5" d="M34 25.876c-.584-.552-1-.876-1-.876s.416.324 1 .876zM33 25s-.416.324-1 .876h0C32.584 25.324 33 25 33 25z"/><path fill="#fdfdd7" d="M36,33c0-2.209-1-4-1.5-4S33,30.791,33,33a9.455,9.455,0,0,0,.212,2.02c.759.321,1.534.608,2.317.879A8.166,8.166,0,0,0,36,33Z"/><path fill="#fdfdd7" d="M31.5,29C31,29,30,30.791,30,33c0,.167.011.326.018.488.913.491,1.85.941,2.805,1.357A9.589,9.589,0,0,0,33,33C33,30.791,32,29,31.5,29Z"/><path fill="#745a00" d="M33,1h3c0,5.53,0,8-1,10v.03a2.607,2.607,0,0,0-1.44.68A2.009,2.009,0,0,0,33,13a2.009,2.009,0,0,0-.56-1.29A2.607,2.607,0,0,0,31,11.03V11C32.11,11,33,5.97,33,1Z"/><path fill="#b39500" d="M35,1c0,5.53-1,8-2,10l-.644.644c.028.023.057.041.084.066A2.009,2.009,0,0,1,33,13a2.009,2.009,0,0,1,.56-1.29A2.607,2.607,0,0,1,35,11.03V11c1-2,1-4.47,1-10Z"/><ellipse cx="34.5" cy="33" fill="#403700" rx=".5" ry="1"/><ellipse cx="31.5" cy="33" fill="#403700" rx=".5" ry="1"/><ellipse cx="19" cy="11" fill="#f6fafd" rx="1.65" ry="2.297" transform="rotate(-45.02 19 11)"/><ellipse cx="21" cy="14" fill="#f6fafd" rx=".825" ry="1.148" transform="rotate(-45.02 21 14)"/><ellipse cx="17.746" cy="13.5" fill="#f6fafd" rx=".413" ry=".574" transform="rotate(-45.02 17.746 13.5)"/></g></svg>