<svg xmlns="http://www.w3.org/2000/svg" enable-background="new 0 0 512 512" viewBox="0 0 512 512"><path d="M496,264.677C496,396.498,388.548,486,256,486c-132.548,0-240-89.502-240-221.323C16,132.86,123.452,26,256,26
		C388.548,26,496,132.86,496,264.677z"/><polygon points="340.18 95.434 466 239.229 466 59.485"/><polygon points="46 239.229 171.82 95.434 46 59.485"/><radialGradient id="a" cx="446.064" cy="87.052" r="73.489" gradientUnits="userSpaceOnUse"><stop offset="0" stop-color="#2a333d"/><stop offset=".366" stop-color="#171b21"/><stop offset=".758" stop-color="#060709"/><stop offset="1"/></radialGradient><polygon fill="url(#a)" points="376 106 446 86 446 186"/><linearGradient id="b" x1="434.384" x2="412.431" y1="90.159" y2="109.672" gradientUnits="userSpaceOnUse"><stop offset="0" stop-color="#2a333d"/><stop offset=".899" stop-color="#2a333d" stop-opacity="0"/></linearGradient><polygon fill="url(#b)" points="436 97 407 105 416 116"/><g><radialGradient id="c" cx="756.064" cy="87.052" r="73.489" gradientTransform="matrix(-1 0 0 1 822 0)" gradientUnits="userSpaceOnUse"><stop offset="0" stop-color="#2a333d"/><stop offset=".366" stop-color="#171b21"/><stop offset=".758" stop-color="#060709"/><stop offset="1"/></radialGradient><polygon fill="url(#c)" points="136 106 66 86 66 186"/><linearGradient id="d" x1="744.384" x2="722.431" y1="90.159" y2="109.672" gradientTransform="matrix(-1 0 0 1 822 0)" gradientUnits="userSpaceOnUse"><stop offset="0" stop-color="#2a333d"/><stop offset=".899" stop-color="#2a333d" stop-opacity="0"/></linearGradient><polygon fill="url(#d)" points="76 97 105 105 96 116"/></g><radialGradient id="e" cx="256.791" cy="252.709" r="231.12" gradientTransform="matrix(1 0 0 .968 0 8.08)" gradientUnits="userSpaceOnUse"><stop offset="0" stop-color="#2a333d"/><stop offset=".248" stop-color="#262e37"/><stop offset=".572" stop-color="#1b2127"/><stop offset=".901" stop-color="#0b0d0f"/></radialGradient><path fill="url(#e)" d="M468.5,261.14C468.5,377.199,373.36,456,256,456
		c-117.36,0-212.5-78.801-212.5-194.86C43.5,145.083,138.64,51,256,51C373.36,51,468.5,145.083,468.5,261.14z"/><g><linearGradient id="f" x1="256" x2="256" y1="64.868" y2="264.524" gradientUnits="userSpaceOnUse"><stop offset="0" stop-color="#2a333d"/><stop offset=".839" stop-color="#282f37" stop-opacity="0"/></linearGradient><path fill="url(#f)" d="M422.511,207.307
		c0,78.408-74.553,80.974-166.511,80.974c-91.96,0-166.511-2.565-166.511-80.974c0-78.404,74.551-141.965,166.511-141.965
		C347.959,65.342,422.511,128.903,422.511,207.307z"/><linearGradient id="g" x1="256" x2="256" y1="75.945" y2="119.641" gradientUnits="userSpaceOnUse"><stop offset="0" stop-color="#2a333d"/><stop offset=".279" stop-color="#293038" stop-opacity=".721"/><stop offset="1" stop-color="#282e36" stop-opacity="0"/></linearGradient><path fill="url(#g)" d="M324.542,100.63
		c0,13.959-30.688,25.272-68.542,25.272c-37.857,0-68.543-11.313-68.543-25.272c0-13.956,30.686-25.27,68.543-25.27
		C293.854,75.36,324.542,86.674,324.542,100.63z"/></g><g><linearGradient id="h" x1="365.226" x2="365.226" y1="306.187" y2="237.333" gradientUnits="userSpaceOnUse"><stop offset="0" stop-color="#2a333d"/><stop offset=".381" stop-color="#252d36"/><stop offset=".952" stop-color="#161c21"/><stop offset="1" stop-color="#151a1f"/></linearGradient><path fill="url(#h)" d="M345.044,304.96
			c48.898,0,89.521-34.105,97.622-78.96l-154.881,61.426C303.955,298.47,323.712,304.96,345.044,304.96z"/><path fill="#FFF" d="M289.005,286.945c13.02,6.604,27.848,10.352,43.589,10.352c41.903,0,77.376-26.512,89.318-63.066
			L289.005,286.945z"/><path fill="#101416" d="M442.667,226l-20.754,8.232c-1.637,5.008-3.73,9.818-6.204,14.406l23.065-8.127
			C440.443,235.824,441.767,230.984,442.667,226z"/><path fill="#D1DFE5" d="M364.297,257.081l-75.291,29.864c2.564,1.302,5.197,2.483,7.894,3.556l118.81-41.864
			c2.474-4.588,4.567-9.399,6.204-14.406L364.297,257.081z"/><g><linearGradient id="i" x1="146.774" x2="146.774" y1="306.187" y2="237.333" gradientUnits="userSpaceOnUse"><stop offset="0" stop-color="#2a333d"/><stop offset=".381" stop-color="#252d36"/><stop offset=".952" stop-color="#161c21"/><stop offset="1" stop-color="#151a1f"/></linearGradient><path fill="url(#i)" d="M166.956,304.96
			c-48.898,0-89.521-34.105-97.623-78.96l154.881,61.426C208.045,298.47,188.288,304.96,166.956,304.96z"/><path fill="#FFF" d="M222.995,286.945c-13.02,6.604-27.848,10.352-43.589,10.352c-41.903,0-77.376-26.512-89.318-63.066
			L222.995,286.945z"/><path fill="#101416" d="M69.333,226l20.754,8.232c1.637,5.008,3.73,9.818,6.204,14.406l-23.065-8.127
				C71.557,235.824,70.233,230.984,69.333,226z"/><path fill="#D1DFE5" d="M147.703,257.081l75.291,29.864c-2.564,1.302-5.197,2.483-7.894,3.556l-118.81-41.864
			c-2.474-4.588-4.567-9.399-6.204-14.406L147.703,257.081z"/></g><g><linearGradient id="j" x1="256" x2="256" y1="358.996" y2="272.073" gradientUnits="userSpaceOnUse"><stop offset="0" stop-color="#2a333d"/><stop offset="1" stop-color="#282e37" stop-opacity="0"/></linearGradient><path fill="url(#j)" d="M218,363.429c10.029-6.093,65.971-6.093,76,0
			L273.51,275h-35.014L218,363.429z"/><path d="M279.908,374.382c2.121,0,4.129,0.347,5.945,0.958L294,363.289c-12.96-5.906-63.037-5.906-76,0l8.146,12.048
			c1.816-0.608,3.826-0.955,5.945-0.955c8.059,0,14.594,4.903,14.594,10.954c0,0.47-0.053,0.931-0.131,1.386l9.447,5.27l9.443-5.269
			c-0.076-0.455-0.131-0.915-0.131-1.387C265.314,379.285,271.848,374.382,279.908,374.382z"/></g></g><g><radialGradient id="k" cx="254.472" cy="267.132" r="207.365" gradientUnits="userSpaceOnUse"><stop offset=".028" stop-color="#576874"/><stop offset=".377" stop-color="#435460"/><stop offset=".659" stop-color="#42525e" stop-opacity=".547"/><stop offset=".761" stop-color="#3d4c57" stop-opacity=".383"/><stop offset=".834" stop-color="#35424c" stop-opacity=".267"/><stop offset=".892" stop-color="#29333b" stop-opacity=".173"/><stop offset=".943" stop-color="#1a2025" stop-opacity=".092"/><stop offset=".986" stop-color="#07090a" stop-opacity=".022"/><stop offset="1" stop-opacity="0"/></radialGradient><rect width="1" height="104" x="255.5" y="52" fill="url(#k)"/><radialGradient id="l" cx="254.472" cy="267.132" r="207.365" gradientUnits="userSpaceOnUse"><stop offset=".028" stop-color="#576874"/><stop offset=".377" stop-color="#435460"/><stop offset=".659" stop-color="#42525e" stop-opacity=".547"/><stop offset=".761" stop-color="#3d4c57" stop-opacity=".383"/><stop offset=".834" stop-color="#35424c" stop-opacity=".267"/><stop offset=".892" stop-color="#29333b" stop-opacity=".173"/><stop offset=".943" stop-color="#1a2025" stop-opacity=".092"/><stop offset=".986" stop-color="#07090a" stop-opacity=".022"/><stop offset="1" stop-opacity="0"/></radialGradient><path fill="url(#l)" d="M255.776,296.447L235.5,286.309v-40.015
				l-89.871-50l0-0.293c-0.001-0.722,0.331-72.84,40.084-132.279l0.831,0.556c-38.3,57.267-39.854,126.353-39.913,131.429
				l89.869,49.999v39.985l19.724,9.861L255.776,296.447z"/><radialGradient id="m" cx="254.472" cy="267.132" r="207.365" gradientUnits="userSpaceOnUse"><stop offset=".028" stop-color="#576874"/><stop offset=".377" stop-color="#435460"/><stop offset=".659" stop-color="#42525e" stop-opacity=".547"/><stop offset=".761" stop-color="#3d4c57" stop-opacity=".383"/><stop offset=".834" stop-color="#35424c" stop-opacity=".267"/><stop offset=".892" stop-color="#29333b" stop-opacity=".173"/><stop offset=".943" stop-color="#1a2025" stop-opacity=".092"/><stop offset=".986" stop-color="#07090a" stop-opacity=".022"/><stop offset="1" stop-opacity="0"/></radialGradient><path fill="url(#m)" d="M223.5,287.738l-0.686-0.274L48.909,217.953
				l0.371-0.929l173.22,69.238v-19.938L88.519,206.333l-0.018-0.303c-0.03-0.512-2.643-51.753,29.073-103.292l0.852,0.524
				c-30.279,49.203-29.109,98.114-28.94,102.407L223.5,265.676V287.738z"/><radialGradient id="n" cx="254.472" cy="267.132" r="207.365" gradientUnits="userSpaceOnUse"><stop offset=".028" stop-color="#576874"/><stop offset=".377" stop-color="#435460"/><stop offset=".659" stop-color="#42525e" stop-opacity=".547"/><stop offset=".761" stop-color="#3d4c57" stop-opacity=".383"/><stop offset=".834" stop-color="#35424c" stop-opacity=".267"/><stop offset=".892" stop-color="#29333b" stop-opacity=".173"/><stop offset=".943" stop-color="#1a2025" stop-opacity=".092"/><stop offset=".986" stop-color="#07090a" stop-opacity=".022"/><stop offset="1" stop-opacity="0"/></radialGradient><path fill="url(#n)" d="M223.759,333.712l6.808-26.814
				c-5.12,2.355-30.006,13.096-62.468,15.301c-33.55,2.278-82.286-4.34-123.963-48.812l0.729-0.684
				c41.399,44.175,89.807,50.758,123.13,48.501c36.139-2.447,62.83-15.526,63.095-15.658l0.975-0.483l-6.831,26.905
				c6.451-2.603,17.814-4.143,30.766-4.143v1c-13.271,0-25.261,1.707-31.292,4.456L223.759,333.712z"/><g><radialGradient id="o" cx="254.472" cy="267.132" r="207.365" gradientUnits="userSpaceOnUse"><stop offset=".028" stop-color="#576874"/><stop offset=".377" stop-color="#435460"/><stop offset=".659" stop-color="#42525e" stop-opacity=".547"/><stop offset=".761" stop-color="#3d4c57" stop-opacity=".383"/><stop offset=".834" stop-color="#35424c" stop-opacity=".267"/><stop offset=".892" stop-color="#29333b" stop-opacity=".173"/><stop offset=".943" stop-color="#1a2025" stop-opacity=".092"/><stop offset=".986" stop-color="#07090a" stop-opacity=".022"/><stop offset="1" stop-opacity="0"/></radialGradient><path fill="url(#o)" d="M256.224,296.447l-0.447-0.895l19.724-9.861
				v-39.985l0.257-0.143l89.612-49.856c-0.061-5.077-1.619-74.171-39.914-131.429l0.832-0.556
				c39.753,59.439,40.085,131.557,40.084,132.279l-0.001,0.293l-0.256,0.143L276.5,246.294v40.015L256.224,296.447z"/></g><g><radialGradient id="p" cx="254.472" cy="267.132" r="207.365" gradientUnits="userSpaceOnUse"><stop offset=".028" stop-color="#576874"/><stop offset=".377" stop-color="#435460"/><stop offset=".659" stop-color="#42525e" stop-opacity=".547"/><stop offset=".761" stop-color="#3d4c57" stop-opacity=".383"/><stop offset=".834" stop-color="#35424c" stop-opacity=".267"/><stop offset=".892" stop-color="#29333b" stop-opacity=".173"/><stop offset=".943" stop-color="#1a2025" stop-opacity=".092"/><stop offset=".986" stop-color="#07090a" stop-opacity=".022"/><stop offset="1" stop-opacity="0"/></radialGradient><path fill="url(#p)" d="M288.5,287.738v-22.062l0.296-0.132
				l133.719-59.875c0.169-4.293,1.338-53.205-28.94-102.407l0.852-0.524c31.716,51.538,29.104,102.78,29.073,103.292l-0.018,0.303
				l-0.277,0.124L289.5,266.324v19.938l173.221-69.238l0.371,0.929L288.5,287.738z"/></g><g><radialGradient id="q" cx="254.472" cy="267.132" r="207.365" gradientUnits="userSpaceOnUse"><stop offset=".028" stop-color="#576874"/><stop offset=".377" stop-color="#435460"/><stop offset=".659" stop-color="#42525e" stop-opacity=".547"/><stop offset=".761" stop-color="#3d4c57" stop-opacity=".383"/><stop offset=".834" stop-color="#35424c" stop-opacity=".267"/><stop offset=".892" stop-color="#29333b" stop-opacity=".173"/><stop offset=".943" stop-color="#1a2025" stop-opacity=".092"/><stop offset=".986" stop-color="#07090a" stop-opacity=".022"/><stop offset="1" stop-opacity="0"/></radialGradient><path fill="url(#q)" d="M288.241,333.712l-0.948-0.432
				c-6.032-2.749-18.022-4.456-31.293-4.456v-1c12.952,0,24.314,1.54,30.767,4.143l-6.832-26.905l0.976,0.483
				c0.266,0.132,26.956,13.211,63.096,15.658c33.316,2.249,81.73-4.326,123.129-48.501l0.73,0.684
				c-41.68,44.474-90.427,51.088-123.964,48.812c-32.462-2.205-57.348-12.945-62.469-15.301L288.241,333.712z"/></g><g><radialGradient id="r" cx="254.472" cy="267.132" r="207.365" gradientUnits="userSpaceOnUse"><stop offset=".028" stop-color="#576874"/><stop offset=".377" stop-color="#435460"/><stop offset=".659" stop-color="#42525e" stop-opacity=".547"/><stop offset=".761" stop-color="#3d4c57" stop-opacity=".383"/><stop offset=".834" stop-color="#35424c" stop-opacity=".267"/><stop offset=".892" stop-color="#29333b" stop-opacity=".173"/><stop offset=".943" stop-color="#1a2025" stop-opacity=".092"/><stop offset=".986" stop-color="#07090a" stop-opacity=".022"/><stop offset="1" stop-opacity="0"/></radialGradient><path fill="url(#r)" d="M349.67,437.562
					c-7.166-22.431-19.56-39.312-19.684-39.479l-0.364-0.491l0.554-0.26c26.936-12.607,49.814-29.985,68-51.652l0.35-0.417
					l15.68,15.588c3.475-2.706,32.319-25.735,48.163-56.121l0.887,0.463c-16.899,32.409-48.474,56.481-48.79,56.722l-0.347,0.261
					l-15.527-15.437c-18.1,21.44-40.785,38.676-67.446,51.244c2.095,2.955,12.944,18.826,19.479,39.275L349.67,437.562z"/><g><radialGradient id="s" cx="254.472" cy="267.132" r="207.365" gradientUnits="userSpaceOnUse"><stop offset=".028" stop-color="#576874"/><stop offset=".377" stop-color="#435460"/><stop offset=".659" stop-color="#42525e" stop-opacity=".547"/><stop offset=".761" stop-color="#3d4c57" stop-opacity=".383"/><stop offset=".834" stop-color="#35424c" stop-opacity=".267"/><stop offset=".892" stop-color="#29333b" stop-opacity=".173"/><stop offset=".943" stop-color="#1a2025" stop-opacity=".092"/><stop offset=".986" stop-color="#07090a" stop-opacity=".022"/><stop offset="1" stop-opacity="0"/></radialGradient><path fill="url(#s)" d="M162.329,437.562l-0.952-0.305
					c6.533-20.447,17.383-36.318,19.479-39.275c-26.661-12.567-49.346-29.803-67.447-51.244l-15.527,15.437l-0.346-0.261
					c-0.317-0.24-31.892-24.312-48.79-56.722l0.887-0.463c15.843,30.386,44.688,53.415,48.163,56.121l15.679-15.588l0.35,0.417
					c18.186,21.667,41.064,39.046,68,51.652l0.554,0.26l-0.364,0.491C181.89,398.25,169.497,415.131,162.329,437.562z"/></g></g></g></svg>