<svg xmlns="http://www.w3.org/2000/svg" enable-background="new 0 0 512 512" viewBox="0 0 512 512"><path d="M496,264.677C496,396.498,388.548,486,256,486c-132.548,0-240-89.502-240-221.323C16,132.86,123.452,26,256,26
		C388.548,26,496,132.86,496,264.677z"/><radialGradient id="a" cx="254.472" cy="252.89" r="225.317" gradientUnits="userSpaceOnUse"><stop offset="0" stop-color="#c1272d"/><stop offset=".283" stop-color="#bf272d"/><stop offset=".443" stop-color="#b6262c"/><stop offset=".572" stop-color="#a9252b"/><stop offset=".685" stop-color="#95232a"/><stop offset=".787" stop-color="#7b2128"/><stop offset=".882" stop-color="#5c1e25"/><stop offset=".969" stop-color="#371a22"/><stop offset="1" stop-color="#281921"/></radialGradient><path fill="url(#a)" d="M468.5,261.14C468.5,377.199,373.36,456,256,456c-117.36,0-212.5-78.801-212.5-194.86
		C43.5,145.083,138.64,51,256,51C373.36,51,468.5,145.083,468.5,261.14z"/><radialGradient id="b" cx="254.472" cy="252.89" r="225.317" gradientUnits="userSpaceOnUse"><stop offset="0" stop-color="#c1272d"/><stop offset=".283" stop-color="#bf272d"/><stop offset=".443" stop-color="#b6262c"/><stop offset=".572" stop-color="#a9252b"/><stop offset=".685" stop-color="#95232a"/><stop offset=".787" stop-color="#7b2128"/><stop offset=".882" stop-color="#5c1e25"/><stop offset=".969" stop-color="#371a22"/><stop offset="1" stop-color="#281921"/></radialGradient><path fill="url(#b)" d="M186,456.549
			c22.017,6.179,45.546,9.451,70,9.451c24.454,0,47.983-3.272,70-9.451V436H186V456.549z"/><linearGradient id="c" x1="256" x2="256" y1="410.341" y2="453.132" gradientUnits="userSpaceOnUse"><stop offset="0" stop-color="#ae252c"/><stop offset=".288" stop-color="#98232a" stop-opacity=".712"/><stop offset=".885" stop-color="#5f1e26" stop-opacity=".115"/><stop offset="1" stop-color="#531d25" stop-opacity="0"/></linearGradient><path fill="url(#c)" d="M256,416h-48l-2,1.814v43.455
			c16.074,3.108,32.807,4.732,50,4.732c17.193,0,33.926-1.624,50-4.732v-43.455L304,416H256z"/><g><radialGradient id="d" cx="255.264" cy="235.483" r="202.107" gradientUnits="userSpaceOnUse"><stop offset="0" stop-color="#fcee21"/><stop offset=".748" stop-color="#f79c1e"/><stop offset=".782" stop-color="#f2981d"/><stop offset=".825" stop-color="#e28d1c"/><stop offset=".873" stop-color="#c87c19"/><stop offset=".923" stop-color="#a46315"/><stop offset=".977" stop-color="#764310"/><stop offset="1" stop-color="#60340e"/></radialGradient><path fill="url(#d)" d="M135.945,401.572
			c15.306,10.13,30.314,17.222,48.58,23.02L204,406h2h100h2l19.475,18.592c18.266-5.799,33.275-12.89,48.58-23.02
			c2.181-85.921,72.538-121.997,79.402-125.315c0.355-4.786,0.543-9.643,0.543-14.575c0-46.36-15.971-89.012-42.741-122.821
			c-24.956-24.793-57.005-43.647-93.241-53.979L306,176H206l-14.018-91.117c-36.237,10.332-68.285,29.185-93.241,53.979
			C71.971,172.67,56,215.322,56,261.682c0,4.932,0.187,9.789,0.543,14.575C63.407,279.575,133.764,315.651,135.945,401.572z"/><radialGradient id="e" cx="254.868" cy="182.077" r="136.245" gradientUnits="userSpaceOnUse"><stop offset="0" stop-color="#fcee21"/><stop offset=".339" stop-color="#fceb21" stop-opacity=".661"/><stop offset=".604" stop-color="#fbe120" stop-opacity=".397"/><stop offset=".842" stop-color="#fad120" stop-opacity=".158"/><stop offset="1" stop-color="#f9c11f" stop-opacity="0"/></radialGradient><path fill="url(#e)" d="M320.018,84.883L306,176h-50h-50l-14.018-91.117
			c-34.988,9.976-66.051,27.913-90.615,51.454c24.511-21.248,55.023-36.059,86.633-45.454L202.369,181H256h53.631L324,90.882
			c31.61,9.395,62.122,24.206,86.633,45.454C386.069,112.796,355.006,94.858,320.018,84.883z"/><radialGradient id="f" cx="256" cy="355.737" r="152.247" gradientUnits="userSpaceOnUse"><stop offset="0" stop-color="#742027"/><stop offset=".448" stop-color="#541d24"/><stop offset="1" stop-color="#281921"/></radialGradient><path fill="url(#f)" d="M456,276c0,0-77.653,35.241-79.945,125.572
				c-15.305,10.13-30.314,17.222-48.58,23.02L308,406H204l-19.474,18.592c-18.266-5.799-33.275-12.89-48.58-23.02
				C133.652,311.241,56,276,56,276s64.206,34.257,69.627,119.155c-0.004-0.004-0.009-0.009-0.013-0.013
				c0.193,3.019,0.321,6.095,0.36,9.243c0,0,0,0.001,0,0.001c1.015,0.771,2.042,1.529,3.074,2.28
				c17.032,12.391,36.419,22.123,57.478,28.808L208,416h96l21.475,19.475c21.059-6.685,40.446-16.416,57.478-28.808
				c1.033-0.751,2.059-1.51,3.074-2.28c0,0,0-0.001,0-0.001c0.039-3.115,0.164-6.16,0.353-9.149
				c-0.004,0.003-0.008,0.006-0.012,0.009C391.749,310.281,456,276,456,276z"/><radialGradient id="g" cx="256.846" cy="415.879" r="200.682" gradientUnits="userSpaceOnUse"><stop offset="0" stop-color="#d05a5f"/><stop offset=".6" stop-color="#c1272d"/><stop offset=".756" stop-color="#bf272d"/><stop offset=".817" stop-color="#b8262c"/><stop offset=".861" stop-color="#ac252b"/><stop offset=".897" stop-color="#9b242a"/><stop offset=".928" stop-color="#842128"/><stop offset=".955" stop-color="#691f26"/><stop offset=".98" stop-color="#491c24"/><stop offset="1" stop-color="#281921"/></radialGradient><path fill="url(#g)" d="M456,276c0,0-68.591,34.281-74.336,119.245
				c0.004-0.003,0.008-0.006,0.013-0.009c-0.189,2.792-0.311,5.692-0.36,8.595c-16.635,11.834-34.452,21.171-54.842,27.644L306,412
				h-50h-50l-20.475,19.475c-20.39-6.473-38.207-15.81-54.842-27.644c-0.05-2.902-0.171-5.802-0.36-8.595
				c0.004,0.003,0.008,0.006,0.013,0.009C124.591,310.281,56,276,56,276s64.251,34.281,69.632,119.245
				c-0.004-0.003-0.008-0.006-0.012-0.009c0.19,2.989,0.315,6.034,0.353,9.149c0,0,2.042,1.53,3.074,2.281
				c17.032,12.391,36.419,22.123,57.478,28.808L208,416h48h48l21.475,19.475c21.059-6.685,40.446-16.416,57.478-28.808
				c1.033-0.751,3.074-2.281,3.074-2.281c0.039-3.115,0.164-6.16,0.353-9.149c-0.004,0.003-0.008,0.006-0.012,0.009
				C391.749,310.281,456,276,456,276z"/><g><linearGradient id="h" x1="382.311" x2="382.311" y1="275.44" y2="421.216" gradientUnits="userSpaceOnUse"><stop offset="0" stop-color="#fcee21"/><stop offset=".656" stop-color="#f79c1e"/><stop offset=".729" stop-color="#f1981d"/><stop offset=".826" stop-color="#e08c1c"/><stop offset=".936" stop-color="#c47919"/><stop offset="1" stop-color="#b16c17"/></linearGradient><path fill="url(#h)" d="M376.055,401.572
					c2.181-85.921,72.538-121.997,79.402-125.315c0.003-0.053,0.007-0.106,0.01-0.159c-7.939,1.518-105.738,22.312-146.313,131.004
					l18.32,17.49C345.741,418.794,360.749,411.702,376.055,401.572z"/><linearGradient id="i" x1="129.689" x2="129.689" y1="275.44" y2="421.216" gradientUnits="userSpaceOnUse"><stop offset="0" stop-color="#fcee21"/><stop offset=".656" stop-color="#f79c1e"/><stop offset=".729" stop-color="#f1981d"/><stop offset=".826" stop-color="#e08c1c"/><stop offset=".936" stop-color="#c47919"/><stop offset="1" stop-color="#b16c17"/></linearGradient><path fill="url(#i)" d="M135.945,401.572
					c15.306,10.13,30.314,17.222,48.58,23.02l18.32-17.49C162.27,298.41,64.471,277.616,56.532,276.098
					c0.004,0.053,0.007,0.106,0.01,0.159C63.407,279.575,133.764,315.651,135.945,401.572z"/><g><path fill="#FCEE21" d="M308 406l1.155 1.102C349.73 298.41 447.529 277.616 455.468 276.098 447.026 277.611 343.332 298.25 299.784 406H306 308zM206 406h6.216C168.668 298.25 64.974 277.611 56.532 276.098c7.939 1.518 105.738 22.312 146.313 131.004L204 406H206z"/></g></g></g><g><radialGradient id="j" cx="257.736" cy="443.477" r="140.643" gradientUnits="userSpaceOnUse"><stop offset=".166" stop-color="#f79c1e"/><stop offset=".217" stop-color="#e8921c"/><stop offset=".316" stop-color="#c27718"/><stop offset=".45" stop-color="#844d12"/><stop offset=".523" stop-color="#60340e"/><stop offset=".925" stop-color="#231305"/></radialGradient><path fill="url(#j)" d="M198,386h116l19,20
			c0,0,23.712-0.003,43.118-6.094c0.099-2.746,0.267-5.441,0.501-8.085C358.026,397.995,337,398,337,398l-20-21H195l-20,21
			c0,0-21.026-0.005-39.619-6.179c0.234,2.644,0.402,5.338,0.501,8.085C155.288,405.997,179,406,179,406L198,386z"/><radialGradient id="k" cx="256" cy="388.453" r="86.447" gradientUnits="userSpaceOnUse"><stop offset="0" stop-color="#742027"/><stop offset=".448" stop-color="#541d24"/><stop offset="1" stop-color="#281921"/></radialGradient><path fill="none" stroke="url(#k)" stroke-linecap="round" stroke-linejoin="round" stroke-miterlimit="10" stroke-width="2" d="
			M376.118,399.906c0.099-2.746,0.267-5.441,0.501-8.085C358.026,397.995,337,398,337,398l-20-21H195l-20,21
			c0,0-21.026-0.005-39.619-6.179c0.234,2.644,0.402,5.338,0.501,8.085"/><path fill="none" stroke="#FCEE21" stroke-linejoin="round" stroke-miterlimit="10" stroke-width="1.5" d="M135.882,399.906
			C155.288,405.997,179,406,179,406l19-20h116l19,20c0,0,23.712-0.003,43.118-6.094"/></g><g><linearGradient id="l" x1="256" x2="256" y1="165.066" y2="56.289" gradientUnits="userSpaceOnUse"><stop offset="0" stop-color="#c13442"/><stop offset=".141" stop-color="#b7323f" stop-opacity=".841"/><stop offset=".376" stop-color="#9e2d39" stop-opacity=".574"/><stop offset=".675" stop-color="#74242e" stop-opacity=".236"/><stop offset=".884" stop-color="#531d25" stop-opacity="0"/></linearGradient><path fill="url(#l)" d="M198.148,58.886L216,166h80l17.852-107.114
			C295.459,53.751,276.055,51,256,51C235.945,51,216.541,53.751,198.148,58.886z"/><radialGradient id="m" cx="255.659" cy="130.253" r="42.337" gradientUnits="userSpaceOnUse"><stop offset="0" stop-color="#742027"/><stop offset=".204" stop-color="#6f2027"/><stop offset=".46" stop-color="#5f1e25"/><stop offset=".741" stop-color="#461c23"/><stop offset="1" stop-color="#281921"/></radialGradient><polygon fill="url(#m)" points="216 116 226 106 286 106 296 116"/><linearGradient id="n" x1="256" x2="256" y1="117.525" y2="58.81" gradientUnits="userSpaceOnUse"><stop offset=".121" stop-color="#c13442"/><stop offset=".324" stop-color="#a72f3b" stop-opacity=".769"/><stop offset="1" stop-color="#531d25" stop-opacity="0"/></linearGradient><polygon fill="url(#n)" points="293 56 219 56 226 106 286 106"/><linearGradient id="o" x1="277" x2="277" y1="129.83" y2="59.372" gradientTransform="matrix(.1667 0 0 1 248.333 0)" gradientUnits="userSpaceOnUse"><stop offset=".279" stop-color="#6a1f27" stop-opacity=".5"/><stop offset="1" stop-color="#531d25" stop-opacity="0"/></linearGradient><polygon fill="url(#o)" points="303 66 293 56 286 106 296 116"/><linearGradient id="p" x1="697" x2="697" y1="129.83" y2="59.372" gradientTransform="matrix(-.1667 0 0 1 333.667 0)" gradientUnits="userSpaceOnUse"><stop offset="0" stop-color="#c13442"/><stop offset=".158" stop-color="#b83240" stop-opacity=".843"/><stop offset=".414" stop-color="#a02d39" stop-opacity=".586"/><stop offset=".737" stop-color="#78252f" stop-opacity=".263"/><stop offset="1" stop-color="#531d25" stop-opacity="0"/></linearGradient><polygon fill="url(#p)" points="209 66 219 56 226 106 216 116"/><polyline fill="none" stroke="#E24B61" stroke-linecap="round" stroke-linejoin="round" stroke-miterlimit="10" stroke-width="2" points="216 116 226 106 286 106 296 116"/></g><g><linearGradient id="q" x1="256" x2="256" y1="97.287" y2="161.975" gradientUnits="userSpaceOnUse"><stop offset="0" stop-color="#fcee21" stop-opacity=".75"/><stop offset="1" stop-color="#fbb03b" stop-opacity="0"/></linearGradient><path fill="url(#q)" d="M446,261.682
		c0-42.562-13.902-82.71-40.211-116.146c-21.443-21.171-48.104-35.496-75.657-45.631L316.579,189H195.421l-13.553-89.095
		c-27.553,10.135-54.212,24.46-75.656,45.631C79.902,178.972,66,219.12,66,261.682H446z"/></g><g><radialGradient id="r" cx="255.264" cy="255.264" r="181.198" gradientUnits="userSpaceOnUse"><stop offset=".166" stop-color="#f79c1e"/><stop offset=".217" stop-color="#e8921c"/><stop offset=".316" stop-color="#c27718"/><stop offset=".45" stop-color="#844d12"/><stop offset=".523" stop-color="#60340e"/><stop offset=".925" stop-color="#231305"/></radialGradient><path fill="url(#r)" d="M304.034,253.625l9.831,23.909l4.282,0.583
		c0.998,0.136,10.897,1.426,25.673,1.426c22.855,0,57.373-3.089,88.623-18.316l5.446-2.654l-12.633-51.72
		C386.741,233.314,325.265,249,256,249c-69.264,0-130.741-15.686-169.255-42.147l-12.633,51.721l5.446,2.654
		c31.25,15.227,65.768,18.316,88.623,18.316c14.775,0,24.675-1.29,25.673-1.426l4.282-0.583l9.831-23.909l0.001-0.009
		C223.46,255.187,239.528,256,256,256s32.54-0.813,48.033-2.384L304.034,253.625z"/><linearGradient id="s" x1="308.538" x2="436.813" y1="247.559" y2="247.559" gradientUnits="userSpaceOnUse"><stop offset="0" stop-color="#f2f2f2"/><stop offset=".5" stop-color="#fff"/><stop offset="1" stop-color="#a5a8aa"/></linearGradient><path fill="url(#s)" d="M316.157,270.686c0,0,60,8.163,110-16.201
		l-7.725-31.366c-29.697,14.882-67.373,25.259-109.503,29.987L316.157,270.686z"/><linearGradient id="t" x1="203.571" x2="97.293" y1="247.559" y2="247.559" gradientUnits="userSpaceOnUse"><stop offset="0" stop-color="#f2f2f2"/><stop offset=".5" stop-color="#fff"/><stop offset="1" stop-color="#a5a8aa"/></linearGradient><path fill="url(#t)" d="M195.843,270.686c0,0-60,8.163-110-16.201
		l7.725-31.366c29.697,14.882,67.373,25.259,109.503,29.987L195.843,270.686z"/><radialGradient id="u" cx="256" cy="218.042" r="121.56" gradientUnits="userSpaceOnUse"><stop offset="0" stop-color="#fcee21"/><stop offset=".279" stop-color="#fce821" stop-opacity=".721"/><stop offset=".643" stop-color="#fbd820" stop-opacity=".357"/><stop offset="1" stop-color="#f9c11f" stop-opacity="0"/></radialGradient><path fill="url(#u)" d="M86.745,206L92,187.936
		C134.195,211.986,187.633,226,256,226c68.367,0,121.805-14.014,164-38.063L425.255,206
		c-38.514,26.461-99.991,42.147-169.255,42.147C186.736,248.147,125.259,232.461,86.745,206z"/><path fill="none" stroke="#FCEE21" stroke-linejoin="round" stroke-miterlimit="10" stroke-width="2" d="M86.745,206.853
		l-12.633,51.721l5.446,2.654c31.25,15.227,65.768,18.316,88.623,18.316c14.775,0,24.675-1.29,25.673-1.426l4.282-0.583
		l9.831-23.909l0.001-0.009C223.46,255.187,239.528,256,256,256s32.54-0.813,48.033-2.384l0.001,0.009l9.831,23.909l4.282,0.583
		c0.998,0.136,10.897,1.426,25.673,1.426c22.855,0,57.373-3.089,88.623-18.316l5.446-2.654l-12.633-51.72"/></g></svg>