<svg xmlns="http://www.w3.org/2000/svg" enable-background="new 0 0 512 512" viewBox="0 0 512 512"><path d="M496,264.677C496,396.498,388.548,486,256,486c-132.548,0-240-89.502-240-221.323C16,132.86,123.452,26,256,26
		C388.548,26,496,132.86,496,264.677z"/><radialGradient id="a" cx="256.747" cy="259.286" r="205.714" gradientTransform="matrix(0 1 -1.0762 0 535.798 2.538)" gradientUnits="userSpaceOnUse"><stop offset="0" stop-color="#da0e19"/><stop offset=".721" stop-color="#9b0a12"/><stop offset=".951" stop-color="#5b060b"/></radialGradient><path fill="url(#a)" d="M468.5,261.14C468.5,377.199,373.36,456,256,456c-117.36,0-212.5-78.801-212.5-194.86
		C43.5,145.083,138.64,51,256,51C373.36,51,468.5,145.083,468.5,261.14z"/><linearGradient id="b" x1="256" x2="256" y1="-48.56" y2="306.693" gradientUnits="userSpaceOnUse"><stop offset="0" stop-color="#ed1c24"/><stop offset="1" stop-color="#ed1c24" stop-opacity="0"/></linearGradient><path fill="url(#b)" d="M422.511,207.307
		c0,78.408-74.553,80.974-166.511,80.974c-91.96,0-166.511-2.565-166.511-80.974c0-78.404,74.551-141.965,166.511-141.965
		C347.959,65.342,422.511,128.903,422.511,207.307z"/><linearGradient id="c" x1="256" x2="256" y1="25.813" y2="118.388" gradientUnits="userSpaceOnUse"><stop offset="0" stop-color="#df5156" stop-opacity=".785"/><stop offset=".175" stop-color="#e6787c" stop-opacity=".648"/><stop offset=".457" stop-color="#f1b2b4" stop-opacity=".427"/><stop offset=".698" stop-color="#f9dcdd" stop-opacity=".237"/><stop offset=".887" stop-color="#fdf5f6" stop-opacity=".089"/><stop offset="1" stop-color="#fff" stop-opacity="0"/></linearGradient><path fill="url(#c)" d="M324.542,100.63
		c0,13.959-30.688,25.272-68.542,25.272c-37.857,0-68.543-11.313-68.543-25.272c0-13.956,30.686-25.27,68.543-25.27
		C293.854,75.36,324.542,86.674,324.542,100.63z"/><g><linearGradient id="d" x1="364.883" x2="364.883" y1="387.132" y2="116.691" gradientUnits="userSpaceOnUse"><stop offset=".161"/><stop offset="1" stop-color="#0f2638"/></linearGradient><path fill="url(#d)" d="M453.767,269.006
		c0,55.998-35.561,116.994-79.428,116.994C330.471,386,276,325.004,276,269.006c0-55.999,71.9-101.396,115.767-101.396
		C435.634,167.61,453.767,213.007,453.767,269.006z"/><linearGradient id="e" x1="147.117" x2="147.117" y1="387.132" y2="116.691" gradientUnits="userSpaceOnUse"><stop offset=".161"/><stop offset="1" stop-color="#0f2638"/></linearGradient><path fill="url(#e)" d="M58.233,269.006
		c0,55.998,35.56,116.994,79.428,116.994C181.529,386,236,325.004,236,269.006c0-55.999-71.899-101.396-115.768-101.396
		C76.366,167.61,58.233,213.007,58.233,269.006z"/></g><g><path fill="#163047" d="M345.044,304.96c48.898,0,89.521-34.105,97.622-78.96l-154.881,61.426
			C303.955,298.47,323.712,304.96,345.044,304.96z"/><path fill="#FFF" d="M289.005,286.945c13.02,6.604,27.848,10.352,43.589,10.352c41.903,0,77.376-26.512,89.318-63.066
			L289.005,286.945z"/><path fill="#0F2638" d="M442.667,226l-20.754,8.232c-1.637,5.008-3.73,9.818-6.204,14.406l23.065-8.127
			C440.443,235.824,441.767,230.984,442.667,226z"/><path fill="#BDCCD4" d="M364.297,257.081l-75.291,29.864c2.564,1.302,5.197,2.483,7.894,3.556l118.81-41.864
			c2.474-4.588,4.567-9.399,6.204-14.406L364.297,257.081z"/><g><path fill="#163047" d="M166.956,304.96c-48.898,0-89.521-34.105-97.623-78.96l154.881,61.426
			C208.045,298.47,188.288,304.96,166.956,304.96z"/><path fill="#FFF" d="M222.995,286.945c-13.02,6.604-27.848,10.352-43.589,10.352c-41.903,0-77.376-26.512-89.318-63.066
			L222.995,286.945z"/><path fill="#0F2638" d="M69.333,226l20.754,8.232c1.637,5.008,3.73,9.818,6.204,14.406l-23.065-8.127
				C71.557,235.824,70.233,230.984,69.333,226z"/><path fill="#BDCCD4" d="M147.703,257.081l75.291,29.864c-2.564,1.302-5.197,2.483-7.894,3.556l-118.81-41.864
			c-2.474-4.588-4.567-9.399-6.204-14.406L147.703,257.081z"/></g><path fill="#96000B" d="M236,286h40c-4.914-5.489-12.052-8.947-20-8.947C248.052,277.053,240.914,280.511,236,286z"/></g></svg>