<svg xmlns="http://www.w3.org/2000/svg" viewBox="0 0 48 48"><g data-name="21-kiwi"><path fill="#977b00" d="M18.924,3.348a2.995,2.995,0,0,0-5.848,0C6.192,4.981,1,12.26,1,21c0,9.941,6.716,18,15,18s15-8.059,15-18C31,12.26,25.808,4.981,18.924,3.348Z"/><circle cx="34" cy="34" r="13" fill="#abcc00"/><path fill="#8bc808" d="M40.22,33.485a1.444,1.444,0,0,1-.541-2.076,1.445,1.445,0,0,0-1.644-2.171,1.447,1.447,0,0,1-1.852-1.085,1.445,1.445,0,0,0-2.7-.373,1.444,1.444,0,0,1-2.076.541,1.445,1.445,0,0,0-2.171,1.644,1.447,1.447,0,0,1-1.085,1.852,1.445,1.445,0,0,0-.373,2.7,1.444,1.444,0,0,1,.541,2.076,1.445,1.445,0,0,0,1.644,2.171,1.447,1.447,0,0,1,1.852,1.085,1.445,1.445,0,0,0,2.7.373,1.444,1.444,0,0,1,2.076-.541,1.445,1.445,0,0,0,2.171-1.644,1.447,1.447,0,0,1,1.085-1.852A1.445,1.445,0,0,0,40.22,33.485Z"/><path fill="#977b00" d="M18.924,3.348a2.995,2.995,0,0,0-5.848,0C6.192,4.981,1,12.26,1,21c0,9.941,6.716,18,15,18s15-8.059,15-18C31,12.26,25.808,4.981,18.924,3.348Z"/><path fill="#4f4600" d="M19.5,31C12.6,31,7,24.732,7,17,7,9.522,12.238,3.432,18.827,3.038L18.815,3h-5.63a2.755,2.755,0,0,0-.109.348C6.192,4.981,1,12.26,1,21c0,9.941,6.716,18,15,18,7.819,0,14.234-7.182,14.93-16.348C28.99,27.566,24.606,31,19.5,31Z"/><path fill="#745a00" d="M16,1a2.989,2.989,0,0,0-2.815,2h5.63A2.989,2.989,0,0,0,16,1Z"/><ellipse cx="21" cy="14" fill="#b39500" rx="6.457" ry="9.394" transform="rotate(-23.322 21 14)"/><circle cx="34" cy="34" r="13" fill="#baec35"/><path fill="#63b300" d="M34,21A13,13,0,1,0,47,34,13,13,0,0,0,34,21Zm0,25A12,12,0,1,1,46,34,12,12,0,0,1,34,46Z"/><path fill="#9cdf00" d="M34,22A12,12,0,1,0,46,34,12,12,0,0,0,34,22Zm0,23A11,11,0,1,1,45,34,11,11,0,0,1,34,45Z"/><path fill="#c9ff39" d="M40.22,33.485a1.444,1.444,0,0,1-.541-2.076,1.445,1.445,0,0,0-1.644-2.171,1.447,1.447,0,0,1-1.852-1.085,1.445,1.445,0,0,0-2.7-.373,1.444,1.444,0,0,1-2.076.541,1.445,1.445,0,0,0-2.171,1.644,1.447,1.447,0,0,1-1.085,1.852,1.445,1.445,0,0,0-.373,2.7,1.444,1.444,0,0,1,.541,2.076,1.445,1.445,0,0,0,1.644,2.171,1.447,1.447,0,0,1,1.852,1.085,1.445,1.445,0,0,0,2.7.373,1.444,1.444,0,0,1,2.076-.541,1.445,1.445,0,0,0,2.171-1.644,1.447,1.447,0,0,1,1.085-1.852A1.445,1.445,0,0,0,40.22,33.485Z"/><path fill="#8bc808" d="M39.332,33.559a1.239,1.239,0,0,1-.465-1.78,1.239,1.239,0,0,0-1.409-1.861,1.238,1.238,0,0,1-1.586-.93,1.239,1.239,0,0,0-2.313-.32,1.239,1.239,0,0,1-1.78.465,1.239,1.239,0,0,0-1.861,1.409,1.238,1.238,0,0,1-.93,1.586,1.239,1.239,0,0,0-.32,2.313,1.239,1.239,0,0,1,.465,1.78,1.239,1.239,0,0,0,1.409,1.861,1.238,1.238,0,0,1,1.586.93,1.239,1.239,0,0,0,2.313.32,1.239,1.239,0,0,1,1.78-.465,1.239,1.239,0,0,0,1.861-1.409,1.239,1.239,0,0,1,.93-1.587A1.239,1.239,0,0,0,39.332,33.559Zm-1.155,2a1.032,1.032,0,0,0-.775,1.322,1.033,1.033,0,0,1-1.552,1.174,1.031,1.031,0,0,0-1.482.387,1.033,1.033,0,0,1-1.928-.266,1.032,1.032,0,0,0-1.322-.775,1.033,1.033,0,0,1-1.174-1.552,1.032,1.032,0,0,0-.387-1.483,1.032,1.032,0,0,1,.266-1.927,1.032,1.032,0,0,0,.775-1.322,1.033,1.033,0,0,1,1.552-1.174,1.031,1.031,0,0,0,1.482-.387,1.033,1.033,0,0,1,1.928.266,1.032,1.032,0,0,0,1.322.775,1.032,1.032,0,0,1,1.174,1.551,1.032,1.032,0,0,0,.387,1.483A1.033,1.033,0,0,1,38.177,35.56Z"/><path fill="#9cdf00" d="M38.443,33.632a1.032,1.032,0,0,1-.387-1.483A1.032,1.032,0,0,0,36.882,30.6a1.032,1.032,0,0,1-1.322-.775,1.033,1.033,0,0,0-1.928-.266,1.031,1.031,0,0,1-1.482.387A1.033,1.033,0,0,0,30.6,31.118a1.032,1.032,0,0,1-.775,1.322,1.032,1.032,0,0,0-.266,1.927,1.032,1.032,0,0,1,.387,1.483A1.033,1.033,0,0,0,31.118,37.4a1.032,1.032,0,0,1,1.322.775,1.033,1.033,0,0,0,1.928.266,1.031,1.031,0,0,1,1.482-.387A1.033,1.033,0,0,0,37.4,36.882a1.032,1.032,0,0,1,.775-1.322A1.033,1.033,0,0,0,38.443,33.632Zm-1.1,1.616a.826.826,0,0,0-.62,1.057.826.826,0,0,1-1.241.94.825.825,0,0,0-1.186.309.826.826,0,0,1-1.542-.213.826.826,0,0,0-1.057-.62.826.826,0,0,1-.94-1.241.825.825,0,0,0-.309-1.186.826.826,0,0,1,.213-1.542.826.826,0,0,0,.62-1.058.826.826,0,0,1,1.241-.939.825.825,0,0,0,1.186-.31.826.826,0,0,1,1.542.214.826.826,0,0,0,1.058.62.826.826,0,0,1,.939,1.241.825.825,0,0,0,.31,1.186A.826.826,0,0,1,37.341,35.248Z"/><path fill="#63b300" d="M43,33H39.689a1.44,1.44,0,0,1-.01-1.591,1.416,1.416,0,0,0-.039-1.635l1.431-1.431a1,1,0,0,0-1.414-1.414L37.316,29.27a1.44,1.44,0,0,1-1.133-1.117A1.415,1.415,0,0,0,35,27.024V25a1,1,0,0,0-2,0v3.288a1.419,1.419,0,0,1-1.591.033,1.416,1.416,0,0,0-1.635.039l-1.431-1.431a1,1,0,0,0-1.414,1.414l2.341,2.341a1.442,1.442,0,0,1-1.117,1.133A1.415,1.415,0,0,0,27.024,33H25a1,1,0,0,0,0,2h3.288a1.419,1.419,0,0,1,.033,1.591,1.416,1.416,0,0,0,.039,1.635h0l-1.431,1.431a1,1,0,0,0,1.414,1.414l2.341-2.341a1.439,1.439,0,0,1,1.133,1.117A1.415,1.415,0,0,0,33,40.976V43a1,1,0,0,0,2,0V39.712a1.419,1.419,0,0,1,1.591-.033,1.416,1.416,0,0,0,1.635-.039h0l1.431,1.431a1,1,0,0,0,1.414-1.414l-2.325-2.325a1.419,1.419,0,0,1,1.1-1.149A1.415,1.415,0,0,0,40.976,35H43a1,1,0,0,0,0-2Zm-3.988,2.871a1.239,1.239,0,0,0-.93,1.587,1.239,1.239,0,0,1-1.861,1.409,1.239,1.239,0,0,0-1.78.465,1.239,1.239,0,0,1-2.313-.32,1.238,1.238,0,0,0-1.586-.93,1.239,1.239,0,0,1-1.409-1.861,1.239,1.239,0,0,0-.465-1.78,1.239,1.239,0,0,1,.32-2.313,1.238,1.238,0,0,0,.93-1.586,1.239,1.239,0,0,1,1.861-1.409,1.239,1.239,0,0,0,1.78-.465,1.239,1.239,0,0,1,2.313.32,1.238,1.238,0,0,0,1.586.93,1.239,1.239,0,0,1,1.409,1.861,1.239,1.239,0,0,0,.465,1.78A1.239,1.239,0,0,1,39.012,35.871Z"/><ellipse cx="37.746" cy="38.5" fill="#403700" rx=".413" ry=".574" transform="rotate(-45.02 37.745 38.5)"/><ellipse cx="35.746" cy="41.5" fill="#403700" rx=".413" ry=".574" transform="rotate(-45.02 35.745 41.5)"/><ellipse cx="41.746" cy="36.5" fill="#403700" rx=".413" ry=".574" transform="rotate(-45.02 41.745 36.5)"/><ellipse cx="38.746" cy="40.5" fill="#403700" rx=".413" ry=".574" transform="rotate(-45.02 38.746 40.5)"/><ellipse cx="35.746" cy="38.5" fill="#403700" rx=".413" ry=".574" transform="rotate(-45.02 35.746 38.5)"/><ellipse cx="39.746" cy="34.5" fill="#403700" rx=".413" ry=".574" transform="rotate(-45.02 39.745 34.5)"/><ellipse cx="41.746" cy="33.5" fill="#403700" rx=".574" ry=".413"/><ellipse cx="33.746" cy="38.5" fill="#403700" rx=".413" ry=".574"/><ellipse cx="34.746" cy="40.5" fill="#403700" rx=".413" ry=".574"/><ellipse cx="32.746" cy="40.5" fill="#403700" rx=".413" ry=".574"/><ellipse cx="32.746" cy="26.5" fill="#403700" rx=".413" ry=".574"/><ellipse cx="34.746" cy="27.5" fill="#403700" rx=".413" ry=".574"/><ellipse cx="34.746" cy="29.5" fill="#403700" rx=".413" ry=".574"/><ellipse cx="33.746" cy="28.5" fill="#403700" rx=".413" ry=".574"/><ellipse cx="26.746" cy="33.5" fill="#403700" rx=".574" ry=".413"/><ellipse cx="29.746" cy="33.5" fill="#403700" rx=".574" ry=".413"/><ellipse cx="38.746" cy="33.5" fill="#403700" rx=".574" ry=".413"/><ellipse cx="39.746" cy="36.5" fill="#403700" rx=".413" ry=".574" transform="rotate(-45.02 39.746 36.5)"/><ellipse cx="36.746" cy="39.5" fill="#403700" rx=".413" ry=".574" transform="rotate(-45.02 36.745 39.5)"/><ellipse cx="40.746" cy="38.5" fill="#403700" rx=".413" ry=".574" transform="rotate(-45.02 40.745 38.5)"/><ellipse cx="30.746" cy="38.5" fill="#403700" rx=".574" ry=".413" transform="rotate(-44.98 30.746 38.5)"/><ellipse cx="31.746" cy="37.5" fill="#403700" rx=".574" ry=".413" transform="rotate(-44.98 31.746 37.5)"/><ellipse cx="31.746" cy="41.5" fill="#403700" rx=".574" ry=".413" transform="rotate(-44.98 31.746 41.5)"/><ellipse cx="26.746" cy="36.5" fill="#403700" rx=".574" ry=".413" transform="rotate(-44.98 26.747 36.501)"/><ellipse cx="29.746" cy="40.5" fill="#403700" rx=".574" ry=".413" transform="rotate(-44.98 29.747 40.5)"/><ellipse cx="28.746" cy="34.5" fill="#403700" rx=".574" ry=".413" transform="rotate(-44.98 28.746 34.5)"/><ellipse cx="28.746" cy="36.5" fill="#403700" rx=".574" ry=".413" transform="rotate(-44.98 28.746 36.5)"/><ellipse cx="31.746" cy="39.5" fill="#403700" rx=".574" ry=".413" transform="rotate(-44.98 31.746 39.5)"/><ellipse cx="27.746" cy="38.5" fill="#403700" rx=".574" ry=".413" transform="rotate(-44.98 27.746 38.501)"/><ellipse cx="30.746" cy="28.5" fill="#403700" rx=".413" ry=".574" transform="rotate(-45.02 30.746 28.5)"/><ellipse cx="26.746" cy="30.5" fill="#403700" rx=".413" ry=".574" transform="rotate(-45.02 26.745 30.5)"/><ellipse cx="29.746" cy="26.5" fill="#403700" rx=".413" ry=".574" transform="rotate(-45.02 29.746 26.5)"/><ellipse cx="28.746" cy="32.5" fill="#403700" rx=".413" ry=".574" transform="rotate(-45.02 28.745 32.5)"/><ellipse cx="28.746" cy="30.5" fill="#403700" rx=".413" ry=".574" transform="rotate(-45.02 28.745 30.5)"/><ellipse cx="29.746" cy="31.5" fill="#403700" rx=".413" ry=".574" transform="rotate(-45.02 29.746 31.5)"/><ellipse cx="31.746" cy="27.5" fill="#403700" rx=".413" ry=".574" transform="rotate(-45.02 31.746 27.5)"/><ellipse cx="32.746" cy="29.5" fill="#403700" rx=".413" ry=".574" transform="rotate(-45.02 32.745 29.5)"/><ellipse cx="27.746" cy="28.5" fill="#403700" rx=".413" ry=".574" transform="rotate(-45.02 27.745 28.5)"/><ellipse cx="37.746" cy="28.5" fill="#403700" rx=".574" ry=".413" transform="rotate(-44.98 37.747 28.5)"/><ellipse cx="36.746" cy="29.5" fill="#403700" rx=".574" ry=".413" transform="rotate(-44.98 36.747 29.5)"/><ellipse cx="36.746" cy="25.5" fill="#403700" rx=".574" ry=".413" transform="rotate(-44.98 36.746 25.5)"/><ellipse cx="41.746" cy="30.5" fill="#403700" rx=".574" ry=".413" transform="rotate(-44.98 41.747 30.501)"/><ellipse cx="38.746" cy="26.5" fill="#403700" rx=".574" ry=".413" transform="rotate(-44.98 38.746 26.5)"/><ellipse cx="39.746" cy="32.5" fill="#403700" rx=".574" ry=".413" transform="rotate(-44.98 39.746 32.5)"/><ellipse cx="39.746" cy="30.5" fill="#403700" rx=".574" ry=".413" transform="rotate(-44.98 39.746 30.5)"/><ellipse cx="37.746" cy="30.5" fill="#403700" rx=".574" ry=".413" transform="rotate(-44.98 37.746 30.5)"/><ellipse cx="36.746" cy="27.5" fill="#403700" rx=".574" ry=".413" transform="rotate(-44.98 36.746 27.5)"/><ellipse cx="40.746" cy="28.5" fill="#403700" rx=".574" ry=".413" transform="rotate(-44.98 40.746 28.5)"/><path fill="#fdf48b" d="M36.666,33.779a.618.618,0,0,1-.232-.889.62.62,0,0,0-.7-.931.619.619,0,0,1-.793-.465.62.62,0,0,0-1.157-.16.618.618,0,0,1-.889.232.62.62,0,0,0-.931.705.619.619,0,0,1-.465.793.62.62,0,0,0-.16,1.157.618.618,0,0,1,.232.889.62.62,0,0,0,.705.931.618.618,0,0,1,.793.465.62.62,0,0,0,1.157.16.618.618,0,0,1,.889-.232.62.62,0,0,0,.931-.7.619.619,0,0,1,.465-.793A.62.62,0,0,0,36.666,33.779Z"/><path fill="#4f4600" d="M21,34a13,13,0,0,1,9.985-12.634c0-.106.013-.209.013-.316-.331-.025-.661-.05-1-.05a12.988,12.988,0,0,0-3.778.562,4.626,4.626,0,0,1-1.342.991,4.532,4.532,0,0,1-1.764.434,12.96,12.96,0,0,0-5.178,15.846,12.9,12.9,0,0,0,3.607-1.119A13.006,13.006,0,0,1,21,34Z"/><path fill="#977b00" d="M24.88,22.553a4.626,4.626,0,0,0,1.342-.991,12.9,12.9,0,0,0-3.106,1.425A4.532,4.532,0,0,0,24.88,22.553Z"/><path fill="#362f00" d="M21,34a12.992,12.992,0,0,1,.4-3.163,10.793,10.793,0,0,1-3.988-.047,12.786,12.786,0,0,0,.522,8.042,12.944,12.944,0,0,0,3.611-1.105A13,13,0,0,1,21,34Z"/><path fill="#b39500" d="M27.755,32.161A20.268,20.268,0,0,0,31,21c0-8.74-5.192-16.019-12.076-17.652a2.995,2.995,0,0,0-5.848,0,13.122,13.122,0,0,0-2.817,1.037A37.956,37.956,0,0,0,27.755,32.161Z"/><path fill="#745a00" d="M18.827 3.038L18.815 3h-5.63a2.755 2.755 0 0 0-.109.348 13.122 13.122 0 0 0-2.817 1.037q.159 1.382.415 2.73A11.908 11.908 0 0 1 18.827 3.038zM30.93 22.652a13.379 13.379 0 0 1-6.46 7.186 37.954 37.954 0 0 0 3.281 2.32A20.012 20.012 0 0 0 30.93 22.652z"/><ellipse cx="21" cy="14" fill="#c7a600" rx="6.457" ry="9.394" transform="rotate(-23.322 21 14)"/><path fill="#977b00" d="M16,1a2.989,2.989,0,0,0-2.815,2h5.63A2.989,2.989,0,0,0,16,1Z"/><path fill="#d8ff73" d="M47,34a12.993,12.993,0,0,0-24.58-5.887,37.853,37.853,0,0,0,23.961,9.846A12.985,12.985,0,0,0,47,34Z"/><path fill="#8bc808" d="M34,22A11.976,11.976,0,0,1,45.34,37.9c.346.024.693.048,1.041.062A12.994,12.994,0,0,0,22.42,28.113c.255.232.52.453.782.679A11.989,11.989,0,0,1,34,22Z"/><path fill="#baec35" d="M34,22a11.989,11.989,0,0,0-10.8,6.792c.261.224.52.45.787.668a10.99,10.99,0,0,1,20.316,8.359c.343.033.689.054,1.035.078A11.976,11.976,0,0,0,34,22Z"/><path fill="#d8ff73" d="M38.177,35.56a1.033,1.033,0,0,0,.266-1.928,1.032,1.032,0,0,1-.387-1.483A1.032,1.032,0,0,0,36.882,30.6a1.032,1.032,0,0,1-1.322-.775,1.033,1.033,0,0,0-1.928-.266,1.031,1.031,0,0,1-1.482.387A1.033,1.033,0,0,0,30.6,31.118a1.032,1.032,0,0,1-.775,1.322,1,1,0,0,0-.7.54,37.716,37.716,0,0,0,8.245,3.5A1.026,1.026,0,0,1,38.177,35.56Z"/><path fill="#c9ff39" d="M28.988,32.128a1.238,1.238,0,0,0,.93-1.586,1.239,1.239,0,0,1,1.861-1.409,1.239,1.239,0,0,0,1.78-.465,1.239,1.239,0,0,1,2.313.32,1.238,1.238,0,0,0,1.586.93,1.239,1.239,0,0,1,1.409,1.861,1.239,1.239,0,0,0,.465,1.78,1.239,1.239,0,0,1-.32,2.312,1.239,1.239,0,0,0-.923.818q.394.106.793.2a1.438,1.438,0,0,1,.965-.71,1.445,1.445,0,0,0,.373-2.7,1.444,1.444,0,0,1-.541-2.076,1.445,1.445,0,0,0-1.644-2.171,1.447,1.447,0,0,1-1.852-1.085,1.445,1.445,0,0,0-2.7-.373,1.444,1.444,0,0,1-2.076.541,1.445,1.445,0,0,0-2.171,1.644,1.447,1.447,0,0,1-1.085,1.852,1.433,1.433,0,0,0-.546.249c.235.15.465.3.7.449A1.229,1.229,0,0,1,28.988,32.128Z"/><path fill="#9cdf00" d="M39.012,35.871a1.239,1.239,0,0,0,.32-2.312,1.239,1.239,0,0,1-.465-1.78,1.239,1.239,0,0,0-1.409-1.861,1.238,1.238,0,0,1-1.586-.93,1.239,1.239,0,0,0-2.313-.32,1.239,1.239,0,0,1-1.78.465,1.239,1.239,0,0,0-1.861,1.409,1.238,1.238,0,0,1-.93,1.586,1.229,1.229,0,0,0-.678.387c.266.161.539.31.809.465a1,1,0,0,1,.7-.54,1.032,1.032,0,0,0,.775-1.322,1.033,1.033,0,0,1,1.552-1.174,1.031,1.031,0,0,0,1.482-.387,1.033,1.033,0,0,1,1.928.266,1.032,1.032,0,0,0,1.322.775,1.032,1.032,0,0,1,1.174,1.551,1.032,1.032,0,0,0,.387,1.483,1.033,1.033,0,0,1-.266,1.928,1.026,1.026,0,0,0-.813.923c.241.07.482.14.725.206A1.239,1.239,0,0,1,39.012,35.871Z"/><path fill="#baec35" d="M30.659,32.752a.826.826,0,0,0,.62-1.058.826.826,0,0,1,1.241-.939.825.825,0,0,0,1.186-.31.826.826,0,0,1,1.542.214.826.826,0,0,0,1.058.62.826.826,0,0,1,.939,1.241.825.825,0,0,0,.31,1.186.826.826,0,0,1-.214,1.542.826.826,0,0,0-.62,1.053c.212.066.429.12.643.182a1.026,1.026,0,0,1,.813-.923,1.033,1.033,0,0,0,.266-1.928,1.032,1.032,0,0,1-.387-1.483A1.032,1.032,0,0,0,36.882,30.6a1.032,1.032,0,0,1-1.322-.775,1.033,1.033,0,0,0-1.928-.266,1.031,1.031,0,0,1-1.482.387A1.033,1.033,0,0,0,30.6,31.118a1.032,1.032,0,0,1-.775,1.322,1,1,0,0,0-.7.54c.3.169.589.341.889.5A.81.81,0,0,1,30.659,32.752Z"/><path fill="#fdf7b6" d="M36.041,35.729a.619.619,0,0,1,.465-.793.62.62,0,0,0,.16-1.157.618.618,0,0,1-.232-.889.62.62,0,0,0-.7-.931.619.619,0,0,1-.793-.465.62.62,0,0,0-1.157-.16.618.618,0,0,1-.889.232.62.62,0,0,0-.931.705.619.619,0,0,1-.465.793.618.618,0,0,0-.348,1,37.587,37.587,0,0,0,4.9,2.009A.6.6,0,0,0,36.041,35.729Z"/><path fill="#8bc808" d="M28.988,32.128a1.238,1.238,0,0,0,.93-1.586,1.239,1.239,0,0,1,1.861-1.409,1.239,1.239,0,0,0,1.78-.465,1.239,1.239,0,0,1,2.313.32,1.238,1.238,0,0,0,1.586.93,1.239,1.239,0,0,1,1.409,1.861,1.239,1.239,0,0,0,.465,1.78,1.239,1.239,0,0,1-.32,2.312,1.239,1.239,0,0,0-.923.818q.407.11.816.21a1.382,1.382,0,0,1,.942-.716A1.415,1.415,0,0,0,40.976,35H43a1,1,0,0,0,0-2H39.689a1.44,1.44,0,0,1-.01-1.591,1.416,1.416,0,0,0-.039-1.635l1.431-1.431a1,1,0,0,0-1.414-1.414L37.316,29.27a1.44,1.44,0,0,1-1.133-1.117A1.415,1.415,0,0,0,35,27.024V25a1,1,0,0,0-2,0v3.288a1.419,1.419,0,0,1-1.591.033,1.416,1.416,0,0,0-1.635.039l-1.431-1.431a1,1,0,0,0-1.414,1.414l2.341,2.341a1.442,1.442,0,0,1-1.117,1.133,1.409,1.409,0,0,0-.545.25c.234.149.464.3.7.448A1.229,1.229,0,0,1,28.988,32.128Z"/><path fill="#4f4600" d="M41.443 36.027c-.22.088-.262.372-.095.634a.638.638 0 0 0 .7.313c.22-.089.262-.373.094-.634A.634.634 0 0 0 41.443 36.027zM40.143 34.34a.634.634 0 0 0-.7-.313c-.22.088-.262.372-.095.634a.638.638 0 0 0 .7.313C40.269 34.885 40.311 34.6 40.143 34.34zM41.2 33.38c-.093.218.078.448.381.515a.636.636 0 0 0 .717-.274c.093-.218-.078-.449-.381-.515A.634.634 0 0 0 41.2 33.38zM32.626 27.049c.217.093.448-.078.514-.381a.636.636 0 0 0-.274-.717c-.218-.093-.448.078-.515.382A.635.635 0 0 0 32.626 27.049zM34.626 28.049c.217.093.448-.078.514-.381a.636.636 0 0 0-.274-.717c-.218-.093-.448.078-.515.382A.635.635 0 0 0 34.626 28.049zM34.626 30.049c.217.093.448-.078.514-.381a.636.636 0 0 0-.274-.717c-.218-.093-.448.078-.515.382A.635.635 0 0 0 34.626 30.049zM33.626 29.049c.217.093.448-.078.514-.381a.636.636 0 0 0-.274-.717c-.218-.093-.448.078-.515.382A.635.635 0 0 0 33.626 29.049zM38.914 33.106a.634.634 0 0 0-.717.274c-.093.218.078.448.381.515a.636.636 0 0 0 .717-.274C39.388 33.4 39.217 33.172 38.914 33.106zM39.443 36.027c-.22.088-.262.372-.095.634a.638.638 0 0 0 .7.313c.22-.089.262-.373.094-.634A.634.634 0 0 0 39.443 36.027zM31.049 28.974c.22-.089.262-.373.094-.634a.634.634 0 0 0-.7-.313c-.22.088-.262.372-.1.634A.638.638 0 0 0 31.049 28.974zM27.049 30.974c.22-.089.262-.373.094-.634a.634.634 0 0 0-.7-.313c-.22.088-.262.372-.1.634A.638.638 0 0 0 27.049 30.974zM30.049 26.974c.22-.089.262-.373.094-.634a.634.634 0 0 0-.7-.313c-.22.088-.262.372-.1.634A.638.638 0 0 0 30.049 26.974zM29.049 30.974c.22-.089.262-.373.094-.634a.634.634 0 0 0-.7-.313c-.22.088-.262.372-.1.634A.638.638 0 0 0 29.049 30.974zM30.049 31.974c.22-.089.262-.373.094-.634a.634.634 0 0 0-.7-.313c-.22.088-.262.372-.1.634A.638.638 0 0 0 30.049 31.974zM32.049 27.974c.22-.089.262-.373.094-.634a.634.634 0 0 0-.7-.313c-.22.088-.262.372-.1.634A.638.638 0 0 0 32.049 27.974zM33.049 29.974c.22-.089.262-.373.094-.634a.634.634 0 0 0-.7-.313c-.22.088-.262.372-.095.634A.638.638 0 0 0 33.049 29.974zM28.049 28.974c.22-.089.262-.373.094-.634a.634.634 0 0 0-.7-.313c-.22.088-.262.372-.1.634A.638.638 0 0 0 28.049 28.974zM37.443 28.974a.636.636 0 0 0 .7-.313c.168-.262.126-.546-.094-.634a.636.636 0 0 0-.7.313C37.181 28.6 37.223 28.885 37.443 28.974zM36.443 29.974a.636.636 0 0 0 .7-.313c.168-.262.126-.546-.094-.634a.636.636 0 0 0-.7.313C36.181 29.6 36.223 29.885 36.443 29.974zM36.443 25.974a.636.636 0 0 0 .7-.313c.168-.262.126-.546-.094-.634a.636.636 0 0 0-.7.313C36.181 25.6 36.223 25.885 36.443 25.974zM41.443 30.974a.636.636 0 0 0 .7-.313c.168-.262.126-.546-.094-.634a.636.636 0 0 0-.7.313C41.181 30.6 41.223 30.885 41.443 30.974zM38.443 26.974a.636.636 0 0 0 .7-.313c.168-.262.126-.546-.094-.634a.636.636 0 0 0-.7.313C38.181 26.6 38.223 26.885 38.443 26.974zM39.443 32.974a.636.636 0 0 0 .7-.313c.168-.262.126-.546-.094-.634a.636.636 0 0 0-.7.313C39.181 32.6 39.223 32.885 39.443 32.974zM39.443 30.974a.636.636 0 0 0 .7-.313c.168-.262.126-.546-.094-.634a.636.636 0 0 0-.7.313C39.181 30.6 39.223 30.885 39.443 30.974zM37.443 30.974a.636.636 0 0 0 .7-.313c.168-.262.126-.546-.094-.634a.636.636 0 0 0-.7.313C37.181 30.6 37.223 30.885 37.443 30.974zM36.443 27.974a.636.636 0 0 0 .7-.313c.168-.262.126-.546-.094-.634a.636.636 0 0 0-.7.313C36.181 27.6 36.223 27.885 36.443 27.974zM40.443 28.974a.636.636 0 0 0 .7-.313c.168-.262.126-.546-.094-.634a.636.636 0 0 0-.7.313C40.181 28.6 40.223 28.885 40.443 28.974zM22.422 28.114a13.021 13.021 0 0 1 8.563-6.748c0-.106.013-.209.013-.316-.331-.025-.661-.05-1-.05a12.988 12.988 0 0 0-3.778.562 4.626 4.626 0 0 1-1.342.991 4.532 4.532 0 0 1-1.764.434 13.116 13.116 0 0 0-3.109 2.718Q21.161 26.962 22.422 28.114z"/><path fill="#977b00" d="M26.222,21.562a12.9,12.9,0,0,0-3.106,1.425,4.532,4.532,0,0,0,1.764-.434A4.626,4.626,0,0,0,26.222,21.562Z"/><ellipse cx="29.746" cy="33.5" fill="#403700" rx=".574" ry=".413"/><ellipse cx="28.746" cy="32.5" fill="#403700" rx=".413" ry=".574" transform="rotate(-45.02 28.745 32.5)"/><ellipse cx="22" cy="8" fill="#f6fafd" rx="1.65" ry="2.297" transform="rotate(-45.02 22 8)"/><ellipse cx="25" cy="11" fill="#cfc059" rx=".825" ry="1.148" transform="rotate(-45.02 25 11)"/><ellipse cx="22.746" cy="11.5" fill="#cfc059" rx=".413" ry=".574" transform="rotate(-45.02 22.745 11.5)"/><ellipse cx="43" cy="32" fill="#f6fafd" rx=".825" ry="1.148" transform="rotate(-45.02 43 32)"/><ellipse cx="42.746" cy="29.5" fill="#f6fafd" rx=".413" ry=".574" transform="rotate(-45.02 42.745 29.5)"/><ellipse cx="25.746" cy="29.5" fill="#f6fafd" rx=".413" ry=".574" transform="rotate(-45.02 25.746 29.5)"/></g></svg>