<svg xmlns="http://www.w3.org/2000/svg" viewBox="0 0 48 48"><g data-name="15-banana"><path fill="#4f4600" d="M44 6v.03L43.57 6A2.007 2.007 0 0 0 42 6.6V5h2zM44.29 19.92L45 19l2 .05-.61 1.3-.58-.29A2.118 2.118 0 0 0 44.29 19.92zM40.54 32.54a2.111 2.111 0 0 0-1.45-.63L40 31l1.36.68L42 32l-1 1z"/><path fill="#689629" d="M8,18q0,.39.03.78l-.05.01C7.77,17.78,6.07,17,4,17V13H8v5Z"/><path fill="#f8ef00" d="M43.57,6l.43.03.21.02C47.32,9.66,46.24,16.18,42,21.79a33.158,33.158,0,0,1-8.4,4.24c-9.84,3.54-20.19-.58-22.73-8.03a.517.517,0,0,0-.06-.13c5.17,6.03,16.22,5.83,23.87-1.4,3.63-3.43,6.23-6.95,6.83-9.04A1.973,1.973,0,0,1,42,6.6,2.007,2.007,0,0,1,43.57,6Z"/><path fill="#ffd417" d="M10.87,18c2.54,7.45,12.89,11.57,22.73,8.03A33.158,33.158,0,0,0,42,21.79a8.133,8.133,0,0,0,1.36-1.25,1.99,1.99,0,0,1,.93-.62,2.118,2.118,0,0,1,1.52.14l.58.29c1.26,3.67-.86,8.02-5.03,11.33L40,31l-.91.91a1.885,1.885,0,0,0-1.03.26C36.23,33.25,31.97,34,27,34,16.85,34,8.57,26.28,8.03,18.78Q8,18.39,8,18v-.95c1.35-.18,2.46.12,2.81.82A.517.517,0,0,1,10.87,18Z"/><path fill="#faba01" d="M39.09,31.91a2.111,2.111,0,0,1,1.45.63L41,33c0,5.53-7.16,10-16,10C11.73,43,1,34.05,1,23c0-3.32,1.34-6,3-6,2.07,0,3.77.78,3.98,1.79l.05-.01C8.57,26.28,16.85,34,27,34c4.97,0,9.23-.75,11.06-1.83A1.885,1.885,0,0,1,39.09,31.91Z"/><path fill="#4f4600" d="M44 6v.03L43.57 6A2.007 2.007 0 0 0 42 6.6V5h2zM44.29 19.92L45 19l2 .05-.61 1.3-.58-.29A2.118 2.118 0 0 0 44.29 19.92zM40.54 32.54a2.111 2.111 0 0 0-1.45-.63L40 31l1.36.68L42 32l-1 1z"/><path fill="#689629" d="M8,18q0,.39.03.78l-.05.01C7.77,17.78,6.07,17,4,17V13H8v5Z"/><path fill="#ffd417" d="M43.57,6l.43.03.21.02C47.32,9.66,46.24,16.18,42,21.79a33.158,33.158,0,0,1-8.4,4.24c-9.84,3.54-20.19-.58-22.73-8.03a.517.517,0,0,0-.06-.13c5.17,6.03,16.22,5.83,23.87-1.4,3.63-3.43,6.23-6.95,6.83-9.04A1.973,1.973,0,0,1,42,6.6,2.007,2.007,0,0,1,43.57,6Z"/><path fill="#ffaf12" d="M10.87,18c2.54,7.45,12.89,11.57,22.73,8.03A33.158,33.158,0,0,0,42,21.79a8.133,8.133,0,0,0,1.36-1.25,1.99,1.99,0,0,1,.93-.62,2.118,2.118,0,0,1,1.52.14l.58.29c1.26,3.67-.86,8.02-5.03,11.33L40,31l-.91.91a1.885,1.885,0,0,0-1.03.26C36.23,33.25,31.97,34,27,34,16.85,34,8.57,26.28,8.03,18.78Q8,18.39,8,18v-.95c1.35-.18,2.46.12,2.81.82A.517.517,0,0,1,10.87,18Z"/><path fill="#ffaf12" d="M39.09,31.91a2.111,2.111,0,0,1,1.45.63L41,33c0,5.53-7.16,10-16,10C11.73,43,1,34.05,1,23c0-3.32,1.34-6,3-6,2.07,0,3.77.78,3.98,1.79l.05-.01C8.57,26.28,16.85,34,27,34c4.97,0,9.23-.75,11.06-1.83A1.885,1.885,0,0,1,39.09,31.91Z"/><path fill="#ffc501" d="M24,38c11,0,14.025-2.405,16.242-5.707a2.078,2.078,0,0,0-1.152-.383,1.885,1.885,0,0,0-1.03.26C36.23,33.25,31.97,34,27,34,16.85,34,8.57,26.28,8.03,18.78l-.05.01C7.805,17.95,6.594,17.276,5,17.071,5.036,28.645,15,38,24,38Z"/><path fill="#fef059" d="M28,30c7.666,0,15.556-3.957,17.525-10.05a2.125,2.125,0,0,0-1.235-.03,1.99,1.99,0,0,0-.93.62A8.133,8.133,0,0,1,42,21.79a33.158,33.158,0,0,1-8.4,4.24c-9.84,3.54-20.19-.58-22.73-8.03a.517.517,0,0,0-.06-.13,1.953,1.953,0,0,0-1.659-.848C10.2,24.765,17.3,30,28,30Z"/><path fill="#fdf48b" d="M42.912,6.077a1.972,1.972,0,0,0-1.4,1.353c-.6,2.09-3.2,5.61-6.83,9.04-7.65,7.23-18.7,7.43-23.87,1.4a.517.517,0,0,1,.06.13,11.679,11.679,0,0,0,2.344,3.963C15.706,23.822,19.634,25,25,25,30.714,25,41.862,19.552,42.912,6.077Z"/><path fill="#527710" d="M4,14v3a7.223,7.223,0,0,1,2,.272V14Z"/><path fill="#689629" d="M8,18V14H6v3.272c1.08.312,1.844.865,1.98,1.518l.05-.01Q8,18.39,8,18Z"/><rect width="2" height="1" x="4" y="13" fill="#ffaf12"/><rect width="2" height="1" x="6" y="13" fill="#f6e655"/><path fill="#ff9202" d="M15.5,26.756a13.563,13.563,0,0,1-6.344-9.734,2.966,2.966,0,0,1,1.028.265A3.88,3.88,0,0,0,8,17.05V18q0,.39.03.78c.5,6.873,7.5,13.912,16.473,15.044A23.841,23.841,0,0,1,15.5,26.756Z"/><path fill="#ffd417" d="M15.5,26.756a17.5,17.5,0,0,1-2.854-5.508A11.5,11.5,0,0,1,10.87,18a.517.517,0,0,0-.06-.13,1.147,1.147,0,0,0-.226-.3c-.022-.022-.046-.041-.069-.062a1.6,1.6,0,0,0-.3-.2l-.032-.019a2.966,2.966,0,0,0-1.028-.265A13.563,13.563,0,0,0,15.5,26.756Z"/><path fill="#f8ef00" d="M25,25a27.928,27.928,0,0,1-6.17-.639q.95,1.135,1.986,2.193A20.959,20.959,0,0,0,33.6,26.03,33.158,33.158,0,0,0,42,21.79c4.24-5.61,5.32-12.13,2.21-15.74L44,6.03,43.57,6a1.992,1.992,0,0,0-1.124.268,2.134,2.134,0,0,1,.466-.191C41.862,19.552,30.714,25,25,25Z"/><path fill="#ffd417" d="M42,6.6a1.877,1.877,0,0,1,.408-.313A2,2,0,0,0,42,6.6Z"/><path fill="#ffaf12" d="M44.29 19.92a2.031 2.031 0 0 1 .572-.072A2.106 2.106 0 0 0 44.29 19.92zM44.932 19.848a2.189 2.189 0 0 1 .592.1A2.108 2.108 0 0 0 44.932 19.848z"/><path fill="#ffd417" d="M28,30a29.941,29.941,0,0,1-3.6-.217,38.02,38.02,0,0,0,6.329,4.069c3.305-.269,5.981-.885,7.331-1.682a1.885,1.885,0,0,1,1.03-.26L40,31l1.36.68c4.17-3.31,6.29-7.66,5.03-11.33l-.58-.29a2.148,2.148,0,0,0-.285-.11C43.556,26.043,35.666,30,28,30Z"/><path fill="#ffd417" d="M36.065,36.081q1.739.573,3.55.981A6.965,6.965,0,0,0,41,33l-.46-.46a2.147,2.147,0,0,0-.8-.5,2.147,2.147,0,0,1,.506.255A10.334,10.334,0,0,1,36.065,36.081Z"/><path fill="#ffaf12" d="M39.09,31.91a2,2,0,0,1,.541.094A2,2,0,0,0,39.09,31.91Z"/><path fill="#ffc501" d="M39.631,32c.035.01.07.021.1.034C39.7,32.025,39.667,32.014,39.631,32Z"/><path fill="#f8ef00" d="M30.729,33.852a37.848,37.848,0,0,0,5.336,2.229,10.334,10.334,0,0,0,4.177-3.788,2.147,2.147,0,0,0-.506-.255c-.035-.013-.07-.024-.1-.034a2,2,0,0,0-.541-.094,1.885,1.885,0,0,0-1.03.26C36.71,32.967,34.034,33.583,30.729,33.852Z"/><path fill="#fef059" d="M44.862,19.848h0Z"/><path fill="#fdf48b" d="M20.816 26.554A38.1 38.1 0 0 0 24.4 29.783 29.941 29.941 0 0 0 28 30c7.666 0 15.556-3.957 17.525-10.05h0a2.189 2.189 0 0 0-.592-.1h-.07a2.031 2.031 0 0 0-.572.072 1.99 1.99 0 0 0-.93.62A8.133 8.133 0 0 1 42 21.79a33.158 33.158 0 0 1-8.4 4.24A20.959 20.959 0 0 1 20.816 26.554zM42.408 6.287l.038-.019z"/><path fill="#fffaba" d="M25,25c5.714,0,16.862-5.448,17.912-18.923a2.134,2.134,0,0,0-.466.191l-.038.019A1.877,1.877,0,0,0,42,6.6a1.973,1.973,0,0,0-.49.83c-.6,2.09-3.2,5.61-6.83,9.04-5.392,5.1-12.467,6.685-17.988,5.075q1,1.458,2.138,2.816A27.928,27.928,0,0,0,25,25Z"/><path fill="#4f4600" d="M44 6v.03L43.57 6A2.007 2.007 0 0 0 42 6.6V5h2zM44.29 19.92L45 19l2 .05-.61 1.3-.58-.29A2.118 2.118 0 0 0 44.29 19.92zM40.54 32.54a2.111 2.111 0 0 0-1.45-.63L40 31l1.36.68L42 32l-1 1z"/><ellipse cx="44" cy="10" fill="#f6fafd" rx=".825" ry="1.148" transform="rotate(-45.02 44 10)"/><ellipse cx="44" cy="26" fill="#f6fafd" rx=".825" ry="1.148" transform="rotate(-45.02 44 26)"/><ellipse cx="43.746" cy="12.5" fill="#f6fafd" rx=".413" ry=".574" transform="rotate(-45.02 43.745 12.5)"/><ellipse cx="42.746" cy="28.5" fill="#f6fafd" rx=".413" ry=".574" transform="rotate(-45.02 42.746 28.5)"/></g></svg>