<svg xmlns="http://www.w3.org/2000/svg" viewBox="0 0 48 48"><g data-name="17-pineapple"><path fill="#cc5700" d="M22,19c-5.527,0-10,6.681-10,12.552C12,41.158,15.684,47,19,47H29c3.316,0,7-5.842,7-15.448C36,25.681,31.527,19,26,19Z"/><path fill="#abcc00" d="M31.16 8.44A9.048 9.048 0 0 1 34 8c-3 3-4 4-4 6l.03.19a7.571 7.571 0 0 0-3.2 1.41l-.81-1.89a6.011 6.011 0 0 1 2.11-3.55A8.581 8.581 0 0 1 31.16 8.44zM21.17 15.6a7.571 7.571 0 0 0-3.2-1.41L18 14c0-2-1-3-4-6a9.048 9.048 0 0 1 2.84.44 8.581 8.581 0 0 1 3.03 1.72 6.011 6.011 0 0 1 2.11 3.55zM23.09 3.04l-2.1 4.73a4.534 4.534 0 0 0-2.07-3.1L18 1c1.66 0 5 2 5 2zM30 1l-.92 3.67a4.534 4.534 0 0 0-2.07 3.1l-2.1-4.73L25 3S28.34 1 30 1z"/><path fill="#7eaf31" d="M29.08 4.67C30.4 3.74 32.55 3 36 3c-.95.95-3.71 1.9-4.84 5.44a8.581 8.581 0 0 0-3.03 1.72L28 10l-.99-2.22V7.77A4.534 4.534 0 0 1 29.08 4.67zM18.92 4.67a4.534 4.534 0 0 1 2.07 3.1v.01L20 10l-.13.16a8.581 8.581 0 0 0-3.03-1.72C15.71 4.9 12.95 3.95 12 3 15.45 3 17.6 3.74 18.92 4.67zM26.02 13.71l.81 1.89A4.31 4.31 0 0 0 25 19H23a4.31 4.31 0 0 0-1.83-3.4l.81-1.89L24 9z"/><path fill="#527710" d="M28 10l.13.16a6.011 6.011 0 0 0-2.11 3.55L24 9l-2.02 4.71a6.011 6.011 0 0 0-2.11-3.55L20 10l.99-2.22V7.77l2.1-4.73L24 1l.91 2.04 2.1 4.73v.01zM16 14a10.367 10.367 0 0 1 1.97.19 7.571 7.571 0 0 1 3.2 1.41A4.31 4.31 0 0 1 23 19H19C19 17 17.11 14 16 14zM32 14c-1.11 0-3 3-3 5H25a4.31 4.31 0 0 1 1.83-3.4 7.571 7.571 0 0 1 3.2-1.41A10.367 10.367 0 0 1 32 14z"/><path fill="#cc5700" d="M34 41l.7-.47a15.284 15.284 0 0 1-1.09 2.6q.2-.39.39-.81zM12.17 29.55a14.065 14.065 0 0 1 1.16-3.77c-.12.26-.23.52-.33.79V29zM26 19a7.508 7.508 0 0 1 4.18 1.33c-.21-.13-.41-.26-.62-.37L28 21l-3-2zM25 19l-3 2-2.36-1.57v-.01A6.746 6.746 0 0 1 22 19h3zM13 36v3l-.12.08a27.968 27.968 0 0 1-.82-5.5c.04.66.1 1.29.17 1.91z"/><path fill="#f6a000" d="M16,44l-.76.51c-.12-.17-.24-.34-.35-.52s-.23-.37-.34-.57c-.1-.17-.19-.36-.29-.54-.01-.02-.02-.05-.03-.07-.11-.22-.21-.44-.31-.66-.2-.46-.39-.94-.56-1.45-.09-.26-.17-.52-.25-.79s-.16-.55-.23-.83L13,39l3,2Z"/><path fill="#ffc501" d="M35.99,31.11c.01.15.01.29.01.44,0,.64-.02,1.27-.05,1.88q-.03.465-.06.9c-.02.29-.05.59-.08.87L34,34V31l1.86-1.24a3.469,3.469,0,0,1,.06.45C35.95,30.51,35.98,30.81,35.99,31.11Z"/><path fill="#f6a000" d="M35.73,29.03c.05.24.09.49.13.73L34,31l-3-2V26l2.79-1.86c.13.21.26.43.38.65s.24.44.35.67.22.46.31.69.2.47.28.7c.11.27.2.54.28.81C35.52,28.11,35.64,28.57,35.73,29.03Z"/><path fill="#cc5700" d="M25,46l3-2,3,2,1.24-.83A4.418,4.418,0,0,1,29,47H19c-1.28,0-2.62-.87-3.76-2.49L16,44l3,2,3-2Z"/><path fill="#e86300" d="M34,41v1.32q-.2.42-.39.81c0,.01,0,.02-.02.03a10.983,10.983,0,0,1-1.35,2.01L31,46l-3-2V41l3-2Z"/><path fill="#fc6b00" d="M35.81 35.2c-.05.46-.11.91-.17 1.35a24.5 24.5 0 0 1-.94 3.98L34 41l-3-2V36l3-2zM22 21v3l-3 2-3-2V21.84a9.543 9.543 0 0 1 3.64-2.41z"/><path fill="#e86300" d="M19,29l-3,2-3-2V26.57c.1-.27.21-.53.33-.79L16,24l3,2Z"/><path fill="#fc6b00" d="M16,31v3l-3,2-.77-.51c-.07-.62-.13-1.25-.17-1.91S12,32.25,12,31.55a12.368,12.368,0,0,1,.17-2L13,29Z"/><polygon fill="#fc6b00" points="22 41 22 44 19 46 16 44 16 41 19 39 22 41"/><polygon fill="#e86300" points="25 36 25 39 22 41 19 39 19 36 22 34 25 36"/><polygon fill="#fc6b00" points="28 31 28 34 25 36 22 34 22 31 25 29 28 31"/><path fill="#fc6b00" d="M33.79,24.14,31,26l-3-2V21l1.56-1.04c.21.11.41.24.62.37a10.622,10.622,0,0,1,1.71,1.39c.35.36.69.74,1.01,1.14A13.936,13.936,0,0,1,33.79,24.14Z"/><polygon fill="#e86300" points="31 26 31 29 28 31 25 29 25 26 28 24 31 26"/><path fill="#fc6b00" d="M19.64,19.43A9.543,9.543,0,0,0,16,21.84V24l-2.67,1.78a11.7,11.7,0,0,1,6.31-6.36Z"/><polygon fill="#faba01" points="28 41 28 44 25 46 22 44 22 41 25 39 28 41"/><polygon fill="#f6a000" points="31 36 31 39 28 41 25 39 25 36 28 34 31 36"/><polygon fill="#f6a000" points="22 31 22 34 19 36 16 34 16 31 19 29 22 31"/><polygon fill="#faba01" points="19 39 16 41 13 39 13 36 16 34 19 36 19 39"/><polygon fill="#faba01" points="34 34 31 36 28 34 28 31 31 29 34 31 34 34"/><polygon fill="#faba01" points="25 26 25 29 22 31 19 29 19 26 22 24 25 26"/><polygon fill="#f6a000" points="28 21 28 24 25 26 22 24 22 21 25 19 28 21"/><rect width="10" height="1" x="19" y="19" fill="#527710"/><path fill="#cc5700" d="M22,19c-5.525,0-10,6.681-10,12.552C12,41.158,15.682,47,19,47h10c3.315,0,7-5.842,7-15.448,0-5.871-4.471-12.552-10-12.552Z"/><path fill="#cc5700" d="M25.994,19a7.5,7.5,0,0,1,4.178,1.33c-.209-.13-.409-.26-.619-.37L27.993,21l-3-2Z"/><path fill="#cc5700" d="M25,19l-3,2-2.359-1.57v-.01A6.741,6.741,0,0,1,22,19h3Z"/><path fill="#f8ef00" d="M16 44l-.759.51c-.12-.17-.24-.34-.35-.52s-.23-.37-.34-.57c-.1-.17-.19-.36-.29-.54-.01-.02-.02-.05-.03-.07-.11-.22-.21-.44-.31-.66-.2-.46-.39-.94-.56-1.45-.09-.26-.169-.52-.249-.79s-.16-.55-.23-.83L13 39l3 2zM35.98 31.11c.01.15.01.29.01.44 0 .64-.02 1.27-.05 1.88q-.03.465-.06.9c-.02.29-.05.59-.08.87L33.991 34V31l1.859-1.24a3.469 3.469 0 0 1 .06.45C35.94 30.51 35.97 30.81 35.98 31.11z"/><path fill="#f8ef00" d="M35.72,29.03c.05.24.09.49.13.73L33.991,31l-3-2V26l2.789-1.86c.13.21.26.43.38.65s.24.44.35.67.22.46.309.69.2.47.28.7c.11.27.2.54.28.81C35.51,28.11,35.63,28.57,35.72,29.03Z"/><path fill="#cc5700" d="M25,46l3-2,3,2,1.24-.83A4.418,4.418,0,0,1,28.993,47H19c-1.279,0-2.619-.87-3.758-2.49L16,44l3,2,3-2Z"/><path fill="#c8da00" d="M33.991,41v1.32q-.2.42-.39.81c0,.01,0,.02-.02.03a11.032,11.032,0,0,1-1.349,2.01l-1.24.83-3-2V41l3-2Z"/><path fill="#c8da00" d="M35.8 35.2c-.05.46-.11.91-.17 1.35a24.612 24.612 0 0 1-.939 3.98l-.7.47-3-2V36l3-2zM22 21v3l-3 2-3-2V21.84a9.539 9.539 0 0 1 3.639-2.41z"/><path fill="#c8da00" d="M19,29l-3,2-3-2V26.57c.1-.27.209-.53.329-.79L16,24l3,2Z"/><path fill="#c8da00" d="M16,31v3l-3,2-.77-.51c-.07-.62-.13-1.25-.17-1.91S12,32.25,12,31.55a12.368,12.368,0,0,1,.17-2L13,29Z"/><polygon fill="#c8da00" points="21.996 41 21.996 44 18.997 46 15.998 44 15.998 41 18.997 39 21.996 41"/><polygon fill="#c8da00" points="24.995 36 24.995 39 21.996 41 18.997 39 18.997 36 21.996 34 24.995 36"/><polygon fill="#c8da00" points="27.993 31 27.993 34 24.995 36 21.996 34 21.996 31 24.995 29 27.993 31"/><path fill="#c8da00" d="M33.781,24.14,30.992,26l-3-2V21l1.56-1.04c.21.11.41.24.619.37a10.622,10.622,0,0,1,1.71,1.39c.35.36.689.74,1.009,1.14A13.936,13.936,0,0,1,33.781,24.14Z"/><polygon fill="#c8da00" points="30.992 26 30.992 29 27.993 31 24.995 29 24.995 26 27.993 24 30.992 26"/><polygon fill="#faba01" points="27.993 41 27.993 44 24.995 46 21.996 44 21.996 41 24.995 39 27.993 41"/><polygon fill="#faba01" points="30.992 36 30.992 39 27.993 41 24.995 39 24.995 36 27.993 34 30.992 36"/><polygon fill="#faba01" points="21.996 31 21.996 34 18.997 36 15.998 34 15.998 31 18.997 29 21.996 31"/><polygon fill="#faba01" points="18.997 39 15.998 41 13 39 13 36 15.998 34 18.997 36 18.997 39"/><polygon fill="#faba01" points="33.991 34 30.992 36 27.993 34 27.993 31 30.992 29 33.991 31 33.991 34"/><polygon fill="#faba01" points="24.995 26 24.995 29 21.996 31 18.997 29 18.997 26 21.996 24 24.995 26"/><polygon fill="#faba01" points="27.993 21 27.993 24 24.995 26 21.996 24 21.996 21 24.995 19 27.993 21"/><polygon fill="#fc6b00" points="24.995 26 24.995 29 21.996 31 18.997 29 18.997 26 21.996 24 24.995 26"/><path fill="#e86300" d="M19,28v1l3,2,3-2V28L22.55,29.63a1,1,0,0,1-1.109,0Z"/><path fill="#f6a000" d="M24,26.135V27.7a1,1,0,0,1-.36.769l-1,.833a1,1,0,0,1-1.28,0l-1-.833A1,1,0,0,1,20,27.7V26.135a1,1,0,0,1,.359-.768L22,24l1.639,1.367A1,1,0,0,1,24,26.135Z"/><path fill="#ffc501" d="M23,26.5V27.5a1.936,1.936,0,0,1-.292,1.058h0a.789.789,0,0,1-1.414,0h0A1.936,1.936,0,0,1,21,27.5V26.5a1.936,1.936,0,0,1,.293-1.058h0a.789.789,0,0,1,1.414,0h0A1.936,1.936,0,0,1,23,26.5Z"/><rect width=".707" height=".707" x="21.642" y="26.647" fill="#4f4600" transform="rotate(-44.988 21.995 27)"/><polygon fill="#fc6b00" points="24.995 36 24.995 39 21.996 41 18.997 39 18.997 36 21.996 34 24.995 36"/><path fill="#e86300" d="M19,38v1l3,2,3-2V38L22.55,39.63a1,1,0,0,1-1.109,0Z"/><path fill="#f6a000" d="M24,36.135V37.7a1,1,0,0,1-.36.769l-1,.833a1,1,0,0,1-1.28,0l-1-.833A1,1,0,0,1,20,37.7V36.135a1,1,0,0,1,.359-.768L22,34l1.639,1.367A1,1,0,0,1,24,36.135Z"/><path fill="#ffc501" d="M23,36.5V37.5a1.936,1.936,0,0,1-.292,1.058h0a.789.789,0,0,1-1.414,0h0A1.936,1.936,0,0,1,21,37.5V36.5a1.936,1.936,0,0,1,.293-1.058h0a.789.789,0,0,1,1.414,0h0A1.936,1.936,0,0,1,23,36.5Z"/><rect width=".707" height=".707" x="21.642" y="36.647" fill="#4f4600" transform="rotate(-44.988 21.996 37)"/><polygon fill="#fc6b00" points="27.993 31 27.993 34 24.995 36 21.996 34 21.996 31 24.995 29 27.993 31"/><path fill="#e86300" d="M22,33v1l3,2,3-2V33l-2.444,1.63a1,1,0,0,1-1.109,0Z"/><path fill="#f6a000" d="M26.994,31.135V32.7a1,1,0,0,1-.36.769l-1,.833a1,1,0,0,1-1.279,0l-1-.833A1,1,0,0,1,23,32.7V31.135a1,1,0,0,1,.36-.768L25,29l1.639,1.367A1,1,0,0,1,26.994,31.135Z"/><path fill="#ffc501" d="M25.994,31.5V32.5a1.928,1.928,0,0,1-.293,1.058h0a.788.788,0,0,1-1.413,0h0A1.928,1.928,0,0,1,24,32.5V31.5a1.928,1.928,0,0,1,.293-1.058h0a.788.788,0,0,1,1.413,0h0A1.928,1.928,0,0,1,25.994,31.5Z"/><rect width=".707" height=".707" x="24.641" y="31.647" fill="#4f4600" transform="rotate(-44.988 24.994 32)"/><polygon fill="#c8da00" points="12.17 29.55 12.169 29.554 13 29 12.17 29.55"/><polygon fill="#c8da00" points="12.23 35.49 13 36 12.23 35.486 12.23 35.49"/><path fill="#fc6b00" d="M13 29l-.831.554c-.008.051-.011.1-.019.154zM13 29l1.639 1.367a1 1 0 0 1 .36.768V32.7a1 1 0 0 1-.36.768l-1 .834a1 1 0 0 1-1.28 0l-.255-.212c.009.113.02.223.03.335l.31.207a1 1 0 0 0 1.109 0L16 33V31z"/><path fill="#e86300" d="M12.445,34.63l-.31-.207c.031.355.056.718.1,1.063L13,36l3-2V33l-2.444,1.63A1,1,0,0,1,12.445,34.63Z"/><path fill="#f6a000" d="M12,31.55c0,.7.02,1.37.06,2.03.011.175.032.336.045.508l.255.212a1,1,0,0,0,1.28,0l1-.834A1,1,0,0,0,15,32.7V31.135a1,1,0,0,0-.36-.768L13,29l-.85.708A12.264,12.264,0,0,0,12,31.55Z"/><path fill="#ffc501" d="M14,31.5V32.5a1.928,1.928,0,0,1-.293,1.058h0a.788.788,0,0,1-1.413,0h0A1.928,1.928,0,0,1,12,32.5V31.5a1.928,1.928,0,0,1,.293-1.058h0a.788.788,0,0,1,1.413,0h0A1.928,1.928,0,0,1,14,31.5Z"/><rect width=".707" height=".707" x="12.646" y="31.647" fill="#4f4600" transform="rotate(-44.988 13 32)"/><polygon fill="#c8da00" points="13.329 25.78 13.329 25.78 15.998 24 13.329 25.78"/><path fill="#fc6b00" d="M16,24l-2.669,1.78c-.119.26-.229.52-.329.79V29l3,2,3-2V26Z"/><path fill="#e86300" d="M13,28v1l3,2,3-2V28l-2.444,1.63a1,1,0,0,1-1.109,0Z"/><path fill="#f6a000" d="M18,26.135V27.7a1,1,0,0,1-.359.769l-1,.833a1,1,0,0,1-1.28,0l-1-.833A1,1,0,0,1,14,27.7V26.135a1,1,0,0,1,.36-.768L16,24l1.64,1.367A1,1,0,0,1,18,26.135Z"/><path fill="#ffc501" d="M17,26.5V27.5a1.928,1.928,0,0,1-.293,1.058h0a.788.788,0,0,1-1.413,0h0A1.928,1.928,0,0,1,15,27.5V26.5a1.928,1.928,0,0,1,.293-1.058h0a.788.788,0,0,1,1.413,0h0A1.928,1.928,0,0,1,17,26.5Z"/><rect width=".707" height=".707" x="15.645" y="26.647" fill="#4f4600" transform="rotate(-44.988 15.998 27)"/><polygon fill="#c8da00" points="35.8 35.2 33.991 34 35.799 35.206 35.8 35.2"/><path fill="#fc6b00" d="M35.758 35.533c.013-.11.029-.216.041-.327L33.991 34l1.639 1.367A.941.941 0 0 1 35.758 35.533zM34.545 39.63l.492-.328c.041-.151.088-.291.126-.446l-.532.444a1 1 0 0 1-1.28 0l-1-.834a1 1 0 0 1-.359-.768V36.135a1 1 0 0 1 .359-.768L33.991 34l-3 2v2l2.444 1.63A1 1 0 0 0 34.545 39.63z"/><path fill="#e86300" d="M35.037,39.3l-.492.328a1,1,0,0,1-1.109,0L30.992,38v1l3,2,.7-.47C34.82,40.143,34.926,39.718,35.037,39.3Z"/><path fill="#f6a000" d="M31.992,36.135V37.7a1,1,0,0,0,.359.768l1,.834a1,1,0,0,0,1.28,0l.532-.444c.18-.731.339-1.493.467-2.306.045-.332.087-.674.128-1.017a.941.941,0,0,0-.128-.166L33.991,34l-1.64,1.367A1,1,0,0,0,31.992,36.135Zm1,.362a1.936,1.936,0,0,1,.293-1.058.789.789,0,0,1,1.414,0A1.936,1.936,0,0,1,34.99,36.5V37.5a1.936,1.936,0,0,1-.292,1.058.789.789,0,0,1-1.414,0,1.936,1.936,0,0,1-.293-1.058Z"/><path fill="#ffc501" d="M34.7,38.561A1.936,1.936,0,0,0,34.99,37.5V36.5a1.936,1.936,0,0,0-.292-1.058.789.789,0,0,0-1.414,0,1.936,1.936,0,0,0-.293,1.058V37.5a1.936,1.936,0,0,0,.293,1.058A.789.789,0,0,0,34.7,38.561ZM33.991,36.5l.5.5-.5.5-.5-.5Z"/><rect width=".707" height=".707" x="33.637" y="36.647" fill="#4f4600" transform="rotate(-44.988 33.991 37)"/><path fill="#fc6b00" d="M34.545,29.63l1.136-.757c-.026-.125-.062-.248-.092-.372l-.958.8a1,1,0,0,1-1.28,0l-1-.834a1,1,0,0,1-.359-.768V26.135a1,1,0,0,1,.359-.768l1.444-1.2-.014-.024L30.992,26v2l2.444,1.63A1,1,0,0,0,34.545,29.63Z"/><path fill="#e86300" d="M35.681,28.873l-1.136.757a1,1,0,0,1-1.109,0L30.992,28v1l3,2,1.859-1.24c-.04-.24-.08-.49-.13-.73C35.71,28.977,35.692,28.925,35.681,28.873Z"/><path fill="#f6a000" d="M35.1,26.85c-.031-.09-.073-.183-.11-.275V27.5a1.936,1.936,0,0,1-.292,1.058.789.789,0,0,1-1.414,0,1.936,1.936,0,0,1-.293-1.058V26.5a1.936,1.936,0,0,1,.293-1.058.775.775,0,0,1,1.037-.343c-.054-.1-.1-.205-.16-.306-.116-.212-.241-.423-.366-.626l-1.444,1.2a1,1,0,0,0-.359.768V27.7a1,1,0,0,0,.359.768l1,.834a1,1,0,0,0,1.28,0l.958-.8c-.068-.281-.129-.565-.209-.841S35.21,27.12,35.1,26.85Z"/><path fill="#ffc501" d="M33.284,25.439a1.936,1.936,0,0,0-.293,1.058V27.5a1.936,1.936,0,0,0,.293,1.058.789.789,0,0,0,1.414,0A1.936,1.936,0,0,0,34.99,27.5v-.928c-.056-.143-.109-.285-.17-.425-.089-.23-.2-.46-.309-.69-.06-.125-.126-.243-.19-.364A.775.775,0,0,0,33.284,25.439Zm.707,2.061-.5-.5.5-.5.5.5Z"/><rect width=".707" height=".707" x="33.637" y="26.647" fill="#4f4600" transform="rotate(-44.988 33.99 27)"/><polygon fill="#fc6b00" points="27.993 21 27.993 24 24.995 26 21.996 24 21.996 21 24.995 19 27.993 21"/><path fill="#e86300" d="M22,23v1l3,2,3-2V23l-2.444,1.63a1,1,0,0,1-1.109,0Z"/><path fill="#f6a000" d="M26.994,21.135V22.7a1,1,0,0,1-.36.769l-1,.833a1,1,0,0,1-1.279,0l-1-.833A1,1,0,0,1,23,22.7V21.135a1,1,0,0,1,.36-.768L25,19l1.639,1.367A1,1,0,0,1,26.994,21.135Z"/><path fill="#ffc501" d="M25.994,21.5V22.5a1.928,1.928,0,0,1-.293,1.058h0a.788.788,0,0,1-1.413,0h0A1.928,1.928,0,0,1,24,22.5V21.5a1.928,1.928,0,0,1,.293-1.058h0a.788.788,0,0,1,1.413,0h0A1.928,1.928,0,0,1,25.994,21.5Z"/><rect width=".707" height=".707" x="24.641" y="21.647" fill="#4f4600" transform="rotate(-44.988 24.995 22)"/><polygon fill="#cc5700" points="21.996 31 21.996 34 18.997 36 15.998 34 15.998 31 18.997 29 21.996 31"/><path fill="#e86300" d="M16,33v1l3,2,3-2V33l-2.444,1.63a1,1,0,0,1-1.109,0Z"/><path fill="#f6a000" d="M21,31.135V32.7a1,1,0,0,1-.359.769l-1,.833a1,1,0,0,1-1.28,0l-1-.833A1,1,0,0,1,17,32.7V31.135a1,1,0,0,1,.36-.768L19,29l1.64,1.367A1,1,0,0,1,21,31.135Z"/><path fill="#ffc501" d="M20,31.5V32.5a1.936,1.936,0,0,1-.293,1.058h0a.789.789,0,0,1-1.414,0h0A1.936,1.936,0,0,1,18,32.5V31.5a1.936,1.936,0,0,1,.293-1.058h0a.789.789,0,0,1,1.414,0h0A1.936,1.936,0,0,1,20,31.5Z"/><rect width=".707" height=".707" x="18.644" y="31.647" fill="#4f4600" transform="rotate(-44.988 18.997 32)"/><path fill="#cc5700" d="M35.907,33.931l-.557-.465a1,1,0,0,1-.36-.768V31.135a1,1,0,0,1,.36-.768l.523-.436c-.009-.057-.012-.114-.023-.171L33.991,31v2l1.894,1.263C35.892,34.155,35.9,34.041,35.907,33.931Z"/><path fill="#e86300" d="M35.88,34.33l0-.067L33.991,33v1L35.8,35.2C35.83,34.92,35.86,34.62,35.88,34.33Z"/><path fill="#f6a000" d="M35.99,31.55c0-.15,0-.29-.01-.44-.01-.3-.04-.6-.07-.9-.006-.093-.023-.186-.037-.279l-.523.436a1,1,0,0,0-.36.768V32.7a1,1,0,0,0,.36.768l.557.465c.011-.167.022-.329.033-.5C35.97,32.82,35.99,32.19,35.99,31.55Z"/><path fill="#cc5700" d="M30.992,39l-3,2v2l2.445,1.63a1,1,0,0,0,1.109,0l1.921-1.282c.037-.065.077-.121.113-.188.02-.01.02-.02.02-.03q.2-.39.39-.81V41Z"/><path fill="#e86300" d="M33.468,43.348,31.547,44.63a1,1,0,0,1-1.109,0L27.993,43v1l3,2,1.24-.83A10.758,10.758,0,0,0,33.468,43.348Z"/><path fill="#f6a000" d="M32.991,41.135V42.7a1,1,0,0,1-.359.769l-1,.833a1,1,0,0,1-1.28,0l-1-.833a1,1,0,0,1-.36-.769V41.135a1,1,0,0,1,.36-.768L30.992,39l1.64,1.367A1,1,0,0,1,32.991,41.135Z"/><path fill="#ffc501" d="M31.992,41.5V42.5a1.936,1.936,0,0,1-.293,1.058h0a.789.789,0,0,1-1.414,0h0a1.936,1.936,0,0,1-.293-1.058V41.5a1.936,1.936,0,0,1,.293-1.058h0a.789.789,0,0,1,1.414,0h0A1.936,1.936,0,0,1,31.992,41.5Z"/><rect width=".707" height=".707" x="30.639" y="41.647" fill="#4f4600" transform="rotate(-44.988 30.992 42)"/><polygon fill="#cc5700" points="30.992 36 30.992 39 27.993 41 24.995 39 24.995 36 27.993 34 30.992 36"/><path fill="#e86300" d="M25,38v1l3,2,3-2V38l-2.444,1.63a1,1,0,0,1-1.109,0Z"/><path fill="#f6a000" d="M29.992,36.135V37.7a1,1,0,0,1-.359.769l-1,.833a1,1,0,0,1-1.28,0l-1-.833a1,1,0,0,1-.36-.769V36.135a1,1,0,0,1,.36-.768L27.993,34l1.64,1.367A1,1,0,0,1,29.992,36.135Z"/><path fill="#ffc501" d="M28.993,36.5V37.5a1.928,1.928,0,0,1-.293,1.058h0a.788.788,0,0,1-1.413,0h0a1.928,1.928,0,0,1-.293-1.058V36.5a1.928,1.928,0,0,1,.293-1.058h0a.788.788,0,0,1,1.413,0h0A1.928,1.928,0,0,1,28.993,36.5Z"/><rect width=".707" height=".707" x="27.64" y="36.647" fill="#4f4600" transform="rotate(-44.988 27.993 37)"/><polygon fill="#cc5700" points="21.996 41 21.996 44 18.997 46 15.998 44 15.998 41 18.997 39 21.996 41"/><path fill="#e86300" d="M16,43v1l3,2,3-2V43l-2.444,1.63a1,1,0,0,1-1.109,0Z"/><path fill="#f6a000" d="M21,41.135V42.7a1,1,0,0,1-.359.769l-1,.833a1,1,0,0,1-1.28,0l-1-.833A1,1,0,0,1,17,42.7V41.135a1,1,0,0,1,.36-.768L19,39l1.64,1.367A1,1,0,0,1,21,41.135Z"/><path fill="#ffc501" d="M20,41.5V42.5a1.936,1.936,0,0,1-.293,1.058h0a.789.789,0,0,1-1.414,0h0A1.936,1.936,0,0,1,18,42.5V41.5a1.936,1.936,0,0,1,.293-1.058h0a.789.789,0,0,1,1.414,0h0A1.936,1.936,0,0,1,20,41.5Z"/><rect width=".707" height=".707" x="18.644" y="41.647" fill="#4f4600" transform="rotate(-44.988 18.997 42)"/><polygon fill="#cc5700" points="30.992 26 30.992 29 27.993 31 24.995 29 24.995 26 27.993 24 30.992 26"/><path fill="#e86300" d="M25,28v1l3,2,3-2V28l-2.444,1.63a1,1,0,0,1-1.109,0Z"/><path fill="#f6a000" d="M29.992,26.135V27.7a1,1,0,0,1-.359.769l-1,.833a1,1,0,0,1-1.28,0l-1-.833a1,1,0,0,1-.36-.769V26.135a1,1,0,0,1,.36-.768L27.993,24l1.64,1.367A1,1,0,0,1,29.992,26.135Z"/><path fill="#ffc501" d="M28.993,26.5V27.5a1.928,1.928,0,0,1-.293,1.058h0a.788.788,0,0,1-1.413,0h0a1.928,1.928,0,0,1-.293-1.058V26.5a1.928,1.928,0,0,1,.293-1.058h0a.788.788,0,0,1,1.413,0h0A1.928,1.928,0,0,1,28.993,26.5Z"/><rect width=".707" height=".707" x="27.64" y="26.647" fill="#4f4600" transform="rotate(-44.988 27.993 27)"/><polygon fill="#ff7f00" points="33.991 31 33.991 34 30.992 36 27.993 34 27.993 31 30.992 29 33.991 31"/><path fill="#cc5700" d="M27.993,33v1l3,2,3-2V33l-2.444,1.63a1,1,0,0,1-1.109,0Z"/><path fill="#f6a000" d="M32.991,31.135V32.7a1,1,0,0,1-.359.769l-1,.833a1,1,0,0,1-1.28,0l-1-.833a1,1,0,0,1-.36-.769V31.135a1,1,0,0,1,.36-.768L30.992,29l1.64,1.367A1,1,0,0,1,32.991,31.135Z"/><path fill="#ffc501" d="M31.992,31.5V32.5a1.936,1.936,0,0,1-.293,1.058h0a.789.789,0,0,1-1.414,0h0a1.936,1.936,0,0,1-.293-1.058V31.5a1.936,1.936,0,0,1,.293-1.058h0a.789.789,0,0,1,1.414,0h0A1.936,1.936,0,0,1,31.992,31.5Z"/><rect width=".707" height=".707" x="30.639" y="31.647" fill="#4f4600" transform="rotate(-44.988 30.992 32)"/><polygon fill="#c8da00" points="29.553 19.96 27.993 21 29.553 19.96 29.553 19.96"/><path fill="#ff7f00" d="M31.547,24.63l1.759-1.173c-.123-.176-.235-.358-.366-.527a.988.988,0,0,1-.308.536l-1,.834a1,1,0,0,1-1.28,0l-1-.834a1,1,0,0,1-.36-.768V21.135a1,1,0,0,1,.36-.768l.367-.307c-.055-.032-.11-.07-.167-.1L27.993,21v2l2.445,1.63A1,1,0,0,0,31.547,24.63Z"/><path fill="#cc5700" d="M31.547,24.63a1,1,0,0,1-1.109,0L27.993,23v1l3,2,2.789-1.86c-.144-.235-.315-.456-.475-.683Z"/><path fill="#f6a000" d="M31.992,21.844V22.5a1.936,1.936,0,0,1-.293,1.058.789.789,0,0,1-1.414,0,1.936,1.936,0,0,1-.293-1.058V21.5a1.936,1.936,0,0,1,.293-1.058c0-.007.011-.009.016-.016-.044-.029-.085-.065-.129-.093-.153-.095-.3-.183-.452-.27l-.367.307a1,1,0,0,0-.36.768V22.7a1,1,0,0,0,.36.768l1,.834a1,1,0,0,0,1.28,0l1-.834a.988.988,0,0,0,.308-.536c-.018-.023-.031-.048-.049-.07C32.606,22.5,32.3,22.169,31.992,21.844Z"/><path fill="#ffc501" d="M29.992,21.5V22.5a1.936,1.936,0,0,0,.293,1.058.789.789,0,0,0,1.414,0,1.936,1.936,0,0,0,.293-1.058v-.659c-.038-.04-.072-.085-.11-.124a10.752,10.752,0,0,0-1.581-1.3c0,.007-.011.009-.016.016A1.936,1.936,0,0,0,29.992,21.5Z"/><rect width=".707" height=".707" x="30.639" y="21.647" fill="#4f4600" transform="rotate(-44.988 30.993 22)"/><polygon fill="#ff7f00" points="18.997 36 18.997 39 15.998 41 13 39 13 36 15.998 34 18.997 36"/><path fill="#cc5700" d="M13,38v1l3,2,3-2V38l-2.444,1.63a1,1,0,0,1-1.109,0Z"/><path fill="#f6a000" d="M18,36.135V37.7a1,1,0,0,1-.359.769l-1,.833a1,1,0,0,1-1.28,0l-1-.833A1,1,0,0,1,14,37.7V36.135a1,1,0,0,1,.36-.768L16,34l1.64,1.367A1,1,0,0,1,18,36.135Z"/><path fill="#ffc501" d="M17,36.5V37.5a1.928,1.928,0,0,1-.293,1.058h0a.788.788,0,0,1-1.413,0h0A1.928,1.928,0,0,1,15,37.5V36.5a1.928,1.928,0,0,1,.293-1.058h0a.788.788,0,0,1,1.413,0h0A1.928,1.928,0,0,1,17,36.5Z"/><rect width=".707" height=".707" x="15.645" y="36.647" fill="#4f4600" transform="rotate(-44.988 15.999 37)"/><polygon fill="#ff7f00" points="27.993 41 27.993 44 24.995 46 21.996 44 21.996 41 24.995 39 27.993 41"/><path fill="#cc5700" d="M22,43v1l3,2,3-2V43l-2.444,1.63a1,1,0,0,1-1.109,0Z"/><path fill="#f6a000" d="M26.994,41.135V42.7a1,1,0,0,1-.36.769l-1,.833a1,1,0,0,1-1.279,0l-1-.833A1,1,0,0,1,23,42.7V41.135a1,1,0,0,1,.36-.768L25,39l1.639,1.367A1,1,0,0,1,26.994,41.135Z"/><path fill="#faba01" d="M25.994,41.5V42.5a1.928,1.928,0,0,1-.293,1.058h0a.788.788,0,0,1-1.413,0h0A1.928,1.928,0,0,1,24,42.5V41.5a1.928,1.928,0,0,1,.293-1.058h0a.788.788,0,0,1,1.413,0h0A1.928,1.928,0,0,1,25.994,41.5Z"/><rect width=".707" height=".707" x="24.641" y="41.647" fill="#4f4600" transform="rotate(-44.988 24.994 42)"/><polygon fill="#f8ef00" points="15.239 44.51 15.998 44 15.237 44.508 15.239 44.51"/><polygon fill="#f8ef00" points="12.88 39.08 12.88 39.08 13 39 12.88 39.08"/><path fill="#ff7f00" d="M13 39l-.12.08 0 .016zM13 39l1.639 1.367a1 1 0 0 1 .36.768V42.7a1 1 0 0 1-.36.768L14.6 43.5c.06.107.123.209.185.31L16 43V41z"/><path fill="#cc5700" d="M14.889,43.99c.109.179.229.348.348.518L16,44V43l-1.216.811C14.818,43.87,14.851,43.934,14.889,43.99Z"/><path fill="#f6a000" d="M13.11,39.91c.013.046.028.089.042.134a.892.892,0,0,1,.554.4A1.928,1.928,0,0,1,14,41.5v.823c.075.164.148.327.23.49.01.02.02.05.03.07.1.18.19.37.29.54.016.028.033.053.048.081l.042-.035A1,1,0,0,0,15,42.7V41.135a1,1,0,0,0-.36-.768L13,39l-.116.1C12.953,39.371,13.021,39.645,13.11,39.91Z"/><path fill="#faba01" d="M13.919,42.15c.026.057.054.113.08.17V41.5a1.928,1.928,0,0,0-.293-1.058.892.892,0,0,0-.554-.4c.067.222.133.44.207.656C13.529,41.21,13.719,41.69,13.919,42.15Z"/><path fill="#cc5700" d="M19.637,19.43c-.028.01-.054.025-.082.035l1.082.9a1,1,0,0,1,.359.768V22.7a1,1,0,0,1-.359.768l-1,.834a1,1,0,0,1-1.28,0l-1-.834A1,1,0,0,1,17,22.7V21.135a1,1,0,0,1,.052-.235A11.144,11.144,0,0,0,16,21.84V24l3,2,3-2V21Z"/><path fill="#f6a000" d="M17,21.135V22.7a1,1,0,0,0,.36.768l1,.834a1,1,0,0,0,1.28,0l1-.834A1,1,0,0,0,21,22.7V21.135a1,1,0,0,0-.359-.768l-1.082-.9a8.957,8.957,0,0,0-2.5,1.435A1,1,0,0,0,17,21.135Zm1,.362a1.936,1.936,0,0,1,.293-1.058.789.789,0,0,1,1.414,0A1.936,1.936,0,0,1,20,21.5V22.5a1.936,1.936,0,0,1-.293,1.058.789.789,0,0,1-1.414,0A1.936,1.936,0,0,1,18,22.5Z"/><path fill="#ffc501" d="M19.7,23.561A1.936,1.936,0,0,0,20,22.5V21.5a1.936,1.936,0,0,0-.293-1.058.789.789,0,0,0-1.414,0A1.936,1.936,0,0,0,18,21.5V22.5a1.936,1.936,0,0,0,.293,1.058A.789.789,0,0,0,19.7,23.561Z"/><path fill="#e86300" d="M16,23v1l3,2,3-2V23l-2.444,1.63a1,1,0,0,1-1.109,0Z"/><rect width=".707" height=".707" x="18.644" y="21.647" fill="#4f4600" transform="rotate(-44.988 18.998 22)"/><path fill="#cc5700" d="M15.3 44.585L16 44l-.759.51C15.257 44.537 15.277 44.559 15.3 44.585zM18 46.135v.69A3.1 3.1 0 0 0 19 47V46l-3-2 1.64 1.367A1 1 0 0 1 18 46.135z"/><path fill="#f6a000" d="M15.684,45.092a.773.773,0,0,1,1.021.347,1.873,1.873,0,0,1,.266.853A4.162,4.162,0,0,0,18,46.825v-.69a1,1,0,0,0-.359-.768L16,44l-.7.585C15.423,44.762,15.552,44.933,15.684,45.092Z"/><path fill="#ffc501" d="M16.971,46.292a1.873,1.873,0,0,0-.266-.853.773.773,0,0,0-1.021-.347A6.49,6.49,0,0,0,16.971,46.292Z"/><path fill="#cc5700" d="M20 47v-.865a1 1 0 0 1 .359-.768L22 44l-3 2v1zM24 46.135V47h1V46l-3-2 1.639 1.367A1 1 0 0 1 24 46.135z"/><path fill="#f6a000" d="M20,46.135V47h1v-.5a1.936,1.936,0,0,1,.293-1.058.789.789,0,0,1,1.414,0A1.936,1.936,0,0,1,23,46.5V47h1v-.865a1,1,0,0,0-.36-.768L22,44l-1.64,1.367A1,1,0,0,0,20,46.135Z"/><path fill="#ffc501" d="M23,46.5a1.936,1.936,0,0,0-.292-1.058.789.789,0,0,0-1.414,0A1.936,1.936,0,0,0,21,46.5V47h2Z"/><path fill="#ff7f00" d="M25.994 47v-.865a1 1 0 0 1 .36-.768L27.993 44l-3 2v1zM27.993 44l1.64 1.367a1 1 0 0 1 .359.768v.686a4.086 4.086 0 0 0 1-.508V46z"/><path fill="#f6a000" d="M25.994,46.135V47h1v-.5a1.928,1.928,0,0,1,.293-1.058.788.788,0,0,1,1.413,0,1.928,1.928,0,0,1,.293,1.058V47a3.1,3.1,0,0,0,1-.179v-.686a1,1,0,0,0-.359-.768L27.993,44l-1.639,1.367A1,1,0,0,0,25.994,46.135Z"/><path fill="#faba01" d="M28.993,46.5a1.928,1.928,0,0,0-.293-1.058.788.788,0,0,0-1.413,0,1.928,1.928,0,0,0-.293,1.058V47h2Z"/><path fill="#689629" d="M31.152 8.44A9.041 9.041 0 0 1 33.991 8c-3 3-4 4-4 6l.03.19a7.563 7.563 0 0 0-3.2 1.41l-.81-1.89a6.014 6.014 0 0 1 2.109-3.55A8.585 8.585 0 0 1 31.152 8.44zM21.166 15.6a7.563 7.563 0 0 0-3.2-1.41L18 14c0-2-1-3-4-6a9.041 9.041 0 0 1 2.839.44 8.585 8.585 0 0 1 3.029 1.72 6.014 6.014 0 0 1 2.109 3.55z"/><path fill="#2f4700" d="M23.085,3.04l-2.1,4.73a4.536,4.536,0,0,0-2.069-3.1L18,1c1.66,0,5,2,5,2Z"/><path fill="#436600" d="M29.992,1l-.919,3.67A4.536,4.536,0,0,0,27,7.77l-2.1-4.73L25,3S28.333,1,29.992,1Z"/><path fill="#689629" d="M29.073 4.67C30.392 3.74 32.541 3 35.99 3c-.95.95-3.708 1.9-4.838 5.44a8.585 8.585 0 0 0-3.029 1.72l-.13-.16L27 7.78V7.77A4.536 4.536 0 0 1 29.073 4.67zM18.917 4.67a4.536 4.536 0 0 1 2.069 3.1v.01L20 10l-.13.16a8.585 8.585 0 0 0-3.029-1.72C15.708 4.9 12.95 3.95 12 3 15.449 3 17.6 3.74 18.917 4.67z"/><path fill="#7eaf31" d="M26.014,13.71l.81,1.89A4.309,4.309,0,0,0,25,19H23a4.309,4.309,0,0,0-1.829-3.4l.81-1.89L24,9Z"/><path fill="#527710" d="M27.993,10l.13.16a6.014,6.014,0,0,0-2.109,3.55L24,9l-2.019,4.71a6.014,6.014,0,0,0-2.109-3.55L20,10l.989-2.22V7.77l2.1-4.73L24,1l.91,2.04L27,7.77v.01Z"/><path fill="#436600" d="M16 14a10.367 10.367 0 0 1 1.97.19 7.563 7.563 0 0 1 3.2 1.41A4.309 4.309 0 0 1 23 19H19C19 17 17.108 14 16 14zM31.992 14c-1.11 0-3 3-3 5H25a4.309 4.309 0 0 1 1.829-3.4 7.563 7.563 0 0 1 3.2-1.41A10.367 10.367 0 0 1 31.992 14z"/><rect width="9.996" height="1" x="18.997" y="19" fill="#436600"/><path fill="#527710" d="M21.166 15.6a7.561 7.561 0 0 0-3.2-1.41A10.349 10.349 0 0 0 16 14a4.677 4.677 0 0 1 5 5h2A4.309 4.309 0 0 0 21.166 15.6zM26.994 19h2c0-2 1.889-5 3-5A4.677 4.677 0 0 0 26.994 19z"/><path fill="#5d881d" d="M21.976,13.71l-.81,1.89A4.309,4.309,0,0,1,23,19h1V9Z"/><path fill="#abcc00" d="M27.736 14.015a8.019 8.019 0 0 1 2.287-.825c.014 0 .029 0 .044-.006.267-1.515 1.362-2.621 3.924-5.184C31.249 8 28.884 10.807 27.736 14.015zM20.254 14.015a6.525 6.525 0 0 1 .912.585c.111.085.213.176.314.267l.5-1.157a6.014 6.014 0 0 0-2.109-3.55 8.585 8.585 0 0 0-3.029-1.72A9.041 9.041 0 0 0 14 8C16.742 8 19.106 10.807 20.254 14.015z"/><path fill="#7eaf31" d="M20.254,14.015c.143.4.269.806.372,1.215a6.254,6.254,0,0,1,.54.37l.314-.733c-.1-.091-.2-.182-.314-.267A6.525,6.525,0,0,0,20.254,14.015Z"/><path fill="#436600" d="M17.967 14.19a7.846 7.846 0 0 1 2.659 1.04c-.1-.409-.229-.814-.372-1.215a8.019 8.019 0 0 0-2.287-.825c-.014 0-.029 0-.044-.006A4.592 4.592 0 0 1 18 14zM27.364 15.23c.1-.409.229-.814.372-1.215a6.467 6.467 0 0 0-.912.585c-.111.085-.213.176-.314.267l.314.733A6.254 6.254 0 0 1 27.364 15.23z"/><path fill="#7eaf31" d="M27.736,14.015c-.143.4-.269.806-.372,1.215a7.846,7.846,0,0,1,2.659-1.04L29.992,14a4.59,4.59,0,0,1,.075-.816c-.015,0-.03,0-.044.006A8.019,8.019,0,0,0,27.736,14.015Z"/><path fill="#689629" d="M27.124,9.16c.114-.1.242-.194.365-.291L27,7.78V7.77l-2.1-4.73L24,1V9l1.222,2.852A6.809,6.809,0,0,1,27.124,9.16Z"/><path fill="#527710" d="M28.123,10.16l-.13-.16-.5-1.131c-.123.1-.251.19-.365.291a6.809,6.809,0,0,0-1.907,2.692l.8,1.858A6.014,6.014,0,0,1,28.123,10.16Z"/><path fill="#436600" d="M20.866,9.16c-.114-.1-.242-.194-.365-.291L20,10l-.13.16a6.014,6.014,0,0,1,2.109,3.55l.8-1.858A6.809,6.809,0,0,0,20.866,9.16Z"/><path fill="#7eaf31" d="M28.615,8.776A8.525,8.525,0,0,1,31.162,7.44c.148-.049.3-.089.456-.13C32.91,4.682,35.161,3.84,36,3,32.668,3,29.818,5.6,28.615,8.776Z"/><path fill="#436600" d="M28.133,10.16c.03-.026.065-.05.1-.076a9.561,9.561,0,0,1,.387-1.308c-.165.126-.33.251-.482.384-.124.11-.239.225-.353.339L28,10Z"/><path fill="#5d881d" d="M28.615,8.776a9.561,9.561,0,0,0-.387,1.308A8.563,8.563,0,0,1,31.162,8.44a8.187,8.187,0,0,1,.456-1.13c-.154.041-.308.081-.456.13A8.525,8.525,0,0,0,28.615,8.776Z"/><path fill="#7eaf31" d="M19.4,8.776c.165.126.33.251.482.384.124.11.239.225.353.339L21,7.78V7.77a4.536,4.536,0,0,0-2.069-3.1C17.608,3.74,15.459,3,12.01,3,15.342,3,18.192,5.6,19.4,8.776Z"/><path fill="#689629" d="M19.4,8.776a9.6,9.6,0,0,1,.387,1.308c.03.026.065.05.095.076l.13-.16.223-.5c-.114-.114-.229-.229-.353-.339C19.725,9.027,19.56,8.9,19.4,8.776Z"/><path fill="#5d881d" d="M19.782,10.084A9.6,9.6,0,0,0,19.4,8.776,8.525,8.525,0,0,0,16.848,7.44c-.148-.049-.3-.089-.456-.13a8.187,8.187,0,0,1,.456,1.13A8.563,8.563,0,0,1,19.782,10.084Z"/><path fill="#436600" d="M23,3s-3.338-2-5-2c1.957.979,2.949,3.052,2.991,6.766l2.1-4.726Z"/><path fill="#527710" d="M27,7.766l0,0a4.536,4.536,0,0,1,2.069-3.1L29.992,1C28.036,1.979,27.044,4.052,27,7.766Z"/><path fill="#9e4300" d="M13 28V26.57c.065-.176.142-.345.215-.516l0-.027a14.667 14.667 0 0 0-1.039 3.521L13 29zM12.028 32.713c.009.274.016.55.031.818-.015-.246-.014-.506-.023-.756C12.034 32.754 12.03 32.734 12.028 32.713zM12.048 30.52c.02-.23.054-.46.087-.691C12.1 30.06 12.068 30.29 12.048 30.52z"/><path fill="#c8da00" d="M12.15 29.708l0-.022c-.007.048-.011.095-.018.143l.006-.048C12.145 29.757 12.146 29.733 12.15 29.708zM12.048 30.52c0 .035-.005.071-.007.106l0-.034C12.047 30.568 12.046 30.544 12.048 30.52z"/><path fill="#c8da00" d="M12.141 29.781l-.006.048c-.033.231-.067.461-.087.691 0 .024 0 .048 0 .072C12.068 30.322 12.1 30.052 12.141 29.781zM12.135 34.423l-.015-.172c.034.416.065.837.11 1.239v0C12.191 35.141 12.166 34.778 12.135 34.423z"/><polygon fill="#c8da00" points="12.17 29.55 12.169 29.554 12.169 29.554 12.17 29.55"/><polygon fill="#c8da00" points="12.173 29.552 12.173 29.548 12.17 29.55 12.169 29.554 12.173 29.552"/><polygon fill="#c8da00" points="13 29 12.173 29.548 12.173 29.552 13 29"/><polygon fill="#c8da00" points="12.23 35.49 13 36 12.23 35.486 12.23 35.49"/><path fill="#fc6b00" d="M12.169 29.554c-.007.044-.01.088-.016.132.007-.044.009-.088.016-.132zM12.151 29.707c.008-.052.013-.1.022-.155l0 0c-.007.044-.009.088-.016.132l0 .022zM12.105 34.088c0 .055.01.109.015.163 0-.055-.011-.108-.015-.163z"/><path fill="#ff6d00" d="M12.445,34.63a1,1,0,0,0,1.11,0l2-1.333q-.293-.553-.554-1.126V32.7a1,1,0,0,1-.36.768l-1,.834a1,1,0,0,1-1.28,0l-.255-.212c0,.055.01.108.015.163l.015.172Z"/><path fill="#9e4300" d="M15.554,33.3l-2,1.333a1,1,0,0,1-1.11,0l-.31-.207c.031.355.056.718.1,1.063L13,36l2.961-1.974Q15.751,33.666,15.554,33.3Z"/><path fill="#ff7f00" d="M12.06 33.58c0 .049.008.094.013.142h0C12.069 33.673 12.063 33.629 12.06 33.58zM12.041 30.626c-.024.283-.035.565-.038.846h0Q12.006 31.051 12.041 30.626zM12.105 34.088c-.009-.124-.024-.241-.032-.367h0c.01.122.023.242.032.366z"/><path fill="#ff7f00" d="M12 31.468c0-.291.017-.583.041-.876l0 .034q-.034.424-.038.845zM12.141 29.781c0-.024.007-.049.01-.074h0C12.146 29.733 12.145 29.757 12.141 29.781zM12.059 33.531c0 .016 0 .033 0 .049 0 .049.009.093.013.141C12.069 33.657 12.062 33.6 12.059 33.531z"/><path fill="#e86300" d="M14.119,29.932c-.027-.08-.056-.159-.081-.24L13,29l-.827.552c-.009.052-.014.1-.022.155,0,.025-.006.05-.01.074-.039.271-.073.541-.1.811-.024.293-.039.585-.041.876a1.92,1.92,0,0,1,.289-1.029.789.789,0,0,1,1.414,0A1.928,1.928,0,0,1,14,31.5V32.5a1.928,1.928,0,0,1-.293,1.058.789.789,0,0,1-1.414,0,1.84,1.84,0,0,1-.257-.786c.009.25.008.51.023.756,0,.064.01.126.014.19.008.126.023.243.032.367l.255.212a1,1,0,0,0,1.28,0l1-.834A1,1,0,0,0,15,32.7v-.527A21.906,21.906,0,0,1,14.119,29.932Z"/><polygon fill="#ffa008" points="12 31.55 12 31.552 12 31.551 12 31.55"/><path fill="#ffa008" d="M12 32.5c0 .072.021.138.028.21-.012-.384-.028-.765-.028-1.161zM12 31.5v.053c0-.026 0-.052 0-.078C12 31.481 12 31.488 12 31.5z"/><path fill="#ffa008" d="M12 31.551h0c0 .4.016.777.028 1.161 0 .021.006.041.008.062C12.022 32.371 12 31.973 12 31.551zM12 31.472c0 .026 0 .052 0 .078 0-.026 0-.053 0-.079zM12 31.468v0c0 .026 0 .053 0 .079h0C12 31.524 12 31.5 12 31.468z"/><path fill="#ff7f00" d="M12.036,32.775a1.84,1.84,0,0,0,.257.786.789.789,0,0,0,1.414,0A1.928,1.928,0,0,0,14,32.5V31.5a1.928,1.928,0,0,0-.293-1.058.789.789,0,0,0-1.414,0A1.92,1.92,0,0,0,12,31.468c0,.027,0,.056,0,.083C12,31.973,12.022,32.371,12.036,32.775ZM13,31.5l.5.5-.5.5-.5-.5Z"/><rect width=".707" height=".707" x="12.646" y="31.646" fill="#403700" transform="rotate(-45 13 32)"/><path fill="#e86300" d="M13.215,26.054c-.073.171-.15.34-.215.516V28l.681.454A22.026,22.026,0,0,1,13.215,26.054Z"/><path fill="#9e4300" d="M13.681,28.454,13,28v1l1.038.692C13.908,29.284,13.787,28.872,13.681,28.454Z"/><path fill="#cc5700" d="M32.24,45.17c.083-.095.16-.214.241-.317h0C32.4,44.955,32.323,45.075,32.24,45.17Z"/><path fill="#e86300" d="M17,41.135V42.7a1,1,0,0,0,.36.768l1,.834a1,1,0,0,0,1.28,0l1-.834A1,1,0,0,0,21,42.7V41.135a1,1,0,0,0-.36-.768L19,39l-1.64,1.367A1,1,0,0,0,17,41.135Zm1,.362a1.928,1.928,0,0,1,.293-1.058.789.789,0,0,1,1.414,0A1.928,1.928,0,0,1,20,41.5V42.5a1.928,1.928,0,0,1-.293,1.058.789.789,0,0,1-1.414,0A1.928,1.928,0,0,1,18,42.5Z"/><path fill="#ff7f00" d="M19.707,43.561A1.928,1.928,0,0,0,20,42.5V41.5a1.928,1.928,0,0,0-.293-1.058.789.789,0,0,0-1.414,0A1.928,1.928,0,0,0,18,41.5V42.5a1.928,1.928,0,0,0,.293,1.058A.789.789,0,0,0,19.707,43.561ZM19,41.5l.5.5-.5.5-.5-.5Z"/><rect width=".707" height=".707" x="18.646" y="41.646" fill="#403700" transform="rotate(-45 19 42)"/><polygon fill="#e86300" points="15.961 34.026 15.963 34.031 16 34 15.961 34.026"/><path fill="#e86300" d="M16.555,39.63l2.388-1.592c-.325-.346-.641-.7-.943-1.066V37.7a1,1,0,0,1-.36.768l-1,.834a1,1,0,0,1-1.28,0l-1-.834A1,1,0,0,1,14,37.7V36.135a1,1,0,0,1,.36-.768l1.6-1.336,0,0L13,36v2l2.445,1.63A1,1,0,0,0,16.555,39.63Z"/><path fill="#ff6d00" d="M14.36,35.367a1,1,0,0,0-.36.768V37.7a1,1,0,0,0,.36.768l1,.834a1,1,0,0,0,1.28,0l1-.834A1,1,0,0,0,18,37.7v-.726a22.088,22.088,0,0,1-2.037-2.941ZM17,36.5V37.5a1.928,1.928,0,0,1-.293,1.058.789.789,0,0,1-1.414,0A1.928,1.928,0,0,1,15,37.5V36.5a1.928,1.928,0,0,1,.293-1.058.789.789,0,0,1,1.414,0A1.928,1.928,0,0,1,17,36.5Z"/><path fill="#ff7f00" d="M15.293,35.439A1.928,1.928,0,0,0,15,36.5V37.5a1.928,1.928,0,0,0,.293,1.058.789.789,0,0,0,1.414,0A1.928,1.928,0,0,0,17,37.5V36.5a1.928,1.928,0,0,0-.293-1.058A.789.789,0,0,0,15.293,35.439ZM16,37.5l-.5-.5.5-.5.5.5Z"/><rect width=".707" height=".707" x="15.646" y="36.646" fill="#403700" transform="rotate(-45 16 37)"/><path fill="#e86300" d="M25.64,44.3a1,1,0,0,1-1.28,0l-1-.834A1,1,0,0,1,23,42.7V41.441q-.417-.272-.819-.561L22,41v2l2.445,1.63a1,1,0,0,0,1.11,0l1.606-1.071c-.152-.058-.3-.117-.454-.179-.026.027-.038.063-.067.086Z"/><path fill="#ff7f00" d="M25.707,43.561a.789.789,0,0,1-1.414,0A1.928,1.928,0,0,1,24,42.5v-.449q-.508-.294-1-.613V42.7a1,1,0,0,0,.36.768l1,.834a1,1,0,0,0,1.28,0l1-.834c.029-.023.041-.059.067-.086-.263-.106-.522-.219-.779-.335A1.705,1.705,0,0,1,25.707,43.561Z"/><path fill="#ffa008" d="M24.293,43.561a.789.789,0,0,0,1.414,0,1.705,1.705,0,0,0,.221-.516q-.992-.45-1.928-.991V42.5A1.928,1.928,0,0,0,24.293,43.561Z"/><path fill="#9e4300" d="M15.24,44.51A5.908,5.908,0,0,0,18,46.825h0a3.164,3.164,0,0,0,.5.129h0A2.9,2.9,0,0,0,19,47H29a4.418,4.418,0,0,0,3.24-1.83c.083-.095.16-.215.241-.317q-.544-.063-1.081-.15-.6-.1-1.193-.232A21.724,21.724,0,0,1,28,43.858c-.282-.094-.562-.193-.839-.3L25.555,44.63a1,1,0,0,1-1.11,0L22,43V41l.181-.12A22.169,22.169,0,0,1,19,38.1l-.057-.061L16.555,39.63a1,1,0,0,1-1.11,0L13,38v1l3,2v2l-1.217.811c.036.059.069.123.107.179.11.179.229.348.348.518M21,42.7a1,1,0,0,1-.36.768l-1,.834a1,1,0,0,1-1.28,0l-1-.834A1,1,0,0,1,17,42.7V41.135a1,1,0,0,1,.36-.768L19,39l1.64,1.367a1,1,0,0,1,.36.768Z"/><path fill="#cc5700" d="M23.64,45.367,22,44l-1.64,1.367a1,1,0,0,0-.36.768V47h1v-.5a1.928,1.928,0,0,1,.293-1.058.789.789,0,0,1,1.414,0A1.928,1.928,0,0,1,23,46.5V47h1v-.865A1,1,0,0,0,23.64,45.367Z"/><path fill="#e86300" d="M22.707,45.439a.789.789,0,0,0-1.414,0A1.928,1.928,0,0,0,21,46.5V47h2v-.5A1.928,1.928,0,0,0,22.707,45.439Z"/><path fill="#cc5700" d="M13,39l1.64,1.367a1,1,0,0,1,.36.768V42.7a1,1,0,0,1-.36.768L14.6,43.5c.06.107.123.209.185.31L16,43V41Z"/><path fill="#e86300" d="M13.11,39.91c.014.046.029.089.043.134a.9.9,0,0,1,.554.4A1.928,1.928,0,0,1,14,41.5v.823c.075.164.148.327.23.49.01.02.02.05.03.07.1.18.19.37.29.54.016.028.033.053.048.081l.042-.035A1,1,0,0,0,15,42.7V41.135a1,1,0,0,0-.36-.768L13,39l-.115.1C12.953,39.371,13.022,39.645,13.11,39.91Z"/><path fill="#9e4300" d="M13.92,42.15c.026.057.054.113.08.17V41.5a1.928,1.928,0,0,0-.293-1.058.9.9,0,0,0-.554-.4c.066.222.132.44.207.656C13.53,41.21,13.72,41.69,13.92,42.15Z"/><path fill="#cc5700" d="M15.685,45.092a.774.774,0,0,1,1.022.347,1.873,1.873,0,0,1,.266.853A4.167,4.167,0,0,0,18,46.825v-.69a1,1,0,0,0-.36-.768L16,44l-.7.585C15.425,44.762,15.553,44.933,15.685,45.092Z"/><path fill="#9e4300" d="M16.973,46.292a1.873,1.873,0,0,0-.266-.853.774.774,0,0,0-1.022-.347A6.522,6.522,0,0,0,16.973,46.292Z"/><path fill="#cc5700" d="M26 47v-.865a1 1 0 0 1 .36-.768L28 44l-3 2v1zM28 44l1.64 1.367a1 1 0 0 1 .36.768v.686a4.1 4.1 0 0 0 1-.508V46z"/><path fill="#e86300" d="M26,46.135V47h1v-.5a1.928,1.928,0,0,1,.293-1.058.789.789,0,0,1,1.414,0A1.928,1.928,0,0,1,29,46.5V47a3.11,3.11,0,0,0,1-.179v-.686a1,1,0,0,0-.36-.768L28,44l-1.64,1.367A1,1,0,0,0,26,46.135Z"/><path fill="#ff7f00" d="M29,46.5a1.928,1.928,0,0,0-.293-1.058.789.789,0,0,0-1.414,0A1.928,1.928,0,0,0,27,46.5V47h2Z"/><ellipse cx="30.36" cy="24.3" fill="#f6fafd" rx="1.65" ry="2.297" transform="rotate(-45.02 30.36 24.3)"/><ellipse cx="32.36" cy="28.3" fill="#f6fafd" rx=".825" ry="1.148" transform="rotate(-45.02 32.359 28.3)"/><ellipse cx="28.106" cy="25.8" fill="#fdf48b" rx=".413" ry=".574" transform="rotate(-45.02 28.105 25.8)"/><ellipse cx="31.106" cy="30.8" fill="#f6fafd" rx=".413" ry=".574" transform="rotate(-45.02 31.105 30.8)"/><ellipse cx="33.106" cy="26.8" fill="#f6fafd" rx=".413" ry=".574" transform="rotate(-45.02 33.105 26.8)"/><ellipse cx="25.106" cy="20.8" fill="#f6fafd" rx=".413" ry=".574" transform="rotate(-45.02 25.106 20.8)"/><ellipse cx="25.106" cy="30.8" fill="#fdf48b" rx=".413" ry=".574" transform="rotate(-45.02 25.105 30.8)"/><ellipse cx="22.106" cy="35.8" fill="#fdf48b" rx=".413" ry=".574" transform="rotate(-45.02 22.106 35.8)"/><ellipse cx="28.106" cy="35.8" fill="#fdf48b" rx=".413" ry=".574" transform="rotate(-45.02 28.106 35.8)"/><ellipse cx="25.106" cy="40.8" fill="#fdf48b" rx=".413" ry=".574" transform="rotate(-45.02 25.105 40.8)"/><ellipse cx="31.106" cy="40.8" fill="#fdf48b" rx=".413" ry=".574" transform="rotate(-45.02 31.106 40.8)"/><ellipse cx="34.106" cy="35.8" fill="#fdf48b" rx=".413" ry=".574" transform="rotate(-45.02 34.105 35.8)"/><ellipse cx="19.106" cy="30.8" fill="#fdf48b" rx=".413" ry=".574" transform="rotate(-45.02 19.105 30.8)"/><ellipse cx="16.106" cy="25.8" fill="#fdf48b" rx=".413" ry=".574" transform="rotate(-45.02 16.105 25.8)"/><ellipse cx="22.106" cy="25.8" fill="#fdf48b" rx=".413" ry=".574" transform="rotate(-45.02 22.105 25.8)"/></g></svg>