<svg xmlns="http://www.w3.org/2000/svg" viewBox="0 0 48 48"><g data-name="02-Strawberry"><path fill="#589e00" d="M26,5.98A12.13,12.13,0,0,0,25,11v.03c-.33-.02-.67-.03-1-.03s-.67.01-1,.03V11a12.13,12.13,0,0,0-1-5.02V1h4Z"/><path fill="#3f7000" d="M14.09 5.07C14.36 8.77 15.48 11 20 11h2l.01.08a21.879 21.879 0 0 0-4.98 1.01L17 12c-4 0-9 0-9-7a10.209 10.209 0 0 1 6 .07zM30.97 12.09a21.879 21.879 0 0 0-4.98-1.01L26 11h2c4.52 0 5.64-2.23 5.91-5.93H34A10.209 10.209 0 0 1 40 5c0 7-5 7-9 7z"/><path fill="#8bc808" d="M34 1c0 1.5 0 2.86-.09 4.07C33.64 8.77 32.52 11 28 11H26C28 11 32 6 34 1zM14 1c2 5 6 10 8 10H20c-4.52 0-5.64-2.23-5.91-5.93C14 3.86 14 2.5 14 1z"/><path fill="#baec35" d="M34 1c-2 5-6 10-8 10l-.01.08c-.33-.02-.66-.04-.99-.05V11a12.13 12.13 0 0 1 1-5.02A8.212 8.212 0 0 1 34 1zM22 5.98A12.13 12.13 0 0 1 23 11v.03c-.33.01-.66.03-.99.05L22 11c-2 0-6-5-8-10A8.212 8.212 0 0 1 22 5.98z"/><path fill="#da1202" d="M24,11c.33,0,.67.01,1,.03s.66.03.99.05a21.879,21.879,0,0,1,4.98,1.01C36.88,14.01,41,18.27,41,23c0,8.12-9,24-17,24S7,31.12,7,23c0-4.73,4.12-8.99,10.03-10.91a21.879,21.879,0,0,1,4.98-1.01c.33-.02.66-.04.99-.05S23.67,11,24,11Z"/><path fill="#589e00" d="M26,5.98A12.13,12.13,0,0,0,25,11v.03c-.33-.02-.67-.03-1-.03s-.67.01-1,.03V11a12.13,12.13,0,0,0-1-5.02V1h4Z"/><path fill="#3f7000" d="M14.09 5.07C14.36 8.77 15.48 11 20 11h2l.01.08a21.879 21.879 0 0 0-4.98 1.01L17 12c-4 0-9 0-9-7a10.209 10.209 0 0 1 6 .07zM30.97 12.09a21.879 21.879 0 0 0-4.98-1.01L26 11h2c4.52 0 5.64-2.23 5.91-5.93H34A10.209 10.209 0 0 1 40 5c0 7-5 7-9 7z"/><path fill="#8bc808" d="M34 1c0 1.5 0 2.86-.09 4.07C33.64 8.77 32.52 11 28 11H26C28 11 32 6 34 1zM14 1c2 5 6 10 8 10H20c-4.52 0-5.64-2.23-5.91-5.93C14 3.86 14 2.5 14 1z"/><path fill="#baec35" d="M34 1c-2 5-6 10-8 10l-.01.08c-.33-.02-.66-.04-.99-.05V11a12.13 12.13 0 0 1 1-5.02A8.212 8.212 0 0 1 34 1zM22 5.98A12.13 12.13 0 0 1 23 11v.03c-.33.01-.66.03-.99.05L22 11c-2 0-6-5-8-10A8.212 8.212 0 0 1 22 5.98z"/><path fill="#da1202" d="M24,11c.33,0,.67.01,1,.03s.66.03.99.05a21.879,21.879,0,0,1,4.98,1.01C36.88,14.01,41,18.27,41,23c0,8.12-9,24-17,24S7,31.12,7,23c0-4.73,4.12-8.99,10.03-10.91a21.879,21.879,0,0,1,4.98-1.01c.33-.02.66-.04.99-.05S23.67,11,24,11Z"/><path fill="#f75749" d="M41,23c0-4.73-4.12-8.99-10.03-10.91a21.879,21.879,0,0,0-4.98-1.01c-.33-.02-.66-.04-.99-.05S24.33,11,24,11s-.67.01-1,.03-.66.03-.99.05a21.879,21.879,0,0,0-4.98,1.01,16.131,16.131,0,0,0-8.244,5.653A18.432,18.432,0,0,1,14.03,15.09a21.879,21.879,0,0,1,4.98-1.01c.33-.02.66-.04.99-.05s.67-.03,1-.03.67.01,1,.03.66.03.99.05a21.879,21.879,0,0,1,4.98,1.01C33.88,17.01,38,21.27,38,26c0,5.033-3.459,13.044-7.993,18.41C35.924,39.572,41,29.1,41,23Z"/><path fill="#961300" d="M28,38c-7.594,0-16.083-14.3-16.926-22.7A10.191,10.191,0,0,0,7,23c0,8.12,9,24,17,24,6.581,0,13.835-10.745,16.2-19.077C36.878,33.42,32.3,38,28,38Z"/><path fill="#f75749" d="M15,25a2,2,0,0,0,2-2V22a2,2,0,0,0-4,0v.372c.326.8.689,1.6,1.079,2.394A1.988,1.988,0,0,0,15,25Z"/><path fill="#b31700" d="M14.079,24.766c-.39-.8-.753-1.6-1.079-2.394V23A1.993,1.993,0,0,0,14.079,24.766Z"/><rect width="4" height="5" x="26" y="21" fill="#f75749" rx="2" ry="2"/><rect width="2" height="3" x="27" y="22" fill="#f8ef00" rx="1" ry="1"/><rect width="4" height="5" x="19" y="25" fill="#f75749" rx="2" ry="2"/><rect width="2" height="3" x="20" y="26" fill="#f8ef00" rx="1" ry="1"/><rect width="4" height="5" x="32" y="27" fill="#f75749" rx="2" ry="2"/><rect width="2" height="3" x="33" y="28" fill="#f8ef00" rx="1" ry="1"/><rect width="4" height="5" x="26" y="32" fill="#f75749" rx="2" ry="2"/><rect width="2" height="3" x="27" y="33" fill="#f8ef00" rx="1" ry="1"/><rect width="2" height="3" x="14" y="21" fill="#f8ef00" rx="1" ry="1"/><rect width="4" height="5" x="20" y="15" fill="#f75749" rx="2" ry="2"/><rect width="2" height="3" x="21" y="16" fill="#f8ef00" rx="1" ry="1"/><rect width="4" height="5" x="32" y="16" fill="#f75749" rx="2" ry="2"/><rect width="2" height="3" x="33" y="17" fill="#faba01" rx="1" ry="1"/><rect width="4" height="5" x="13" y="30" fill="#b31700" rx="2" ry="2"/><rect width="2" height="3" x="14" y="31" fill="#faba01" rx="1" ry="1"/><rect width="4" height="5" x="19" y="37" fill="#b31700" rx="2" ry="2"/><rect width="2" height="3" x="20" y="38" fill="#faba01" rx="1" ry="1"/><path fill="#2c4f00" d="M30.27 10.749A9.18 9.18 0 0 1 28 11H26l-.01.08a21.879 21.879 0 0 1 4.98 1.01L31 12c4 0 9 0 9-7C40 5 39.229 9.614 30.27 10.749zM17.72 10.749A9.18 9.18 0 0 0 19.99 11h2l.01.08a21.879 21.879 0 0 0-4.98 1.01L16.99 12c-4 0-9 0-9-7C7.99 5 8.761 9.614 17.72 10.749z"/><polygon fill="#589e00" points="23 11.03 23.004 11.03 23 11 23 11.03"/><polygon fill="#589e00" points="24.996 11.03 25 11.03 25 11 24.996 11.03"/><path fill="#2c4f00" d="M25,5.98A12.13,12.13,0,0,0,24,11v.03c.33.01.66.03.99.05L25,11.03,25,11a12.13,12.13,0,0,1,1-5.02V4.287A8.866,8.866,0,0,0,25,5.98Z"/><path fill="#3f7000" d="M23,5.98a8.866,8.866,0,0,0-1-1.693V5.98A12.13,12.13,0,0,1,23,11l0,.03.006.05c.33-.02.66-.04.99-.05V11A12.13,12.13,0,0,0,23,5.98Z"/><path fill="#4e8c00" d="M22,1V4.287A8.866,8.866,0,0,1,23,5.98,12.13,12.13,0,0,1,24,11V1Z"/><path fill="#63b300" d="M24,1V11a12.13,12.13,0,0,1,1-5.02,8.866,8.866,0,0,1,1-1.693V1Z"/><path fill="#fe9a82" d="M36,18a1.994,1.994,0,0,0-3.763-.925c.287.181.567.368.836.562A1,1,0,0,1,35,18v1a.972.972,0,0,1-.049.242c.261.266.509.537.74.816A1.98,1.98,0,0,0,36,19Z"/><path fill="#fdf1c1" d="M35,19V18a1,1,0,0,0-1.927-.363,14.615,14.615,0,0,1,1.878,1.605A.972.972,0,0,0,35,19Z"/><rect width="2" height="3" x="28" y="27" fill="#b31700" rx="1" ry="1"/><rect width="2" height="3" x="15" y="16" fill="#b31700" rx="1" ry="1"/><rect width="2" height="3" x="23" y="31" fill="#b31700" rx="1" ry="1"/><rect width="2" height="3" x="24" y="42" fill="#b31700" rx="1" ry="1"/><rect width="2" height="3" x="10" y="25" fill="#b31700" rx="1" ry="1"/><rect width="2" height="3" x="30" y="38" fill="#b31700" rx="1" ry="1"/><rect width="2" height="3" x="21" y="21" fill="#b31700" rx="1" ry="1"/><rect width="2" height="3" x="33" y="22" fill="#b31700" rx="1" ry="1"/><rect width="2" height="3" x="26" y="16" fill="#b31700" rx="1" ry="1"/><rect width="2" height="3" x="16" y="25" fill="#b31700" rx="1" ry="1"/><ellipse cx="34" cy="18" fill="#f6fafd" rx="1.65" ry="2.297" transform="rotate(-45.02 34 18)"/><ellipse cx="37" cy="20" fill="#f6fafd" rx=".825" ry="1.148" transform="rotate(-45.02 37 20)"/><ellipse cx="31" cy="15" fill="#f6fafd" rx=".825" ry="1.148" transform="rotate(-45.02 31 15)"/><ellipse cx="36.746" cy="17.5" fill="#da1202" rx=".413" ry=".574" transform="rotate(-45.02 36.746 17.5)"/><ellipse cx="29.746" cy="19.5" fill="#f6fafd" rx=".413" ry=".574" transform="rotate(-45.02 29.746 19.5)"/><ellipse cx="30.746" cy="4.5" fill="#f6fafd" rx=".413" ry=".574" transform="rotate(-45.02 30.745 4.5)"/></g></svg>