<svg xmlns="http://www.w3.org/2000/svg" viewBox="0 0 48 48"><g data-name="30-dragon fruit"><path fill="#9c1936" d="M5,33a15.983,15.983,0,0,1,3.2-9.85,11.2,11.2,0,0,1,3.34-2.94A33.9,33.9,0,0,0,13,12a3.566,3.566,0,0,1,1,.18A2.712,2.712,0,0,1,16,15a2.714,2.714,0,0,1,1.99-2.82A3.658,3.658,0,0,1,19,12a33.9,33.9,0,0,0,1.46,8.21,11.2,11.2,0,0,1,3.34,2.94A15.983,15.983,0,0,1,27,33a16.091,16.091,0,0,1-3.19,9.86A9.941,9.941,0,0,1,16,47a9.941,9.941,0,0,1-7.81-4.14,16.033,16.033,0,0,1-3.18-9.14C5,33.48,5,33.24,5,33Z"/><path fill="#527710" d="M16,1a35.434,35.434,0,0,1,1.99,11.18A2.714,2.714,0,0,0,16,15a2.712,2.712,0,0,0-2-2.82A35.834,35.834,0,0,1,16,1Z"/><path fill="#689629" d="M27 30v3a15.983 15.983 0 0 0-3.2-9.85L24 23a2.938 2.938 0 0 1 3-3zM8.2 23.15A15.983 15.983 0 0 0 5 33V20a2.938 2.938 0 0 1 3 3z"/><path fill="#689629" d="M5.01 33.72a16.033 16.033 0 0 0 3.18 9.14L8 43C1 43 1 29 1 29l4 1v3C5 33.24 5 33.48 5.01 33.72zM27 30l4-1s0 14-7 14l-.19-.14A16.091 16.091 0 0 0 27 33z"/><path fill="#9c1936" d="M14,41s0-5,2-5c0,0,0-9,2-9s2,9,2,9c2,0,2,5,2,5Z"/><path fill="#689629" d="M18 33c1.588 0 1.914 5.663 1.982 8H22s0-5-2-5c0 0 0-9-2-9s-2 9-2 9c-2 0-2 5-2 5h2.018C16.086 38.663 16.412 33 18 33zM10 36a10.073 10.073 0 0 1-1-3c0-1 2-8 2-8s-6 3-6 9C5 34 6 36 10 36z"/><path fill="#9c1936" d="M8,30c-1.286.643-2.156,2.936-2.615,4.494a5.109,5.109,0,0,0,2.728,1.332C7.377,33.764,8,30,8,30Z"/><path fill="#689629" d="M16.183,20.992C16.516,19.239,17.257,15.743,18,15a17.326,17.326,0,0,0,2.366,5.256c.036-.012.076-.022.111-.035l-.017-.011A33.9,33.9,0,0,1,19,12a3.658,3.658,0,0,0-1.01.18A2.714,2.714,0,0,0,16,15v6C16.06,21,16.122,20.993,16.183,20.992Z"/><path fill="#689629" d="M15.817,20.992c.061,0,.123.008.183.008V15a2.712,2.712,0,0,0-2-2.82A3.566,3.566,0,0,0,13,12a33.9,33.9,0,0,1-1.46,8.21l-.017.011c.035.013.075.023.111.035A17.326,17.326,0,0,0,14,15C14.743,15.743,15.484,19.239,15.817,20.992Z"/><path fill="#e02f56" d="M24,33c0,5.52,3.58,10,8,10s8-4.48,8-10-3.58-10-8-10S24,27.48,24,33Zm6-20.82A2.712,2.712,0,0,1,32,15a2.714,2.714,0,0,1,1.99-2.82A3.658,3.658,0,0,1,35,12a33.9,33.9,0,0,0,1.46,8.21,11.2,11.2,0,0,1,3.34,2.94A15.983,15.983,0,0,1,43,33a16.091,16.091,0,0,1-3.19,9.86A9.941,9.941,0,0,1,32,47a9.941,9.941,0,0,1-7.81-4.14A16.091,16.091,0,0,1,21,33a15.983,15.983,0,0,1,3.2-9.85,11.2,11.2,0,0,1,3.34-2.94A33.9,33.9,0,0,0,29,12,3.566,3.566,0,0,1,30,12.18Z"/><ellipse cx="32" cy="33" fill="#ffd3c9" rx="8" ry="10"/><path fill="#527710" d="M32,1a35.434,35.434,0,0,1,1.99,11.18A2.714,2.714,0,0,0,32,15a2.712,2.712,0,0,0-2-2.82A35.834,35.834,0,0,1,32,1Z"/><path fill="#689629" d="M43 30v3a15.983 15.983 0 0 0-3.2-9.85L40 23a2.938 2.938 0 0 1 3-3zM24.2 23.15A15.983 15.983 0 0 0 21 33V20a2.938 2.938 0 0 1 3 3z"/><path fill="#689629" d="M21 33a16.091 16.091 0 0 0 3.19 9.86L24 43c-7 0-7-14-7-14l4 1zM43 30l4-1s0 14-7 14l-.19-.14A16.091 16.091 0 0 0 43 33zM32.183 20.992C32.516 19.239 33.257 15.743 34 15a17.326 17.326 0 0 0 2.366 5.256c.036-.012.076-.022.111-.035l-.017-.011A33.9 33.9 0 0 1 35 12a3.658 3.658 0 0 0-1.01.18A2.714 2.714 0 0 0 32 15v6C32.06 21 32.122 20.993 32.183 20.992z"/><path fill="#689629" d="M31.817,20.992c.061,0,.123.008.183.008V15a2.712,2.712,0,0,0-2-2.82A3.566,3.566,0,0,0,29,12a33.9,33.9,0,0,1-1.46,8.21l-.017.011c.035.013.075.023.111.035A17.326,17.326,0,0,0,30,15C30.743,15.743,31.484,19.239,31.817,20.992Z"/><path fill="#9c1936" d="M5,33a15.983,15.983,0,0,1,3.2-9.85,11.2,11.2,0,0,1,3.34-2.94A33.9,33.9,0,0,0,13,12a3.566,3.566,0,0,1,1,.18A2.712,2.712,0,0,1,16,15a2.714,2.714,0,0,1,1.99-2.82A3.658,3.658,0,0,1,19,12a33.9,33.9,0,0,0,1.46,8.21,11.2,11.2,0,0,1,3.34,2.94A15.983,15.983,0,0,1,27,33a16.091,16.091,0,0,1-3.19,9.86A9.941,9.941,0,0,1,16,47a9.941,9.941,0,0,1-7.81-4.14,16.033,16.033,0,0,1-3.18-9.14C5,33.48,5,33.24,5,33Z"/><path fill="#80142c" d="M18.5,43a9.442,9.442,0,0,1-7.455-4.022A15.747,15.747,0,0,1,8.01,30.1C8,29.866,8,29.633,8,29.4a16.169,16.169,0,0,1,2.173-8.249,11.751,11.751,0,0,0-1.973,2A15.983,15.983,0,0,0,5,33c0,.24,0,.48.01.72a16.033,16.033,0,0,0,3.18,9.14A9.941,9.941,0,0,0,16,47a9.941,9.941,0,0,0,7.81-4.14,14.588,14.588,0,0,0,2.11-3.84A9.427,9.427,0,0,1,18.5,43Z"/><path fill="#527710" d="M16,1a35.434,35.434,0,0,1,1.99,11.18A2.714,2.714,0,0,0,16,15a2.712,2.712,0,0,0-2-2.82A35.834,35.834,0,0,1,16,1Z"/><path fill="#689629" d="M8.2,23.15A15.983,15.983,0,0,0,5,33V20a2.938,2.938,0,0,1,3,3Z"/><path fill="#436600" d="M5,23V33a16.351,16.351,0,0,1,2.455-8.8A2.721,2.721,0,0,0,5,23Z"/><path fill="#689629" d="M5.01 33.72a16.033 16.033 0 0 0 3.18 9.14L8 43C1 43 1 29 1 29l4 1v3C5 33.24 5 33.48 5.01 33.72zM27 30l4-1s0 14-7 14l-.19-.14A16.091 16.091 0 0 0 27 33z"/><path fill="#689629" d="M10,36a10.073,10.073,0,0,1-1-3c0-1,2-8,2-8s-6,3-6,9C5,34,6,36,10,36Z"/><path fill="#80142c" d="M8,30c-1.286.643-2.156,2.936-2.615,4.494a5.109,5.109,0,0,0,2.728,1.332C7.377,33.764,8,30,8,30Z"/><path fill="#689629" d="M16.183,20.992C16.516,19.239,17.257,15.743,18,15a17.326,17.326,0,0,0,2.366,5.256c.036-.012.076-.022.111-.035l-.017-.011A33.9,33.9,0,0,1,19,12a3.658,3.658,0,0,0-1.01.18A2.714,2.714,0,0,0,16,15v6C16.06,21,16.122,20.993,16.183,20.992Z"/><path fill="#689629" d="M15.817,20.992c.061,0,.123.008.183.008V15a2.712,2.712,0,0,0-2-2.82A3.566,3.566,0,0,0,13,12a33.9,33.9,0,0,1-1.46,8.21l-.017.011c.035.013.075.023.111.035A17.326,17.326,0,0,0,14,15C14.743,15.743,15.484,19.239,15.817,20.992Z"/><path fill="#436600" d="M5 33V30l-1.989-.5c.069 2.181.621 10.908 4.943 13.025A16.124 16.124 0 0 1 5.01 33.72C5 33.48 5 33.24 5 33zM27 33V30l1.989-.5c-.069 2.181-.621 10.908-4.943 13.025A16.124 16.124 0 0 0 26.99 33.72C27 33.48 27 33.24 27 33z"/><path fill="#527710" d="M7.966,30.023a23.361,23.361,0,0,1,2.982-4.841L11,25s-6,3-6,9a2.544,2.544,0,0,0,.56.66c-.065-.057-.123-.113-.175-.166C5.839,32.95,6.7,30.69,7.966,30.023Z"/><path fill="#689629" d="M7.966,30.023c.011-.006.022-.017.034-.023s-.623,3.764.113,5.826A9.667,9.667,0,0,0,10,36a10.073,10.073,0,0,1-1-3c0-.909,1.647-6.756,1.948-7.818A23.361,23.361,0,0,0,7.966,30.023Z"/><path fill="#9c1936" d="M16.018,41H18V33C16.412,33,16.086,38.663,16.018,41Z"/><path fill="#c2294a" d="M18,33v8h1.982C19.914,38.663,19.588,33,18,33Z"/><path fill="#63b300" d="M19.982,41H22s0-5-2-5c0,0,0-9-2-9v6C19.588,33,19.914,38.663,19.982,41Z"/><path fill="#689629" d="M18,33V27c-2,0-2,9-2,9-2,0-2,5-2,5h2.018C16.086,38.663,16.412,33,18,33Z"/><path fill="#63b300" d="M13 12a3.658 3.658 0 0 1 1.01.18A2.714 2.714 0 0 1 16 15v6c-.06 0-.122-.007-.183-.008-.331-1.745-1.068-5.217-1.807-5.98C13.823 13.42 13.509 12.255 13 12zM20.46 20.21A33.9 33.9 0 0 1 19 12c-.509.255-.823 1.42-1.01 3.012L18 15a17.326 17.326 0 0 0 2.366 5.256c.036-.012.076-.022.111-.035z"/><path fill="#2f4700" d="M14.183,9.247c-.134,1.38-.172,2.451-.183,2.933A2.712,2.712,0,0,1,16,15V12A2.688,2.688,0,0,0,14.183,9.247Z"/><path fill="#436600" d="M16,12v3a2.714,2.714,0,0,1,1.99-2.82c-.008-.482-.043-1.554-.176-2.935A2.692,2.692,0,0,0,16,12Z"/><path fill="#527710" d="M16,12V1a31.4,31.4,0,0,0-1.817,8.247A2.688,2.688,0,0,1,16,12Z"/><path fill="#689629" d="M16,12a2.692,2.692,0,0,1,1.814-2.755A31.237,31.237,0,0,0,16,1Z"/><path fill="#c2294a" d="M17.122 23.984a.759.759 0 0 0-.079.629.986.986 0 0 0 .35.337 19.475 19.475 0 0 1 5.066 5.088 2.745 2.745 0 0 0 .626.736 1.042 1.042 0 0 0 .975.165 1.022 1.022 0 0 0 .464-.484 4.561 4.561 0 0 0 .173-3.682A11.535 11.535 0 0 0 22.669 23.4a10.445 10.445 0 0 0-1.563-1.643 3.251 3.251 0 0 0-1.473-.733C17.873 20.734 17.576 22.953 17.122 23.984zM24.252 31.766a.454.454 0 0 0-.2.3 1.289 1.289 0 0 0 0 .356 26.432 26.432 0 0 1-.018 5.264 3.775 3.775 0 0 0-.032.708.85.85 0 0 0 .225.579.235.235 0 0 0 .265-.024 3.108 3.108 0 0 0 1.081-1.876 14.905 14.905 0 0 0 .381-2.819 13.918 13.918 0 0 0 .026-1.662 3.792 3.792 0 0 0-.2-1.133C25.373 30.412 24.668 31.445 24.252 31.766z"/><path fill="#80142c" d="M16,36a41.021,41.021,0,0,1,.484-6.129L13,29a30.631,30.631,0,0,0,1.42,8.814C14.706,36.832,15.186,36,16,36Z"/><path fill="#540d1d" d="M21.654,42.375A5.677,5.677,0,0,1,20.106,41c-.043-.054-.088-.1-.13-.159-1.5-1.984-2.246-4.982-2.615-7.466A33.424,33.424,0,0,1,17,29v1l-.516-.129A41.021,41.021,0,0,0,16,36c-.814,0-1.294.832-1.58,1.814a11.193,11.193,0,0,0,1.6,3.083,5.012,5.012,0,0,0,3.28,2.051A4.939,4.939,0,0,0,20,43l.19-.14A12.056,12.056,0,0,0,22,44.727a11.912,11.912,0,0,0,1.706-1.746A4.547,4.547,0,0,1,21.654,42.375Z"/><path fill="#c2294a" d="M24,33c0,5.52,3.58,10,8,10s8-4.48,8-10-3.58-10-8-10S24,27.48,24,33Zm6-20.82A2.712,2.712,0,0,1,32,15a2.714,2.714,0,0,1,1.99-2.82A3.658,3.658,0,0,1,35,12a33.9,33.9,0,0,0,1.46,8.21,11.2,11.2,0,0,1,3.34,2.94A15.983,15.983,0,0,1,43,33a16.091,16.091,0,0,1-3.19,9.86A9.941,9.941,0,0,1,32,47a9.941,9.941,0,0,1-7.81-4.14A16.091,16.091,0,0,1,21,33a15.983,15.983,0,0,1,3.2-9.85,11.2,11.2,0,0,1,3.34-2.94A33.9,33.9,0,0,0,29,12,3.566,3.566,0,0,1,30,12.18Z"/><path fill="#527710" d="M32,1a35.434,35.434,0,0,1,1.99,11.18A2.714,2.714,0,0,0,32,15a2.712,2.712,0,0,0-2-2.82A35.834,35.834,0,0,1,32,1Z"/><path fill="#689629" d="M43 30v3a15.983 15.983 0 0 0-3.2-9.85L40 23a2.938 2.938 0 0 1 3-3zM24.2 23.15A15.983 15.983 0 0 0 21 33V20a2.938 2.938 0 0 1 3 3z"/><path fill="#9c1936" d="M21 33a16.091 16.091 0 0 0 3.19 9.86L24 43c-7 0-7-14-7-14l4 1zM43 30l4-1s0 14-7 14l-.19-.14A16.091 16.091 0 0 0 43 33z"/><path fill="#689629" d="M32.183,20.992C32.516,19.239,33.257,15.743,34,15a17.326,17.326,0,0,0,2.366,5.256c.036-.012.076-.022.111-.035l-.017-.011A33.9,33.9,0,0,1,35,12a3.658,3.658,0,0,0-1.01.18A2.714,2.714,0,0,0,32,15v6C32.06,21,32.122,20.993,32.183,20.992Z"/><path fill="#689629" d="M31.817,20.992c.061,0,.123.008.183.008V15a2.712,2.712,0,0,0-2-2.82A3.566,3.566,0,0,0,29,12a33.9,33.9,0,0,1-1.46,8.21l-.017.011c.035.013.075.023.111.035A17.326,17.326,0,0,0,30,15C30.743,15.743,31.484,19.239,31.817,20.992Z"/><path fill="#80142c" d="M21 33V30l-1.989-.5c.069 2.181.621 10.908 4.943 13.025A16.124 16.124 0 0 1 21.01 33.72C21 33.48 21 33.24 21 33zM43 33V30l1.989-.5c-.069 2.181-.621 10.908-4.943 13.025A16.124 16.124 0 0 0 42.99 33.72C43 33.48 43 33.24 43 33z"/><path fill="#436600" d="M21 23V33a16.351 16.351 0 0 1 2.455-8.8A2.721 2.721 0 0 0 21 23zM43 23V33a16.351 16.351 0 0 0-2.455-8.8A2.721 2.721 0 0 1 43 23z"/><path fill="#63b300" d="M29 12a3.658 3.658 0 0 1 1.01.18A2.714 2.714 0 0 1 32 15v6c-.06 0-.122-.007-.183-.008-.331-1.745-1.068-5.217-1.807-5.98C29.823 13.42 29.509 12.255 29 12zM36.46 20.21A33.9 33.9 0 0 1 35 12c-.509.255-.823 1.42-1.01 3.012L34 15a17.326 17.326 0 0 0 2.366 5.256c.036-.012.076-.022.111-.035z"/><path fill="#2f4700" d="M30.183,9.247c-.134,1.38-.172,2.451-.183,2.933A2.712,2.712,0,0,1,32,15V12A2.688,2.688,0,0,0,30.183,9.247Z"/><path fill="#436600" d="M32,12v3a2.714,2.714,0,0,1,1.99-2.82c-.008-.482-.043-1.554-.176-2.935A2.692,2.692,0,0,0,32,12Z"/><path fill="#527710" d="M32,12V1a31.4,31.4,0,0,0-1.817,8.247A2.688,2.688,0,0,1,32,12Z"/><path fill="#689629" d="M32,12a2.692,2.692,0,0,1,1.814-2.755A31.237,31.237,0,0,0,32,1Z"/><path fill="#ff3562" d="M32,22c-4.862,0-8.8,4.928-8.8,11S27.138,44,32,44s8.8-4.928,8.8-11S36.862,22,32,22Zm0,21c-4.42,0-8-4.48-8-10s3.58-10,8-10,8,4.48,8,10S36.42,43,32,43Z"/><path fill="#ffd3c9" d="M34.573,23.539A24.471,24.471,0,0,1,34.01,19a2.146,2.146,0,0,0-.677.14A2.086,2.086,0,0,0,32,21.333,2.113,2.113,0,0,0,29.99,19a24.471,24.471,0,0,1-.563,4.539C26.272,24.88,24,28.606,24,33c0,5.52,3.58,10,8,10s8-4.48,8-10C40,28.606,37.728,24.88,34.573,23.539Z"/><ellipse cx="32" cy="33" fill="#ffeae6" rx="7" ry="9"/><ellipse cx="36.746" cy="37.5" fill="#403700" rx=".413" ry=".574" transform="rotate(-45.02 36.746 37.5)"/><ellipse cx="34.746" cy="40.5" fill="#403700" rx=".413" ry=".574" transform="rotate(-45.02 34.746 40.5)"/><ellipse cx="33.746" cy="35.5" fill="#403700" rx=".413" ry=".574" transform="rotate(-45.02 33.746 35.5)"/><ellipse cx="35.746" cy="36.5" fill="#403700" rx=".413" ry=".574" transform="rotate(-45.02 35.745 36.5)"/><ellipse cx="34.746" cy="37.5" fill="#403700" rx=".413" ry=".574" transform="rotate(-45.02 34.745 37.5)"/><ellipse cx="37.746" cy="34.5" fill="#403700" rx=".413" ry=".574" transform="rotate(-45.02 37.746 34.5)"/><ellipse cx="35.746" cy="32.5" fill="#403700" rx=".574" ry=".413"/><ellipse cx="32.746" cy="37.5" fill="#403700" rx=".413" ry=".574"/><ellipse cx="30.746" cy="34.5" fill="#403700" rx=".413" ry=".574"/><ellipse cx="31.746" cy="35.5" fill="#403700" rx=".413" ry=".574"/><ellipse cx="32.746" cy="40.5" fill="#403700" rx=".413" ry=".574"/><ellipse cx="33.746" cy="39.5" fill="#403700" rx=".413" ry=".574"/><ellipse cx="31.746" cy="39.5" fill="#403700" rx=".413" ry=".574"/><ellipse cx="31.746" cy="25.5" fill="#403700" rx=".413" ry=".574"/><ellipse cx="33.746" cy="26.5" fill="#403700" rx=".413" ry=".574"/><ellipse cx="33.746" cy="28.5" fill="#403700" rx=".413" ry=".574"/><ellipse cx="32.746" cy="27.5" fill="#403700" rx=".413" ry=".574"/><ellipse cx="30.746" cy="26.5" fill="#403700" rx=".413" ry=".574"/><ellipse cx="25.746" cy="32.5" fill="#403700" rx=".574" ry=".413"/><ellipse cx="28.746" cy="32.5" fill="#403700" rx=".574" ry=".413"/><ellipse cx="30.746" cy="32.5" fill="#403700" rx=".574" ry=".413"/><ellipse cx="37.746" cy="32.5" fill="#403700" rx=".574" ry=".413"/><ellipse cx="36.746" cy="35.5" fill="#403700" rx=".413" ry=".574" transform="rotate(-45.02 36.746 35.5)"/><ellipse cx="35.746" cy="38.5" fill="#403700" rx=".413" ry=".574" transform="rotate(-45.02 35.746 38.5)"/><ellipse cx="35.746" cy="34.5" fill="#403700" rx=".413" ry=".574" transform="rotate(-45.02 35.746 34.5)"/><ellipse cx="29.746" cy="37.5" fill="#403700" rx=".574" ry=".413" transform="rotate(-44.98 29.747 37.5)"/><ellipse cx="30.746" cy="36.5" fill="#403700" rx=".574" ry=".413" transform="rotate(-44.98 30.746 36.5)"/><ellipse cx="30.746" cy="40.5" fill="#403700" rx=".574" ry=".413" transform="rotate(-44.98 30.747 40.5)"/><ellipse cx="25.746" cy="35.5" fill="#403700" rx=".574" ry=".413" transform="rotate(-44.98 25.746 35.5)"/><ellipse cx="28.746" cy="39.5" fill="#403700" rx=".574" ry=".413" transform="rotate(-44.98 28.746 39.5)"/><ellipse cx="27.746" cy="33.5" fill="#403700" rx=".574" ry=".413" transform="rotate(-44.98 27.746 33.5)"/><ellipse cx="29.746" cy="33.5" fill="#403700" rx=".574" ry=".413" transform="rotate(-44.98 29.746 33.5)"/><ellipse cx="27.746" cy="35.5" fill="#403700" rx=".574" ry=".413" transform="rotate(-44.98 27.747 35.5)"/><ellipse cx="30.746" cy="38.5" fill="#403700" rx=".574" ry=".413" transform="rotate(-44.98 30.746 38.5)"/><ellipse cx="26.746" cy="37.5" fill="#403700" rx=".574" ry=".413" transform="rotate(-44.98 26.746 37.5)"/><ellipse cx="30.746" cy="28.5" fill="#403700" rx=".413" ry=".574" transform="rotate(-45.02 30.746 28.5)"/><ellipse cx="26.746" cy="30.5" fill="#403700" rx=".413" ry=".574" transform="rotate(-45.02 26.745 30.5)"/><ellipse cx="28.746" cy="26.5" fill="#403700" rx=".413" ry=".574" transform="rotate(-45.02 28.746 26.5)"/><ellipse cx="27.746" cy="31.5" fill="#403700" rx=".413" ry=".574" transform="rotate(-45.02 27.746 31.5)"/><ellipse cx="27.746" cy="29.5" fill="#403700" rx=".413" ry=".574" transform="rotate(-45.02 27.746 29.5)"/><ellipse cx="27.746" cy="27.5" fill="#403700" rx=".413" ry=".574" transform="rotate(-45.02 27.745 27.5)"/><ellipse cx="28.746" cy="30.5" fill="#403700" rx=".413" ry=".574" transform="rotate(-45.02 28.745 30.5)"/><ellipse cx="30.746" cy="30.5" fill="#403700" rx=".413" ry=".574" transform="rotate(-45.02 30.746 30.5)"/><ellipse cx="29.746" cy="25.5" fill="#403700" rx=".413" ry=".574" transform="rotate(-45.02 29.746 25.5)"/><ellipse cx="31.746" cy="28.5" fill="#403700" rx=".413" ry=".574" transform="rotate(-45.02 31.746 28.5)"/><ellipse cx="28.746" cy="28.5" fill="#403700" rx=".413" ry=".574" transform="rotate(-45.02 28.746 28.5)"/><ellipse cx="36.746" cy="27.5" fill="#403700" rx=".574" ry=".413" transform="rotate(-44.98 36.746 27.5)"/><ellipse cx="35.746" cy="28.5" fill="#403700" rx=".574" ry=".413" transform="rotate(-44.98 35.746 28.5)"/><ellipse cx="32.746" cy="33.5" fill="#403700" rx=".574" ry=".413" transform="rotate(-44.98 32.747 33.5)"/><ellipse cx="37.746" cy="29.5" fill="#403700" rx=".574" ry=".413" transform="rotate(-44.98 37.746 29.5)"/><ellipse cx="29.746" cy="35.5" fill="#403700" rx=".574" ry=".413" transform="rotate(-44.98 29.745 35.5)"/><ellipse cx="36.746" cy="31.5" fill="#403700" rx=".574" ry=".413" transform="rotate(-44.98 36.746 31.5)"/><ellipse cx="33.746" cy="32.5" fill="#403700" rx=".574" ry=".413" transform="rotate(-44.98 33.747 32.5)"/><ellipse cx="35.746" cy="30.5" fill="#403700" rx=".574" ry=".413" transform="rotate(-44.98 35.746 30.5)"/><ellipse cx="35.746" cy="26.5" fill="#403700" rx=".574" ry=".413" transform="rotate(-44.98 35.746 26.5)"/><ellipse cx="32.746" cy="30.5" fill="#403700" rx=".574" ry=".413" transform="rotate(-44.98 32.747 30.5)"/><path fill="#7eaf31" d="M43,30v3a15.983,15.983,0,0,0-3.2-9.85L40,23a2.938,2.938,0,0,1,3-3Z"/><path fill="#689629" d="M32.183,20.992C32.516,19.239,33.257,15.743,34,15a17.326,17.326,0,0,0,2.366,5.256c.036-.012.076-.022.111-.035l-.017-.011A33.9,33.9,0,0,1,35,12a3.658,3.658,0,0,0-1.01.18A2.714,2.714,0,0,0,32,15v6C32.06,21,32.122,20.993,32.183,20.992Z"/><path fill="#689629" d="M31.817,20.992c.061,0,.123.008.183.008V15a2.712,2.712,0,0,0-2-2.82A3.566,3.566,0,0,0,29,12a33.9,33.9,0,0,1-1.46,8.21l-.017.011c.035.013.075.023.111.035A17.326,17.326,0,0,0,30,15C30.743,15.743,31.484,19.239,31.817,20.992Z"/><path fill="#5d881d" d="M43,23V33a16.351,16.351,0,0,0-2.455-8.8A2.721,2.721,0,0,1,43,23Z"/><path fill="#63b300" d="M29 12a3.658 3.658 0 0 1 1.01.18A2.714 2.714 0 0 1 32 15v6c-.06 0-.122-.007-.183-.008-.331-1.745-1.068-5.217-1.807-5.98C29.823 13.42 29.509 12.255 29 12zM36.46 20.21A33.9 33.9 0 0 1 35 12c-.509.255-.823 1.42-1.01 3.012L34 15a17.326 17.326 0 0 0 2.366 5.256c.036-.012.076-.022.111-.035z"/><path fill="#2f4700" d="M30.183,9.247c-.134,1.38-.172,2.451-.183,2.933A2.712,2.712,0,0,1,32,15V12A2.688,2.688,0,0,0,30.183,9.247Z"/><path fill="#527710" d="M32,12v3a2.714,2.714,0,0,1,1.99-2.82c-.008-.482-.043-1.554-.176-2.935A2.692,2.692,0,0,0,32,12Z"/><path fill="#5d881d" d="M32,12V1a31.4,31.4,0,0,0-1.817,8.247A2.688,2.688,0,0,1,32,12Z"/><path fill="#7eaf31" d="M32 12a2.692 2.692 0 0 1 1.814-2.755A31.237 31.237 0 0 0 32 1zM23.455 24.205c.235-.367.482-.721.745-1.055L24 23a2.938 2.938 0 0 0-3-3v3A2.721 2.721 0 0 1 23.455 24.205z"/><path fill="#5d881d" d="M21.857,27.576c.025-.075.058-.145.084-.22.071-.2.148-.4.226-.6.072-.181.141-.364.219-.541s.175-.371.265-.555.164-.351.254-.519c.162-.3.335-.592.515-.876.012-.019.023-.041.035-.06A2.721,2.721,0,0,0,21,23v3.747C21.28,27.029,21.569,27.3,21.857,27.576Z"/><path fill="#c2294a" d="M47,29l-4,1v3a17.417,17.417,0,0,1-.616,4.585c1.04.154,2.1.26,3.162.328A30.466,30.466,0,0,0,47,29Z"/><path fill="#a82340" d="M44.989,29.5,43,30v3c0,.24,0,.48-.01.72a17.337,17.337,0,0,1-.605,3.865c.4.059.807.107,1.212.154A29.944,29.944,0,0,0,44.989,29.5Z"/><path fill="#ff3562" d="M32,23c4.42,0,8,4.48,8,10a12.12,12.12,0,0,1-.669,4c1,.234,2.02.435,3.053.588A17.417,17.417,0,0,0,43,33a15.983,15.983,0,0,0-3.2-9.85,11.2,11.2,0,0,0-3.34-2.94A33.9,33.9,0,0,1,35,12a3.658,3.658,0,0,0-1.01.18A2.714,2.714,0,0,0,32,15a2.712,2.712,0,0,0-2-2.82A3.566,3.566,0,0,0,29,12a33.9,33.9,0,0,1-1.46,8.21,11.2,11.2,0,0,0-3.34,2.94,14.609,14.609,0,0,0-2.343,4.426q1.235,1.17,2.568,2.227C25.493,25.851,28.476,23,32,23Z"/><path fill="#ff829d" d="M32,23c4.42,0,8,4.48,8,10a12.12,12.12,0,0,1-.669,4c.268.062.536.129.806.186A13.38,13.38,0,0,0,40.8,33c0-6.072-3.938-11-8.8-11-3.807,0-7.038,3.027-8.265,7.253.226.188.46.367.69.55C25.493,25.851,28.476,23,32,23Z"/><path fill="#ffe8e3" d="M40,33c0-4.394-2.272-8.12-5.427-9.461A24.471,24.471,0,0,1,34.01,19a2.146,2.146,0,0,0-.677.14A2.086,2.086,0,0,0,32,21.333,2.113,2.113,0,0,0,29.99,19a24.471,24.471,0,0,1-.563,4.539,9.267,9.267,0,0,0-5,6.262A37.838,37.838,0,0,0,39.331,37,12.12,12.12,0,0,0,40,33Z"/><path fill="#f6fafd" d="M39,33c0-4.971-3.134-9-7-9-3.184,0-5.866,2.735-6.716,6.475a37.845,37.845,0,0,0,13.068,6.289A11.137,11.137,0,0,0,39,33Z"/><ellipse cx="30.746" cy="28.5" fill="#403700" rx=".413" ry=".574" transform="rotate(-45.02 30.746 28.5)"/><ellipse cx="26.746" cy="30.5" fill="#403700" rx=".413" ry=".574" transform="rotate(-45.02 26.745 30.5)"/><ellipse cx="28.746" cy="26.5" fill="#403700" rx=".413" ry=".574" transform="rotate(-45.02 28.746 26.5)"/><ellipse cx="27.746" cy="31.5" fill="#403700" rx=".413" ry=".574" transform="rotate(-45.02 27.746 31.5)"/><ellipse cx="27.746" cy="29.5" fill="#403700" rx=".413" ry=".574" transform="rotate(-45.02 27.746 29.5)"/><ellipse cx="27.746" cy="27.5" fill="#403700" rx=".413" ry=".574" transform="rotate(-45.02 27.745 27.5)"/><ellipse cx="28.746" cy="30.5" fill="#403700" rx=".413" ry=".574" transform="rotate(-45.02 28.745 30.5)"/><ellipse cx="30.746" cy="30.5" fill="#403700" rx=".413" ry=".574" transform="rotate(-45.02 30.746 30.5)"/><ellipse cx="29.746" cy="25.5" fill="#403700" rx=".413" ry=".574" transform="rotate(-45.02 29.746 25.5)"/><ellipse cx="31.746" cy="28.5" fill="#403700" rx=".413" ry=".574" transform="rotate(-45.02 31.746 28.5)"/><ellipse cx="28.746" cy="28.5" fill="#403700" rx=".413" ry=".574" transform="rotate(-45.02 28.746 28.5)"/><ellipse cx="36.746" cy="27.5" fill="#403700" rx=".574" ry=".413" transform="rotate(-44.98 36.746 27.5)"/><ellipse cx="35.746" cy="28.5" fill="#403700" rx=".574" ry=".413" transform="rotate(-44.98 35.746 28.5)"/><ellipse cx="32.746" cy="33.5" fill="#403700" rx=".574" ry=".413" transform="rotate(-44.98 32.747 33.5)"/><ellipse cx="37.746" cy="29.5" fill="#403700" rx=".574" ry=".413" transform="rotate(-44.98 37.746 29.5)"/><ellipse cx="36.746" cy="31.5" fill="#403700" rx=".574" ry=".413" transform="rotate(-44.98 36.746 31.5)"/><ellipse cx="33.746" cy="32.5" fill="#403700" rx=".574" ry=".413" transform="rotate(-44.98 33.747 32.5)"/><ellipse cx="35.746" cy="30.5" fill="#403700" rx=".574" ry=".413" transform="rotate(-44.98 35.746 30.5)"/><ellipse cx="35.746" cy="26.5" fill="#403700" rx=".574" ry=".413" transform="rotate(-44.98 35.746 26.5)"/><ellipse cx="32.746" cy="30.5" fill="#403700" rx=".574" ry=".413" transform="rotate(-44.98 32.747 30.5)"/><path fill="#403700" d="M34.143 35.34a.634.634 0 0 0-.7-.313.269.269 0 0 0-.073.055c.263.11.532.211.8.315A.48.48 0 0 0 34.143 35.34zM37.443 34.027c-.22.088-.262.372-.095.634a.638.638 0 0 0 .7.313c.22-.089.262-.373.094-.634A.634.634 0 0 0 37.443 34.027zM35.578 32.9a.636.636 0 0 0 .717-.274c.093-.218-.078-.449-.381-.515a.634.634 0 0 0-.717.274C35.1 32.6 35.275 32.828 35.578 32.9zM31.626 26.049c.217.093.448-.078.514-.381a.636.636 0 0 0-.274-.717c-.218-.093-.448.078-.515.382A.635.635 0 0 0 31.626 26.049zM33.626 27.049c.217.093.448-.078.514-.381a.636.636 0 0 0-.274-.717c-.218-.093-.448.078-.515.382A.635.635 0 0 0 33.626 27.049zM33.626 29.049c.217.093.448-.078.514-.381a.636.636 0 0 0-.274-.717c-.218-.093-.448.078-.515.382A.635.635 0 0 0 33.626 29.049zM32.626 28.049c.217.093.448-.078.514-.381a.636.636 0 0 0-.274-.717c-.218-.093-.448.078-.515.382A.635.635 0 0 0 32.626 28.049zM30.626 27.049c.217.093.448-.078.514-.381a.636.636 0 0 0-.274-.717c-.218-.093-.448.078-.515.382A.635.635 0 0 0 30.626 27.049zM29.3 32.621c.093-.218-.078-.449-.381-.515a.634.634 0 0 0-.717.274.239.239 0 0 0-.008.059c.248.152.5.294.756.441A.507.507 0 0 0 29.3 32.621zM30.578 32.9a.636.636 0 0 0 .717-.274c.093-.218-.078-.449-.381-.515a.634.634 0 0 0-.717.274C30.1 32.6 30.275 32.828 30.578 32.9zM37.578 32.9a.636.636 0 0 0 .717-.274c.093-.218-.078-.449-.381-.515a.634.634 0 0 0-.717.274C37.1 32.6 37.275 32.828 37.578 32.9zM36.348 35.661a.638.638 0 0 0 .7.313c.22-.089.262-.373.094-.634a.634.634 0 0 0-.7-.313C36.223 35.115 36.181 35.4 36.348 35.661zM35.443 34.027c-.22.088-.262.372-.095.634a.638.638 0 0 0 .7.313c.22-.089.262-.373.094-.634A.634.634 0 0 0 35.443 34.027zM30.049 33.027a.572.572 0 0 0-.569.161c.233.13.467.259.7.384C30.29 33.338 30.244 33.1 30.049 33.027z"/><ellipse cx="36" cy="22" fill="#f6fafd" rx=".825" ry="1.148" transform="rotate(-45.02 36 22)"/><ellipse cx="19" cy="22" fill="#f6fafd" rx=".825" ry="1.148" transform="rotate(-45.02 19 22)"/><ellipse cx="38.746" cy="23.5" fill="#f6fafd" rx=".413" ry=".574" transform="rotate(-45.02 38.746 23.5)"/><ellipse cx="19.746" cy="24.5" fill="#f6fafd" rx=".413" ry=".574" transform="rotate(-45.02 19.746 24.5)"/></g></svg>