<svg xmlns="http://www.w3.org/2000/svg" viewBox="0 0 48 48"><g data-name="07-raspberry"><rect width="4" height="9" x="22" y="1" fill="#3f7000"/><path fill="#63b300" d="M36.8 3.2c.7.7-.492 8.169-2.461 10.138a5.43 5.43 0 1 1-7.677-7.677C28.63 3.693 36.1 2.5 36.8 3.2zM11.2 3.2c-.7.7.492 8.169 2.461 10.138a5.43 5.43 0 1 0 7.677-7.677C19.37 3.693 11.9 2.5 11.2 3.2z"/><path fill="#a82340" d="M43,22a5.275,5.275,0,0,0-2.053-4.342A6.189,6.189,0,0,0,41,17c0-2.761-1.791-5-4-5a3.421,3.421,0,0,0-2.133.784C34.43,10.614,32.872,9,31,9a3.97,3.97,0,0,0-3.5,2.626A3.97,3.97,0,0,0,24,9a3.97,3.97,0,0,0-3.5,2.626A3.97,3.97,0,0,0,17,9c-1.872,0-3.43,1.614-3.867,3.784A3.421,3.421,0,0,0,11,12c-2.209,0-4,2.239-4,5a6.189,6.189,0,0,0,.053.658A5.275,5.275,0,0,0,5,22a5.567,5.567,0,0,0,1.346,3.715A7.69,7.69,0,0,0,6,28c0,2.258.9,4.145,2.138,4.765A6.067,6.067,0,0,0,8,34c0,2.761,1.791,5,4,5,0,2.761,1.791,5,4,5,.11,0,.213-.03.32-.04A4.094,4.094,0,0,0,20,47a3.462,3.462,0,0,0,2.286-.905,2.076,2.076,0,0,0,3.428,0A3.462,3.462,0,0,0,28,47a4.094,4.094,0,0,0,3.68-3.04c.107.01.21.04.32.04,2.209,0,4-2.239,4-5,2.209,0,4-2.239,4-5a6.067,6.067,0,0,0-.138-1.235C41.1,32.145,42,30.258,42,28a7.69,7.69,0,0,0-.346-2.285A5.567,5.567,0,0,0,43,22Z"/><ellipse cx="28" cy="42" fill="#c2294a" rx="4" ry="5"/><ellipse cx="20" cy="42" fill="#c2294a" rx="4" ry="5"/><ellipse cx="17" cy="14" fill="#c2294a" rx="4" ry="5"/><ellipse cx="31" cy="14" fill="#c2294a" rx="4" ry="5"/><ellipse cx="9" cy="28" fill="#e02f56" rx="3" ry="5"/><ellipse cx="39" cy="28" fill="#e02f56" rx="3" ry="5"/><ellipse cx="9" cy="22" fill="#c2294a" rx="4" ry="5"/><ellipse cx="39" cy="22" fill="#c2294a" rx="4" ry="5"/><ellipse cx="37" cy="17" fill="#ff4a77" rx="4" ry="5"/><ellipse cx="11" cy="17" fill="#ff3562" rx="4" ry="5"/><ellipse cx="24" cy="14" fill="#e02f56" rx="4" ry="5"/><ellipse cx="16" cy="39" fill="#e02f56" rx="4" ry="5"/><ellipse cx="32" cy="39" fill="#e02f56" rx="4" ry="5"/><ellipse cx="24" cy="42" fill="#e02f56" rx="3" ry="5"/><ellipse cx="16" cy="28" fill="#c2294a" rx="4" ry="5"/><ellipse cx="32" cy="28" fill="#c2294a" rx="4" ry="5"/><ellipse cx="24" cy="28" fill="#e02f56" rx="4" ry="5"/><ellipse cx="20" cy="22" fill="#ff4a77" rx="4" ry="5"/><ellipse cx="28" cy="22" fill="#ff4a77" rx="4" ry="5"/><ellipse cx="20" cy="34" fill="#ff3562" rx="4" ry="5"/><ellipse cx="28" cy="34" fill="#ff4a77" rx="4" ry="5"/><ellipse cx="12" cy="34" fill="#ff4a77" rx="4" ry="5"/><ellipse cx="36" cy="34" fill="#ff3562" rx="4" ry="5"/><ellipse cx="28" cy="42" fill="#c2294a" rx="4" ry="5"/><ellipse cx="20" cy="42" fill="#c2294a" rx="4" ry="5"/><ellipse cx="17" cy="14" fill="#c2294a" rx="4" ry="5"/><ellipse cx="31" cy="14" fill="#c2294a" rx="4" ry="5"/><ellipse cx="9" cy="28" fill="#e02f56" rx="3" ry="5"/><ellipse cx="39" cy="28" fill="#e02f56" rx="3" ry="5"/><ellipse cx="9" cy="22" fill="#c2294a" rx="4" ry="5"/><ellipse cx="39" cy="22" fill="#c2294a" rx="4" ry="5"/><ellipse cx="37" cy="17" fill="#ff3562" rx="4" ry="5"/><ellipse cx="11" cy="17" fill="#ff3562" rx="4" ry="5"/><ellipse cx="24" cy="14" fill="#e02f56" rx="4" ry="5"/><ellipse cx="16" cy="39" fill="#e02f56" rx="4" ry="5"/><ellipse cx="32" cy="39" fill="#e02f56" rx="4" ry="5"/><ellipse cx="24" cy="42" fill="#e02f56" rx="3" ry="5"/><ellipse cx="16" cy="28" fill="#c2294a" rx="4" ry="5"/><ellipse cx="32" cy="28" fill="#c2294a" rx="4" ry="5"/><ellipse cx="24" cy="28" fill="#e02f56" rx="4" ry="5"/><ellipse cx="20" cy="22" fill="#ff3562" rx="4" ry="5"/><ellipse cx="28" cy="22" fill="#ff3562" rx="4" ry="5"/><ellipse cx="20" cy="34" fill="#ff3562" rx="4" ry="5"/><ellipse cx="28" cy="34" fill="#ff3562" rx="4" ry="5"/><ellipse cx="12" cy="34" fill="#ff3562" rx="4" ry="5"/><ellipse cx="36" cy="34" fill="#ff3562" rx="4" ry="5"/><rect width="4" height="9" x="22" y="1" fill="#3f7000"/><path fill="#63b300" d="M36.8 3.2c.7.7-.492 8.169-2.461 10.138a5.43 5.43 0 1 1-7.677-7.677C28.63 3.693 36.1 2.5 36.8 3.2zM11.2 3.2c-.7.7.492 8.169 2.461 10.138a5.43 5.43 0 1 0 7.677-7.677C19.37 3.693 11.9 2.5 11.2 3.2z"/><rect width="2" height="9" x="22" y="1" fill="#3f7000"/><rect width="2" height="9" x="24" y="1" fill="#4e8c00"/><path fill="#8bc808" d="M26.661,5.662a5.5,5.5,0,0,0-.1,7.775L36.8,3.2C36.1,2.5,28.63,3.693,26.661,5.662Z"/><path fill="#63b300" d="M26.563 13.437a5.5 5.5 0 0 0 7.775-.1C36.307 11.37 37.5 3.9 36.8 3.2zM13.662 13.339a5.5 5.5 0 0 0 7.775.1L11.2 3.2C10.5 3.9 11.693 11.37 13.662 13.339z"/><path fill="#8bc808" d="M21.339,5.662C19.37,3.693,11.9,2.5,11.2,3.2h0L21.437,13.437A5.5,5.5,0,0,0,21.339,5.662Z"/><path fill="#3f7000" d="M26,6.467V5.379a3.406,3.406,0,0,0-.339.283A5.587,5.587,0,0,0,24.036,10h1A5.561,5.561,0,0,1,26,6.467Z"/><path fill="#2c4f00" d="M22.339,5.662A3.406,3.406,0,0,0,22,5.379V6.467A5.561,5.561,0,0,1,22.964,10h1A5.587,5.587,0,0,0,22.339,5.662Z"/><path fill="#2c4f00" d="M24,9V7a3.161,3.161,0,0,0-.64.071,5.567,5.567,0,0,1,.576,1.935C23.958,9.005,23.978,9,24,9Z"/><path fill="#3f7000" d="M24.064,9.006a5.567,5.567,0,0,1,.576-1.935A3.161,3.161,0,0,0,24,7V9C24.022,9,24.042,9.005,24.064,9.006Z"/><path fill="#63b300" d="M31,7a3.97,3.97,0,0,0-3.5,2.626A4.754,4.754,0,0,0,26,7.686a3.661,3.661,0,0,0-.5-.309,5.416,5.416,0,0,0-.233.646c-.021.07-.046.14-.065.212a5.573,5.573,0,0,0-.143.8c0,.029-.007.059-.01.088s0,.04,0,.06A3.563,3.563,0,0,1,26,9.686a4.754,4.754,0,0,1,1.5,1.94A3.97,3.97,0,0,1,31,9l1.576-1.576A3.286,3.286,0,0,0,31,7Z"/><path fill="#4e8c00" d="M32.576 7.424L31 9c1.842 0 3.375 1.565 3.839 3.683a11.03 11.03 0 0 0 1.1-2.495 3.718 3.718 0 0 0-1.075.6A4.849 4.849 0 0 0 32.576 7.424zM17 9L15.424 7.424a4.849 4.849 0 0 0-2.291 3.36 3.718 3.718 0 0 0-1.075-.6 11.03 11.03 0 0 0 1.1 2.495C13.625 10.565 15.158 9 17 9z"/><path fill="#63b300" d="M22.951,9.12c0-.029-.006-.059-.01-.088a5.573,5.573,0,0,0-.143-.8c-.019-.072-.044-.142-.065-.212a5.416,5.416,0,0,0-.233-.646,3.661,3.661,0,0,0-.5.309,4.754,4.754,0,0,0-1.5,1.94A3.97,3.97,0,0,0,17,7a3.286,3.286,0,0,0-1.576.424L17,9a3.97,3.97,0,0,1,3.5,2.626A4.754,4.754,0,0,1,22,9.686a3.563,3.563,0,0,1,.952-.506C22.95,9.16,22.953,9.14,22.951,9.12Z"/><path fill="#2c4f00" d="M25.043,9.178l.006-.058c0-.029.007-.059.01-.088a5.548,5.548,0,0,1,.143-.8c.018-.072.044-.141.065-.212a5.6,5.6,0,0,1,.228-.648,3.317,3.317,0,0,0-.855-.3,5.567,5.567,0,0,0-.576,1.935A3.182,3.182,0,0,1,25.043,9.178Z"/><path fill="#2f4700" d="M22.8,8.235a5.548,5.548,0,0,1,.143.8c0,.029.007.059.01.088l.006.058a3.182,3.182,0,0,1,.979-.172,5.567,5.567,0,0,0-.576-1.935,3.317,3.317,0,0,0-.855.3,5.6,5.6,0,0,1,.228.648C22.754,8.094,22.78,8.163,22.8,8.235Z"/><path fill="#80142c" d="M43,22a5.275,5.275,0,0,0-2.053-4.342A6.189,6.189,0,0,0,41,17c0-2.761-1.791-5-4-5a3.421,3.421,0,0,0-2.133.784C34.43,10.614,32.872,9,31,9a3.97,3.97,0,0,0-3.5,2.626A3.97,3.97,0,0,0,24,9a3.97,3.97,0,0,0-3.5,2.626A3.97,3.97,0,0,0,17,9c-1.872,0-3.43,1.614-3.867,3.784A3.421,3.421,0,0,0,11,12c-2.209,0-4,2.239-4,5a6.189,6.189,0,0,0,.053.658A5.275,5.275,0,0,0,5,22a5.567,5.567,0,0,0,1.346,3.715A7.69,7.69,0,0,0,6,28c0,2.258.9,4.145,2.138,4.765A6.067,6.067,0,0,0,8,34c0,2.761,1.791,5,4,5,0,2.761,1.791,5,4,5,.11,0,.213-.03.32-.04A4.094,4.094,0,0,0,20,47a3.462,3.462,0,0,0,2.286-.905,2.076,2.076,0,0,0,3.428,0A3.462,3.462,0,0,0,28,47a4.094,4.094,0,0,0,3.68-3.04c.107.01.21.04.32.04,2.209,0,4-2.239,4-5,2.209,0,4-2.239,4-5a6.067,6.067,0,0,0-.138-1.235C41.1,32.145,42,30.258,42,28a7.69,7.69,0,0,0-.346-2.285A5.567,5.567,0,0,0,43,22Z"/><ellipse cx="28" cy="42" fill="#a82340" rx="4" ry="5"/><ellipse cx="20" cy="42" fill="#a82340" rx="4" ry="5"/><ellipse cx="17" cy="14" fill="#c2294a" rx="4" ry="5"/><ellipse cx="31" cy="14" fill="#c2294a" rx="4" ry="5"/><ellipse cx="9" cy="28" fill="#e02f56" rx="3" ry="5"/><ellipse cx="39" cy="28" fill="#e02f56" rx="3" ry="5"/><ellipse cx="9" cy="22" fill="#c2294a" rx="4" ry="5"/><ellipse cx="39" cy="22" fill="#c2294a" rx="4" ry="5"/><path fill="#c2294a" d="M9 27a3.573 3.573 0 0 1-2.654-1.285 7.516 7.516 0 0 0-.306 1.621A3.687 3.687 0 0 0 9 29a3.687 3.687 0 0 0 2.96-1.664 7.516 7.516 0 0 0-.306-1.621A3.573 3.573 0 0 1 9 27zM39 27a3.573 3.573 0 0 1-2.654-1.285 7.516 7.516 0 0 0-.306 1.621 3.465 3.465 0 0 0 5.92 0 7.516 7.516 0 0 0-.306-1.621A3.573 3.573 0 0 1 39 27z"/><path fill="#9c1936" d="M9 26c-2.072 0-3.756-1.977-3.96-4.5-.013.167-.04.329-.04.5 0 2.761 1.791 5 4 5s4-2.239 4-5c0-.171-.027-.333-.04-.5C12.756 24.023 11.072 26 9 26zM39 26c-2.072 0-3.756-1.977-3.96-4.5-.013.167-.04.329-.04.5 0 2.761 1.791 5 4 5s4-2.239 4-5c0-.171-.027-.333-.04-.5C42.756 24.023 41.072 26 39 26z"/><ellipse cx="37" cy="17" fill="#ff3562" rx="4" ry="5"/><ellipse cx="11" cy="17" fill="#ff3562" rx="4" ry="5"/><path fill="#9c1936" d="M41 19a6.172 6.172 0 0 0-.081-1c-.37 2.282-1.984 4-3.919 4a3.369 3.369 0 0 1-1.947-.658A6.189 6.189 0 0 0 35 22a6.079 6.079 0 0 0 .187 1.433A3.339 3.339 0 0 0 37 24C39.209 24 41 21.761 41 19zM12.947 21.342A3.369 3.369 0 0 1 11 22c-1.935 0-3.549-1.718-3.919-4A6.172 6.172 0 0 0 7 19c0 2.761 1.791 5 4 5a3.339 3.339 0 0 0 1.813-.567A6.079 6.079 0 0 0 13 22 6.189 6.189 0 0 0 12.947 21.342z"/><ellipse cx="24" cy="14" fill="#ff3562" rx="4" ry="5"/><ellipse cx="16" cy="39" fill="#c2294a" rx="4" ry="5"/><ellipse cx="32" cy="39" fill="#c2294a" rx="4" ry="5"/><path fill="#a82340" d="M16 43c-2.072 0-3.756-1.977-3.96-4.5-.013.167-.04.329-.04.5 0 2.761 1.791 5 4 5s4-2.239 4-5c0-.171-.027-.333-.04-.5C19.756 41.023 18.072 43 16 43zM32 43c-2.072 0-3.756-1.977-3.96-4.5-.013.167-.04.329-.04.5 0 2.761 1.791 5 4 5s4-2.239 4-5c0-.171-.027-.333-.04-.5C35.756 41.023 34.072 43 32 43z"/><ellipse cx="24" cy="42" fill="#ff3562" rx="3" ry="5"/><path fill="#80142c" d="M28 39a6.083 6.083 0 0 1 .32-1.96c-.107-.01-.21-.04-.32-.04a3.329 3.329 0 0 0-1.714.5 3.782 3.782 0 0 0-.572.405A6.413 6.413 0 0 1 27 42a7.965 7.965 0 0 1-.1 1.236A5.768 5.768 0 0 1 25.714 46.1a3.782 3.782 0 0 0 .572.405A4.865 4.865 0 0 0 27.8 43.746 3.263 3.263 0 0 0 29 44a3.3 3.3 0 0 0 1.5-.371A5.115 5.115 0 0 1 28 39zM21 42a6.413 6.413 0 0 1 1.286-4.095 3.782 3.782 0 0 0-.572-.405A3.329 3.329 0 0 0 20 37c-.11 0-.213.03-.32.04A6.083 6.083 0 0 1 20 39a5.115 5.115 0 0 1-2.5 4.629A3.3 3.3 0 0 0 19 44a3.263 3.263 0 0 0 1.2-.254A4.865 4.865 0 0 0 21.714 46.5a3.782 3.782 0 0 0 .572-.405A5.768 5.768 0 0 1 21.1 43.236 7.965 7.965 0 0 1 21 42z"/><ellipse cx="16" cy="28" fill="#a82340" rx="4" ry="5"/><ellipse cx="32" cy="28" fill="#a82340" rx="4" ry="5"/><ellipse cx="24" cy="28" fill="#c2294a" rx="4" ry="5"/><ellipse cx="20" cy="22" fill="#ff3562" rx="4" ry="5"/><ellipse cx="28" cy="22" fill="#ff3562" rx="4" ry="5"/><ellipse cx="20" cy="34" fill="#ff3562" rx="4" ry="5"/><ellipse cx="28" cy="34" fill="#ff3562" rx="4" ry="5"/><path fill="#a82340" d="M24 23c-.028 0-.054.01-.082.01-.368 2.244-1.941 3.931-3.836 3.98A6.183 6.183 0 0 0 20 28C22.209 28 24 25.761 24 23zM24.082 23.01c-.028 0-.054-.01-.082-.01 0 2.761 1.791 5 4 5a6.183 6.183 0 0 0-.082-1.01C26.023 26.941 24.45 25.254 24.082 23.01zM23.918 32.99c.028 0 .054.01.082.01 0-2.761-1.791-5-4-5a6.183 6.183 0 0 0 .082 1.01C21.977 29.059 23.55 30.746 23.918 32.99zM24 33c.028 0 .054-.01.082-.01.368-2.244 1.941-3.931 3.836-3.98A6.183 6.183 0 0 0 28 28C25.791 28 24 30.239 24 33z"/><ellipse cx="12" cy="34" fill="#ff3562" rx="4" ry="5"/><ellipse cx="36" cy="34" fill="#ff3562" rx="4" ry="5"/><path fill="#9c1936" d="M12.08 27.01a3.259 3.259 0 0 1 1.042.214 5.319 5.319 0 0 0 1.863-4.042A4.675 4.675 0 0 0 12.08 27.01zM17.622 28a3.5 3.5 0 0 1 2.3-.99l0-.02c-1.895-.049-3.468-1.736-3.836-3.98h0A6.172 6.172 0 0 0 16 24 5.46 5.46 0 0 0 17.622 28z"/><path fill="#80142c" d="M19.92,27.01a3.5,3.5,0,0,0-2.3.99A5.46,5.46,0,0,0,16,32a6.172,6.172,0,0,0,.08.99h0c.368-2.244,1.941-3.931,3.836-3.98l0-.02a6.166,6.166,0,0,0,0-1.98Z"/><path fill="#80142c" d="M13.122,27.224a3.259,3.259,0,0,0-1.042-.214,6.262,6.262,0,0,0-.065.808c0,.061-.015.12-.015.182a6.183,6.183,0,0,0,.082,1.01c1.895.049,3.468,1.736,3.836,3.98h0A6.172,6.172,0,0,0,16,32,4.954,4.954,0,0,0,13.122,27.224Z"/><path fill="#9c1936" d="M28.082 26.99l0 .02a3.5 3.5 0 0 1 2.3.99A5.46 5.46 0 0 0 32 24a6.172 6.172 0 0 0-.08-.99h0C31.55 25.254 29.977 26.941 28.082 26.99zM34.878 27.224a3.259 3.259 0 0 1 1.042-.214 4.675 4.675 0 0 0-2.905-3.828A5.319 5.319 0 0 0 34.878 27.224z"/><path fill="#80142c" d="M30.378,28a3.5,3.5,0,0,0-2.3-.99,6.166,6.166,0,0,0,0,1.98l0,.02c1.895.049,3.468,1.736,3.836,3.98h0A6.172,6.172,0,0,0,32,32,5.46,5.46,0,0,0,30.378,28Z"/><path fill="#80142c" d="M35.985,27.818a6.262,6.262,0,0,0-.065-.808,3.259,3.259,0,0,0-1.042.214A4.954,4.954,0,0,0,32,32a6.172,6.172,0,0,0,.08.99h0c.368-2.244,1.941-3.931,3.836-3.98A6.183,6.183,0,0,0,36,28C36,27.938,35.987,27.879,35.985,27.818Z"/><path fill="#a82340" d="M16.081 35A6.172 6.172 0 0 0 16 36c0 2.624 1.623 4.752 3.68 4.96A6.083 6.083 0 0 0 20 39C18.065 39 16.451 37.282 16.081 35zM32 36a6.172 6.172 0 0 0-.081-1c-.37 2.282-1.984 4-3.919 4a6.083 6.083 0 0 0 .32 1.96C30.377 40.752 32 38.624 32 36z"/><path fill="#a82340" d="M16 36a6.172 6.172 0 0 0-.081-1c-.37 2.282-1.984 4-3.919 4a6.083 6.083 0 0 0 .32 1.96C14.377 40.752 16 38.624 16 36zM32.081 35A6.172 6.172 0 0 0 32 36c0 2.624 1.623 4.752 3.68 4.96A6.083 6.083 0 0 0 36 39C34.065 39 32.451 37.282 32.081 35z"/><path fill="none" d="M29.1,10.231A4.506,4.506,0,0,0,28.2,13c0,2.209,1.433,4,3.2,4a2.718,2.718,0,0,0,1.647-.587c.015-.151.017-.307.042-.454A7.979,7.979,0,0,1,29.1,10.231Z"/><path fill="#9c1936" d="M33.047 16.413A2.718 2.718 0 0 1 31.4 17c-1.767 0-3.2-1.791-3.2-4a4.506 4.506 0 0 1 .9-2.769h0c-.028-.185-.054-.371-.07-.56a3.816 3.816 0 0 1 .734-.4A4.348 4.348 0 0 0 27.5 11.626a5.886 5.886 0 0 1 0 4.748 5.247 5.247 0 0 0 .332.647c.057 0 .11-.021.168-.021a3.785 3.785 0 0 1 3.168 1.979 3.439 3.439 0 0 0 1.965-.763A6.1 6.1 0 0 1 33 17C33 16.8 33.029 16.608 33.047 16.413zM34.5 11.633a5.648 5.648 0 0 1 .233.624c.032.107.056.219.082.33.016.066.028.134.044.2h0a5.776 5.776 0 0 0-.4-1.257v0C34.474 11.565 34.488 11.6 34.5 11.633zM34.127 10.923c-.008-.012-.013-.026-.02-.037.007.011.012.025.02.037zM30.048 9.158c.091-.029.184-.052.278-.073C30.231 9.105 30.14 9.13 30.048 9.158z"/><path fill="#ff3562" d="M30.6 9.145a2.852 2.852 0 0 0-.459.206c-.031.017-.065.026-.095.044a3.327 3.327 0 0 0-.939.835h0a7.979 7.979 0 0 0 3.985 5.728A5.229 5.229 0 0 1 34.6 13.025c0-.009 0-.016 0-.025a4.723 4.723 0 0 0-.485-2.094A3.743 3.743 0 0 0 31 9c.068 0 .132.021.2.025A2.647 2.647 0 0 0 30.6 9.145zm1.757 1.42c.422-.24 1.053.207 1.409 1s.3 1.63-.121 1.87-1.053-.207-1.409-1S31.933 10.805 32.356 10.565zM34.127 10.923a5.52 5.52 0 0 1 .331.607A5.431 5.431 0 0 0 34.127 10.923z"/><path fill="#ff3562" d="M30.045 9.4c.03-.018.064-.027.095-.044C30.109 9.368 30.075 9.377 30.045 9.4zM30.6 9.145a2.647 2.647 0 0 1 .6-.12A2.594 2.594 0 0 0 30.6 9.145z"/><polygon fill="#ff3562" points="29.104 10.231 29.104 10.231 29.106 10.23 29.104 10.231"/><path fill="#ff3562" d="M34.459,11.532v0a5.52,5.52,0,0,0-.331-.607h0A5.556,5.556,0,0,1,34.459,11.532Z"/><path fill="#e02f56" d="M34.6 13c0 .009 0 .016 0 .025h0zM34.6 13.025c.087-.082.172-.165.264-.238-.016-.066-.028-.134-.044-.2-.026-.111-.05-.223-.082-.33a5.648 5.648 0 0 0-.233-.624c-.015-.034-.029-.068-.044-.1a5.556 5.556 0 0 0-.332-.609l-.012-.017A4.723 4.723 0 0 1 34.6 13z"/><path fill="#e02f56" d="M34.107 10.886l.008.02.012.017C34.119 10.911 34.114 10.9 34.107 10.886zM29.768 9.267c.093-.038.184-.079.28-.109C29.953 9.189 29.861 9.227 29.768 9.267zM30.326 9.085A3.213 3.213 0 0 1 31 9 3.012 3.012 0 0 0 30.326 9.085zM30.045 9.4a3.313 3.313 0 0 0-.939.835A3.327 3.327 0 0 1 30.045 9.4zM30.14 9.351a2.852 2.852 0 0 1 .459-.206A2.852 2.852 0 0 0 30.14 9.351z"/><path fill="#e02f56" d="M29.1,10.231h0a3.313,3.313,0,0,1,.939-.835c.03-.018.064-.027.095-.044a2.852,2.852,0,0,1,.459-.206,2.594,2.594,0,0,1,.6-.12c-.068,0-.132-.025-.2-.025a3.213,3.213,0,0,0-.674.085c-.094.021-.187.044-.278.073s-.187.071-.28.109a3.816,3.816,0,0,0-.734.4C29.05,9.86,29.076,10.046,29.1,10.231Z"/><path fill="#ffb3c3" d="M33.644,13.435c.423-.24.477-1.078.121-1.87s-.987-1.24-1.409-1-.477,1.078-.121,1.87S33.222,13.675,33.644,13.435Z"/><path fill="none" d="M15.1,10.231A4.506,4.506,0,0,0,14.2,13a4.864,4.864,0,0,0,.227,1.458,5.551,5.551,0,0,1,.283.7A3.108,3.108,0,0,0,17.4,17a2.807,2.807,0,0,0,1.974-.874h0A7.988,7.988,0,0,1,15.1,10.231Z"/><path fill="#ff3562" d="M14.71,15.153a5.551,5.551,0,0,0-.283-.7A4.453,4.453,0,0,0,14.71,15.153Z"/><path fill="#9c1936" d="M20 17c.058 0 .111.018.168.021a4.838 4.838 0 0 0 .248-.455 7.838 7.838 0 0 1-1.042-.44A2.807 2.807 0 0 1 17.4 17a3.108 3.108 0 0 1-2.69-1.847 5.862 5.862 0 0 1 .157 3.063 3.439 3.439 0 0 0 1.965.763A3.785 3.785 0 0 1 20 17zM20.5 11.626h0c-.014-.032-.027-.064-.042-.1v0C20.473 11.563 20.486 11.6 20.5 11.626zM20.417 16.566c.03-.063.055-.128.083-.192l0 0C20.47 16.434 20.447 16.5 20.417 16.566zM20.127 10.923c-.008-.012-.013-.026-.02-.037.007.011.012.025.02.037zM16.048 9.158c.091-.029.184-.052.278-.073C16.231 9.105 16.14 9.13 16.048 9.158zM14.427 14.458A4.864 4.864 0 0 1 14.2 13a4.506 4.506 0 0 1 .9-2.769h0c-.028-.185-.054-.371-.07-.56a3.816 3.816 0 0 1 .734-.4 4.687 4.687 0 0 0-2.635 3.517A4.684 4.684 0 0 1 14.427 14.458z"/><path fill="#ff3562" d="M20.127 10.923a5.52 5.52 0 0 1 .331.607A5.431 5.431 0 0 0 20.127 10.923zM16.6 9.145a2.852 2.852 0 0 0-.459.206c-.031.017-.065.026-.095.044a3.327 3.327 0 0 0-.939.835h0a7.988 7.988 0 0 0 4.27 5.9 3.765 3.765 0 0 0 .484-.594l.035-.052c.079-.123.139-.263.207-.4A6.186 6.186 0 0 1 20 14a5.967 5.967 0 0 1 .436-2.227 4.591 4.591 0 0 0-.321-.867A3.743 3.743 0 0 0 17 9c.068 0 .132.021.2.025A2.647 2.647 0 0 0 16.6 9.145zm1.757 1.42c.422-.24 1.053.207 1.409 1s.3 1.63-.121 1.87-1.053-.207-1.409-1S17.933 10.805 18.356 10.565z"/><path fill="#ff3562" d="M16.6 9.145a2.647 2.647 0 0 1 .6-.12A2.594 2.594 0 0 0 16.6 9.145zM19.858 15.532l.035-.052zM20.459 11.532v0a5.52 5.52 0 0 0-.331-.607h0A5.556 5.556 0 0 1 20.459 11.532zM16.045 9.4c.03-.018.064-.027.095-.044C16.109 9.368 16.075 9.377 16.045 9.4z"/><polygon fill="#ff3562" points="15.104 10.231 15.104 10.231 15.106 10.23 15.104 10.231"/><polygon fill="#e02f56" points="20.417 16.566 20.416 16.566 20.416 16.566 20.417 16.566"/><path fill="#e02f56" d="M20.1 15.083c-.068.134-.128.274-.207.4a3.908 3.908 0 0 0 .214-.367C20.105 15.1 20.1 15.093 20.1 15.083zM19.374 16.126h0a3.623 3.623 0 0 0 .484-.594A3.765 3.765 0 0 1 19.374 16.126zM20.5 11.626c-.014-.031-.027-.063-.041-.094a5.556 5.556 0 0 0-.332-.609l-.012-.017a4.591 4.591 0 0 1 .321.867C20.456 11.723 20.479 11.675 20.5 11.626z"/><path fill="#e02f56" d="M20.5 16.37a5.79 5.79 0 0 1-.391-1.257 3.908 3.908 0 0 1-.214.367l-.035.052a3.623 3.623 0 0 1-.484.594 7.838 7.838 0 0 0 1.042.44h0C20.447 16.5 20.47 16.434 20.5 16.37zM20.107 10.886l.008.02.012.017C20.119 10.911 20.114 10.9 20.107 10.886zM15.768 9.267c.093-.038.184-.079.28-.109C15.953 9.189 15.861 9.227 15.768 9.267zM16.326 9.085A3.213 3.213 0 0 1 17 9 3.012 3.012 0 0 0 16.326 9.085zM16.14 9.351a2.852 2.852 0 0 1 .459-.206A2.852 2.852 0 0 0 16.14 9.351zM16.045 9.4a3.313 3.313 0 0 0-.939.835A3.327 3.327 0 0 1 16.045 9.4z"/><path fill="#e02f56" d="M15.1,10.231h0a3.313,3.313,0,0,1,.939-.835c.03-.018.064-.027.095-.044a2.852,2.852,0,0,1,.459-.206,2.594,2.594,0,0,1,.6-.12c-.068,0-.132-.025-.2-.025a3.213,3.213,0,0,0-.674.085c-.094.021-.187.044-.278.073s-.187.071-.28.109a3.816,3.816,0,0,0-.734.4C15.05,9.86,15.076,10.046,15.1,10.231Z"/><path fill="#ffb3c3" d="M19.644,13.435c.423-.24.477-1.078.121-1.87s-.987-1.24-1.409-1-.477,1.078-.121,1.87S19.222,13.675,19.644,13.435Z"/><path fill="#e02f56" d="M40.107,13.886A4.73,4.73,0,0,1,40.6,16c0,2.209-1.433,4-3.2,4s-3.2-1.791-3.2-4c0-2.124,1.328-3.843,3-3.975-.068,0-.132-.025-.2-.025-2.209,0-4,2.239-4,5s1.791,5,4,5,4-2.239,4-5A5.759,5.759,0,0,0,40.107,13.886Z"/><path fill="#ff5a7d" d="M35.1,13.231a7.988,7.988,0,0,0,4.27,5.9A4.393,4.393,0,0,0,40.6,16a4.73,4.73,0,0,0-.493-2.114,5.48,5.48,0,0,1,.352.646A3.942,3.942,0,0,0,37,12c.068,0,.132.021.2.025A2.983,2.983,0,0,0,35.1,13.231Z"/><path fill="#ff3562" d="M40.818 15.587c.04.162.082.323.108.492C40.9 15.91 40.857 15.75 40.818 15.587zM40.5 14.633a5.648 5.648 0 0 1 .233.624A5.648 5.648 0 0 0 40.5 14.633z"/><path fill="#c2294a" d="M40.459 14.532c.015.033.029.067.044.1C40.488 14.6 40.474 14.565 40.459 14.532zM40.736 15.257c.032.107.056.219.082.33C40.791 15.476 40.769 15.364 40.736 15.257zM40.926 16.079A6.323 6.323 0 0 1 41 17 6.035 6.035 0 0 0 40.926 16.079z"/><path fill="#e02f56" d="M40.6 16a4.393 4.393 0 0 1-1.226 3.126 7.838 7.838 0 0 0 1.042.44A5.9 5.9 0 0 0 41 17a6.323 6.323 0 0 0-.074-.921c-.026-.169-.068-.33-.108-.492-.026-.111-.05-.223-.082-.33a5.648 5.648 0 0 0-.233-.624c-.015-.034-.029-.068-.044-.1a5.48 5.48 0 0 0-.352-.646A4.73 4.73 0 0 1 40.6 16zM37.2 12.025c-.068 0-.132-.025-.2-.025a3.376 3.376 0 0 0-1.966.671c.016.189.042.375.07.56A2.983 2.983 0 0 1 37.2 12.025z"/><ellipse cx="39" cy="15" fill="#ffb3c3" rx=".874" ry="1.576" transform="rotate(-21.733 39 15)"/><path fill="#e02f56" d="M14.107,13.886A4.73,4.73,0,0,1,14.6,16c0,2.209-1.433,4-3.2,4s-3.2-1.791-3.2-4c0-2.124,1.328-3.843,3-3.975-.068,0-.132-.025-.2-.025-2.209,0-4,2.239-4,5s1.791,5,4,5,4-2.239,4-5A5.759,5.759,0,0,0,14.107,13.886Z"/><path fill="#ff5a7d" d="M9.1,13.231a7.988,7.988,0,0,0,4.27,5.9A4.393,4.393,0,0,0,14.6,16a4.73,4.73,0,0,0-.493-2.114,5.48,5.48,0,0,1,.352.646A3.942,3.942,0,0,0,11,12c.068,0,.132.021.2.025A2.983,2.983,0,0,0,9.1,13.231Z"/><path fill="#ff3562" d="M14.818 15.587c.04.162.082.323.108.492C14.9 15.91 14.857 15.75 14.818 15.587zM14.5 14.633a5.648 5.648 0 0 1 .233.624A5.648 5.648 0 0 0 14.5 14.633z"/><path fill="#c2294a" d="M14.459 14.532c.015.033.029.067.044.1C14.488 14.6 14.474 14.565 14.459 14.532zM14.736 15.257c.032.107.056.219.082.33C14.791 15.476 14.769 15.364 14.736 15.257zM14.926 16.079A6.323 6.323 0 0 1 15 17 6.035 6.035 0 0 0 14.926 16.079z"/><path fill="#e02f56" d="M14.6 16a4.393 4.393 0 0 1-1.226 3.126 7.838 7.838 0 0 0 1.042.44A5.9 5.9 0 0 0 15 17a6.323 6.323 0 0 0-.074-.921c-.026-.169-.068-.33-.108-.492-.026-.111-.05-.223-.082-.33a5.648 5.648 0 0 0-.233-.624c-.015-.034-.029-.068-.044-.1a5.48 5.48 0 0 0-.352-.646A4.73 4.73 0 0 1 14.6 16zM11.2 12.025c-.068 0-.132-.025-.2-.025a3.376 3.376 0 0 0-1.966.671c.016.189.042.375.07.56A2.983 2.983 0 0 1 11.2 12.025z"/><ellipse cx="13" cy="15" fill="#ffb3c3" rx=".874" ry="1.576" transform="rotate(-21.733 13 15)"/><path fill="#e02f56" d="M31.107,30.886A4.73,4.73,0,0,1,31.6,33c0,2.209-1.433,4-3.2,4s-3.2-1.791-3.2-4c0-2.124,1.328-3.843,3-3.975-.068,0-.132-.025-.2-.025-2.209,0-4,2.239-4,5s1.791,5,4,5,4-2.239,4-5A5.759,5.759,0,0,0,31.107,30.886Z"/><path fill="#ff5a7d" d="M26.1,30.231a7.988,7.988,0,0,0,4.27,5.895A4.393,4.393,0,0,0,31.6,33a4.73,4.73,0,0,0-.493-2.114,5.48,5.48,0,0,1,.352.646A3.942,3.942,0,0,0,28,29c.068,0,.132.021.2.025A2.983,2.983,0,0,0,26.1,30.231Z"/><path fill="#ff3562" d="M31.818 32.587c.04.162.082.323.108.492C31.9 32.91 31.857 32.75 31.818 32.587zM31.5 31.633a5.648 5.648 0 0 1 .233.624A5.648 5.648 0 0 0 31.5 31.633z"/><path fill="#c2294a" d="M31.459 31.532c.015.033.029.067.044.1C31.488 31.6 31.474 31.565 31.459 31.532zM31.736 32.257c.032.107.056.219.082.33C31.791 32.476 31.769 32.364 31.736 32.257zM31.926 33.079A6.323 6.323 0 0 1 32 34 6.035 6.035 0 0 0 31.926 33.079z"/><path fill="#e02f56" d="M31.6 33a4.393 4.393 0 0 1-1.226 3.126 7.838 7.838 0 0 0 1.042.44A5.9 5.9 0 0 0 32 34a6.323 6.323 0 0 0-.074-.921c-.026-.169-.068-.33-.108-.492-.026-.111-.05-.223-.082-.33a5.648 5.648 0 0 0-.233-.624c-.015-.034-.029-.068-.044-.1a5.48 5.48 0 0 0-.352-.646A4.73 4.73 0 0 1 31.6 33zM28.2 29.025c-.068 0-.132-.025-.2-.025a3.376 3.376 0 0 0-1.966.671c.016.189.042.375.07.56A2.983 2.983 0 0 1 28.2 29.025z"/><ellipse cx="30" cy="32" fill="#ffb3c3" rx=".874" ry="1.576" transform="rotate(-21.733 30 32.001)"/><path fill="#e02f56" d="M39.107,30.886A4.73,4.73,0,0,1,39.6,33c0,2.209-1.433,4-3.2,4s-3.2-1.791-3.2-4c0-2.124,1.328-3.843,3-3.975-.068,0-.132-.025-.2-.025-2.209,0-4,2.239-4,5s1.791,5,4,5,4-2.239,4-5A5.759,5.759,0,0,0,39.107,30.886Z"/><path fill="#ff5a7d" d="M34.1,30.231a7.988,7.988,0,0,0,4.27,5.895A4.393,4.393,0,0,0,39.6,33a4.73,4.73,0,0,0-.493-2.114,5.48,5.48,0,0,1,.352.646A3.942,3.942,0,0,0,36,29c.068,0,.132.021.2.025A2.983,2.983,0,0,0,34.1,30.231Z"/><path fill="#ff3562" d="M39.818 32.587c.04.162.082.323.108.492C39.9 32.91 39.857 32.75 39.818 32.587zM39.5 31.633a5.648 5.648 0 0 1 .233.624A5.648 5.648 0 0 0 39.5 31.633z"/><path fill="#c2294a" d="M39.459 31.532c.015.033.029.067.044.1C39.488 31.6 39.474 31.565 39.459 31.532zM39.736 32.257c.032.107.056.219.082.33C39.791 32.476 39.769 32.364 39.736 32.257zM39.926 33.079A6.323 6.323 0 0 1 40 34 6.035 6.035 0 0 0 39.926 33.079z"/><path fill="#e02f56" d="M39.6 33a4.393 4.393 0 0 1-1.226 3.126 7.838 7.838 0 0 0 1.042.44A5.9 5.9 0 0 0 40 34a6.323 6.323 0 0 0-.074-.921c-.026-.169-.068-.33-.108-.492-.026-.111-.05-.223-.082-.33a5.648 5.648 0 0 0-.233-.624c-.015-.034-.029-.068-.044-.1a5.48 5.48 0 0 0-.352-.646A4.73 4.73 0 0 1 39.6 33zM36.2 29.025c-.068 0-.132-.025-.2-.025a3.376 3.376 0 0 0-1.966.671c.016.189.042.375.07.56A2.983 2.983 0 0 1 36.2 29.025z"/><ellipse cx="38" cy="32" fill="#ffb3c3" rx=".874" ry="1.576" transform="rotate(-21.733 38 32)"/><path fill="#e02f56" d="M15.107,30.886A4.73,4.73,0,0,1,15.6,33c0,2.209-1.433,4-3.2,4s-3.2-1.791-3.2-4c0-2.124,1.328-3.843,3-3.975-.068,0-.132-.025-.2-.025-2.209,0-4,2.239-4,5s1.791,5,4,5,4-2.239,4-5A5.759,5.759,0,0,0,15.107,30.886Z"/><path fill="#ff5a7d" d="M10.1,30.231a7.988,7.988,0,0,0,4.27,5.895A4.393,4.393,0,0,0,15.6,33a4.73,4.73,0,0,0-.493-2.114,5.48,5.48,0,0,1,.352.646A3.942,3.942,0,0,0,12,29c.068,0,.132.021.2.025A2.983,2.983,0,0,0,10.1,30.231Z"/><path fill="#ff3562" d="M15.818 32.587c.04.162.082.323.108.492C15.9 32.91 15.857 32.75 15.818 32.587zM15.5 31.633a5.648 5.648 0 0 1 .233.624A5.648 5.648 0 0 0 15.5 31.633z"/><path fill="#c2294a" d="M15.459 31.532c.015.033.029.067.044.1C15.488 31.6 15.474 31.565 15.459 31.532zM15.736 32.257c.032.107.056.219.082.33C15.791 32.476 15.769 32.364 15.736 32.257zM15.926 33.079A6.323 6.323 0 0 1 16 34 6.035 6.035 0 0 0 15.926 33.079z"/><path fill="#e02f56" d="M15.6 33a4.393 4.393 0 0 1-1.226 3.126 7.838 7.838 0 0 0 1.042.44A5.9 5.9 0 0 0 16 34a6.323 6.323 0 0 0-.074-.921c-.026-.169-.068-.33-.108-.492-.026-.111-.05-.223-.082-.33a5.648 5.648 0 0 0-.233-.624c-.015-.034-.029-.068-.044-.1a5.48 5.48 0 0 0-.352-.646A4.73 4.73 0 0 1 15.6 33zM12.2 29.025c-.068 0-.132-.025-.2-.025a3.376 3.376 0 0 0-1.966.671c.016.189.042.375.07.56A2.983 2.983 0 0 1 12.2 29.025z"/><ellipse cx="14" cy="32" fill="#ffb3c3" rx=".874" ry="1.576" transform="rotate(-21.733 13.999 32)"/><path fill="#e02f56" d="M23.6,33c0,2.209-1.433,4-3.2,4s-3.2-1.791-3.2-4c0-2.124,1.328-3.843,3-3.975-.068,0-.132-.025-.2-.025-2.209,0-4,2.239-4,5s1.791,5,4,5,4-2.239,4-5a5.759,5.759,0,0,0-.893-3.114A4.73,4.73,0,0,1,23.6,33Z"/><path fill="#ff5a7d" d="M18.1,30.231a7.988,7.988,0,0,0,4.27,5.895A4.393,4.393,0,0,0,23.6,33a4.73,4.73,0,0,0-.493-2.114,5.48,5.48,0,0,1,.352.646A3.942,3.942,0,0,0,20,29c.068,0,.132.021.2.025A2.983,2.983,0,0,0,18.1,30.231Z"/><path fill="#ff3562" d="M23.818 32.587c.04.162.082.323.108.492C23.9 32.91 23.857 32.75 23.818 32.587zM23.5 31.633a5.648 5.648 0 0 1 .233.624A5.648 5.648 0 0 0 23.5 31.633z"/><path fill="#c2294a" d="M23.459 31.532c.015.033.029.067.044.1C23.488 31.6 23.474 31.565 23.459 31.532zM23.736 32.257c.032.107.056.219.082.33C23.791 32.476 23.769 32.364 23.736 32.257zM23.926 33.079A6.323 6.323 0 0 1 24 34 6.035 6.035 0 0 0 23.926 33.079z"/><path fill="#e02f56" d="M23.6 33a4.393 4.393 0 0 1-1.226 3.126 7.838 7.838 0 0 0 1.042.44A5.9 5.9 0 0 0 24 34a6.323 6.323 0 0 0-.074-.921c-.026-.169-.068-.33-.108-.492-.026-.111-.05-.223-.082-.33a5.648 5.648 0 0 0-.233-.624c-.015-.034-.029-.068-.044-.1a5.48 5.48 0 0 0-.352-.646A4.73 4.73 0 0 1 23.6 33zM20.2 29.025c-.068 0-.132-.025-.2-.025a3.376 3.376 0 0 0-1.966.671c.016.189.042.375.07.56A2.983 2.983 0 0 1 20.2 29.025z"/><ellipse cx="22" cy="32" fill="#ffb3c3" rx=".874" ry="1.576" transform="rotate(-21.733 22 32)"/><path fill="#e02f56" d="M25,45c-1.105,0-2-1.567-2-3.5S23.9,38,25,38a1.69,1.69,0,0,1,1.361.948A2.86,2.86,0,0,0,24,37c-1.657,0-3,2.239-3,5s1.343,5,3,5,3-2.239,3-5c0-.084-.012-.161-.015-.244C26.909,43.567,26.054,45,25,45Z"/><ellipse cx="25" cy="43" fill="#ffb3c3" rx=".874" ry="1.576" transform="rotate(-21.733 24.999 43)"/><path fill="#a82340" d="M22.969,37.322a4.269,4.269,0,0,1-.982.993,6.191,6.191,0,0,0-.887,2.47,3.664,3.664,0,0,0,1.087-.6,4.823,4.823,0,0,0,1.36-1.914,5.732,5.732,0,0,0,.37-1.252A1.984,1.984,0,0,0,22.969,37.322Z"/><path fill="#e02f56" d="M26.729,39.944a6.283,6.283,0,0,0-.368-1A1.69,1.69,0,0,0,25,38a1.2,1.2,0,0,0-.222.039,1.319,1.319,0,0,0-.366.132A4.366,4.366,0,0,0,26.9,40.785,7.444,7.444,0,0,0,26.729,39.944Z"/><path fill="#a82340" d="M26.36,38.947A4.934,4.934,0,0,0,26,38.305a4.343,4.343,0,0,1-.967-.983,2.234,2.234,0,0,0-.385-.2c-.035-.013-.072-.022-.109-.033a1.891,1.891,0,0,0-.454-.076,5.846,5.846,0,0,0,.264,1.008c.019.052.045.1.065.149a1.319,1.319,0,0,1,.366-.132A1.2,1.2,0,0,1,25,38a1.69,1.69,0,0,1,1.361.948Z"/><path fill="#c2294a" d="M27.107,10.886A4.73,4.73,0,0,1,27.6,13c0,2.209-1.433,4-3.2,4s-3.2-1.791-3.2-4c0-2.124,1.328-3.843,3-3.975-.068,0-.132-.025-.2-.025-2.209,0-4,2.239-4,5s1.791,5,4,5,4-2.239,4-5A5.759,5.759,0,0,0,27.107,10.886Z"/><path fill="#ff5a7d" d="M22.1,10.231a7.988,7.988,0,0,0,4.27,5.9A4.393,4.393,0,0,0,27.6,13a4.73,4.73,0,0,0-.493-2.114,5.48,5.48,0,0,1,.352.646A3.942,3.942,0,0,0,24,9c.068,0,.132.021.2.025A2.983,2.983,0,0,0,22.1,10.231Z"/><path fill="#ff3562" d="M27.818 12.587c.04.162.082.323.108.492C27.9 12.91 27.857 12.75 27.818 12.587zM27.5 11.633a5.648 5.648 0 0 1 .233.624A5.648 5.648 0 0 0 27.5 11.633z"/><path fill="#c2294a" d="M27.459 11.532c.015.033.029.067.044.1C27.488 11.6 27.474 11.565 27.459 11.532zM27.736 12.257c.032.107.056.219.082.33C27.791 12.476 27.769 12.364 27.736 12.257zM27.926 13.079A6.323 6.323 0 0 1 28 14 6.035 6.035 0 0 0 27.926 13.079z"/><path fill="#e02f56" d="M27.6 13a4.393 4.393 0 0 1-1.226 3.126 7.838 7.838 0 0 0 1.042.44A5.9 5.9 0 0 0 28 14a6.323 6.323 0 0 0-.074-.921c-.026-.169-.068-.33-.108-.492-.026-.111-.05-.223-.082-.33a5.648 5.648 0 0 0-.233-.624c-.015-.034-.029-.068-.044-.1a5.48 5.48 0 0 0-.352-.646A4.73 4.73 0 0 1 27.6 13zM24.2 9.025c-.068 0-.132-.025-.2-.025a3.376 3.376 0 0 0-1.966.671c.016.189.042.375.07.56A2.983 2.983 0 0 1 24.2 9.025z"/><ellipse cx="26" cy="12" fill="#ffb3c3" rx=".874" ry="1.576" transform="rotate(-21.733 26 12)"/><path fill="#e02f56" d="M31.107,18.886A4.73,4.73,0,0,1,31.6,21c0,2.209-1.433,4-3.2,4s-3.2-1.791-3.2-4c0-2.124,1.328-3.843,3-3.975-.068,0-.132-.025-.2-.025-2.209,0-4,2.239-4,5s1.791,5,4,5,4-2.239,4-5A5.759,5.759,0,0,0,31.107,18.886Z"/><path fill="#ff5a7d" d="M26.1,18.231a7.988,7.988,0,0,0,4.27,5.9A4.393,4.393,0,0,0,31.6,21a4.73,4.73,0,0,0-.493-2.114,5.48,5.48,0,0,1,.352.646A3.942,3.942,0,0,0,28,17c.068,0,.132.021.2.025A2.983,2.983,0,0,0,26.1,18.231Z"/><path fill="#ff3562" d="M31.818 20.587c.04.162.082.323.108.492C31.9 20.91 31.857 20.75 31.818 20.587zM31.5 19.633a5.648 5.648 0 0 1 .233.624A5.648 5.648 0 0 0 31.5 19.633z"/><path fill="#c2294a" d="M31.459 19.532c.015.033.029.067.044.1C31.488 19.6 31.474 19.565 31.459 19.532zM31.736 20.257c.032.107.056.219.082.33C31.791 20.476 31.769 20.364 31.736 20.257zM31.926 21.079A6.323 6.323 0 0 1 32 22 6.035 6.035 0 0 0 31.926 21.079z"/><path fill="#e02f56" d="M31.6 21a4.393 4.393 0 0 1-1.226 3.126 7.838 7.838 0 0 0 1.042.44A5.9 5.9 0 0 0 32 22a6.323 6.323 0 0 0-.074-.921c-.026-.169-.068-.33-.108-.492-.026-.111-.05-.223-.082-.33a5.648 5.648 0 0 0-.233-.624c-.015-.034-.029-.068-.044-.1a5.48 5.48 0 0 0-.352-.646A4.73 4.73 0 0 1 31.6 21zM28.2 17.025c-.068 0-.132-.025-.2-.025a3.376 3.376 0 0 0-1.966.671c.016.189.042.375.07.56A2.983 2.983 0 0 1 28.2 17.025z"/><ellipse cx="30" cy="20" fill="#ffb3c3" rx=".874" ry="1.576" transform="rotate(-21.733 30 20)"/><path fill="#e02f56" d="M23.6,21c0,2.209-1.433,4-3.2,4s-3.2-1.791-3.2-4c0-2.124,1.328-3.843,3-3.975-.068,0-.132-.025-.2-.025-2.209,0-4,2.239-4,5s1.791,5,4,5,4-2.239,4-5a5.759,5.759,0,0,0-.893-3.114A4.73,4.73,0,0,1,23.6,21Z"/><path fill="#ff5a7d" d="M18.1,18.231a7.988,7.988,0,0,0,4.27,5.9A4.393,4.393,0,0,0,23.6,21a4.73,4.73,0,0,0-.493-2.114,5.48,5.48,0,0,1,.352.646A3.942,3.942,0,0,0,20,17c.068,0,.132.021.2.025A2.983,2.983,0,0,0,18.1,18.231Z"/><path fill="#ff3562" d="M23.818 20.587c.04.162.082.323.108.492C23.9 20.91 23.857 20.75 23.818 20.587zM23.5 19.633a5.648 5.648 0 0 1 .233.624A5.648 5.648 0 0 0 23.5 19.633z"/><path fill="#c2294a" d="M23.459 19.532c.015.033.029.067.044.1C23.488 19.6 23.474 19.565 23.459 19.532zM23.736 20.257c.032.107.056.219.082.33C23.791 20.476 23.769 20.364 23.736 20.257zM23.926 21.079A6.323 6.323 0 0 1 24 22 6.035 6.035 0 0 0 23.926 21.079z"/><path fill="#e02f56" d="M23.6 21a4.393 4.393 0 0 1-1.226 3.126 7.838 7.838 0 0 0 1.042.44A5.9 5.9 0 0 0 24 22a6.323 6.323 0 0 0-.074-.921c-.026-.169-.068-.33-.108-.492-.026-.111-.05-.223-.082-.33a5.648 5.648 0 0 0-.233-.624c-.015-.034-.029-.068-.044-.1a5.48 5.48 0 0 0-.352-.646A4.73 4.73 0 0 1 23.6 21zM20.2 17.025c-.068 0-.132-.025-.2-.025a3.376 3.376 0 0 0-1.966.671c.016.189.042.375.07.56A2.983 2.983 0 0 1 20.2 17.025z"/><ellipse cx="22" cy="20" fill="#ffb3c3" rx=".874" ry="1.576" transform="rotate(-21.733 22 20)"/><ellipse cx="31" cy="14" fill="#c2294a" rx="4" ry="5"/><ellipse cx="39" cy="28" fill="#e02f56" rx="3" ry="5"/><ellipse cx="39" cy="22" fill="#c2294a" rx="4" ry="5"/><ellipse cx="37" cy="17" fill="#ff3562" rx="4" ry="5"/><ellipse cx="24" cy="14" fill="#e02f56" rx="4" ry="5"/><ellipse cx="32" cy="28" fill="#c2294a" rx="4" ry="5"/><ellipse cx="28" cy="22" fill="#ff3562" rx="4" ry="5"/><rect width="4" height="9" x="22" y="1" fill="#3f7000"/><path fill="#63b300" d="M36.8 3.2c.7.7-.492 8.169-2.461 10.138a5.43 5.43 0 1 1-7.677-7.677C28.63 3.693 36.1 2.5 36.8 3.2zM11.2 3.2c-.7.7.492 8.169 2.461 10.138a5.43 5.43 0 1 0 7.677-7.677C19.37 3.693 11.9 2.5 11.2 3.2z"/><rect width="2" height="9" x="22" y="1" fill="#3f7000"/><rect width="2" height="9" x="24" y="1" fill="#4e8c00"/><path fill="#8bc808" d="M26.661,5.662a5.5,5.5,0,0,0-.1,7.775L36.8,3.2C36.1,2.5,28.63,3.693,26.661,5.662Z"/><path fill="#63b300" d="M26.563 13.437a5.5 5.5 0 0 0 7.775-.1C36.307 11.37 37.5 3.9 36.8 3.2zM13.662 13.339a5.5 5.5 0 0 0 7.775.1L11.2 3.2C10.5 3.9 11.693 11.37 13.662 13.339z"/><path fill="#8bc808" d="M21.339,5.662C19.37,3.693,11.9,2.5,11.2,3.2h0L21.437,13.437A5.5,5.5,0,0,0,21.339,5.662Z"/><path fill="#3f7000" d="M26,6.467V5.379a3.406,3.406,0,0,0-.339.283A5.587,5.587,0,0,0,24.036,10h1A5.561,5.561,0,0,1,26,6.467Z"/><path fill="#2c4f00" d="M22.339,5.662A3.406,3.406,0,0,0,22,5.379V6.467A5.561,5.561,0,0,1,22.964,10h1A5.587,5.587,0,0,0,22.339,5.662Z"/><path fill="#2c4f00" d="M24,9V7a3.161,3.161,0,0,0-.64.071,5.567,5.567,0,0,1,.576,1.935C23.958,9.005,23.978,9,24,9Z"/><path fill="#3f7000" d="M24.064,9.006a5.567,5.567,0,0,1,.576-1.935A3.161,3.161,0,0,0,24,7V9C24.022,9,24.042,9.005,24.064,9.006Z"/><path fill="#63b300" d="M31,7a3.97,3.97,0,0,0-3.5,2.626A4.754,4.754,0,0,0,26,7.686a3.661,3.661,0,0,0-.5-.309,5.416,5.416,0,0,0-.233.646c-.021.07-.046.14-.065.212a5.573,5.573,0,0,0-.143.8c0,.029-.007.059-.01.088s0,.04,0,.06A3.563,3.563,0,0,1,26,9.686a4.754,4.754,0,0,1,1.5,1.94A3.97,3.97,0,0,1,31,9l1.576-1.576A3.286,3.286,0,0,0,31,7Z"/><path fill="#4e8c00" d="M32.576 7.424L31 9c1.842 0 3.375 1.565 3.839 3.683a11.03 11.03 0 0 0 1.1-2.495 3.718 3.718 0 0 0-1.075.6A4.849 4.849 0 0 0 32.576 7.424zM17 9L15.424 7.424a4.849 4.849 0 0 0-2.291 3.36 3.718 3.718 0 0 0-1.075-.6 11.03 11.03 0 0 0 1.1 2.495C13.625 10.565 15.158 9 17 9z"/><path fill="#63b300" d="M22.951,9.12c0-.029-.006-.059-.01-.088a5.573,5.573,0,0,0-.143-.8c-.019-.072-.044-.142-.065-.212a5.416,5.416,0,0,0-.233-.646,3.661,3.661,0,0,0-.5.309,4.754,4.754,0,0,0-1.5,1.94A3.97,3.97,0,0,0,17,7a3.286,3.286,0,0,0-1.576.424L17,9a3.97,3.97,0,0,1,3.5,2.626A4.754,4.754,0,0,1,22,9.686a3.563,3.563,0,0,1,.952-.506C22.95,9.16,22.953,9.14,22.951,9.12Z"/><path fill="#2c4f00" d="M25.043,9.178l.006-.058c0-.029.007-.059.01-.088a5.548,5.548,0,0,1,.143-.8c.018-.072.044-.141.065-.212a5.6,5.6,0,0,1,.228-.648,3.317,3.317,0,0,0-.855-.3,5.567,5.567,0,0,0-.576,1.935A3.182,3.182,0,0,1,25.043,9.178Z"/><path fill="#2f4700" d="M22.8,8.235a5.548,5.548,0,0,1,.143.8c0,.029.007.059.01.088l.006.058a3.182,3.182,0,0,1,.979-.172,5.567,5.567,0,0,0-.576-1.935,3.317,3.317,0,0,0-.855.3,5.6,5.6,0,0,1,.228.648C22.754,8.094,22.78,8.163,22.8,8.235Z"/><path fill="#e02f56" d="M17,19c2.209,0,4-2.239,4-5s-1.791-5-4-5-4,2.239-4,5a6.218,6.218,0,0,0,.085,1.022q.606,1.41,1.324,2.758A3.55,3.55,0,0,0,17,19Z"/><ellipse cx="31" cy="14" fill="#e02f56" rx="4" ry="5"/><ellipse cx="39" cy="28" fill="#ff3562" rx="3" ry="5"/><ellipse cx="39" cy="22" fill="#ff3562" rx="4" ry="5"/><path fill="#e02f56" d="M39,27a3.573,3.573,0,0,1-2.654-1.285,7.516,7.516,0,0,0-.306,1.621,3.465,3.465,0,0,0,5.92,0,7.516,7.516,0,0,0-.306-1.621A3.573,3.573,0,0,1,39,27Z"/><path fill="#c2294a" d="M39,26c-2.072,0-3.756-1.977-3.96-4.5-.013.167-.04.329-.04.5,0,2.761,1.791,5,4,5s4-2.239,4-5c0-.171-.027-.333-.04-.5C42.756,24.023,41.072,26,39,26Z"/><ellipse cx="37" cy="17" fill="#ff4a77" rx="4" ry="5"/><path fill="#c2294a" d="M41,19a6.172,6.172,0,0,0-.081-1c-.37,2.282-1.984,4-3.919,4a3.369,3.369,0,0,1-1.947-.658A6.189,6.189,0,0,0,35,22a6.079,6.079,0,0,0,.187,1.433A3.339,3.339,0,0,0,37,24C39.209,24,41,21.761,41,19Z"/><ellipse cx="24" cy="14" fill="#ff4a77" rx="4" ry="5"/><ellipse cx="32" cy="28" fill="#c2294a" rx="4" ry="5"/><ellipse cx="28" cy="22" fill="#ff3562" rx="4" ry="5"/><path fill="#a82340" d="M24.082,23.01c-.028,0-.054-.01-.082-.01,0,2.761,1.791,5,4,5a6.183,6.183,0,0,0-.082-1.01C26.023,26.941,24.45,25.254,24.082,23.01Z"/><path fill="#9c1936" d="M28.082 26.99l0 .02a3.5 3.5 0 0 1 2.3.99A5.46 5.46 0 0 0 32 24a6.172 6.172 0 0 0-.08-.99h0C31.55 25.254 29.977 26.941 28.082 26.99zM34.878 27.224a3.259 3.259 0 0 1 1.042-.214 4.675 4.675 0 0 0-2.905-3.828A5.319 5.319 0 0 0 34.878 27.224z"/><path fill="#9c1936" d="M30.378,28a3.5,3.5,0,0,0-2.3-.99,6.166,6.166,0,0,0,0,1.98l0,.02c1.895.049,3.468,1.736,3.836,3.98h0A6.172,6.172,0,0,0,32,32,5.46,5.46,0,0,0,30.378,28Z"/><path fill="#9c1936" d="M35.985,27.818a6.262,6.262,0,0,0-.065-.808,3.259,3.259,0,0,0-1.042.214A4.954,4.954,0,0,0,32,32a6.172,6.172,0,0,0,.08.99h0c.368-2.244,1.941-3.931,3.836-3.98A6.183,6.183,0,0,0,36,28C36,27.938,35.987,27.879,35.985,27.818Z"/><path fill="none" d="M29.1,10.231A4.506,4.506,0,0,0,28.2,13c0,2.209,1.433,4,3.2,4a2.718,2.718,0,0,0,1.647-.587c.015-.151.017-.307.042-.454A7.979,7.979,0,0,1,29.1,10.231Z"/><path fill="#a82340" d="M33.047,16.413A2.718,2.718,0,0,1,31.4,17c-1.767,0-3.2-1.791-3.2-4a4.506,4.506,0,0,1,.9-2.769h0c-.028-.185-.054-.371-.07-.56a3.816,3.816,0,0,1,.734-.4A4.348,4.348,0,0,0,27.5,11.626a5.886,5.886,0,0,1,0,4.748,5.247,5.247,0,0,0,.332.647c.057,0,.11-.021.168-.021a3.785,3.785,0,0,1,3.168,1.979,3.439,3.439,0,0,0,1.965-.763A6.1,6.1,0,0,1,33,17C33,16.8,33.029,16.608,33.047,16.413Z"/><path fill="#9c1936" d="M34.5 11.633a5.648 5.648 0 0 1 .233.624c.032.107.056.219.082.33.016.066.028.134.044.2h0a5.776 5.776 0 0 0-.4-1.257v0C34.474 11.565 34.488 11.6 34.5 11.633zM34.127 10.923c-.008-.012-.013-.026-.02-.037.007.011.012.025.02.037zM30.048 9.158c.091-.029.184-.052.278-.073C30.231 9.105 30.14 9.13 30.048 9.158z"/><path fill="#ff4a77" d="M30.6,9.145a2.852,2.852,0,0,0-.459.206c-.031.017-.065.026-.095.044a3.327,3.327,0,0,0-.939.835h0a7.979,7.979,0,0,0,3.985,5.728A5.229,5.229,0,0,1,34.6,13.025c0-.009,0-.016,0-.025a4.723,4.723,0,0,0-.485-2.094A3.743,3.743,0,0,0,31,9c.068,0,.132.021.2.025A2.647,2.647,0,0,0,30.6,9.145Zm1.757,1.42c.422-.24,1.053.207,1.409,1s.3,1.63-.121,1.87-1.053-.207-1.409-1S31.933,10.805,32.356,10.565Z"/><path fill="#ff3562" d="M34.127 10.923a5.52 5.52 0 0 1 .331.607A5.431 5.431 0 0 0 34.127 10.923zM30.045 9.4c.03-.018.064-.027.095-.044C30.109 9.368 30.075 9.377 30.045 9.4zM30.6 9.145a2.647 2.647 0 0 1 .6-.12A2.594 2.594 0 0 0 30.6 9.145z"/><polygon fill="#ff3562" points="29.104 10.231 29.104 10.231 29.106 10.23 29.104 10.231"/><path fill="#ff3562" d="M34.459,11.532v0a5.52,5.52,0,0,0-.331-.607h0A5.556,5.556,0,0,1,34.459,11.532Z"/><path fill="#e02f56" d="M34.6 13c0 .009 0 .016 0 .025h0zM34.6 13.025c.087-.082.172-.165.264-.238-.016-.066-.028-.134-.044-.2-.026-.111-.05-.223-.082-.33a5.648 5.648 0 0 0-.233-.624c-.015-.034-.029-.068-.044-.1a5.556 5.556 0 0 0-.332-.609l-.012-.017A4.723 4.723 0 0 1 34.6 13z"/><path fill="#e02f56" d="M34.107 10.886l.008.02.012.017C34.119 10.911 34.114 10.9 34.107 10.886zM29.768 9.267c.093-.038.184-.079.28-.109C29.953 9.189 29.861 9.227 29.768 9.267zM30.326 9.085A3.213 3.213 0 0 1 31 9 3.012 3.012 0 0 0 30.326 9.085zM30.045 9.4a3.313 3.313 0 0 0-.939.835A3.327 3.327 0 0 1 30.045 9.4zM30.14 9.351a2.852 2.852 0 0 1 .459-.206A2.852 2.852 0 0 0 30.14 9.351z"/><path fill="#e02f56" d="M29.1,10.231h0a3.313,3.313,0,0,1,.939-.835c.03-.018.064-.027.095-.044a2.852,2.852,0,0,1,.459-.206,2.594,2.594,0,0,1,.6-.12c-.068,0-.132-.025-.2-.025a3.213,3.213,0,0,0-.674.085c-.094.021-.187.044-.278.073s-.187.071-.28.109a3.816,3.816,0,0,0-.734.4C29.05,9.86,29.076,10.046,29.1,10.231Z"/><path fill="#ffb3c3" d="M33.644,13.435c.423-.24.477-1.078.121-1.87s-.987-1.24-1.409-1-.477,1.078-.121,1.87S33.222,13.675,33.644,13.435Z"/><path fill="none" d="M15.1,10.231A4.506,4.506,0,0,0,14.2,13a4.864,4.864,0,0,0,.227,1.458,5.551,5.551,0,0,1,.283.7A3.108,3.108,0,0,0,17.4,17a2.807,2.807,0,0,0,1.974-.874h0A7.988,7.988,0,0,1,15.1,10.231Z"/><path fill="#ff3562" d="M14.71,15.153a5.551,5.551,0,0,0-.283-.7A4.453,4.453,0,0,0,14.71,15.153Z"/><path fill="#c2294a" d="M20,17c.058,0,.111.018.168.021a4.838,4.838,0,0,0,.248-.455,7.838,7.838,0,0,1-1.042-.44A2.807,2.807,0,0,1,17.4,17a3.108,3.108,0,0,1-2.69-1.847,5.862,5.862,0,0,1,.157,3.063,3.439,3.439,0,0,0,1.965.763A3.785,3.785,0,0,1,20,17Z"/><path fill="#9c1936" d="M20.5 11.626h0c-.014-.032-.027-.064-.042-.1v0C20.473 11.563 20.486 11.6 20.5 11.626zM20.417 16.566c.03-.063.055-.128.083-.192l0 0C20.47 16.434 20.447 16.5 20.417 16.566zM20.127 10.923c-.008-.012-.013-.026-.02-.037.007.011.012.025.02.037zM16.048 9.158c.091-.029.184-.052.278-.073C16.231 9.105 16.14 9.13 16.048 9.158z"/><path fill="#c2294a" d="M14.427,14.458A4.864,4.864,0,0,1,14.2,13a4.506,4.506,0,0,1,.9-2.769h0c-.028-.185-.054-.371-.07-.56a3.816,3.816,0,0,1,.734-.4,4.687,4.687,0,0,0-2.635,3.517A4.684,4.684,0,0,1,14.427,14.458Z"/><path fill="#ff3562" d="M20.127,10.923a5.52,5.52,0,0,1,.331.607A5.431,5.431,0,0,0,20.127,10.923Z"/><path fill="#ff829d" d="M16.6,9.145a2.852,2.852,0,0,0-.459.206c-.031.017-.065.026-.095.044a3.327,3.327,0,0,0-.939.835h0a7.988,7.988,0,0,0,4.27,5.9,3.765,3.765,0,0,0,.484-.594l.035-.052c.079-.123.139-.263.207-.4A6.186,6.186,0,0,1,20,14a5.967,5.967,0,0,1,.436-2.227,4.591,4.591,0,0,0-.321-.867A3.743,3.743,0,0,0,17,9c.068,0,.132.021.2.025A2.647,2.647,0,0,0,16.6,9.145Zm1.757,1.42c.422-.24,1.053.207,1.409,1s.3,1.63-.121,1.87-1.053-.207-1.409-1S17.933,10.805,18.356,10.565Z"/><path fill="#ff3562" d="M16.6 9.145a2.647 2.647 0 0 1 .6-.12A2.594 2.594 0 0 0 16.6 9.145zM19.858 15.532l.035-.052zM20.459 11.532v0a5.52 5.52 0 0 0-.331-.607h0A5.556 5.556 0 0 1 20.459 11.532zM16.045 9.4c.03-.018.064-.027.095-.044C16.109 9.368 16.075 9.377 16.045 9.4z"/><polygon fill="#ff3562" points="15.104 10.231 15.104 10.231 15.106 10.23 15.104 10.231"/><polygon fill="#e02f56" points="20.417 16.566 20.416 16.566 20.416 16.566 20.417 16.566"/><path fill="#e02f56" d="M20.1 15.083c-.068.134-.128.274-.207.4a3.908 3.908 0 0 0 .214-.367C20.105 15.1 20.1 15.093 20.1 15.083zM19.374 16.126h0a3.623 3.623 0 0 0 .484-.594A3.765 3.765 0 0 1 19.374 16.126zM20.5 11.626c-.014-.031-.027-.063-.041-.094a5.556 5.556 0 0 0-.332-.609l-.012-.017a4.591 4.591 0 0 1 .321.867C20.456 11.723 20.479 11.675 20.5 11.626z"/><path fill="#e02f56" d="M20.5 16.37a5.79 5.79 0 0 1-.391-1.257 3.908 3.908 0 0 1-.214.367l-.035.052a3.623 3.623 0 0 1-.484.594 7.838 7.838 0 0 0 1.042.44h0C20.447 16.5 20.47 16.434 20.5 16.37zM20.107 10.886l.008.02.012.017C20.119 10.911 20.114 10.9 20.107 10.886zM15.768 9.267c.093-.038.184-.079.28-.109C15.953 9.189 15.861 9.227 15.768 9.267zM16.326 9.085A3.213 3.213 0 0 1 17 9 3.012 3.012 0 0 0 16.326 9.085zM16.14 9.351a2.852 2.852 0 0 1 .459-.206A2.852 2.852 0 0 0 16.14 9.351zM16.045 9.4a3.313 3.313 0 0 0-.939.835A3.327 3.327 0 0 1 16.045 9.4z"/><path fill="#e02f56" d="M15.1,10.231h0a3.313,3.313,0,0,1,.939-.835c.03-.018.064-.027.095-.044a2.852,2.852,0,0,1,.459-.206,2.594,2.594,0,0,1,.6-.12c-.068,0-.132-.025-.2-.025a3.213,3.213,0,0,0-.674.085c-.094.021-.187.044-.278.073s-.187.071-.28.109a3.816,3.816,0,0,0-.734.4C15.05,9.86,15.076,10.046,15.1,10.231Z"/><path fill="#ffb3c3" d="M19.644,13.435c.423-.24.477-1.078.121-1.87s-.987-1.24-1.409-1-.477,1.078-.121,1.87S19.222,13.675,19.644,13.435Z"/><path fill="#e02f56" d="M40.107,13.886A4.73,4.73,0,0,1,40.6,16c0,2.209-1.433,4-3.2,4s-3.2-1.791-3.2-4c0-2.124,1.328-3.843,3-3.975-.068,0-.132-.025-.2-.025-2.209,0-4,2.239-4,5s1.791,5,4,5,4-2.239,4-5A5.759,5.759,0,0,0,40.107,13.886Z"/><path fill="#ff829d" d="M35.1,13.231a7.988,7.988,0,0,0,4.27,5.9A4.393,4.393,0,0,0,40.6,16a4.73,4.73,0,0,0-.493-2.114,5.48,5.48,0,0,1,.352.646A3.942,3.942,0,0,0,37,12c.068,0,.132.021.2.025A2.983,2.983,0,0,0,35.1,13.231Z"/><path fill="#ff3562" d="M40.818 15.587c.04.162.082.323.108.492C40.9 15.91 40.857 15.75 40.818 15.587zM40.5 14.633a5.648 5.648 0 0 1 .233.624A5.648 5.648 0 0 0 40.5 14.633z"/><path fill="#c2294a" d="M40.459 14.532c.015.033.029.067.044.1C40.488 14.6 40.474 14.565 40.459 14.532zM40.736 15.257c.032.107.056.219.082.33C40.791 15.476 40.769 15.364 40.736 15.257zM40.926 16.079A6.323 6.323 0 0 1 41 17 6.035 6.035 0 0 0 40.926 16.079z"/><path fill="#e02f56" d="M40.6 16a4.393 4.393 0 0 1-1.226 3.126 7.838 7.838 0 0 0 1.042.44A5.9 5.9 0 0 0 41 17a6.323 6.323 0 0 0-.074-.921c-.026-.169-.068-.33-.108-.492-.026-.111-.05-.223-.082-.33a5.648 5.648 0 0 0-.233-.624c-.015-.034-.029-.068-.044-.1a5.48 5.48 0 0 0-.352-.646A4.73 4.73 0 0 1 40.6 16zM37.2 12.025c-.068 0-.132-.025-.2-.025a3.376 3.376 0 0 0-1.966.671c.016.189.042.375.07.56A2.983 2.983 0 0 1 37.2 12.025z"/><ellipse cx="39" cy="15" fill="#ffb3c3" rx=".874" ry="1.576" transform="rotate(-21.733 39 15)"/><path fill="#ff3562" d="M14.818 15.587c.04.162.082.323.108.492C14.9 15.91 14.857 15.75 14.818 15.587zM14.5 14.633a5.648 5.648 0 0 1 .233.624A5.648 5.648 0 0 0 14.5 14.633z"/><path fill="#c2294a" d="M14.459 14.532c.015.033.029.067.044.1C14.488 14.6 14.474 14.565 14.459 14.532zM14.736 15.257c.032.107.056.219.082.33C14.791 15.476 14.769 15.364 14.736 15.257zM14.926 16.079A6.323 6.323 0 0 1 15 17 6.035 6.035 0 0 0 14.926 16.079z"/><path fill="#ff3562" d="M31.818 32.587c.04.162.082.323.108.492C31.9 32.91 31.857 32.75 31.818 32.587zM31.5 31.633a5.648 5.648 0 0 1 .233.624A5.648 5.648 0 0 0 31.5 31.633z"/><path fill="#c2294a" d="M31.459 31.532c.015.033.029.067.044.1C31.488 31.6 31.474 31.565 31.459 31.532zM31.736 32.257c.032.107.056.219.082.33C31.791 32.476 31.769 32.364 31.736 32.257zM31.926 33.079A6.323 6.323 0 0 1 32 34 6.035 6.035 0 0 0 31.926 33.079z"/><path fill="#e02f56" d="M28.2,29.025c-.068,0-.132-.025-.2-.025a3.376,3.376,0,0,0-1.966.671c.016.189.042.375.07.56A2.983,2.983,0,0,1,28.2,29.025Z"/><ellipse cx="30" cy="32" fill="#ffb3c3" rx=".874" ry="1.576" transform="rotate(-21.733 30 32.001)"/><path fill="#ff5a7d" d="M34.1,30.231a7.988,7.988,0,0,0,4.27,5.895A4.393,4.393,0,0,0,39.6,33a4.73,4.73,0,0,0-.493-2.114,5.48,5.48,0,0,1,.352.646A3.942,3.942,0,0,0,36,29c.068,0,.132.021.2.025A2.983,2.983,0,0,0,34.1,30.231Z"/><path fill="#ff3562" d="M39.818 32.587c.04.162.082.323.108.492C39.9 32.91 39.857 32.75 39.818 32.587zM39.5 31.633a5.648 5.648 0 0 1 .233.624A5.648 5.648 0 0 0 39.5 31.633z"/><path fill="#c2294a" d="M39.459 31.532c.015.033.029.067.044.1C39.488 31.6 39.474 31.565 39.459 31.532zM39.736 32.257c.032.107.056.219.082.33C39.791 32.476 39.769 32.364 39.736 32.257zM39.926 33.079A6.323 6.323 0 0 1 40 34 6.035 6.035 0 0 0 39.926 33.079z"/><path fill="#e02f56" d="M39.6 33a4.393 4.393 0 0 1-1.226 3.126 7.838 7.838 0 0 0 1.042.44A5.9 5.9 0 0 0 40 34a6.323 6.323 0 0 0-.074-.921c-.026-.169-.068-.33-.108-.492-.026-.111-.05-.223-.082-.33a5.648 5.648 0 0 0-.233-.624c-.015-.034-.029-.068-.044-.1a5.48 5.48 0 0 0-.352-.646A4.73 4.73 0 0 1 39.6 33zM36.2 29.025c-.068 0-.132-.025-.2-.025a3.376 3.376 0 0 0-1.966.671c.016.189.042.375.07.56A2.983 2.983 0 0 1 36.2 29.025z"/><ellipse cx="38" cy="32" fill="#ffb3c3" rx=".874" ry="1.576" transform="rotate(-21.733 38 32)"/><path fill="#c2294a" d="M27.107,10.886A4.73,4.73,0,0,1,27.6,13c0,2.209-1.433,4-3.2,4s-3.2-1.791-3.2-4c0-2.124,1.328-3.843,3-3.975-.068,0-.132-.025-.2-.025-2.209,0-4,2.239-4,5s1.791,5,4,5,4-2.239,4-5A5.759,5.759,0,0,0,27.107,10.886Z"/><path fill="#ff829d" d="M22.1,10.231a7.988,7.988,0,0,0,4.27,5.9A4.393,4.393,0,0,0,27.6,13a4.73,4.73,0,0,0-.493-2.114,5.48,5.48,0,0,1,.352.646A3.942,3.942,0,0,0,24,9c.068,0,.132.021.2.025A2.983,2.983,0,0,0,22.1,10.231Z"/><path fill="#ff3562" d="M27.818 12.587c.04.162.082.323.108.492C27.9 12.91 27.857 12.75 27.818 12.587zM27.5 11.633a5.648 5.648 0 0 1 .233.624A5.648 5.648 0 0 0 27.5 11.633z"/><path fill="#c2294a" d="M27.459 11.532c.015.033.029.067.044.1C27.488 11.6 27.474 11.565 27.459 11.532zM27.736 12.257c.032.107.056.219.082.33C27.791 12.476 27.769 12.364 27.736 12.257zM27.926 13.079A6.323 6.323 0 0 1 28 14 6.035 6.035 0 0 0 27.926 13.079z"/><path fill="#e02f56" d="M27.6 13a4.393 4.393 0 0 1-1.226 3.126 7.838 7.838 0 0 0 1.042.44A5.9 5.9 0 0 0 28 14a6.323 6.323 0 0 0-.074-.921c-.026-.169-.068-.33-.108-.492-.026-.111-.05-.223-.082-.33a5.648 5.648 0 0 0-.233-.624c-.015-.034-.029-.068-.044-.1a5.48 5.48 0 0 0-.352-.646A4.73 4.73 0 0 1 27.6 13zM24.2 9.025c-.068 0-.132-.025-.2-.025a3.376 3.376 0 0 0-1.966.671c.016.189.042.375.07.56A2.983 2.983 0 0 1 24.2 9.025z"/><ellipse cx="26" cy="12" fill="#ffb3c3" rx=".874" ry="1.576" transform="rotate(-21.733 26 12)"/><path fill="#e02f56" d="M31.107,18.886A4.73,4.73,0,0,1,31.6,21c0,2.209-1.433,4-3.2,4s-3.2-1.791-3.2-4c0-2.124,1.328-3.843,3-3.975-.068,0-.132-.025-.2-.025-2.209,0-4,2.239-4,5s1.791,5,4,5,4-2.239,4-5A5.759,5.759,0,0,0,31.107,18.886Z"/><path fill="#ff829d" d="M26.1,18.231a7.988,7.988,0,0,0,4.27,5.9A4.393,4.393,0,0,0,31.6,21a4.73,4.73,0,0,0-.493-2.114,5.48,5.48,0,0,1,.352.646A3.942,3.942,0,0,0,28,17c.068,0,.132.021.2.025A2.983,2.983,0,0,0,26.1,18.231Z"/><path fill="#ff3562" d="M31.818 20.587c.04.162.082.323.108.492C31.9 20.91 31.857 20.75 31.818 20.587zM31.5 19.633a5.648 5.648 0 0 1 .233.624A5.648 5.648 0 0 0 31.5 19.633z"/><path fill="#c2294a" d="M31.459 19.532c.015.033.029.067.044.1C31.488 19.6 31.474 19.565 31.459 19.532zM31.736 20.257c.032.107.056.219.082.33C31.791 20.476 31.769 20.364 31.736 20.257zM31.926 21.079A6.323 6.323 0 0 1 32 22 6.035 6.035 0 0 0 31.926 21.079z"/><path fill="#e02f56" d="M31.6 21a4.393 4.393 0 0 1-1.226 3.126 7.838 7.838 0 0 0 1.042.44A5.9 5.9 0 0 0 32 22a6.323 6.323 0 0 0-.074-.921c-.026-.169-.068-.33-.108-.492-.026-.111-.05-.223-.082-.33a5.648 5.648 0 0 0-.233-.624c-.015-.034-.029-.068-.044-.1a5.48 5.48 0 0 0-.352-.646A4.73 4.73 0 0 1 31.6 21zM28.2 17.025c-.068 0-.132-.025-.2-.025a3.376 3.376 0 0 0-1.966.671c.016.189.042.375.07.56A2.983 2.983 0 0 1 28.2 17.025z"/><ellipse cx="30" cy="20" fill="#ffb3c3" rx=".874" ry="1.576" transform="rotate(-21.733 30 20)"/><path fill="#ff5a7d" d="M18.1,18.231a7.988,7.988,0,0,0,4.27,5.9A4.393,4.393,0,0,0,23.6,21a4.73,4.73,0,0,0-.493-2.114,5.48,5.48,0,0,1,.352.646A3.942,3.942,0,0,0,20,17c.068,0,.132.021.2.025A2.983,2.983,0,0,0,18.1,18.231Z"/><path fill="#ff3562" d="M23.818 20.587c.04.162.082.323.108.492C23.9 20.91 23.857 20.75 23.818 20.587zM23.5 19.633a5.648 5.648 0 0 1 .233.624A5.648 5.648 0 0 0 23.5 19.633z"/><path fill="#c2294a" d="M23.459 19.532c.015.033.029.067.044.1C23.488 19.6 23.474 19.565 23.459 19.532zM23.736 20.257c.032.107.056.219.082.33C23.791 20.476 23.769 20.364 23.736 20.257zM23.926 21.079A6.323 6.323 0 0 1 24 22 6.035 6.035 0 0 0 23.926 21.079z"/><path fill="#e02f56" d="M23.6 21a4.393 4.393 0 0 1-1.226 3.126 7.838 7.838 0 0 0 1.042.44A5.9 5.9 0 0 0 24 22a6.323 6.323 0 0 0-.074-.921c-.026-.169-.068-.33-.108-.492-.026-.111-.05-.223-.082-.33a5.648 5.648 0 0 0-.233-.624c-.015-.034-.029-.068-.044-.1a5.48 5.48 0 0 0-.352-.646A4.73 4.73 0 0 1 23.6 21zM20.2 17.025c-.068 0-.132-.025-.2-.025a3.376 3.376 0 0 0-1.966.671c.016.189.042.375.07.56A2.983 2.983 0 0 1 20.2 17.025z"/><ellipse cx="22" cy="20" fill="#ffb3c3" rx=".874" ry="1.576" transform="rotate(-21.733 22 20)"/><path fill="#ff3562" d="M39.926 33.079c-.026-.169-.069-.329-.108-.492.028.114.055.229.076.347C39.9 32.983 39.918 33.029 39.926 33.079zM39.5 31.633a5.648 5.648 0 0 1 .233.624A5.648 5.648 0 0 0 39.5 31.633z"/><path fill="#ff829d" d="M35.6,29.145a2.852,2.852,0,0,0-.459.206c-.031.017-.065.026-.095.044a3.327,3.327,0,0,0-.939.835A4.5,4.5,0,0,0,33.2,33a4.712,4.712,0,0,0,.544,2.23A37.726,37.726,0,0,0,37.773,36.6,4.154,4.154,0,0,0,39.6,33a4.73,4.73,0,0,0-.493-2.114,5.48,5.48,0,0,1,.352.646A3.942,3.942,0,0,0,36,29c.068,0,.132.021.2.025A2.647,2.647,0,0,0,35.6,29.145Z"/><path fill="#ff3562" d="M39.926,33.079h0c-.008-.05-.022-.1-.032-.145C39.9,32.983,39.918,33.029,39.926,33.079Z"/><path fill="#e02f56" d="M39.736 32.257c.032.107.056.219.082.33C39.791 32.476 39.769 32.364 39.736 32.257zM39.926 33.079A6.323 6.323 0 0 1 40 34 6.035 6.035 0 0 0 39.926 33.079zM39.459 31.532c.015.033.029.067.044.1C39.488 31.6 39.474 31.565 39.459 31.532z"/><path fill="#e02f56" d="M40 34a6.323 6.323 0 0 0-.074-.921h0A6.323 6.323 0 0 1 40 34zM35.6 29.145a2.647 2.647 0 0 1 .6-.12A2.594 2.594 0 0 0 35.6 29.145z"/><path fill="#e02f56" d="M39.6 33a4.154 4.154 0 0 1-1.827 3.6q.709.2 1.43.368A5.8 5.8 0 0 0 40 34a6.323 6.323 0 0 0-.074-.921c-.008-.05-.023-.1-.032-.145-.024-.116-.048-.233-.076-.347s-.05-.223-.082-.33a5.648 5.648 0 0 0-.233-.624c-.015-.034-.029-.068-.044-.1.015.033.029.067.044.1a5.648 5.648 0 0 1 .233.624c.032.107.056.219.082.33s.052.231.076.347c-.021-.118-.048-.233-.076-.347s-.05-.223-.082-.33a5.648 5.648 0 0 0-.233-.624c-.015-.034-.029-.068-.044-.1a5.48 5.48 0 0 0-.352-.646A4.73 4.73 0 0 1 39.6 33zM35.048 29.158c.091-.029.184-.052.278-.073C35.231 29.105 35.14 29.13 35.048 29.158zM35.045 29.4c.03-.018.064-.027.095-.044C35.109 29.368 35.075 29.377 35.045 29.4zM34.768 29.267c.093-.038.184-.079.28-.109C34.953 29.189 34.861 29.227 34.768 29.267zM35.326 29.085A3.213 3.213 0 0 1 36 29 3.012 3.012 0 0 0 35.326 29.085zM35.045 29.4a3.313 3.313 0 0 0-.939.835A3.327 3.327 0 0 1 35.045 29.4zM35.14 29.351a2.852 2.852 0 0 1 .459-.206A2.852 2.852 0 0 0 35.14 29.351z"/><path fill="#ff3562" d="M36 29a3.213 3.213 0 0 0-.674.085c-.094.021-.187.044-.278.073s-.187.071-.28.109a3.659 3.659 0 0 0-.668.367c-.021.015-.045.022-.066.037v.012A5.255 5.255 0 0 0 32 34c0 .168.027.327.04.491q.84.39 1.7.739A4.712 4.712 0 0 1 33.2 33a4.5 4.5 0 0 1 .906-2.77 3.313 3.313 0 0 1 .939-.835c.03-.018.064-.027.095-.044a2.852 2.852 0 0 1 .459-.206 2.594 2.594 0 0 1 .6-.12C36.132 29.021 36.068 29 36 29zM21.751 27.475a38.113 38.113 0 0 0 3.019 2.6A3.814 3.814 0 0 1 28 28c0-2.761-1.791-5-4-5A5.2 5.2 0 0 1 21.751 27.475z"/><path fill="#c2294a" d="M23.918 23.01a4.115 4.115 0 0 0-3.594 3.028c.24.255.478.512.725.761A4.67 4.67 0 0 0 23.918 23.01zM28 28a6.21 6.21 0 0 1-.081 1A6.21 6.21 0 0 0 28 28zM25.223 30.429q.776.581 1.58 1.122a5.425 5.425 0 0 0 1.114-2.541A3.643 3.643 0 0 0 25.223 30.429z"/><path fill="#e02f56" d="M21.049 26.8c.23.23.467.452.7.676A5.2 5.2 0 0 0 24 23c-.028 0-.054.01-.082.01A4.67 4.67 0 0 1 21.049 26.8zM24.77 30.073c.152.118.3.241.453.356a3.643 3.643 0 0 1 2.694-1.419l0-.007A6.21 6.21 0 0 0 28 28 3.814 3.814 0 0 0 24.77 30.073z"/><polygon fill="#a82340" points="27.918 29.01 27.919 29.003 27.917 29.01 27.918 29.01"/><path fill="#ff3562" d="M14.5,14.633a5.648,5.648,0,0,1,.233.624A5.648,5.648,0,0,0,14.5,14.633Z"/><path fill="#c2294a" d="M14.736,15.257c.032.107.056.219.082.33C14.791,15.476,14.769,15.364,14.736,15.257Z"/><path fill="#ff829d" d="M13.765,14.565a1.618,1.618,0,0,1-.069,1.811c.2.412.407.817.619,1.22a4.7,4.7,0,0,0-.2-3.69A4.044,4.044,0,0,0,12,12.165c.154.455.313.908.484,1.356C12.9,13.417,13.442,13.846,13.765,14.565Z"/><path fill="#ff5a7d" d="M14.127,13.923a5.556,5.556,0,0,1,.332.609A5.308,5.308,0,0,0,14.127,13.923Z"/><path fill="#ff5a7d" d="M14.926,16.079c-.026-.169-.068-.33-.108-.492-.026-.111-.05-.223-.082-.33a5.648,5.648,0,0,0-.233-.624c-.015-.034-.029-.068-.044-.1a5.556,5.556,0,0,0-.332-.609l-.012-.017a4.7,4.7,0,0,1,.2,3.69q.237.456.486.905A5.912,5.912,0,0,0,15,17,6.323,6.323,0,0,0,14.926,16.079Z"/><path fill="#e02f56" d="M14.107,13.886l.008.02.012.017C14.119,13.911,14.114,13.9,14.107,13.886Z"/><path fill="#ffb3c3" d="M13.765,14.565c-.323-.719-.87-1.148-1.284-1.044.369.971.771,1.924,1.215,2.855A1.618,1.618,0,0,0,13.765,14.565Z"/><path fill="#ff3562" d="M23.818,20.587c.04.162.082.323.108.492C23.9,20.91,23.857,20.75,23.818,20.587Z"/><path fill="#ff829d" d="M17.2,21a4.794,4.794,0,0,0,.314,1.7c.489.656,1,1.29,1.535,1.913A2.661,2.661,0,0,0,20.4,25c1.767,0,3.2-1.791,3.2-4a4.73,4.73,0,0,0-.493-2.114,5.48,5.48,0,0,1,.352.646A3.942,3.942,0,0,0,20,17c.068,0,.132.021.2.025C18.528,17.157,17.2,18.876,17.2,21Z"/><path fill="#ff3562" d="M23.5,19.633a5.648,5.648,0,0,1,.233.624A5.648,5.648,0,0,0,23.5,19.633Z"/><path fill="#e02f56" d="M23.736 20.257c.032.107.056.219.082.33C23.791 20.476 23.769 20.364 23.736 20.257zM23.459 19.532c.015.033.029.067.044.1C23.488 19.6 23.474 19.565 23.459 19.532zM23.926 21.079A6.323 6.323 0 0 1 24 22 6.035 6.035 0 0 0 23.926 21.079z"/><path fill="#ff3562" d="M17.2 21c0-2.124 1.328-3.843 3-3.975-.068 0-.132-.025-.2-.025-1.855 0-3.4 1.586-3.853 3.726.438.672.889 1.333 1.367 1.975A4.794 4.794 0 0 1 17.2 21zM24 22a6.323 6.323 0 0 0-.074-.921c-.026-.169-.068-.33-.108-.492-.026-.111-.05-.223-.082-.33a5.648 5.648 0 0 0-.233-.624c-.015-.034-.029-.068-.044-.1a5.48 5.48 0 0 0-.352-.646A4.73 4.73 0 0 1 23.6 21c0 2.209-1.433 4-3.2 4a2.661 2.661 0 0 1-1.351-.386c.641.754 1.306 1.487 2 2.189A4.931 4.931 0 0 0 24 22zM31.5 31.633a5.648 5.648 0 0 1 .233.624A5.648 5.648 0 0 0 31.5 31.633zM31.107 30.886c.007.011.012.025.02.037a5.431 5.431 0 0 1 .331.607v0a4.873 4.873 0 0 0-.913-1.359 4.714 4.714 0 0 1 .569.733zM31.926 33.079c-.026-.169-.069-.329-.108-.492.028.114.055.229.076.347C31.9 32.983 31.918 33.029 31.926 33.079z"/><path fill="#ff5a7d" d="M26.1,30.231a3.964,3.964,0,0,0-.367.567c.194.14.389.279.585.415A7.981,7.981,0,0,1,26.1,30.231Z"/><path fill="#ff3562" d="M30.091 29.755c.106.084.21.173.309.268A4.088 4.088 0 0 0 30.091 29.755zM28.709 29.089c.068.016.135.033.2.053C28.843 29.122 28.777 29.105 28.709 29.089zM29.432 29.344c.092.046.183.095.272.149C29.614 29.44 29.525 29.389 29.432 29.344z"/><path fill="#e02f56" d="M31.736 32.257c.032.107.056.219.082.33C31.791 32.476 31.769 32.364 31.736 32.257zM31.926 33.079A6.323 6.323 0 0 1 32 34 6.035 6.035 0 0 0 31.926 33.079zM31.459 31.532c.015.033.029.067.044.1C31.488 31.6 31.474 31.565 31.459 31.532z"/><path fill="#e02f56" d="M31.459 31.532c.015.033.029.067.044.1a5.648 5.648 0 0 1 .233.624c.032.107.056.219.082.33s.052.231.076.347c-.021-.118-.048-.233-.076-.347s-.05-.223-.082-.33a5.648 5.648 0 0 0-.233-.624c-.015-.034-.029-.068-.044-.1v0zM27.048 29.158c.091-.029.184-.052.278-.073C27.231 29.105 27.14 29.13 27.048 29.158zM31.127 30.923c-.008-.012-.013-.026-.02-.037.007.011.012.025.02.037z"/><path fill="#ff5a7d" d="M28.91 29.142a3.412 3.412 0 0 1 .522.2A3.412 3.412 0 0 0 28.91 29.142zM30.4 30.023c.051.047.1.1.146.15C30.5 30.122 30.451 30.071 30.4 30.023zM29.7 29.493a3.926 3.926 0 0 1 .387.262A3.811 3.811 0 0 0 29.7 29.493zM28 29a3.216 3.216 0 0 1 .709.089A3.216 3.216 0 0 0 28 29z"/><path fill="#ff829d" d="M27.6,29.145a2.852,2.852,0,0,0-.459.206c-.031.017-.065.026-.095.044a3.327,3.327,0,0,0-.939.835h0a7.981,7.981,0,0,0,.218.982,37.926,37.926,0,0,0,5.106,3c.013-.049.031-.094.042-.143s.035-.123.047-.187A4.855,4.855,0,0,0,31.6,33a4.723,4.723,0,0,0-.485-2.094,4.714,4.714,0,0,0-.569-.733c-.048-.05-.095-.1-.146-.15-.1-.095-.2-.184-.309-.268a3.926,3.926,0,0,0-.387-.262c-.089-.054-.18-.1-.272-.149a3.412,3.412,0,0,0-.522-.2c-.066-.02-.133-.037-.2-.053A3.216,3.216,0,0,0,28,29c.068,0,.132.021.2.025A2.647,2.647,0,0,0,27.6,29.145Z"/><path fill="#ff5a7d" d="M31.127,30.923a5.52,5.52,0,0,1,.331.607A5.431,5.431,0,0,0,31.127,30.923Z"/><polygon fill="#ff5a7d" points="26.104 30.231 26.104 30.231 26.106 30.23 26.104 30.231"/><path fill="#ff5a7d" d="M31.459 31.532v0a5.52 5.52 0 0 0-.331-.607h0A5.556 5.556 0 0 1 31.459 31.532zM27.6 29.145a2.647 2.647 0 0 1 .6-.12A2.594 2.594 0 0 0 27.6 29.145zM27.045 29.4c.03-.018.064-.027.095-.044C27.109 29.368 27.075 29.377 27.045 29.4zM31.47 34.067c.015-.063.035-.123.047-.187C31.505 33.944 31.484 34 31.47 34.067z"/><path fill="#e02f56" d="M31.973 34.461c.012-.152.027-.3.027-.461 0 .156-.026.3-.037.457zM31.428 34.21l.006 0c.012-.049.025-.1.036-.146C31.459 34.116 31.441 34.161 31.428 34.21zM31.517 33.88A4.964 4.964 0 0 0 31.6 33 4.855 4.855 0 0 1 31.517 33.88zM31.926 33.079h0c-.008-.05-.022-.1-.032-.145C31.9 32.983 31.918 33.029 31.926 33.079zM32 34a6.323 6.323 0 0 0-.074-.921h0A6.323 6.323 0 0 1 32 34z"/><path fill="#ff3562" d="M31.894,32.934c-.024-.116-.048-.233-.076-.347s-.05-.223-.082-.33a5.648,5.648,0,0,0-.233-.624c-.015-.034-.029-.068-.044-.1a5.556,5.556,0,0,0-.332-.609l-.012-.017A4.723,4.723,0,0,1,31.6,33a4.964,4.964,0,0,1-.083.88c-.012.064-.032.124-.047.187s-.024.1-.036.146c.175.084.353.162.529.244.011-.153.037-.3.037-.457a6.323,6.323,0,0,0-.074-.921C31.918,33.029,31.9,32.983,31.894,32.934Z"/><path fill="#e02f56" d="M31.107 30.886l.008.02.012.017C31.119 30.911 31.114 30.9 31.107 30.886zM26.768 29.267c.093-.038.184-.079.28-.109C26.953 29.189 26.861 29.227 26.768 29.267zM27.326 29.085A3.213 3.213 0 0 1 28 29 3.012 3.012 0 0 0 27.326 29.085zM27.14 29.351a2.852 2.852 0 0 1 .459-.206A2.852 2.852 0 0 0 27.14 29.351zM27.045 29.4a3.313 3.313 0 0 0-.939.835A3.327 3.327 0 0 1 27.045 29.4z"/><path fill="#ff3562" d="M28,29a3.213,3.213,0,0,0-.674.085c-.094.021-.187.044-.278.073s-.187.071-.28.109a3.816,3.816,0,0,0-.734.4v.008a3.967,3.967,0,0,0-.822.743c.172.129.35.249.524.376a3.964,3.964,0,0,1,.367-.567h0a3.313,3.313,0,0,1,.939-.835c.03-.018.064-.027.095-.044a2.852,2.852,0,0,1,.459-.206,2.594,2.594,0,0,1,.6-.12C28.132,29.021,28.068,29,28,29Z"/><ellipse cx="30" cy="32" fill="#ffb3c3" rx=".874" ry="1.576" transform="rotate(-21.733 30 32.001)"/><ellipse cx="38" cy="32" fill="#f6fafd" rx=".874" ry="1.576" transform="rotate(-21.733 38 32)"/><ellipse cx="22" cy="20" fill="#f6fafd" rx=".874" ry="1.576" transform="rotate(-21.733 22 20)"/><ellipse cx="38" cy="15" fill="#f6fafd" rx="1.65" ry="2.297" transform="rotate(-45.02 38 15)"/><ellipse cx="30" cy="19" fill="#f6fafd" rx=".825" ry="1.148" transform="rotate(-45.02 30 19)"/><ellipse cx="26" cy="14" fill="#f6fafd" rx=".825" ry="1.148" transform="rotate(-45.02 26 14)"/><ellipse cx="21" cy="23" fill="#f6fafd" rx=".825" ry="1.148" transform="rotate(-45.02 21 23)"/><ellipse cx="32" cy="11" fill="#f6fafd" rx=".825" ry="1.148" transform="rotate(-45.02 32 11)"/><ellipse cx="37.746" cy="18.5" fill="#f6fafd" rx=".413" ry=".574" transform="rotate(-45.02 37.746 18.5)"/><ellipse cx="32.746" cy="5.5" fill="#f6fafd" rx=".413" ry=".574" transform="rotate(-45.02 32.745 5.5)"/><ellipse cx="23.746" cy="12.5" fill="#f6fafd" rx=".413" ry=".574" transform="rotate(-45.02 23.746 12.5)"/><ellipse cx="36.746" cy="34.5" fill="#f6fafd" rx=".413" ry=".574" transform="rotate(-45.02 36.745 34.5)"/></g></svg>