<svg xmlns="http://www.w3.org/2000/svg" viewBox="0 0 48 48"><g data-name="03-grapefruit"><circle cx="17" cy="23" r="16" fill="#fc6b00"/><path fill="#527710" d="M21,9c0-4.422,1.273-8,10-8C31,7,27.633,9,21,9Z"/><path fill="#2f4700" d="M20,13a1,1,0,0,1-1-1c0-.112.01-.292.024-.526.109-1.735.437-7.013-3.4-8.545a1,1,0,1,1,.742-1.858c3.435,1.374,5,4.916,4.65,10.527-.011.179-.021.316-.021.4A1,1,0,0,1,20,13Z"/><circle cx="31" cy="31" r="16" fill="#fdf48b"/><path fill="#f8695b" d="M33.121,28.879l4.806-4.806a2.013,2.013,0,0,0-.346-3.109,11.936,11.936,0,0,0-4.245-1.737A1.988,1.988,0,0,0,31,21.2V28A2.991,2.991,0,0,1,33.121,28.879Z"/><path fill="#de3f2e" d="M31,28V21.2a1.988,1.988,0,0,0-2.336-1.974,11.936,11.936,0,0,0-4.245,1.737,2.013,2.013,0,0,0-.346,3.109l4.806,4.806A2.991,2.991,0,0,1,31,28Z"/><path fill="#f8695b" d="M28.879,28.879l-4.806-4.806a2.013,2.013,0,0,0-3.109.346,11.936,11.936,0,0,0-1.737,4.245A1.988,1.988,0,0,0,21.2,31H28A2.991,2.991,0,0,1,28.879,28.879Z"/><path fill="#de3f2e" d="M34,31h6.8a1.988,1.988,0,0,0,1.974-2.336,11.936,11.936,0,0,0-1.737-4.245,2.013,2.013,0,0,0-3.109-.346l-4.806,4.806A2.991,2.991,0,0,1,34,31Z"/><path fill="#f8695b" d="M34,31a2.991,2.991,0,0,1-.879,2.121l4.806,4.806a2.012,2.012,0,0,0,3.109-.347,11.924,11.924,0,0,0,1.737-4.244A1.988,1.988,0,0,0,40.8,31Z"/><path fill="#de3f2e" d="M31 34v6.8a1.988 1.988 0 0 0 2.336 1.974 11.936 11.936 0 0 0 4.245-1.737 2.013 2.013 0 0 0 .346-3.109l-4.806-4.806A2.991 2.991 0 0 1 31 34zM28 31H21.2a1.988 1.988 0 0 0-1.974 2.336 11.924 11.924 0 0 0 1.737 4.244 2.012 2.012 0 0 0 3.109.347l4.806-4.806A2.991 2.991 0 0 1 28 31z"/><path fill="#f8695b" d="M28.879,33.121l-4.806,4.806a2.013,2.013,0,0,0,.346,3.109,11.936,11.936,0,0,0,4.245,1.737A1.988,1.988,0,0,0,31,40.8V34A2.991,2.991,0,0,1,28.879,33.121Z"/><circle cx="31" cy="31" r="3" fill="#f84634"/><circle cx="17" cy="23" r="16" fill="#fc6b00"/><path fill="#de3f2e" d="M5,20A15.937,15.937,0,0,1,9.534,8.854,15.995,15.995,0,1,0,28.466,34.146,15.992,15.992,0,0,1,5,20Z"/><path fill="#527710" d="M21,9c0-4.422,1.273-8,10-8C31,7,27.633,9,21,9Z"/><ellipse cx="17" cy="15" fill="#de3f2e" rx="5.404" ry="1.668" transform="rotate(-45 17 15)"/><path fill="#2f4700" d="M20,13a1,1,0,0,1-1-1c0-.112.01-.292.024-.526.109-1.735.437-7.013-3.4-8.545a1,1,0,1,1,.742-1.858c3.435,1.374,5,4.916,4.65,10.527-.011.179-.021.316-.021.4A1,1,0,0,1,20,13Z"/><path fill="#3f7000" d="M16.371,1.071a.989.989,0,0,0-1.16.345C18.579,2.858,20.9,6.583,20.021,11.6A2,2,0,0,0,20,12a.985.985,0,0,1-.5.847A.977.977,0,0,0,20,13a1,1,0,0,0,1-1c0-.086.01-.223.021-.4C21.37,5.987,19.806,2.445,16.371,1.071Z"/><path fill="#de3f2e" d="M17.153,38.992A15.975,15.975,0,0,1,30.847,15.008c-.062-.107-.128-.21-.192-.315a15.98,15.98,0,0,0-18.31,23.614A15.97,15.97,0,0,0,17,39C17.052,39,17.1,38.993,17.153,38.992Z"/><path fill="#589e00" d="M21,9,31,1C22.273,1,21,4.578,21,9Z"/><circle cx="31" cy="31" r="16" fill="#fc6b00"/><circle cx="31" cy="31" r="15" fill="#ff9c26"/><circle cx="31" cy="31" r="14" fill="#fdf48b"/><path fill="#f8695b" d="M33.121,28.879l4.806-4.806a2.013,2.013,0,0,0-.346-3.109,11.936,11.936,0,0,0-4.245-1.737A1.988,1.988,0,0,0,31,21.2V28A2.991,2.991,0,0,1,33.121,28.879Z"/><path fill="#de3f2e" d="M31,28V21.2a1.988,1.988,0,0,0-2.336-1.974,11.936,11.936,0,0,0-4.245,1.737,2.013,2.013,0,0,0-.346,3.109l4.806,4.806A2.991,2.991,0,0,1,31,28Z"/><path fill="#f8695b" d="M28.879,28.879l-4.806-4.806a2.013,2.013,0,0,0-3.109.346,11.936,11.936,0,0,0-1.737,4.245A1.988,1.988,0,0,0,21.2,31H28A2.991,2.991,0,0,1,28.879,28.879Z"/><path fill="#de3f2e" d="M34,31h6.8a1.988,1.988,0,0,0,1.974-2.336,11.936,11.936,0,0,0-1.737-4.245,2.013,2.013,0,0,0-3.109-.346l-4.806,4.806A2.991,2.991,0,0,1,34,31Z"/><path fill="#f8695b" d="M34,31a2.991,2.991,0,0,1-.879,2.121l4.806,4.806a2.012,2.012,0,0,0,3.109-.347,11.924,11.924,0,0,0,1.737-4.244A1.988,1.988,0,0,0,40.8,31Z"/><path fill="#de3f2e" d="M31 34v6.8a1.988 1.988 0 0 0 2.336 1.974 11.936 11.936 0 0 0 4.245-1.737 2.013 2.013 0 0 0 .346-3.109l-4.806-4.806A2.991 2.991 0 0 1 31 34zM28 31H21.2a1.988 1.988 0 0 0-1.974 2.336 11.924 11.924 0 0 0 1.737 4.244 2.012 2.012 0 0 0 3.109.347l4.806-4.806A2.991 2.991 0 0 1 28 31z"/><path fill="#f8695b" d="M28.879,33.121l-4.806,4.806a2.013,2.013,0,0,0,.346,3.109,11.936,11.936,0,0,0,4.245,1.737A1.988,1.988,0,0,0,31,40.8V34A2.991,2.991,0,0,1,28.879,33.121Z"/><circle cx="31" cy="31" r="3" fill="#f84634"/><circle cx="31" cy="31" r="2" fill="#fdf1c1"/><path fill="#fc6b00" d="M17.542 22.369c.057-.09.107-.186.167-.275C17.649 22.183 17.6 22.279 17.542 22.369zM18.509 21.015c.038-.047.071-.1.11-.146C18.58 20.916 18.547 20.968 18.509 21.015zM19.6 19.78c.013-.013.024-.028.037-.041C19.625 19.752 19.614 19.767 19.6 19.78z"/><path fill="#ff9202" d="M21.021 11.6c-.011.179-.021.316-.021.4a.982.982 0 0 1-.224.605 11.513 11.513 0 0 1-2.33 3.291 15.99 15.99 0 0 1 12.209-1.2l.058.1a16.049 16.049 0 0 0-6.392-6 22.975 22.975 0 0 1-3.3.216A21.592 21.592 0 0 1 21.021 11.6zM21.061 7.54l-.193-.049c.065.421.1.871.136 1.33C21.007 8.385 21.025 7.957 21.061 7.54zM15.82 13.82a13.018 13.018 0 0 1 3.209-2.43A15.468 15.468 0 0 0 18.8 7.108a15.764 15.764 0 0 0-7.9 1.1 37.734 37.734 0 0 0 2.824 8.222A14.4 14.4 0 0 1 15.82 13.82z"/><path fill="#527710" d="M22.336,7.931l-1.32,1.056V9a22.975,22.975,0,0,0,3.3-.216C28.754,8.129,31,5.9,31,1Z"/><path fill="#2f4700" d="M15.465 1.178a1 1 0 0 1 .234-.117A1 1 0 0 0 15.465 1.178zM15.211 1.416a1.019 1.019 0 0 1 .22-.215A.935.935 0 0 0 15.211 1.416zM15.839 1.031a.976.976 0 0 1 .179-.024A.976.976 0 0 0 15.839 1.031zM19.7 12.939a1.317 1.317 0 0 1-.2-.092A.963.963 0 0 0 19.7 12.939z"/><path fill="#3f7000" d="M19.967 7.286a8.2 8.2 0 0 0-4.756-5.87.951.951 0 0 0-.14.212 1 1 0 0 0 .558 1.3A5.45 5.45 0 0 1 18.8 7.108a15.468 15.468 0 0 1 .229 4.282l0 .084c-.014.234-.024.414-.024.526a.985.985 0 0 0 .5.847A.985.985 0 0 0 20 12a2 2 0 0 1 .021-.4c.034-.2.055-.386.079-.578A10.77 10.77 0 0 0 19.967 7.286zM16.018 1.007a.987.987 0 0 1 .353.064A.949.949 0 0 0 16.018 1.007zM15.7 1.061a1.088 1.088 0 0 1 .14-.03A1.088 1.088 0 0 0 15.7 1.061zM15.431 1.2l.034-.023A.339.339 0 0 0 15.431 1.2zM20 13a.984.984 0 0 1-.3-.061A.843.843 0 0 0 20 13z"/><polygon fill="#3f7000" points="19.5 12.847 19.5 12.847 19.5 12.847 19.5 12.847"/><path fill="#3f7000" d="M21,9h.017V8.987Z"/><path fill="#589e00" d="M21.017,9H21c0-.06,0-.119,0-.179-.032-.459-.071-.909-.136-1.33-.5-3.258-2-5.42-4.5-6.42a.987.987,0,0,0-.353-.064.976.976,0,0,0-.179.024,1.088,1.088,0,0,0-.14.03,1,1,0,0,0-.234.117l-.034.023a1.019,1.019,0,0,0-.22.215,8.2,8.2,0,0,1,4.756,5.87A10.77,10.77,0,0,1,20.1,11.02c-.024.192-.045.382-.079.578A2,2,0,0,0,20,12a.985.985,0,0,1-.5.847h0a1.317,1.317,0,0,0,.2.092A1.012,1.012,0,0,0,21,12c0-.086.01-.223.021-.4A21.592,21.592,0,0,0,21.017,9Z"/><path fill="#de3f2e" d="M30.847,15.008c-.043-.075-.089-.147-.134-.22.044.073.091.145.134.22Z"/><path fill="#f84634" d="M30.713,14.788l-.058-.1a15.99,15.99,0,0,0-12.209,1.2,11.513,11.513,0,0,0,2.33-3.291A.983.983,0,0,1,20,13a.843.843,0,0,1-.3-.061.963.963,0,0,1-.2-.092h0A.985.985,0,0,1,19,12c0-.112.01-.292.024-.526l0-.084a13.018,13.018,0,0,0-3.209,2.43,14.4,14.4,0,0,0-2.1,2.613c.346.721.721,1.426,1.11,2.121l.054.094a38.128,38.128,0,0,0,2.534,3.921c.041-.067.079-.135.122-.2.057-.09.107-.186.167-.275.25-.373.521-.729.8-1.079.038-.047.071-.1.11-.146.31-.378.639-.741.982-1.089.013-.013.024-.028.037-.041a15.943,15.943,0,0,1,11.209-4.731C30.8,14.933,30.757,14.861,30.713,14.788Z"/><path fill="#589e00" d="M21.061,7.54c-.036.417-.054.845-.057,1.281,0,.056.009.11.012.166l1.32-1.056L31,1C23.258,1,21.386,3.818,21.061,7.54Z"/><path fill="#589e00" d="M21,8.821c0,.06,0,.119,0,.179l.016-.013C21.013,8.931,21.007,8.877,21,8.821Z"/><path fill="#ff9202" d="M31,15c-.052,0-.1.007-.153.008a15.957,15.957,0,0,0-11.209,4.731c-.013.013-.024.028-.037.041-.343.348-.672.711-.982,1.089-.039.047-.072.1-.11.146-.279.35-.55.706-.8,1.079-.06.089-.11.185-.167.275-.043.065-.08.134-.122.2.213.287.434.567.653.848A14.981,14.981,0,0,1,31,16c.128,0,.252.016.38.019a14.971,14.971,0,0,1,12.968,21.8c.354.034.712.057,1.069.081A15.971,15.971,0,0,0,31,15Z"/><path fill="#fc6b00" d="M17.542 22.369c-.043.065-.081.133-.122.2h0C17.462 22.5 17.5 22.434 17.542 22.369zM18.619 20.869c.31-.378.639-.741.982-1.089C19.258 20.128 18.929 20.491 18.619 20.869zM17.709 22.094c.25-.373.521-.729.8-1.079C18.23 21.365 17.959 21.721 17.709 22.094zM30.847 15.008a15.943 15.943 0 0 0-11.209 4.731 15.957 15.957 0 0 1 11.209-4.731z"/><path fill="#faba01" d="M31.38,16.019c-.128,0-.252-.019-.38-.019a14.981,14.981,0,0,0-12.927,7.417c.219.28.436.562.662.835A13.994,13.994,0,0,1,31,17c.284,0,.562.026.842.042A13.988,13.988,0,0,1,43.294,37.7c.35.043.7.088,1.054.122a14.971,14.971,0,0,0-12.968-21.8Z"/><path fill="#fdf1c1" d="M33.121 33.121a2.99 2.99 0 0 1-1.516.818A2.99 2.99 0 0 0 33.121 33.121zM33.939 31.605a2.99 2.99 0 0 1-.818 1.516A2.99 2.99 0 0 0 33.939 31.605zM33.121 28.879a2.99 2.99 0 0 1 .818 1.516A2.99 2.99 0 0 0 33.121 28.879zM33.121 28.879a3.015 3.015 0 0 0-1.009-.661h0A3 3 0 0 1 33.121 28.879zM28.061 31.605a2.987 2.987 0 0 0 .415 1.006h0A2.987 2.987 0 0 1 28.061 31.605zM32.112 28.218a2.982 2.982 0 0 0-.507-.157 2.9 2.9 0 0 1 .507.158zM28.879 28.879a2.99 2.99 0 0 1 1.516-.818A2.99 2.99 0 0 0 28.879 28.879z"/><path fill="#fdf1c1" d="M31.842,17.042C31.562,17.026,31.284,17,31,17a13.994,13.994,0,0,0-12.265,7.252c.46.554.939,1.091,1.429,1.618a12.018,12.018,0,0,1,.8-1.451,2.013,2.013,0,0,1,3.109-.346,2.013,2.013,0,0,1,.346-3.109,11.918,11.918,0,0,1,4.245-1.737A1.988,1.988,0,0,1,31,21.2a2.01,2.01,0,0,1,1.539-1.953,1.871,1.871,0,0,1,.8-.021,11.925,11.925,0,0,1,4.245,1.737,2.013,2.013,0,0,1,.346,3.109,2.013,2.013,0,0,1,3.109.346,11.936,11.936,0,0,1,1.737,4.245A1.988,1.988,0,0,1,40.8,31a1.988,1.988,0,0,1,1.974,2.336,11.909,11.909,0,0,1-1.615,4.039q1.057.192,2.136.325A13.988,13.988,0,0,0,31.842,17.042Z"/><path fill="#fdf1c1" d="M28.061,30.4a2.99,2.99,0,0,1,.818-1.516A2.99,2.99,0,0,0,28.061,30.4Z"/><path fill="#fe9a82" d="M37.581,20.964a11.925,11.925,0,0,0-4.245-1.737,1.871,1.871,0,0,0-.8.021A2.01,2.01,0,0,0,31,21.2V28a3.021,3.021,0,0,1,.605.061,2.982,2.982,0,0,1,.507.157,3.015,3.015,0,0,1,1.009.661l4.806-4.806A2.013,2.013,0,0,0,37.581,20.964Z"/><path fill="#f84634" d="M30.4,28.061A3.021,3.021,0,0,1,31,28V21.2a1.988,1.988,0,0,0-2.336-1.974,11.918,11.918,0,0,0-4.245,1.737,2.013,2.013,0,0,0-.346,3.109l4.806,4.806A2.99,2.99,0,0,1,30.4,28.061Z"/><path fill="#fe9a82" d="M26.022,31H28a3.021,3.021,0,0,1,.061-.605,2.99,2.99,0,0,1,.818-1.516l-4.806-4.806a2.013,2.013,0,0,0-3.109.346,12.018,12.018,0,0,0-.8,1.451A38.159,38.159,0,0,0,26.022,31Z"/><path fill="#f84634" d="M33.939,30.4A3.021,3.021,0,0,1,34,31h6.8a1.988,1.988,0,0,0,1.974-2.336,11.936,11.936,0,0,0-1.737-4.245,2.013,2.013,0,0,0-3.109-.346l-4.806,4.806A2.99,2.99,0,0,1,33.939,30.4Z"/><path fill="#fe9a82" d="M33.939,31.605a2.99,2.99,0,0,1-.818,1.516l2.968,2.968a37.8,37.8,0,0,0,5.069,1.286,11.909,11.909,0,0,0,1.615-4.039A1.988,1.988,0,0,0,40.8,31H34A3.021,3.021,0,0,1,33.939,31.605Z"/><path fill="#f84634" d="M31.015 34a37.739 37.739 0 0 0 5.074 2.091l-2.968-2.968A2.963 2.963 0 0 1 31.015 34zM28.061 31.605A3.021 3.021 0 0 1 28 31H26.022c.8.566 1.613 1.106 2.454 1.611A2.987 2.987 0 0 1 28.061 31.605z"/><path fill="#f8695b" d="M33.939,30.4a2.981,2.981,0,0,0-1.827-2.176,2.9,2.9,0,0,0-.507-.158,3.031,3.031,0,0,0-1.21,0A3.006,3.006,0,0,0,28.061,30.4a3.031,3.031,0,0,0,0,1.21,2.987,2.987,0,0,0,.415,1.006c.3.178.6.349.905.52q.805.453,1.634.867a3,3,0,0,0,2.924-3.6ZM31,33a2.021,2.021,0,0,1-2-2,2,2,0,1,1,2,2Z"/><path fill="#fdfdd7" d="M31.77,29.154A2,2,0,1,0,33,31,1.993,1.993,0,0,0,31.77,29.154Z"/><ellipse cx="35" cy="23" fill="#f6fafd" rx="1.65" ry="2.297" transform="rotate(-45.02 35 23)"/><ellipse cx="38" cy="27" fill="#f6fafd" rx=".825" ry="1.148" transform="rotate(-45.02 38 27)"/><ellipse cx="35.746" cy="27.5" fill="#f6fafd" rx=".413" ry=".574" transform="rotate(-45.02 35.745 27.5)"/><ellipse cx="27" cy="13" fill="#f8ef00" rx=".825" ry="1.148" transform="rotate(-45.02 27 13)"/><ellipse cx="24.746" cy="12.5" fill="#f8ef00" rx=".413" ry=".574" transform="rotate(-45.02 24.745 12.5)"/><ellipse cx="26.746" cy="2.5" fill="#f6fafd" rx=".574" ry=".413" transform="rotate(-44.98 26.746 2.5)"/></g></svg>