<svg xmlns="http://www.w3.org/2000/svg" viewBox="0 0 48 48"><g data-name="14-mango"><path fill="#8bc808" d="M28,1c0,3.32-2.24,6-5,6H14C14,3.73,19,1,28,1Z"/><path fill="#ffaf12" d="M15,7A14.126,14.126,0,0,1,29,21c0,14.56-6.26,26-14,26a5.929,5.929,0,0,1-6-5.85c0-3.3.1-5.67-.29-7.41a3.781,3.781,0,0,0-1.59-2.29C3.52,29.07,1,25.6,1,21A14.126,14.126,0,0,1,15,7Z"/><path fill="#f8ef00" d="M47,33c0,7.73-5.37,14-12,14S23,40.73,23,33c0-12.71,4.03-23,9-23C42,10,47,19.73,47,33Z"/><path fill="#8bc808" d="M28,1c0,3.32-2.24,6-5,6H14C14,3.73,19,1,28,1Z"/><path fill="#ffaf12" d="M15,7A14.126,14.126,0,0,1,29,21c0,14.56-6.26,26-14,26a5.929,5.929,0,0,1-6-5.85c0-3.3.1-5.67-.29-7.41a3.781,3.781,0,0,0-1.59-2.29C3.52,29.07,1,25.6,1,21A14.126,14.126,0,0,1,15,7Z"/><path fill="#ff7f00" d="M18,40.714a4.658,4.658,0,0,1-4.714-4.6,31.279,31.279,0,0,0-.228-5.822,2.975,2.975,0,0,0-1.249-1.8C8.98,26.626,7,23.9,7,20.286a10.971,10.971,0,0,1,20.549-5.379A14.086,14.086,0,0,0,15,7,14.126,14.126,0,0,0,1,21c0,4.6,2.52,8.07,6.12,10.45a3.781,3.781,0,0,1,1.59,2.29c.39,1.74.29,4.11.29,7.41A5.929,5.929,0,0,0,15,47c7.74,0,14-11.44,14-26,0-.082-.011-.162-.013-.244C28.853,31.969,24,40.714,18,40.714Z"/><path fill="#e86300" d="M11,41.15c0-3.3.1-5.67-.29-7.41a3.781,3.781,0,0,0-1.59-2.29C5.52,29.07,3,25.6,3,21A14.128,14.128,0,0,1,16.1,7.047C15.738,7.018,15.371,7,15,7A14.126,14.126,0,0,0,1,21c0,4.6,2.52,8.07,6.12,10.45a3.781,3.781,0,0,1,1.59,2.29c.39,1.74.29,4.11.29,7.41A5.929,5.929,0,0,0,15,47a7.72,7.72,0,0,0,1.055-.08A5.9,5.9,0,0,1,11,41.15Z"/><path fill="#ffd417" d="M15,7a13.919,13.919,0,0,0-9.9,4.172C6.142,22.9,15.488,33,27.175,33.924A44.493,44.493,0,0,0,29,21,14.126,14.126,0,0,0,15,7Z"/><path fill="#ffa008" d="M18 9.286a11.052 11.052 0 0 1 9.549 5.621A14.086 14.086 0 0 0 15 7a13.919 13.919 0 0 0-9.9 4.172 25.294 25.294 0 0 0 1.988 7.8A11.107 11.107 0 0 1 18 9.286zM28.987 20.756a31.815 31.815 0 0 1-2.74 13.078c.308.037.618.065.928.09A44.493 44.493 0 0 0 29 21C29 20.918 28.989 20.838 28.987 20.756z"/><ellipse cx="24" cy="18" fill="#f8ef00" rx="3.854" ry="5.111" transform="rotate(-18.532 24 17.998)"/><ellipse cx="19" cy="12" fill="#f8ef00" rx="1.453" ry="2.034" transform="rotate(-15.112 19.002 11.999)"/><path fill="#63b300" d="M14.037,6.619A3.052,3.052,0,0,0,14,7h9c2.76,0,5-2.68,5-6C20.343,7.7,14.521,4.037,14.037,6.619Z"/><path fill="#faba01" d="M23.27,27.36l.71.95c-.3.51-.6,1.02-.9,1.54C23.13,29,23.19,28.17,23.27,27.36Z"/><path fill="#ffd417" d="M46.96,30.93c.03.68.04,1.37.04,2.07,0,.34-.01.68-.04,1.02a34.057,34.057,0,0,0-5.67,3.7,38.516,38.516,0,0,0-3.35-5.67,65.348,65.348,0,0,1,6.3-5.07C45.79,29.05,46.75,30.6,46.96,30.93Z"/><path fill="#faba01" d="M46.38,25.44a40.7,40.7,0,0,1,.58,5.49c-.21-.33-1.17-1.88-2.72-3.95Z"/><path fill="#ffd417" d="M44.57 19.11a28.26 28.26 0 0 1 1.81 6.33l-2.14 1.54a61.608 61.608 0 0 0-4.39-5.26A15.7 15.7 0 0 1 44.57 19.11zM46.96 34.02a14.844 14.844 0 0 1-3.98 9.43 16.321 16.321 0 0 0-1.69-5.73A34.057 34.057 0 0 1 46.96 34.02z"/><path fill="#ffd417" d="M40.53 13.19a16.657 16.657 0 0 1 4.04 5.92 15.7 15.7 0 0 0-4.72 2.61 41.17 41.17 0 0 0-5.7-5.1A33.97 33.97 0 0 1 40.53 13.19zM39.85 21.72a61.608 61.608 0 0 1 4.39 5.26 65.348 65.348 0 0 0-6.3 5.07 53.02 53.02 0 0 0-4.06-5.07A53.851 53.851 0 0 1 39.85 21.72zM41.29 37.72a16.321 16.321 0 0 1 1.69 5.73 11.429 11.429 0 0 1-5.25 3.19l-2.5-3.34A56.9 56.9 0 0 1 41.29 37.72z"/><path fill="#ffd417" d="M37.94,32.05a38.516,38.516,0,0,1,3.35,5.67,56.9,56.9,0,0,0-6.06,5.58l-3.56-4.75A86.926,86.926,0,0,1,37.94,32.05Z"/><path fill="#ffaf12" d="M35.23,43.3l2.5,3.34A10.7,10.7,0,0,1,35,47a10.18,10.18,0,0,1-2.71-.36C32.76,46.06,33.8,44.82,35.23,43.3Z"/><path fill="#ffd417" d="M33.88 26.98a53.02 53.02 0 0 1 4.06 5.07 86.926 86.926 0 0 0-6.27 6.5l-3.71-4.93A84.921 84.921 0 0 1 33.88 26.98zM39.85 21.72a53.851 53.851 0 0 0-5.97 5.26 45.189 45.189 0 0 0-5.42-5.15 28.372 28.372 0 0 1 5.69-5.21A41.17 41.17 0 0 1 39.85 21.72z"/><path fill="#ffaf12" d="M31.67,38.55l3.56,4.75c-1.43,1.52-2.47,2.76-2.94,3.34a11.367,11.367,0,0,1-5.03-2.95C28.9,41.72,30.35,40.03,31.67,38.55Z"/><path fill="#ffd417" d="M40.53,13.19a33.97,33.97,0,0,0-6.38,3.43,22.757,22.757,0,0,0-6.69-3.48C28.79,11.14,30.35,10,32,10A12.32,12.32,0,0,1,40.53,13.19Z"/><path fill="#ffaf12" d="M27.96,33.62l3.71,4.93c-1.32,1.48-2.77,3.17-4.41,5.14a13.829,13.829,0,0,1-3.16-4.84C25.26,37.12,26.57,35.35,27.96,33.62Z"/><path fill="#ffd417" d="M34.15,16.62a28.372,28.372,0,0,0-5.69,5.21,22.636,22.636,0,0,0-3.7-2.47,22.588,22.588,0,0,1,2.7-6.22A22.757,22.757,0,0,1,34.15,16.62Z"/><path fill="#ffd417" d="M28.46,21.83a45.189,45.189,0,0,1,5.42,5.15,84.921,84.921,0,0,0-5.92,6.64l-3.98-5.31A45.77,45.77,0,0,1,28.46,21.83Z"/><path fill="#ffaf12" d="M23.98,28.31l3.98,5.31c-1.39,1.73-2.7,3.5-3.86,5.23A15.777,15.777,0,0,1,23,33c0-1.07.03-2.12.08-3.15C23.38,29.33,23.68,28.82,23.98,28.31Z"/><path fill="#ffd417" d="M24.76,19.36a22.636,22.636,0,0,1,3.7,2.47,45.77,45.77,0,0,0-4.48,6.48l-.71-.95A44.363,44.363,0,0,1,24.76,19.36Z"/><path fill="#f8ef00" d="M34,14v2.518c.049.035.1.066.15.1a33.97,33.97,0,0,1,6.38-3.43,12.257,12.257,0,0,0-2.273-1.622Z"/><path fill="#faba01" d="M28.614 11.692A10.3 10.3 0 0 0 27.46 13.14 22.569 22.569 0 0 1 34 16.518V14zM40 20s-2.281-2.736-4.071-4.513c-.619.368-1.218.743-1.779 1.133a41.17 41.17 0 0 1 5.7 5.1l.029-.021.152-1.718z"/><path fill="#f8ef00" d="M43.881,17.672l-3.85,2.309L39.879,21.7A15.662,15.662,0,0,1,44.57,19.11C44.357,18.61,44.122,18.137,43.881,17.672Z"/><path fill="#faba01" d="M25.175,18.058c-.142.426-.285.85-.415,1.3A22.471,22.471,0,0,1,28.4,21.782L28,19Z"/><path fill="#f8ef00" d="M34.15 16.62c-.447-.325-.905-.631-1.366-.928C30.71 16.968 28 19 28 19l.4 2.782c.021.017.042.031.063.048A28.372 28.372 0 0 1 34.15 16.62zM38.743 20.585A19.381 19.381 0 0 0 34 25v1.863a53.512 53.512 0 0 1 5.85-5.143C39.494 21.341 39.121 20.962 38.743 20.585z"/><path fill="#faba01" d="M29.575 20.575c-.384.412-.759.829-1.115 1.255a45.189 45.189 0 0 1 5.42 5.15l.12-.117V25zM45 25l-3.517-4.4c-.529.334-1.07.7-1.633 1.116a61.39 61.39 0 0 1 4.3 5.14 5.149 5.149 0 0 1 .958-1.895z"/><path fill="#f8ef00" d="M44.148,26.86c.029.039.063.082.092.12l2.14-1.54c-.05-.288-.112-.563-.167-.844l-1.107.369A5.149,5.149,0,0,0,44.148,26.86Z"/><path fill="#f8ef00" d="M43.22,25.65l-5.179,4.316C38.017,30.619,38,31.29,38,32a65.392,65.392,0,0,1,6.24-5.017C43.925,26.557,43.582,26.11,43.22,25.65Z"/><path fill="#faba01" d="M38 30l-3.163-3.954c-.319.309-.637.613-.957.934a53.02 53.02 0 0 1 4.06 5.07c.02-.019.04-.035.06-.053 0-.707.017-1.378.041-2.031zM24 26l-.506-.506c-.083.612-.161 1.231-.224 1.866l.587.785.2-2.249z"/><path fill="#f8ef00" d="M28.46 21.83c-.471-.377-.933-.718-1.389-1.04A39.984 39.984 0 0 0 24.052 25.9l-.2 2.249.123.165A45.77 45.77 0 0 1 28.46 21.83zM32.609 25.623l-4.577 5.339c-.013.849-.022 1.718-.026 2.6A84.869 84.869 0 0 1 33.88 26.98Q33.251 26.284 32.609 25.623z"/><path fill="#faba01" d="M28,31l-3.214-4.017c-.271.439-.541.878-.806,1.327l3.98,5.31.046-.056c0-.884.013-1.753.026-2.6Z"/><path fill="#f8ef00" d="M32.161,35.809l-.51,2.716.019.025a86.926,86.926,0,0,1,6.27-6.5c-.328-.466-.69-.92-1.037-1.38C34.993,32.488,32.754,35.106,32.161,35.809Z"/><path fill="#faba01" d="M32 36l-2.956-3.695c-.364.436-.729.873-1.084 1.315l3.691 4.905.51-2.716C32.064 35.923 32 36 32 36zM39.434 30.724c-.49.421-.985.857-1.494 1.326a38.857 38.857 0 0 1 3.214 5.4 9.14 9.14 0 0 1 .828-2.481z"/><path fill="#f8ef00" d="M42,35l-.018-.031a9.14,9.14,0,0,0-.828,2.481c.044.09.094.181.136.27a34.057,34.057,0,0,1,5.67-3.7c.03-.34.04-.68.04-1.02,0-.7-.01-1.39-.04-2.07l-.106-.168A28.166,28.166,0,0,0,42,35Z"/><path fill="#faba01" d="M33.034,37.034c-.44.482-.89.981-1.364,1.516l3.56,4.75c.039-.042.087-.088.127-.13.152-1.085.35-2.169.588-3.225Z"/><path fill="#f8ef00" d="M36,40l-.055-.055c-.238,1.056-.436,2.14-.588,3.225a56.5,56.5,0,0,1,5.933-5.45c-.243-.518-.514-1.042-.8-1.57Z"/><path fill="#faba01" d="M43.244 36.276c-.666.465-1.322.944-1.954 1.444a16.321 16.321 0 0 1 1.69 5.73 13.584 13.584 0 0 0 1.493-1.866A5.857 5.857 0 0 0 43.244 36.276zM35.23 43.3l2.5 3.34a10.571 10.571 0 0 0 1.629-.6L36.6 41.9C36.113 42.383 35.652 42.854 35.23 43.3z"/><path fill="#ffd417" d="M27.919,33.565,23.98,28.31c-.3.51-.6,1.02-.9,1.54-.008.158-.006.325-.012.485L25.837,33.8Z"/><path fill="#f8ef00" d="M25.837,33.8,26,34l-2.466,3.083A15.3,15.3,0,0,0,24.1,38.85c1.16-1.73,2.47-3.5,3.86-5.23l-.041-.055Z"/><path fill="#ffd417" d="M26.73,35.216,29,39l-.081.081c.929-.167,1.847-.35,2.741-.544l-3.7-4.917C27.536,34.148,27.137,34.683,26.73,35.216Z"/><path fill="#f8ef00" d="M25.9,42.1A12.967,12.967,0,0,0,27.26,43.69c1.64-1.97,3.09-3.66,4.41-5.14l-.01-.013c-.894.194-1.812.377-2.741.544Z"/><path fill="#ffd417" d="M35.005,43,31.67,38.55c-.351.394-.714.8-1.085,1.231L33,43Z"/><path fill="#f8ef00" d="M33,43l-2.3,3.06a10.622,10.622,0,0,0,1.585.58c.47-.58,1.51-1.82,2.94-3.34l-.225-.3Z"/><path fill="#ffd417" d="M35.23,43.3q-.52.553-.968,1.05l1.928,2.57a10.948,10.948,0,0,0,1.54-.28Z"/><path fill="#e86300" d="M19.016,31.663Q19,32.326,19,33a15.72,15.72,0,0,0,1.667,7.094,9.315,9.315,0,0,0,3.055-2.348,16.027,16.027,0,0,1-.714-4.562A22.8,22.8,0,0,1,19.016,31.663Z"/><path fill="#cc5700" d="M23.722,37.746a9.315,9.315,0,0,1-3.055,2.348,13.97,13.97,0,0,0,1.886,2.846,19.96,19.96,0,0,0,2.055-2.961A15.068,15.068,0,0,1,23.722,37.746Z"/><path fill="#ff7f00" d="M23.008,33.184c0-.062-.008-.122-.008-.184,0-7.91,1.561-14.881,3.938-19.02a11.3,11.3,0,0,0-2.249-2.367c-3.177,3.214-5.468,10.912-5.673,20.05A22.8,22.8,0,0,0,23.008,33.184Z"/><path fill="#e86300" d="M26.938,13.98l.051-.088a14.418,14.418,0,0,0-1.543-2.113c-.039-.044-.079-.087-.118-.13-.105-.116-.215-.227-.323-.34-.106.1-.212.2-.316.3A11.3,11.3,0,0,1,26.938,13.98Z"/><path fill="#ffa008" d="M23.547,13.015a23.081,23.081,0,0,0-2.932,6.865,5.171,5.171,0,0,0,3.3,3.012,31.224,31.224,0,0,1,2.612-8.152A4.394,4.394,0,0,0,23.547,13.015Z"/><path fill="#ffd417" d="M23.98,28.31l-.71-.95c-.045.455-.073.931-.107,1.4.123.106.244.215.369.319C23.681,28.822,23.831,28.564,23.98,28.31Z"/><path fill="#f8ef00" d="M39.65 34.678c.017.029.037.059.054.088C39.687 34.736 39.667 34.707 39.65 34.678zM41.982 34.969L42 35a28.166 28.166 0 0 1 4.854-4.238c-.338-.535-1.245-1.954-2.614-3.782-1.714 1.242-3.233 2.4-4.8 3.746zM37.94 32.05q.48.681.925 1.369Q38.42 32.732 37.94 32.05z"/><path fill="#ffd417" d="M46.854,30.762h0l.106.168a40.7,40.7,0,0,0-.58-5.49l-2.14,1.54C45.609,28.808,46.516,30.227,46.854,30.762Z"/><path fill="#f8ef00" d="M40.866 21.007c.2-.136.408-.271.608-.4C41.274 20.736 41.072 20.868 40.866 21.007zM42.54 19.978c-.051.028-.1.046-.149.075-.293.162-.6.357-.908.551L45 25l.106-.035 1.107-.369c.055.281.117.556.167.844a28.26 28.26 0 0 0-1.81-6.33 8.148 8.148 0 0 0-1.041.377C43.213 19.624 42.88 19.8 42.54 19.978zM43.22 25.65h0l.016.021-.093-.116c.024.031.052.064.077.095zM41.8 23.921c.137.162.283.328.416.488C42.084 24.249 41.938 24.083 41.8 23.921zM39.85 21.72c.428.458.841.915 1.238 1.366C40.691 22.635 40.279 22.178 39.85 21.72zM44.24 26.98c-.029-.038-.063-.081-.092-.12v0C44.176 26.9 44.211 26.941 44.24 26.98zM41.64 37.461c.526-.4 1.057-.8 1.6-1.185a5.531 5.531 0 0 1 .963 1.535q1 .1 2.015.144a15.8 15.8 0 0 0 .738-3.935 33.437 33.437 0 0 0-5.327 3.44z"/><path fill="#f8ef00" d="M44.57 19.11a8.148 8.148 0 0 0-1.041.377A8.148 8.148 0 0 1 44.57 19.11zM40 20l.031-.019 3.85-2.309c.241.465.476.938.689 1.438a16.657 16.657 0 0 0-4.04-5.92 36.39 36.39 0 0 0-4.6 2.3C37.719 17.264 40 20 40 20zM35.224 15.919c.233-.145.466-.29.705-.432Q35.57 15.7 35.224 15.919zM42.391 20.053c.052-.029.1-.047.149-.075C42.489 20.006 42.443 20.024 42.391 20.053zM37.18 23.884c-.065.057-.127.107-.192.164-.708.623-1.427 1.3-2.149 2L38 30l.041-.034L43.22 25.65c-.025-.031-.053-.064-.077-.095-.3-.374-.6-.755-.926-1.146-.133-.16-.279-.326-.416-.488-.235-.277-.465-.552-.713-.835-.4-.451-.81-.908-1.238-1.366-.461.34-.933.708-1.413 1.1C38.025 23.154 37.6 23.515 37.18 23.884zM43.236 25.671l-.016-.021c.362.46.7.907 1.02 1.33-.029-.039-.064-.082-.093-.122C43.862 26.477 43.558 26.08 43.236 25.671zM41.11 37.367h0c-.076-.156-.162-.314-.241-.471C40.951 37.053 41.034 37.211 41.11 37.367zM39.7 34.766c-.017-.029-.037-.059-.054-.088-.252-.419-.512-.84-.785-1.259q-.446-.687-.925-1.369c-1.084.994-2.224 2.122-3.49 3.458a37.774 37.774 0 0 0 5.017 1.52l1.023-.876Q40.118 35.462 39.7 34.766zM36.9 30.67c-.957-1.268-1.959-2.516-3.023-3.69q-.753.756-1.5 1.556c-1.131 1.2-2.247 2.472-3.331 3.77l.926 1.158q1.448.782 2.971 1.435C33.916 33.777 35.5 32.009 36.9 30.67z"/><path fill="#f8ef00" d="M39.85 21.72q-.691.51-1.413 1.1C38.917 22.428 39.389 22.06 39.85 21.72zM36.988 24.048c.065-.057.127-.107.192-.164C37.115 23.941 37.053 23.991 36.988 24.048z"/><path fill="#f8ef00" d="M28.46 21.83c.356-.426.731-.843 1.115-1.255L34 25a19.381 19.381 0 0 1 4.743-4.415c.378.377.751.756 1.107 1.135a41.17 41.17 0 0 0-5.7-5.1A28.372 28.372 0 0 0 28.46 21.83zM34 26.863l-.12.117c.042-.042.084-.081.126-.123zM34 16.518l0 0c.05.036.1.068.153.1C34.1 16.584 34.049 16.553 34 16.518zM27.46 13.14q.274-.413.563-.772C27.831 12.61 27.643 12.865 27.46 13.14zM38.257 11.568a12.683 12.683 0 0 1 1.116.7A11.887 11.887 0 0 0 38.257 11.568zM39.466 12.335a11.99 11.99 0 0 1 1.064.855A12.716 12.716 0 0 0 39.466 12.335zM27.46 13.14a17.945 17.945 0 0 1 1.715.619A17.945 17.945 0 0 0 27.46 13.14zM30.833 14.543c-.144-.076-.294-.136-.44-.209C30.539 14.407 30.689 14.467 30.833 14.543zM34 14l4.257-2.432A12.641 12.641 0 0 0 32 10a5.255 5.255 0 0 0-3.963 2.35q.284-.352.577-.658zM32.44 15.469l-.058-.034zM24.76 19.36q.426.219.87.483Q25.186 19.579 24.76 19.36z"/><path fill="#f8ef00" d="M32.777 15.7c-.113-.074-.223-.156-.337-.227l-.058-.034c-.509-.316-1.025-.616-1.549-.892-.144-.076-.294-.136-.44-.209-.4-.2-.807-.4-1.218-.575a17.945 17.945 0 0 0-1.715-.619 20.942 20.942 0 0 0-2.285 4.918L28 19S30.7 16.973 32.777 15.7zM26.525 20.408l-.08-.051zM28.4 21.782l0 0 .068.052C28.439 21.813 28.418 21.8 28.4 21.782zM33.88 26.98a45.189 45.189 0 0 0-5.42-5.15 41.657 41.657 0 0 0-3.674 5.153L28 31l.032-.038 4.577-5.339Q33.25 26.285 33.88 26.98zM33.88 26.98q-.753.756-1.5 1.556Q33.126 27.738 33.88 26.98z"/><polygon fill="#ffd417" points="23.98 28.31 25.967 30.96 25.967 30.96 23.98 28.31"/><path fill="#f8ef00" d="M24 26l.052-.1a40.024 40.024 0 0 1 3.018-5.105c-.182-.129-.366-.263-.545-.383l-.08-.051c-.276-.182-.548-.356-.815-.514q-.444-.264-.87-.483a44.363 44.363 0 0 0-1.49 8c.063-.635.141-1.254.224-1.866zM28.46 21.83l-.068-.052c-.441-.352-.874-.671-1.3-.974C27.54 21.122 28 21.458 28.46 21.83z"/><polygon fill="#f8ef00" points="23.857 28.145 23.27 27.36 23.98 28.31 23.857 28.145"/><polygon fill="#ffff5b" points="38.257 11.568 38.257 11.568 38.257 11.568 38.257 11.568"/><path fill="#ffff5b" d="M39.373,12.272c.031.022.063.041.093.063Z"/><path fill="#ffff5b" d="M34,16.518c.049.035.1.066.15.1.344-.239.706-.472,1.074-.7q.346-.219.705-.432h0a36.39,36.39,0,0,1,4.6-2.3,11.99,11.99,0,0,0-1.064-.855c-.03-.022-.062-.041-.093-.063a12.683,12.683,0,0,0-1.116-.7h0L34,14Z"/><path fill="#ffd417" d="M28.023 12.368l.014-.018zM30.393 14.334c.146.073.3.133.44.209.525.275 1.04.576 1.549.892l.058.034c.115.072.229.148.344.223h0q.615.4 1.213.824l0 0V14l-5.386-2.308q-.294.3-.577.658l-.014.018q-.288.36-.563.772a17.945 17.945 0 0 1 1.715.619C29.586 13.931 29.99 14.134 30.393 14.334z"/><path fill="#ffd417" d="M32.44 15.469c.114.071.224.153.337.227l.007 0C32.669 15.617 32.555 15.541 32.44 15.469zM32.382 15.435c-.509-.316-1.024-.617-1.549-.892C31.357 14.819 31.873 15.119 32.382 15.435zM30.393 14.334c-.4-.2-.807-.4-1.218-.575C29.586 13.932 29.99 14.133 30.393 14.334zM39.85 21.72l.029-.021.152-1.718L40 20s-2.281-2.736-4.071-4.513h0c-.239.142-.472.287-.705.432-.365.231-.73.462-1.074.7A41.17 41.17 0 0 1 39.85 21.72z"/><polygon fill="#ffd417" points="35.929 15.487 35.929 15.487 35.929 15.487 35.929 15.487"/><path fill="#ffd417" d="M34.15,16.62c.344-.239.709-.47,1.074-.7C34.856,16.148,34.494,16.381,34.15,16.62Z"/><path fill="#ffff5b" d="M42.391 20.053c-.293.162-.6.357-.908.551h0C41.79 20.41 42.1 20.215 42.391 20.053zM41.474 20.609l.009-.005c-.214.135-.429.275-.649.424l.032-.021C41.072 20.868 41.274 20.736 41.474 20.609zM42.54 19.978c.34-.183.673-.354.989-.491C43.213 19.624 42.879 19.8 42.54 19.978z"/><path fill="#ffff5b" d="M40.031,19.981,39.879,21.7c.326-.242.642-.461.955-.671.22-.149.435-.289.649-.424h0c.307-.194.615-.389.908-.551.052-.029.1-.047.149-.075.339-.183.673-.354.989-.491a8.148,8.148,0,0,1,1.041-.377c-.213-.5-.448-.973-.689-1.438Z"/><path fill="#ffd417" d="M25.175,18.058c-.142.426-.285.85-.415,1.3.13-.452.273-.876.415-1.3Z"/><path fill="#ffd417" d="M26.445,20.357l.08.051c.606.4,1.231.863,1.867,1.37l0,0L28,19l-2.825-.942c-.142.426-.285.85-.415,1.3q.426.219.87.483C25.9,20,26.17,20.176,26.445,20.357Z"/><path fill="#ffd417" d="M27.09 20.8c.428.3.861.622 1.3.974-.636-.507-1.261-.966-1.867-1.37.179.12.363.254.545.383h0zM26.445 20.357c-.275-.181-.548-.356-.815-.514C25.9 20 26.169 20.175 26.445 20.357z"/><path fill="#ffff5b" d="M34.15,16.62c-.05-.036-.1-.068-.153-.1h0C34.047,16.552,34.1,16.584,34.15,16.62Z"/><path fill="#ffff5b" d="M34.15,16.62c-.05-.036-.1-.068-.153-.1-.4-.287-.809-.555-1.22-.82C30.7,16.973,28,19,28,19l.4,2.782c.021.017.042.031.063.048A28.372,28.372,0,0,1,34.15,16.62Z"/><path fill="#ffff5b" d="M34,16.516q-.6-.427-1.213-.824h0q.615.4,1.213.824Z"/><path fill="#ffff5b" d="M32.784 15.692l-.007 0c.411.265.82.533 1.22.82Q33.4 16.087 32.784 15.692zM37.18 23.884c.424-.369.845-.73 1.257-1.066C38.025 23.154 37.6 23.516 37.18 23.884zM36.988 24.048c-.708.623-1.428 1.3-2.151 2l0 0C35.561 25.349 36.28 24.671 36.988 24.048z"/><path fill="#ffff5b" d="M34.006,26.857c.278-.275.554-.543.831-.811h0c.723-.7,1.443-1.375,2.151-2,.065-.057.127-.107.192-.164.423-.368.845-.73,1.257-1.066q.72-.587,1.413-1.1c-.356-.379-.729-.758-1.107-1.135A19.381,19.381,0,0,0,34,25v1.863Z"/><path fill="#ffd417" d="M33.88 26.98l.12-.117V25l-4.425-4.425c-.384.412-.759.829-1.115 1.255A45.189 45.189 0 0 1 33.88 26.98zM40.866 21.007c-.318.216-.637.433-.966.678-.017.012-.033.022-.05.035.429.458.841.915 1.238 1.366.248.283.478.558.713.835.137.162.283.328.416.488.325.391.63.772.926 1.146l.093.116q.485.615.911 1.187v0a5.149 5.149 0 0 1 .958-1.895L45 25l-3.517-4.4-.009.005C41.274 20.736 41.07 20.871 40.866 21.007z"/><path fill="#ffd417" d="M39.879 21.7l-.029.021c.017-.013.033-.023.05-.035zM42.217 24.409c.324.391.63.772.926 1.146C42.847 25.181 42.542 24.8 42.217 24.409zM41.088 23.086c.248.283.478.558.713.835C41.566 23.644 41.336 23.369 41.088 23.086zM43.236 25.671c.322.409.626.806.911 1.187Q43.72 26.287 43.236 25.671zM39.879 21.7h0l-.029.021zM40.866 21.007l-.032.021c-.308.209-.616.421-.934.657C40.229 21.44 40.548 21.223 40.866 21.007z"/><polygon fill="#ffd417" points="41.483 20.604 41.483 20.604 41.483 20.604 41.474 20.609 41.483 20.604"/><polygon fill="#ffd417" points="41.483 20.604 41.483 20.604 41.483 20.604 41.483 20.604"/><path fill="#ffd417" d="M39.9,21.685c.318-.236.626-.448.934-.657-.313.21-.629.429-.955.671h0Z"/><path fill="#ffff5b" d="M45.106 24.965a5.149 5.149 0 0 0-.958 1.895c.029.039.063.082.092.12l2.14-1.54c-.05-.288-.112-.563-.167-.844zM38 32c.487-.448.963-.869 1.434-1.273v0c1.572-1.349 3.091-2.5 4.805-3.746A65.392 65.392 0 0 0 38 32z"/><polygon fill="#ffff5b" points="43.22 25.65 43.22 25.65 43.22 25.65 43.22 25.65"/><path fill="#ffff5b" d="M43.22,25.65l-5.179,4.316C38.017,30.619,38,31.29,38,32a65.392,65.392,0,0,1,6.24-5.017c-.315-.423-.658-.87-1.02-1.33Z"/><path fill="#ffd417" d="M38,32h0c-.02.018-.04.034-.06.053C37.96,32.031,37.98,32.015,38,32Z"/><path fill="#ffd417" d="M34.839,26.048c-.278.269-.555.531-.832.809-.043.042-.085.081-.127.123,1.064,1.174,2.066,2.422,3.023,3.69h0c.347.46.709.914,1.037,1.38.02-.019.04-.035.06-.053,0-.707.017-1.378.041-2.031L38,30Z"/><path fill="#ffd417" d="M34.006 26.857c-.042.042-.084.081-.126.123.042-.042.084-.081.127-.123zM34.839 26.048l0 0c-.277.268-.553.533-.83.811C34.284 26.579 34.561 26.317 34.839 26.048z"/><path fill="#ffd417" d="M34.837 26.046h0c-.277.268-.553.536-.831.811h0C34.284 26.579 34.56 26.314 34.837 26.046zM24.052 25.9L24 26l-.506-.506c-.083.612-.161 1.231-.224 1.866l.587.785z"/><path fill="#ffff5b" d="M24.786 26.983A41.657 41.657 0 0 1 28.46 21.83c-.465-.372-.92-.708-1.37-1.026l-.02-.013A40.024 40.024 0 0 0 24.052 25.9l-.2 2.249.123.165c.265-.449.535-.888.806-1.327zM27.071 20.79h0l.02.013zM29.045 32.306c1.084-1.3 2.2-2.567 3.331-3.77-1.131 1.2-2.247 2.471-3.332 3.769z"/><path fill="#ffff5b" d="M29.044,32.305h0c1.085-1.3,2.2-2.566,3.332-3.769q.75-.8,1.5-1.556-.629-.7-1.271-1.357l-4.577,5.339c-.007.447-.009.911-.013,1.368.222.137.446.271.672.4C28.809,32.591,28.925,32.447,29.044,32.305Z"/><path fill="#ffd417" d="M28.019,32.33c0-.457.006-.921.013-1.368L28,31l-3.214-4.017c-.271.439-.541.878-.806,1.327l1.987,2.65C26.636,31.437,27.318,31.9,28.019,32.33Z"/><path fill="#ffd417" d="M24.786,26.983c-.271.439-.541.878-.806,1.327.265-.449.535-.888.806-1.327Z"/><path fill="#ffff5b" d="M37.94,32.05c-.328-.466-.69-.92-1.037-1.38-1.407,1.339-2.987,3.107-3.961,4.229.5.214,1,.415,1.508.609C35.716,34.172,36.856,33.044,37.94,32.05Z"/><path fill="#ffff5b" d="M36.9,30.67c.347.46.709.914,1.037,1.38-.328-.466-.69-.92-1.037-1.38Z"/><path fill="#ffd417" d="M28.691,32.734c.423.25.847.5,1.28.73l-.926-1.158C28.926,32.448,28.809,32.591,28.691,32.734Z"/><path fill="#ffd417" d="M29.044,32.305c-.119.142-.235.286-.353.429h0c.118-.143.235-.286.354-.428Z"/><path fill="#ffd417" d="M28.691 32.734h0c.118-.143.234-.287.353-.429h0C28.925 32.447 28.809 32.591 28.691 32.734zM38 32c-.02.018-.04.034-.06.053q.48.683.925 1.369c.274.42.533.84.785 1.259.017.029.037.058.054.088.523.875.992 1.745 1.409 2.6l.06.011a9.073 9.073 0 0 1 .809-2.409l-2.547-4.243C38.964 31.131 38.489 31.548 38 32z"/><path fill="#ffd417" d="M39.7 34.766q.414.694.786 1.386v0c.136.251.252.5.38.746.079.157.165.315.241.471h0C40.7 36.511 40.227 35.641 39.7 34.766zM38.865 33.419c.273.419.533.84.785 1.259C39.4 34.259 39.139 33.839 38.865 33.419zM39.435 30.726v0c-.471.4-.947.825-1.434 1.273h0C38.489 31.548 38.964 31.131 39.435 30.726zM38 32h0c-.02.018-.04.034-.06.053C37.96 32.031 37.98 32.015 38 32z"/><path fill="#ffff5b" d="M42 35l-.018-.031a9.073 9.073 0 0 0-.809 2.409c.153.028.306.056.46.082a33.437 33.437 0 0 1 5.327-3.44c.03-.34.04-.68.04-1.02 0-.7-.01-1.39-.04-2.07l-.106-.168A28.166 28.166 0 0 0 42 35zM46.854 30.762l.106.168-.106-.168zM40.49 36.152l-1.023.876q.816.188 1.643.339c-.076-.156-.159-.314-.239-.471C40.745 36.648 40.624 36.4 40.49 36.152z"/><path fill="#ffff5b" d="M40.491,36.15v0c.134.249.255.5.381.744C40.743,36.647,40.627,36.4,40.491,36.15Z"/><path fill="#ffd417" d="M41.64,37.461c.848.143,1.7.265,2.567.35a5.531,5.531,0,0,0-.963-1.535C42.7,36.658,42.166,37.057,41.64,37.461Z"/><path fill="#f8ef00" d="M23.532,29.077q1.176.991,2.435,1.883L23.98,28.31C23.831,28.564,23.681,28.822,23.532,29.077Z"/><ellipse cx="40" cy="17" fill="#f6fafd" rx="1.65" ry="2.297" transform="rotate(-45.02 40 17)"/><ellipse cx="43" cy="21" fill="#f6fafd" rx=".825" ry="1.148" transform="rotate(-45.02 43 21)"/><ellipse cx="10" cy="20" fill="#f6fafd" rx=".825" ry="1.148" transform="rotate(-45.02 10 20)"/><ellipse cx="28" cy="29" fill="#f6fafd" rx=".825" ry="1.148" transform="rotate(-45.02 28 29)"/><ellipse cx="26.746" cy="26.5" fill="#f6fafd" rx=".413" ry=".574" transform="rotate(-45.02 26.746 26.5)"/><ellipse cx="10.746" cy="22.5" fill="#f6fafd" rx=".413" ry=".574" transform="rotate(-45.02 10.746 22.5)"/></g></svg>