<svg xmlns="http://www.w3.org/2000/svg" viewBox="0 0 48 48"><g data-name="13-melon"><path fill="#abcc00" d="M19,8a18,18,0,0,1,0,36c4.05,0,11-6.95,11-18S23.05,8,19,8Z"/><path fill="#abcc00" d="M19 8c4.05 0 11 6.95 11 18S23.05 44 19 44zM19 8V44C14.95 44 8 37.05 8 26S14.95 8 19 8z"/><path fill="#abcc00" d="M8,26c0,11.05,6.95,18,11,18A18,18,0,0,1,19,8C14.95,8,8,14.95,8,26Z"/><path fill="#b39500" d="M21 5V9a2 2 0 0 1-4 0V5h4zM19 2.01a31.222 31.222 0 0 0 8.53-.95A1.094 1.094 0 0 1 29 2V3.01C29 4.11 24.53 5 19 5h-.03C13.45 5 9 4.11 9 3.01V2a1.094 1.094 0 0 1 1.47-.94A31.222 31.222 0 0 0 19 2.01z"/><path fill="#ff7f00" d="M41,31c0,3.32-4.92,8-11,8s-11-4.68-11-8c0,2.76,6,4,11,4S41,33.76,41,31Z"/><path fill="#fea23f" d="M41,31h6c0,8.84-7.05,16-17,16S13,39.84,13,31h6c0,3.32,4.92,8,11,8S41,34.32,41,31Z"/><path fill="#c8da00" d="M19,8a18,18,0,0,1,0,36c4.05,0,11-6.95,11-18S23.05,8,19,8Z"/><path fill="#abcc00" d="M19,8c4.05,0,11,6.95,11,18S23.05,44,19,44Z"/><path fill="#b1ad00" d="M19,8V44C14.95,44,8,37.05,8,26S14.95,8,19,8Z"/><path fill="#9e9b00" d="M8,26c0,11.05,6.95,18,11,18A18,18,0,0,1,19,8C14.95,8,8,14.95,8,26Z"/><path fill="#dfe778" d="M31,26c0-8.462-3.965-14.8-7.962-17.529A18.028,18.028,0,0,0,19,8c4.05,0,11,6.95,11,18S23.05,44,19,44a18.028,18.028,0,0,0,4.038-.471C27.035,40.805,31,34.462,31,26Z"/><path fill="#c8da00" d="M30,26C30,14.95,23.05,8,19,8V44C23.05,44,30,37.05,30,26ZM20,9.166c3.622,1.021,9,7.217,9,16.834s-5.378,15.813-9,16.834Z"/><path fill="#abcc00" d="M8,26c0,11.05,6.95,18,11,18V8C14.95,8,8,14.95,8,26ZM18,9.166V42.834C14.378,41.813,9,35.617,9,26S14.378,10.187,18,9.166Z"/><path fill="#7eaf31" d="M8,26C8,14.95,14.95,8,19,8a18.028,18.028,0,0,0-4.038.471C10.965,11.2,7,17.538,7,26s3.965,14.805,7.962,17.529A18.028,18.028,0,0,0,19,44C14.95,44,8,37.05,8,26Z"/><path fill="#c8da00" d="M23.038,43.529c-.282.065-.568.121-.855.173C22.471,43.651,22.755,43.594,23.038,43.529Z"/><path fill="#abcc00" d="M23.038,43.529A17.908,17.908,0,0,0,28.122,41.5c-.71-.222-1.406-.475-2.094-.743A14.814,14.814,0,0,1,23.038,43.529Z"/><path fill="#c8da00" d="M20.551,43.922c.159-.014.317-.026.474-.043C20.869,43.9,20.709,43.907,20.551,43.922Z"/><path fill="#7eaf31" d="M20,42.834a9.47,9.47,0,0,0,4.121-2.89A32.82,32.82,0,0,1,20,37.661Z"/><path fill="#9e9b00" d="M9.008 25.784c0 .073-.008.142-.008.216 0 9.617 5.378 15.813 9 16.834V36.253A33.1 33.1 0 0 1 9.008 25.784zM17.449 43.922c-.158-.015-.318-.025-.474-.043C17.132 43.9 17.29 43.908 17.449 43.922zM15.817 43.7c-.287-.052-.573-.108-.855-.173C15.245 43.594 15.529 43.651 15.817 43.7z"/><path fill="#807d00" d="M7,26a25.893,25.893,0,0,1,.3-3.891,32.772,32.772,0,0,1-2.005-7.76,17.975,17.975,0,0,0,9.668,29.18C10.964,40.805,7,34.462,7,26Z"/><polygon fill="#dfe778" points="23.038 43.529 23.038 43.529 23.038 43.529 23.038 43.529"/><path fill="#dfe778" d="M22.183 43.7c-.383.069-.767.133-1.158.177C21.415 43.833 21.8 43.772 22.183 43.7zM20.551 43.922C20.039 43.965 19.524 44 19 44 19.524 44 20.04 43.968 20.551 43.922z"/><path fill="#c8da00" d="M22.183,43.7c.287-.052.573-.108.855-.173h0a14.814,14.814,0,0,0,2.99-2.774c-.328-.127-.656-.254-.979-.391C23.018,42.708,20.742,44,19,44c.524,0,1.039-.035,1.551-.078.158-.015.318-.025.474-.043C21.416,43.835,21.8,43.771,22.183,43.7Z"/><path fill="#abcc00" d="M25.049,40.364c-.313-.134-.621-.277-.928-.42A9.47,9.47,0,0,1,20,42.834V37.661q-.507-.33-1-.679V44C20.742,44,23.018,42.708,25.049,40.364Z"/><path fill="#7eaf31" d="M18,36.253v6.581C14.378,41.813,9,35.617,9,26c0-.074.007-.143.008-.216-.329-.6-.633-1.219-.925-1.843C8.029,24.61,8,25.3,8,26c0,11.05,6.95,18,11,18V36.982C18.663,36.744,18.328,36.5,18,36.253Z"/><path fill="#7eaf31" d="M16.975 43.879c-.391-.044-.775-.108-1.158-.177C16.2 43.772 16.585 43.833 16.975 43.879zM19 44c-.524 0-1.039-.035-1.551-.078C17.96 43.968 18.476 44 19 44z"/><polygon fill="#7eaf31" points="14.962 43.529 14.962 43.529 14.962 43.529 14.962 43.529"/><path fill="#689629" d="M8,26c0-.7.029-1.39.083-2.059q-.42-.9-.784-1.832A25.893,25.893,0,0,0,7,26c0,8.462,3.964,14.805,7.962,17.529h0c.282.065.568.121.855.173.383.069.767.133,1.158.177.156.018.316.028.474.043.512.043,1.027.078,1.551.078C14.95,44,8,37.05,8,26Z"/><ellipse cx="23.713" cy="24.441" fill="#dfe778" rx=".825" ry="1.148"/><ellipse cx="25.127" cy="35.754" fill="#dfe778" rx=".825" ry="1.148"/><ellipse cx="25.592" cy="32.804" fill="#dfe778" rx=".825" ry="1.148"/><ellipse cx="21.642" cy="32.683" fill="#dfe778" rx=".825" ry="1.148"/><ellipse cx="22.106" cy="17.633" fill="#dfe778" rx=".825" ry="1.148"/><ellipse cx="27.249" cy="23.733" fill="#dfe778" rx=".825" ry="1.148"/><ellipse cx="30.784" cy="34.926" fill="#dfe778" rx=".825" ry="1.148"/><ellipse cx="21.765" cy="27.443" fill="#dfe778" rx=".413" ry=".574"/><ellipse cx="21.765" cy="23.2" fill="#dfe778" rx=".413" ry=".574"/><ellipse cx="25.109" cy="22.686" fill="#dfe778" rx=".413" ry=".574"/><ellipse cx="23.937" cy="31.342" fill="#dfe778" rx=".413" ry=".574"/><ellipse cx="26.523" cy="29.757" fill="#dfe778" rx=".413" ry=".574"/><ellipse cx="23.473" cy="37.635" fill="#dfe778" rx=".413" ry=".574"/><ellipse cx="27.422" cy="18.958" fill="#dfe778" rx=".413" ry=".574"/><ellipse cx="24.837" cy="17.543" fill="#dfe778" rx=".413" ry=".574"/><ellipse cx="23.18" cy="28.857" fill="#dfe778" rx=".413" ry=".574"/><ellipse cx="31.665" cy="30.271" fill="#dfe778" rx=".413" ry=".574"/><ellipse cx="33.079" cy="24.615" fill="#dfe778" rx=".413" ry=".574"/><ellipse cx="32.372" cy="28.15" fill="#dfe778" rx=".413" ry=".574"/><ellipse cx="34.493" cy="20.372" fill="#dfe778" rx=".413" ry=".574"/><ellipse cx="34.493" cy="23.2" fill="#dfe778" rx=".413" ry=".574"/><ellipse cx="34.493" cy="27.443" fill="#dfe778" rx=".413" ry=".574"/><ellipse cx="26.937" cy="20.857" fill="#dfe778" rx=".413" ry=".574"/><ellipse cx="30.422" cy="37.928" fill="#dfe778" rx=".413" ry=".574"/><ellipse cx="28.129" cy="26.979" fill="#dfe778" rx=".413" ry=".574"/><ellipse cx="23.694" cy="21.271" fill="#dfe778" rx=".413" ry=".574"/><ellipse cx="30.644" cy="15.736" fill="#dfe778" rx=".413" ry=".574"/><ellipse cx="33.129" cy="31.807" fill="#dfe778" rx=".413" ry=".574"/><ellipse cx="25.301" cy="26.736" fill="#dfe778" rx=".413" ry=".574"/><ellipse cx="32.544" cy="20.665" fill="#dfe778" rx=".413" ry=".574"/><ellipse cx="13.794" cy="18.48" fill="#cdcc00" rx=".825" ry="1.148"/><ellipse cx="4.38" cy="18.794" fill="#9e9b00" rx=".825" ry="1.148"/><ellipse cx="13.915" cy="28.844" fill="#b1ad00" rx=".825" ry="1.148"/><ellipse cx="15.865" cy="30.723" fill="#cdcc00" rx=".825" ry="1.148"/><ellipse cx="14.401" cy="35.672" fill="#b1ad00" rx=".825" ry="1.148"/><ellipse cx="14.259" cy="28.773" fill="#cdcc00" rx=".825" ry="1.148"/><ellipse cx="4.723" cy="30.965" fill="#9e9b00" rx=".825" ry="1.148"/><ellipse cx="13.742" cy="25.482" fill="#cdcc00" rx=".413" ry=".574"/><ellipse cx="13.399" cy="37.725" fill="#b1ad00" rx=".413" ry=".574"/><ellipse cx="16.399" cy="38.725" fill="#b1ad00" rx=".413" ry=".574"/><ellipse cx="11.399" cy="31.725" fill="#b1ad00" rx=".413" ry=".574"/><ellipse cx="4.57" cy="33.382" fill="#9e9b00" rx=".413" ry=".574"/><ellipse cx="6.984" cy="36.796" fill="#9e9b00" rx=".413" ry=".574"/><ellipse cx="13.035" cy="34.675" fill="#9e9b00" rx=".413" ry=".574"/><ellipse cx="14.085" cy="15.997" fill="#cdcc00" rx=".413" ry=".574"/><ellipse cx="13.549" cy="20.876" fill="#cdcc00" rx=".413" ry=".574"/><ellipse cx="10.964" cy="22.29" fill="#cdcc00" rx=".413" ry=".574"/><ellipse cx="12.913" cy="23.411" fill="#cdcc00" rx=".413" ry=".574"/><ellipse cx="12.328" cy="26.897" fill="#cdcc00" rx=".413" ry=".574"/><ellipse cx="6.256" cy="29.311" fill="#9e9b00" rx=".413" ry=".574"/><ellipse cx="2.842" cy="29.311" fill="#9e9b00" rx=".413" ry=".574"/><ellipse cx="8.428" cy="15.654" fill="#b1ad00" rx=".413" ry=".574"/><ellipse cx="3.135" cy="24.19" fill="#9e9b00" rx=".413" ry=".574"/><ellipse cx="7.014" cy="15.411" fill="#b1ad00" rx=".413" ry=".574"/><ellipse cx="7.014" cy="18.24" fill="#b1ad00" rx=".413" ry=".574"/><ellipse cx="5.014" cy="22.482" fill="#9e9b00" rx=".413" ry=".574"/><ellipse cx="16.57" cy="26.897" fill="#cdcc00" rx=".413" ry=".574"/><ellipse cx="7.085" cy="33.968" fill="#9e9b00" rx=".413" ry=".574"/><ellipse cx="4.378" cy="26.018" fill="#9e9b00" rx=".413" ry=".574"/><ellipse cx="16.813" cy="22.311" fill="#cdcc00" rx=".413" ry=".574"/><ellipse cx="15.863" cy="24.775" fill="#cdcc00" rx=".413" ry=".574"/><ellipse cx="10.206" cy="24.775" fill="#cdcc00" rx=".413" ry=".574"/><ellipse cx="19" cy="10" fill="#7eaf31" rx="3" ry="1"/><path fill="#b39500" d="M18.97,5C18.3,5,17.637,4.986,17,4.961V9a2,2,0,0,0,4,0V4.96c-.646.026-1.315.04-2,.04Z"/><path fill="#9e9b00" d="M27.53,1.06A31.222,31.222,0,0,1,19,2.01a31.222,31.222,0,0,1-8.53-.95A1.094,1.094,0,0,0,9,2V3.01c0,.965,3.429,1.769,8,1.951.637.025,1.3.039,1.97.039H19c.685,0,1.354-.014,2-.04,4.569-.184,8-.986,8-1.95V2A1.094,1.094,0,0,0,27.53,1.06Z"/><path fill="#807d00" d="M21,3.96c-.646.026-1.315.04-2,.04h-.03C18.3,4,17.637,3.986,17,3.961c-4.571-.182-8-.986-8-1.951v1c0,.965,3.429,1.769,8,1.951.637.025,1.3.039,1.97.039H19c.685,0,1.354-.014,2-.04,4.569-.184,8-.986,8-1.95v-1C29,2.974,25.569,3.776,21,3.96Z"/><path fill="#745a00" d="M19,7V5h-.03C18.3,5,17.637,4.986,17,4.961v2c.637.025,1.3.039,1.97.039Z"/><path fill="#977b00" d="M19 5V7c.685 0 1.354-.014 2-.04v-2C20.354 4.986 19.685 5 19 5zM19 11V7h-.03C18.3 7 17.637 6.986 17 6.961V9A2.006 2.006 0 0 0 19 11z"/><path fill="#ff7f00" d="M41,31c0,3.32-4.92,8-11,8s-11-4.68-11-8c0,2.76,6,4,11,4S41,33.76,41,31Z"/><path fill="#ff9202" d="M30,37a12.637,12.637,0,0,0,8.5-3.379A23.754,23.754,0,0,1,30,35a23.754,23.754,0,0,1-8.5-1.379A12.637,12.637,0,0,0,30,37Z"/><path fill="#fea23f" d="M41,31h6c0,8.84-7.05,16-17,16S13,39.84,13,31h6c0,3.32,4.92,8,11,8S41,34.32,41,31Z"/><path fill="#7eaf31" d="M45.953,31A15.624,15.624,0,0,1,30,46,15.624,15.624,0,0,1,14.047,31H13c0,8.84,7.05,16,17,16s17-7.16,17-16Z"/><path fill="#ffd417" d="M30,46A15.624,15.624,0,0,0,45.953,31h-1A14.645,14.645,0,0,1,30,45,14.645,14.645,0,0,1,15.047,31h-1A15.624,15.624,0,0,0,30,46Z"/><ellipse cx="30" cy="35.757" fill="#e86300" rx=".413" ry=".574"/><ellipse cx="27" cy="37.757" fill="#e86300" rx=".413" ry=".574"/><ellipse cx="33" cy="37.757" fill="#e86300" rx=".413" ry=".574"/><ellipse cx="30" cy="37.757" fill="#e86300" rx=".413" ry=".574"/><ellipse cx="24" cy="35.757" fill="#e86300" rx=".413" ry=".574"/><ellipse cx="32" cy="36.757" fill="#e86300" rx=".413" ry=".574"/><ellipse cx="28" cy="36.757" fill="#e86300" rx=".413" ry=".574"/><ellipse cx="26" cy="35.979" fill="#e86300" rx=".413" ry=".574"/><ellipse cx="34" cy="35.979" fill="#e86300" rx=".413" ry=".574"/><path fill="#faba01" d="M19.148 32A4.016 4.016 0 0 1 19 31H15.047c.021.338.066.668.107 1zM44.953 31H41a4.016 4.016 0 0 1-.148 1h3.994C44.887 31.668 44.932 31.338 44.953 31z"/><path fill="#c8da00" d="M46.95 32c.02-.332.05-.662.05-1H45.953c-.019.338-.064.668-.1 1zM14.047 31H13c0 .338.03.668.05 1h1.1C14.111 31.668 14.066 31.338 14.047 31z"/><path fill="#fdf48b" d="M15.154 32c-.041-.332-.086-.662-.107-1h-1c.019.338.064.668.1 1zM45.85 32c.039-.332.084-.662.1-1h-1c-.021.338-.066.668-.107 1z"/><path fill="#9e9b00" d="M30,35a30.272,30.272,0,0,0,4.8-.378c.158-.289.292-.591.434-.889A22.619,22.619,0,0,1,28.5,34.96C29.005,34.984,29.508,35,30,35Z"/><path fill="#5c5a00" d="M19,43.381A15.569,15.569,0,0,1,13,31H10a15.6,15.6,0,0,0,3.688,10.162,15.791,15.791,0,0,0,2.938,2.664A18.219,18.219,0,0,0,19,44a4.1,4.1,0,0,0,.762-.078C19.505,43.744,19.244,43.572,19,43.381Z"/><path fill="#faba01" d="M44.953,31H41c0,1.753-1.38,3.88-3.57,5.5a37.871,37.871,0,0,0,5.564,1.16A15.325,15.325,0,0,0,44.953,31Z"/><path fill="#9cdf00" d="M45.415,37.9A15.75,15.75,0,0,0,47,31H45.953a16.392,16.392,0,0,1-1.9,6.8C44.5,37.843,44.96,37.872,45.415,37.9Z"/><path fill="#fdf48b" d="M44.054,37.8a16.392,16.392,0,0,0,1.9-6.8h-1a15.325,15.325,0,0,1-1.959,6.662C43.347,37.708,43.7,37.76,44.054,37.8Z"/><path fill="#faba01" d="M35.239,35.8A12.606,12.606,0,0,0,38.5,33.621a16.963,16.963,0,0,1-3.951,1.038l-.048.007c-.327.05-.657.093-.991.132l-.235.025c-.135.015-.269.032-.4.044Q34.036,35.373,35.239,35.8Z"/><path fill="#f8ef00" d="M44.953,31H41a4.016,4.016,0,0,1-.148,1h3.994C44.887,31.668,44.932,31.338,44.953,31Z"/><path fill="#c9ff39" d="M46.95,32c.02-.332.05-.662.05-1H45.953c-.019.338-.064.668-.1,1Z"/><path fill="#fdfdd7" d="M45.85,32c.039-.332.084-.662.1-1h-1c-.021.338-.066.668-.107,1Z"/><ellipse cx="29.795" cy="14.679" fill="#f6fafd" rx="1.65" ry="2.297" transform="rotate(-45.02 29.794 14.679)"/><ellipse cx="32.795" cy="18.679" fill="#f6fafd" rx=".825" ry="1.148" transform="rotate(-45.02 32.795 18.679)"/><ellipse cx="43.795" cy="33.679" fill="#f6fafd" rx=".825" ry="1.148" transform="rotate(-45.02 43.795 33.679)"/><ellipse cx="30.541" cy="19.179" fill="#f6fafd" rx=".413" ry=".574" transform="rotate(-45.02 30.54 19.18)"/><ellipse cx="41.541" cy="34.179" fill="#f6fafd" rx=".413" ry=".574" transform="rotate(-45.02 41.54 34.18)"/></g></svg>