<svg xmlns="http://www.w3.org/2000/svg" enable-background="new 0 0 512 512" viewBox="0 0 512 512"><polygon points="90 126.688 90 233.948 35.333 215.312 35.333 195.312 6 185.312 6 98.052"/><polygon points="422 126.688 422 233.948 476.667 215.312 476.667 195.312 506 185.312 506 98.052"/><path d="M496,264.677C496,396.498,388.548,486,256,486c-132.548,0-240-89.502-240-221.323C16,132.86,123.452,26,256,26
		C388.548,26,496,132.86,496,264.677z"/><radialGradient id="a" cx="256" cy="253.5" r="207.072" gradientUnits="userSpaceOnUse"><stop offset="0" stop-color="#fde6cc"/><stop offset=".242" stop-color="#fbd1a1"/><stop offset=".627" stop-color="#f9b362"/><stop offset=".81" stop-color="#f8a749"/><stop offset=".963" stop-color="#d68d3e"/></radialGradient><path fill="url(#a)" d="M468,261.122c0,115.787-94.916,194.402-212,194.402c-117.084,0-212-78.615-212-194.402
		c0-115.783,94.916-209.645,212-209.645C373.084,51.476,468,145.338,468,261.122z"/><linearGradient id="b" x1="79.615" x2="434.956" y1="326" y2="326" gradientUnits="userSpaceOnUse"><stop offset="0" stop-color="#f8a749" stop-opacity="0"/><stop offset=".5" stop-color="#d68d3e" stop-opacity=".5"/><stop offset="1" stop-color="#f8a749" stop-opacity="0"/></linearGradient><path fill="url(#b)" d="M376,336c-30,0-70-30-120-30s-90,30-120,30
		c-29.997,0-59.994-9.998-60-10l1,10c12.307,5.128,43.018,10,59,10c15.856,0,32.607-6.383,50.341-13.141
		C207.08,324.957,230.586,316,256,316s48.92,8.957,69.659,16.859C343.393,339.617,360.144,346,376,346c15.98,0,46.694-4.873,59-10
		l1-10C435.994,326.002,405.997,336,376,336z"/><radialGradient id="c" cx="257.637" cy="210.956" r="244.995" gradientUnits="userSpaceOnUse"><stop offset="0" stop-color="#00487f"/><stop offset=".019" stop-color="#00477d"/><stop offset=".683" stop-color="#002442"/><stop offset="1" stop-color="#00162b"/></radialGradient><path fill="url(#c)" d="M136,336c30,0,70-30,120-30s90,30,120,30
		s60-10,60-10s-0.002,23.211-8.036,53.394c25.566-31.771,40.661-72.056,40.661-118.254C468.625,145.083,373.429,51,256,51
		C138.571,51,43.375,145.083,43.375,261.14c0,46.198,15.096,86.483,40.661,118.254C76.002,349.21,76,326,76,326S106,336,136,336z"/><linearGradient id="d" x1="337.006" x2="425.179" y1="504.642" y2="504.642" gradientTransform="rotate(90 396.366 194.275)" gradientUnits="userSpaceOnUse"><stop offset="0" stop-color="#00487f"/><stop offset=".224" stop-color="#003864"/><stop offset=".749" stop-color="#001428"/><stop offset="1" stop-color="#000611"/></linearGradient><line x1="86" x2="86" y1="134.915" y2="223.088" fill="none" stroke="url(#d)" stroke-miterlimit="10"/><linearGradient id="e" x1="272.699" x2="272.699" y1="265.798" y2="320.747" gradientUnits="userSpaceOnUse"><stop offset="0" stop-color="#0071bc"/><stop offset=".224" stop-color="#0061a1"/><stop offset=".749" stop-color="#003d65"/><stop offset="1" stop-color="#002f4e"/></linearGradient><path fill="url(#e)" d="M265.961,284.132l2,16.216v4.127
			c3.889,0.359,7.717,0.872,11.477,1.525L265.961,284.132z" opacity=".5"/><linearGradient id="f" x1="239.301" x2="239.301" y1="297.447" y2="360.589" gradientUnits="userSpaceOnUse"><stop offset="0" stop-color="#0071bc"/><stop offset=".224" stop-color="#0061a1"/><stop offset=".749" stop-color="#003d65"/><stop offset="1" stop-color="#002f4e"/></linearGradient><path fill="url(#f)" d="M244.039,300.348l2-16.216
			L232.562,306c3.76-0.653,7.588-1.165,11.477-1.525V300.348z" opacity=".5"/><linearGradient id="g" x1="337.006" x2="425.179" y1="164.642" y2="164.642" gradientTransform="rotate(90 396.366 194.275)" gradientUnits="userSpaceOnUse"><stop offset="0" stop-color="#00487f"/><stop offset=".224" stop-color="#003864"/><stop offset=".749" stop-color="#001428"/><stop offset="1" stop-color="#000611"/></linearGradient><line x1="426" x2="426" y1="134.915" y2="223.088" fill="none" stroke="url(#g)" stroke-miterlimit="10"/><g><radialGradient id="h" cx="256.964" cy="66.122" r="223.481" gradientTransform="matrix(.9791 0 0 1 5.36 0)" gradientUnits="userSpaceOnUse"><stop offset="0" stop-color="#005d8e"/><stop offset=".457" stop-color="#0067a5" stop-opacity=".543"/><stop offset="1" stop-color="#0071bc" stop-opacity="0"/></radialGradient><path fill="url(#h)" d="M422.511,207.307
		c0,78.408-74.553,80.974-166.511,80.974c-91.96,0-166.511-2.565-166.511-80.974c0-78.404,74.551-141.965,166.511-141.965
		C347.959,65.342,422.511,128.903,422.511,207.307z"/><linearGradient id="i" x1="256" x2="256" y1="72.636" y2="124.152" gradientUnits="userSpaceOnUse"><stop offset="0" stop-color="#fff"/><stop offset=".109" stop-color="#cce2f2" stop-opacity=".891"/><stop offset=".238" stop-color="#96c5e4" stop-opacity=".762"/><stop offset=".369" stop-color="#68abd7" stop-opacity=".631"/><stop offset=".499" stop-color="#4396ce" stop-opacity=".501"/><stop offset=".628" stop-color="#2686c6" stop-opacity=".372"/><stop offset=".755" stop-color="#117ac0" stop-opacity=".245"/><stop offset=".88" stop-color="#0473bd" stop-opacity=".12"/><stop offset="1" stop-color="#0071bc" stop-opacity="0"/></linearGradient><path fill="url(#i)" d="M324.542,100.63
		c0,13.959-30.688,25.272-68.542,25.272c-37.857,0-68.543-11.313-68.543-25.272c0-13.956,30.686-25.27,68.543-25.27
		C293.854,75.36,324.542,86.674,324.542,100.63z"/></g><g><polygon fill="#CCC" points="486 141 486 126 442 141 442 206 456.667 201 456.667 181 486 171 486 161 456.667 171 456.667 166 486 156 486 146 456.667 156 456.667 151"/><linearGradient id="j" x1="442" x2="486" y1="166" y2="166" gradientUnits="userSpaceOnUse"><stop offset="0" stop-color="#fff"/><stop offset=".515" stop-color="#fdfdfd"/><stop offset=".7" stop-color="#f6f6f6"/><stop offset=".833" stop-color="#ebebeb"/><stop offset=".939" stop-color="#dadada"/><stop offset="1" stop-color="#ccc"/></linearGradient><polygon fill="url(#j)" points="486 126 478.667 136 449.333 146 449.333 201 442 206 442 141"/><linearGradient id="k" x1="449.333" x2="486" y1="154.75" y2="154.75" gradientUnits="userSpaceOnUse"><stop offset="0" stop-color="#fff"/><stop offset=".515" stop-color="#fdfdfd"/><stop offset=".7" stop-color="#f6f6f6"/><stop offset=".833" stop-color="#ebebeb"/><stop offset=".939" stop-color="#dadada"/><stop offset="1" stop-color="#ccc"/></linearGradient><polygon fill="url(#k)" points="481.033 152.693 449.333 163.5 456.667 156 486 146"/><linearGradient id="l" x1="449.333" x2="486" y1="169.75" y2="169.75" gradientUnits="userSpaceOnUse"><stop offset="0" stop-color="#fff"/><stop offset=".515" stop-color="#fdfdfd"/><stop offset=".7" stop-color="#f6f6f6"/><stop offset=".833" stop-color="#ebebeb"/><stop offset=".939" stop-color="#dadada"/><stop offset="1" stop-color="#ccc"/></linearGradient><polygon fill="url(#l)" points="481.033 167.693 449.333 178.5 456.667 171 486 161"/><g><polygon fill="#CCC" points="26 141 26 126 70 141 70 206 55.333 201 55.333 181 26 171 26 161 55.333 171 55.333 166 26 156 26 146 55.333 156 55.333 151"/><linearGradient id="m" x1="858" x2="902" y1="166" y2="166" gradientTransform="matrix(-1 0 0 1 928 0)" gradientUnits="userSpaceOnUse"><stop offset="0" stop-color="#fff"/><stop offset=".515" stop-color="#fdfdfd"/><stop offset=".7" stop-color="#f6f6f6"/><stop offset=".833" stop-color="#ebebeb"/><stop offset=".939" stop-color="#dadada"/><stop offset="1" stop-color="#ccc"/></linearGradient><polygon fill="url(#m)" points="26 126 33.333 136 62.667 146 62.667 201 70 206 70 141"/><linearGradient id="n" x1="865.333" x2="902" y1="154.75" y2="154.75" gradientTransform="matrix(-1 0 0 1 928 0)" gradientUnits="userSpaceOnUse"><stop offset="0" stop-color="#fff"/><stop offset=".515" stop-color="#fdfdfd"/><stop offset=".7" stop-color="#f6f6f6"/><stop offset=".833" stop-color="#ebebeb"/><stop offset=".939" stop-color="#dadada"/><stop offset="1" stop-color="#ccc"/></linearGradient><polygon fill="url(#n)" points="30.967 152.693 62.667 163.5 55.333 156 26 146"/><linearGradient id="o" x1="865.333" x2="902" y1="169.75" y2="169.75" gradientTransform="matrix(-1 0 0 1 928 0)" gradientUnits="userSpaceOnUse"><stop offset="0" stop-color="#fff"/><stop offset=".515" stop-color="#fdfdfd"/><stop offset=".7" stop-color="#f6f6f6"/><stop offset=".833" stop-color="#ebebeb"/><stop offset=".939" stop-color="#dadada"/><stop offset="1" stop-color="#ccc"/></linearGradient><polygon fill="url(#o)" points="30.967 167.693 62.667 178.5 55.333 171 26 161"/></g><g><polygon fill="#FFF" points="285.288 186.344 332.677 155.656 274.101 155.656 256 106 237.899 155.656 179.323 155.656 226.712 186.344 208.611 236 235.967 218.285 256 156 276.209 218.398 303.389 236"/></g><polygon fill="#FFF" points="263 201 249 201 252 191 260 191"/></g><g><linearGradient id="p" x1="280.509" x2="280.509" y1="379.821" y2="339.801" gradientUnits="userSpaceOnUse"><stop offset="0" stop-color="#f7931e"/><stop offset="1" stop-color="#f7931e" stop-opacity="0"/></linearGradient><path fill="url(#p)" d="M268.391,334.039l1.824,45.782l0.11-0.051
			c-0.212-5.073,2.219-11.11,6.944-15.993c4.686-4.84,10.471-7.352,15.358-7.182C292.624,345.019,286.999,336.626,268.391,334.039z"/><linearGradient id="q" x1="281.47" x2="281.47" y1="356.961" y2="379.581" gradientUnits="userSpaceOnUse"><stop offset="0" stop-color="#ffe3ab"/><stop offset=".233" stop-color="#fdd18d"/><stop offset=".563" stop-color="#faba68"/><stop offset=".831" stop-color="#f9ac51"/><stop offset="1" stop-color="#f8a749"/></linearGradient><path fill="url(#q)" d="M292.627,356.605c0-0.003,0-0.007,0-0.01
			c-4.887-0.17-10.672,2.342-15.358,7.182c-4.725,4.882-7.157,10.919-6.944,15.993C283.474,375.782,292.627,366.911,292.627,356.605
			z"/><linearGradient id="r" x1="279.74" x2="279.74" y1="346.201" y2="371.12" gradientUnits="userSpaceOnUse"><stop offset="0" stop-color="#f7931e"/><stop offset=".207" stop-color="#d57c19"/><stop offset=".576" stop-color="#9e5710"/><stop offset=".851" stop-color="#7c400a"/><stop offset="1" stop-color="#6f3708"/></linearGradient><path fill="url(#r)" d="M287.616,357.282
			c-3.542,1.038-7.193,3.237-10.347,6.495c-2.422,2.502-4.237,5.306-5.406,8.129C279.495,368.53,285.189,363.356,287.616,357.282z"/><linearGradient id="s" x1="231.491" x2="231.491" y1="379.491" y2="333.709" gradientUnits="userSpaceOnUse"><stop offset="0" stop-color="#ffe3ab"/><stop offset=".168" stop-color="#fedfa4" stop-opacity=".832"/><stop offset=".413" stop-color="#fdd391" stop-opacity=".587"/><stop offset=".705" stop-color="#fbbf71" stop-opacity=".295"/><stop offset="1" stop-color="#f8a749" stop-opacity="0"/></linearGradient><path fill="url(#s)" d="M243.608,334.039l-1.824,45.782l-0.11-0.051
			c0.212-5.073-2.218-11.11-6.944-15.993c-4.685-4.84-10.472-7.352-15.357-7.182C219.375,345.019,225,336.626,243.608,334.039z"/><linearGradient id="t" x1="230.53" x2="230.53" y1="356.961" y2="379.581" gradientUnits="userSpaceOnUse"><stop offset="0" stop-color="#ffe3ab"/><stop offset=".233" stop-color="#fdd18d"/><stop offset=".563" stop-color="#faba68"/><stop offset=".831" stop-color="#f9ac51"/><stop offset="1" stop-color="#f8a749"/></linearGradient><path fill="url(#t)" d="M219.373,356.605c0-0.003,0-0.007,0-0.01
			c4.885-0.17,10.672,2.342,15.357,7.182c4.727,4.882,7.157,10.919,6.944,15.993C228.526,375.782,219.373,366.911,219.373,356.605z"/><linearGradient id="u" x1="255.999" x2="255.999" y1="381.838" y2="304.498" gradientUnits="userSpaceOnUse"><stop offset="0" stop-color="#ffe3ab"/><stop offset=".261" stop-color="#ffe1a8" stop-opacity=".739"/><stop offset=".452" stop-color="#fedb9f" stop-opacity=".548"/><stop offset=".621" stop-color="#fdd28f" stop-opacity=".379"/><stop offset=".777" stop-color="#fbc478" stop-opacity=".223"/><stop offset=".923" stop-color="#f9b25c" stop-opacity=".077"/><stop offset="1" stop-color="#f8a749" stop-opacity="0"/></linearGradient><polygon fill="url(#u)" points="267.26 306 255.999 306 244.739 306 241.782 379.821 255.999 381.838 270.216 379.821"/><linearGradient id="v" x1="232.259" x2="232.259" y1="346.201" y2="371.12" gradientUnits="userSpaceOnUse"><stop offset="0" stop-color="#f7931e"/><stop offset=".207" stop-color="#d57c19"/><stop offset=".576" stop-color="#9e5710"/><stop offset=".851" stop-color="#7c400a"/><stop offset="1" stop-color="#6f3708"/></linearGradient><path fill="url(#v)" d="M224.382,357.282
			c3.542,1.038,7.194,3.237,10.348,6.495c2.421,2.502,4.236,5.306,5.406,8.129C232.503,368.53,226.812,363.356,224.382,357.282z"/><g><radialGradient id="w" cx="367.561" cy="265.48" r="62.51" gradientTransform="matrix(.9791 0 0 1 5.36 0)" gradientUnits="userSpaceOnUse"><stop offset="0" stop-color="#fde6cc"/><stop offset=".242" stop-color="#fbd1a1"/><stop offset=".627" stop-color="#f9b362"/><stop offset=".81" stop-color="#f8a749"/><stop offset=".963" stop-color="#d68d3e"/></radialGradient><path fill="url(#w)" d="M345.044,304.96
			c48.898,0,89.521-34.105,97.622-78.96l-154.881,61.426C303.955,298.47,323.712,304.96,345.044,304.96z"/><path fill="#FFF" d="M289.005,286.945c13.02,6.604,27.848,10.352,43.589,10.352c41.903,0,77.376-26.512,89.318-63.066
			L289.005,286.945z"/><path fill="#C67830" d="M442.667,226l-20.754,8.232c-1.637,5.008-3.73,9.818-6.204,14.406l23.065-8.127
			C440.443,235.824,441.767,230.984,442.667,226z"/><path fill="#BDCCD4" d="M364.297,257.081l-75.291,29.864c2.564,1.302,5.197,2.483,7.894,3.556l118.81-41.864
			c2.474-4.588,4.567-9.399,6.204-14.406L364.297,257.081z"/><path fill="#0F304C" d="M345.226,285.655c14.864,0,26.914-12.307,26.914-27.489c0-1.385-0.103-2.746-0.296-4.076l-48.953,19.416
			C327.725,280.834,335.924,285.655,345.226,285.655z"/><path fill="#0B293F" d="M322.89,273.505c1.481,2.245,3.281,4.252,5.329,5.96l43.257-15.242c0.43-1.95,0.664-3.976,0.664-6.058
			c0-1.385-0.103-2.746-0.296-4.076L322.89,273.505z"/><path fill="#FFF" d="M357.046,265.606c3.367,0,6.097-2.788,6.097-6.227c0-0.605-0.089-1.187-0.246-1.741l-11.317,4.488
			C352.574,264.186,354.645,265.606,357.046,265.606z"/></g><g><radialGradient id="x" cx="144.439" cy="265.48" r="62.51" gradientTransform="matrix(.9791 0 0 1 5.36 0)" gradientUnits="userSpaceOnUse"><stop offset="0" stop-color="#fde6cc"/><stop offset=".242" stop-color="#fbd1a1"/><stop offset=".627" stop-color="#f9b362"/><stop offset=".81" stop-color="#f8a749"/><stop offset=".963" stop-color="#d68d3e"/></radialGradient><path fill="url(#x)" d="M166.956,304.96
			c-48.898,0-89.521-34.105-97.623-78.96l154.881,61.426C208.045,298.47,188.288,304.96,166.956,304.96z"/><path fill="#FFF" d="M222.995,286.945c-13.02,6.604-27.848,10.352-43.589,10.352c-41.903,0-77.376-26.512-89.318-63.066
			L222.995,286.945z"/><path fill="#C67830" d="M69.333,226l20.754,8.232c1.637,5.008,3.73,9.818,6.204,14.406l-23.065-8.127
				C71.557,235.824,70.233,230.984,69.333,226z"/><path fill="#BDCCD4" d="M147.703,257.081l75.291,29.864c-2.564,1.302-5.197,2.483-7.894,3.556l-118.81-41.864
			c-2.474-4.588-4.567-9.399-6.204-14.406L147.703,257.081z"/><path fill="#0F304C" d="M166.774,285.655c-14.864,0-26.914-12.307-26.914-27.489c0-1.385,0.103-2.746,0.296-4.076l48.953,19.416
			C184.275,280.834,176.076,285.655,166.774,285.655z"/><path fill="#0B293F" d="M139.86,258.166c0,2.082,0.234,4.108,0.664,6.058l43.257,15.242c2.048-1.708,3.848-3.715,5.329-5.96
			l-48.953-19.416C139.963,255.419,139.86,256.781,139.86,258.166z"/><path fill="#FFF" d="M169.898,265.885c-0.127,0.5-0.202,1.023-0.202,1.562c0,3.44,2.73,6.228,6.098,6.228
			c2.336,0,4.363-1.344,5.387-3.315L169.898,265.885z"/></g><g><path fill="#FFE0C2" d="M256.227,411.979c20.244-4.436,39.33-0.863,49.773,8.057c-5.236-13.924-27.416-20.883-51.431-15.614
			c-24.012,5.264-41.245,20.864-40.173,35.691C220.153,427.645,235.985,416.414,256.227,411.979z"/><radialGradient id="y" cx="685.511" cy="278.484" r="55.228" gradientTransform="translate(-432.323 118.408)" gradientUnits="userSpaceOnUse"><stop offset="0" stop-color="#ff7f00"/><stop offset=".036" stop-color="#f57a01"/><stop offset=".308" stop-color="#a95405"/><stop offset=".534" stop-color="#713808"/><stop offset=".701" stop-color="#4f270a"/><stop offset=".791" stop-color="#42210b"/></radialGradient><path fill="url(#y)" d="M254.974,406.239
			c19.948-4.372,39.024,0.431,49.727,11.063c-5.703-16.201-27.987-25.006-51.647-19.812c-23.666,5.185-40.22,22.493-38.624,39.599
			C219.704,422.953,235.028,410.612,254.974,406.239z"/></g></g></svg>