<svg xmlns="http://www.w3.org/2000/svg" viewBox="0 0 48 48"><g data-name="16-lemon"><path fill="#ffd417" d="M31.35,12.65c5.62,5.62,4.64,15.7-2.18,22.52-5.97,5.97-14.43,7.46-20.21,3.98-1.26.86-3.15,1.72-4.49.38s-.48-3.23.38-4.49C1.37,29.26,2.86,20.8,8.83,14.83,15.65,8.01,25.73,7.03,31.35,12.65Z"/><path fill="#9cdf00" d="M17.59,1C29,1,29,6.02,29,6.02s-8.3-1-15.56,1A29.82,29.82,0,0,1,1,8.03C7.22,7.02,6.19,1,17.59,1Z"/><path fill="#63b300" d="M13.44,7.02c7.26-2,15.56-1,15.56-1s-1.04,4.02-13.48,8.03S1,8.03,1,8.03A29.82,29.82,0,0,0,13.44,7.02Z"/><circle cx="32" cy="32" r="15" fill="#fdf1c1"/><path fill="#fdf1c1" d="M34.12,29.88A2.994,2.994,0,1,1,32,29,2.993,2.993,0,0,1,34.12,29.88Z"/><path fill="#f8ef00" d="M43.77,29.66A1.986,1.986,0,0,1,41.8,32H35a2.993,2.993,0,0,0-.88-2.12l4.81-4.81a2.021,2.021,0,0,1,3.11.35A11.9,11.9,0,0,1,43.77,29.66Z"/><path fill="#f8ef00" d="M38.58,21.96a2.021,2.021,0,0,1,.35,3.11l-4.81,4.81A2.993,2.993,0,0,0,32,29V22.2a1.986,1.986,0,0,1,2.34-1.97A11.9,11.9,0,0,1,38.58,21.96Z"/><path fill="#f8ef00" d="M32,22.2V29a2.993,2.993,0,0,0-2.12.88l-4.81-4.81a2.021,2.021,0,0,1,.35-3.11,11.9,11.9,0,0,1,4.24-1.73A1.986,1.986,0,0,1,32,22.2Z"/><path fill="#f8ef00" d="M25.07,25.07l4.81,4.81A2.993,2.993,0,0,0,29,32H22.2a1.986,1.986,0,0,1-1.97-2.34,11.9,11.9,0,0,1,1.73-4.24A2.021,2.021,0,0,1,25.07,25.07Z"/><path fill="#f8ef00" d="M29,32a2.993,2.993,0,0,0,.88,2.12l-4.81,4.81a2.021,2.021,0,0,1-3.11-.35,11.9,11.9,0,0,1-1.73-4.24A1.986,1.986,0,0,1,22.2,32Z"/><path fill="#f8ef00" d="M29.88,34.12A2.993,2.993,0,0,0,32,35v6.8a1.986,1.986,0,0,1-2.34,1.97,11.9,11.9,0,0,1-4.24-1.73,2.021,2.021,0,0,1-.35-3.11Z"/><path fill="#f8ef00" d="M38.93,38.93a2.021,2.021,0,0,1-.35,3.11,11.9,11.9,0,0,1-4.24,1.73A1.986,1.986,0,0,1,32,41.8V35a2.993,2.993,0,0,0,2.12-.88Z"/><path fill="#f8ef00" d="M41.8,32a1.986,1.986,0,0,1,1.97,2.34,11.9,11.9,0,0,1-1.73,4.24,2.021,2.021,0,0,1-3.11.35l-4.81-4.81A2.993,2.993,0,0,0,35,32Z"/><path fill="#f2eb17" d="M31.35,12.65c5.62,5.62,4.64,15.7-2.18,22.52-5.97,5.97-14.43,7.46-20.21,3.98-1.26.86-3.15,1.72-4.49.38s-.48-3.23.38-4.49C1.37,29.26,2.86,20.8,8.83,14.83,15.65,8.01,25.73,7.03,31.35,12.65Z"/><path fill="#faba01" d="M15.52,18.05C24.987,15,27.85,11.943,28.678,10.656a12.754,12.754,0,0,0-3-1.191A39.788,39.788,0,0,1,15.52,14.05a15.991,15.991,0,0,1-6.775.871,20.975,20.975,0,0,0-2.659,3.294C8.246,19.156,11.28,19.419,15.52,18.05Z"/><ellipse cx="27" cy="14" fill="#3f7000" rx="1.455" ry="2.425" transform="rotate(-45 27 14)"/><path fill="#589e00" d="M33.836,5.014a8.386,8.386,0,0,0-3.5,1.429l-.441-.874a1,1,0,1,0-1.786.9l.685,1.356a12.841,12.841,0,0,0-2.782,6.031,1,1,0,0,0,1.98.284c.009-.063.957-6.286,6.174-7.156a1,1,0,1,0-.328-1.972Z"/><path fill="#9cdf00" d="M17.59,1C29,1,29,6.02,29,6.02s-8.3-1-15.56,1A29.82,29.82,0,0,1,1,8.03C7.22,7.02,6.19,1,17.59,1Z"/><path fill="#63b300" d="M13.44,7.02c7.26-2,15.56-1,15.56-1s-1.04,4.02-13.48,8.03S1,8.03,1,8.03A29.82,29.82,0,0,0,13.44,7.02Z"/><path fill="#faba01" d="M18,35C11,35,6.373,29.061,4.617,20.883c-2.2,4.859-2.179,10.151.233,14.157-.86,1.26-1.72,3.15-.38,4.49s3.23.48,4.49-.38c5.78,3.48,14.24,1.99,20.21-3.98a20.477,20.477,0,0,0,4.395-6.5A21.432,21.432,0,0,1,18,35Z"/><path fill="#f8ef00" d="M11,32.561a10.791,10.791,0,0,0,5-4.536c2.2-3.617,2.582-7.87,1.16-10.527-.524.184-1.068.368-1.639.552-3.674,1.186-6.439,1.144-8.518.5a13.486,13.486,0,0,0-1,1.424,14.263,14.263,0,0,0-1.077,2.184C6.081,26.615,8.135,30.3,11,32.561Z"/><path fill="#ffd417" d="M15.52 18.05c.571-.184 1.115-.368 1.639-.552A5 5 0 0 0 15.9 15.952c-2.443-1.967-6.192-.779-8.9 2.6C9.081 19.194 11.846 19.236 15.52 18.05zM6.1 32.048a4.768 4.768 0 0 0 4.9.513c-2.865-2.262-4.919-5.946-6.076-10.4C3.386 26.064 3.779 30.179 6.1 32.048z"/><path fill="#8bc808" d="M27,15h0a1,1,0,0,0,.989-.858c.009-.063.957-6.286,6.174-7.156A.987.987,0,0,0,34.981,6C30.568,6.013,27,10.033,27,15Z"/><path fill="#baec35" d="M13.44,7.02c7.26-2,15.56-1,15.56-1S29,1,17.59,1a19.007,19.007,0,0,0-6.541.962,10.931,10.931,0,0,0,1.836,5.2C13.07,7.114,13.252,7.072,13.44,7.02Z"/><path fill="#8bc808" d="M29,6.02s-8.3-1-15.56,1c-.188.052-.37.094-.555.142a10.984,10.984,0,0,0,8.195,4.792C28.288,8.75,29,6.02,29,6.02Z"/><path fill="#ffa008" d="M29.5,17.225a14.73,14.73,0,0,0-11.585,2.859A12.8,12.8,0,0,1,16,28.025a11.449,11.449,0,0,1-4,4.042c0,.422.028.838.064,1.25A10.956,10.956,0,0,0,17.3,34.962,14.986,14.986,0,0,1,29.5,17.225Z"/><path fill="#ff7f00" d="M19.68,40.545A14.926,14.926,0,0,1,17.3,34.962a10.956,10.956,0,0,1-5.228-1.645A14.891,14.891,0,0,0,15,40.971,16.312,16.312,0,0,0,19.68,40.545Z"/><path fill="#ffaf12" d="M12,32c0,.023,0,.045,0,.067a11.449,11.449,0,0,0,4-4.042,12.8,12.8,0,0,0,1.916-7.941A14.959,14.959,0,0,0,12,32Z"/><circle cx="32" cy="32" r="15" fill="#fff9b3"/><circle cx="32" cy="32" r="13" fill="#fffcdb"/><path fill="#fdf48b" d="M34.12,29.88A2.994,2.994,0,1,1,32,29,2.993,2.993,0,0,1,34.12,29.88Z"/><path fill="#f2eb17" d="M43.77,29.66A1.986,1.986,0,0,1,41.8,32H35a2.993,2.993,0,0,0-.88-2.12l4.81-4.81a2.021,2.021,0,0,1,3.11.35A11.9,11.9,0,0,1,43.77,29.66Z"/><path fill="#f2eb17" d="M38.58,21.96a2.021,2.021,0,0,1,.35,3.11l-4.81,4.81A2.993,2.993,0,0,0,32,29V22.2a1.986,1.986,0,0,1,2.34-1.97A11.9,11.9,0,0,1,38.58,21.96Z"/><path fill="#f2eb17" d="M32,22.2V29a2.993,2.993,0,0,0-2.12.88l-4.81-4.81a2.021,2.021,0,0,1,.35-3.11,11.9,11.9,0,0,1,4.24-1.73A1.986,1.986,0,0,1,32,22.2Z"/><path fill="#f2eb17" d="M25.07,25.07l4.81,4.81A2.993,2.993,0,0,0,29,32H22.2a1.986,1.986,0,0,1-1.97-2.34,11.9,11.9,0,0,1,1.73-4.24A2.021,2.021,0,0,1,25.07,25.07Z"/><path fill="#f2eb17" d="M29,32a2.993,2.993,0,0,0,.88,2.12l-4.81,4.81a2.021,2.021,0,0,1-3.11-.35,11.9,11.9,0,0,1-1.73-4.24A1.986,1.986,0,0,1,22.2,32Z"/><path fill="#f2eb17" d="M29.88,34.12A2.993,2.993,0,0,0,32,35v6.8a1.986,1.986,0,0,1-2.34,1.97,11.9,11.9,0,0,1-4.24-1.73,2.021,2.021,0,0,1-.35-3.11Z"/><path fill="#f2eb17" d="M38.93,38.93a2.021,2.021,0,0,1-.35,3.11,11.9,11.9,0,0,1-4.24,1.73A1.986,1.986,0,0,1,32,41.8V35a2.993,2.993,0,0,0,2.12-.88Z"/><path fill="#f2eb17" d="M41.8,32a1.986,1.986,0,0,1,1.97,2.34,11.9,11.9,0,0,1-1.73,4.24,2.021,2.021,0,0,1-3.11.35l-4.81-4.81A2.993,2.993,0,0,0,35,32Z"/><path fill="#ffd417" d="M32,17A15,15,0,1,0,47,32,15,15,0,0,0,32,17Zm0,29A14,14,0,1,1,46,32,14,14,0,0,1,32,46Z"/><path fill="#fffcdb" d="M34.44 30.267L40.2 24.5a1.94 1.94 0 0 0-1.273.566A1.94 1.94 0 0 0 39.5 23.8L33.733 29.56a2.661 2.661 0 0 1 .707.707zM43.117 31.5H34.949a2.476 2.476 0 0 1 0 1h8.168A2 2 0 0 0 41.8 32 2 2 0 0 0 43.117 31.5zM31.5 20.883v8.168a2.476 2.476 0 0 1 1 0V20.883A2 2 0 0 0 32 22.2 2 2 0 0 0 31.5 20.883zM25.07 25.07A1.94 1.94 0 0 0 23.8 24.5l5.763 5.763a2.661 2.661 0 0 1 .707-.707L24.5 23.8A1.94 1.94 0 0 0 25.07 25.07zM29.56 33.733L23.8 39.5a1.945 1.945 0 0 0 1.273-.566A1.94 1.94 0 0 0 24.5 40.2l5.763-5.763a2.661 2.661 0 0 1-.707-.707zM29.051 32.5a2.476 2.476 0 0 1 0-1H20.883A2 2 0 0 0 22.2 32a2 2 0 0 0-1.317.5zM31.5 34.949v8.168A2 2 0 0 0 32 41.8a2 2 0 0 0 .5 1.317V34.949a2.476 2.476 0 0 1-1 0zM34.44 33.733a2.661 2.661 0 0 1-.707.707L39.5 40.2a1.94 1.94 0 0 0-.566-1.273A1.945 1.945 0 0 0 40.2 39.5z"/><circle cx="32" cy="32" r="2" fill="#f2eb17"/><ellipse cx="42" cy="35" fill="#fdf48b" rx=".825" ry="1.148" transform="rotate(-45.02 41.999 35)"/><ellipse cx="38" cy="40" fill="#fdf48b" rx=".825" ry="1.148" transform="rotate(-45.02 38 40)"/><ellipse cx="37" cy="34" fill="#fdf48b" rx=".825" ry="1.148" transform="rotate(-45.02 37 34)"/><ellipse cx="39.746" cy="34.5" fill="#fdf48b" rx=".413" ry=".574" transform="rotate(-45.02 39.745 34.5)"/><ellipse cx="39.746" cy="37.5" fill="#fdf48b" rx=".413" ry=".574" transform="rotate(-45.02 39.746 37.5)"/><ellipse cx="35.746" cy="41.5" fill="#fdf48b" rx=".413" ry=".574" transform="rotate(-45.02 35.745 41.5)"/><ellipse cx="35.746" cy="39.5" fill="#fdf48b" rx=".413" ry=".574" transform="rotate(-45.02 35.746 39.5)"/><ellipse cx="33.746" cy="38.5" fill="#fdf48b" rx=".413" ry=".574" transform="rotate(-45.02 33.746 38.5)"/><ellipse cx="35.746" cy="37.5" fill="#fdf48b" rx=".413" ry=".574" transform="rotate(-45.02 35.746 37.5)"/><ellipse cx="33.746" cy="41.5" fill="#fdf48b" rx=".413" ry=".574" transform="rotate(-45.02 33.745 41.5)"/><ellipse cx="33.746" cy="36.5" fill="#fdf48b" rx=".413" ry=".574" transform="rotate(-45.02 33.746 36.5)"/><ellipse cx="40.746" cy="33.5" fill="#fdf48b" rx=".413" ry=".574" transform="rotate(-45.02 40.746 33.5)"/><ellipse cx="22.246" cy="34" fill="#fdf48b" rx="1.148" ry=".825" transform="rotate(-44.98 22.246 34)"/><ellipse cx="24.246" cy="37" fill="#fdf48b" rx="1.148" ry=".825" transform="rotate(-44.98 24.247 37)"/><ellipse cx="26.246" cy="40" fill="#fdf48b" rx="1.148" ry=".825" transform="rotate(-44.98 26.246 40)"/><ellipse cx="24.5" cy="34.5" fill="#fdf48b" rx=".574" ry=".413" transform="rotate(-44.98 24.5 34.5)"/><ellipse cx="28.5" cy="41.5" fill="#fdf48b" rx=".574" ry=".413" transform="rotate(-44.98 28.5 41.5)"/><ellipse cx="28.5" cy="39.5" fill="#fdf48b" rx=".574" ry=".413" transform="rotate(-44.98 28.5 39.5)"/><ellipse cx="30.5" cy="39.5" fill="#fdf48b" rx=".574" ry=".413" transform="rotate(-44.98 30.5 39.5)"/><ellipse cx="28.5" cy="37.5" fill="#fdf48b" rx=".574" ry=".413" transform="rotate(-44.98 28.5 37.5)"/><ellipse cx="30.5" cy="41.5" fill="#fdf48b" rx=".574" ry=".413" transform="rotate(-44.98 30.5 41.5)"/><ellipse cx="30.5" cy="36.5" fill="#fdf48b" rx=".574" ry=".413" transform="rotate(-44.98 30.5 36.5)"/><ellipse cx="26.5" cy="33.5" fill="#fdf48b" rx=".574" ry=".413" transform="rotate(-44.98 26.5 33.5)"/><ellipse cx="27.5" cy="34.5" fill="#fdf48b" rx=".574" ry=".413" transform="rotate(-44.98 27.5 34.5)"/><ellipse cx="22.246" cy="29" fill="#fdf48b" rx=".825" ry="1.148" transform="rotate(-45.02 22.246 29)"/><ellipse cx="26.246" cy="24" fill="#fdf48b" rx=".825" ry="1.148" transform="rotate(-45.02 26.245 24)"/><ellipse cx="27.246" cy="30" fill="#fdf48b" rx=".825" ry="1.148" transform="rotate(-45.02 27.246 30)"/><ellipse cx="24.5" cy="29.5" fill="#fdf48b" rx=".413" ry=".574" transform="rotate(-45.02 24.5 29.5)"/><ellipse cx="24.5" cy="26.5" fill="#fdf48b" rx=".413" ry=".574" transform="rotate(-45.02 24.5 26.5)"/><ellipse cx="28.5" cy="22.5" fill="#fdf48b" rx=".413" ry=".574" transform="rotate(-45.02 28.5 22.5)"/><ellipse cx="28.5" cy="24.5" fill="#fdf48b" rx=".413" ry=".574" transform="rotate(-45.02 28.5 24.5)"/><ellipse cx="30.5" cy="25.5" fill="#fdf48b" rx=".413" ry=".574" transform="rotate(-45.02 30.5 25.5)"/><ellipse cx="28.5" cy="26.5" fill="#fdf48b" rx=".413" ry=".574" transform="rotate(-45.02 28.5 26.5)"/><ellipse cx="30.5" cy="22.5" fill="#fdf48b" rx=".413" ry=".574" transform="rotate(-45.02 30.5 22.5)"/><ellipse cx="30.5" cy="27.5" fill="#fdf48b" rx=".413" ry=".574" transform="rotate(-45.02 30.5 27.5)"/><ellipse cx="23.5" cy="30.5" fill="#fdf48b" rx=".413" ry=".574" transform="rotate(-45.02 23.5 30.5)"/><ellipse cx="42" cy="30" fill="#fdf48b" rx="1.148" ry=".825" transform="rotate(-44.98 42 30)"/><ellipse cx="40" cy="27" fill="#fdf48b" rx="1.148" ry=".825" transform="rotate(-44.98 40 27)"/><ellipse cx="38" cy="24" fill="#fdf48b" rx="1.148" ry=".825" transform="rotate(-44.98 38.001 24)"/><ellipse cx="39.746" cy="29.5" fill="#fdf48b" rx=".574" ry=".413" transform="rotate(-44.98 39.746 29.5)"/><ellipse cx="35.746" cy="22.5" fill="#fdf48b" rx=".574" ry=".413" transform="rotate(-44.98 35.746 22.5)"/><ellipse cx="35.746" cy="24.5" fill="#fdf48b" rx=".574" ry=".413" transform="rotate(-44.98 35.746 24.5)"/><ellipse cx="33.746" cy="24.5" fill="#fdf48b" rx=".574" ry=".413" transform="rotate(-44.98 33.747 24.5)"/><ellipse cx="35.746" cy="26.5" fill="#fdf48b" rx=".574" ry=".413" transform="rotate(-44.98 35.746 26.5)"/><ellipse cx="33.746" cy="22.5" fill="#fdf48b" rx=".574" ry=".413" transform="rotate(-44.98 33.746 22.5)"/><ellipse cx="33.746" cy="27.5" fill="#fdf48b" rx=".574" ry=".413" transform="rotate(-44.98 33.747 27.5)"/><ellipse cx="37.746" cy="30.5" fill="#fdf48b" rx=".574" ry=".413" transform="rotate(-44.98 37.746 30.5)"/><ellipse cx="36.746" cy="29.5" fill="#fdf48b" rx=".574" ry=".413" transform="rotate(-44.98 36.747 29.5)"/><path fill="#fdfdd7" d="M32,18a14,14,0,0,0-12.319,7.344c.239.267.485.526.731.786A12.989,12.989,0,0,1,43.648,37.745c.352.04.7.074,1.059.1A13.978,13.978,0,0,0,32,18Z"/><path fill="#f6fafd" d="M43.648,37.745A12.989,12.989,0,0,0,20.412,26.13,37.87,37.87,0,0,0,43.648,37.745ZM32,30a2,2,0,1,1-2,2A2,2,0,0,1,32,30Z"/><path fill="#fff818" d="M32,18A13.978,13.978,0,0,1,44.707,37.849c.356.031.712.061,1.07.081A14.994,14.994,0,0,0,18.993,24.549c.227.268.455.534.688.8A14,14,0,0,1,32,18Z"/><path fill="#fff818" d="M43.77,34.34A1.986,1.986,0,0,0,41.8,32a1.986,1.986,0,0,0,1.97-2.34,11.9,11.9,0,0,0-1.73-4.24,2.021,2.021,0,0,0-3.11-.35,2.021,2.021,0,0,0-.35-3.11,11.9,11.9,0,0,0-4.24-1.73A1.986,1.986,0,0,0,32,22.2a1.986,1.986,0,0,0-2.34-1.97,11.9,11.9,0,0,0-4.24,1.73,2.021,2.021,0,0,0-.35,3.11,2.021,2.021,0,0,0-3.11.35,12.258,12.258,0,0,0-.812,1.48A37.873,37.873,0,0,0,42.609,37.613,11.778,11.778,0,0,0,43.77,34.34Z"/><path fill="#f6fafd" d="M34.44 30.267L40.2 24.5a1.94 1.94 0 0 0-1.273.566A1.94 1.94 0 0 0 39.5 23.8L33.733 29.56a2.661 2.661 0 0 1 .707.707zM34.949 31.5a2.476 2.476 0 0 1 0 1h8.168A2 2 0 0 0 41.8 32a2 2 0 0 0 1.317-.5zM32.5 29.051V20.883A2 2 0 0 0 32 22.2a2 2 0 0 0-.5-1.317v8.168a2.476 2.476 0 0 1 1 0zM29.56 30.267a2.661 2.661 0 0 1 .707-.707L24.5 23.8a1.94 1.94 0 0 0 .566 1.273A1.94 1.94 0 0 0 23.8 24.5z"/><path fill="#fffcdb" d="M29,32a2.942,2.942,0,0,1,.051-.5H26.726q.767.517,1.558,1h.767A2.942,2.942,0,0,1,29,32Z"/><path fill="#f6fafd" d="M34.44,33.733a2.661,2.661,0,0,1-.707.707l1.288,1.288c.69.25,1.392.475,2.1.686Z"/><path fill="#fdfdd7" d="M41.394 34.053c-.44.177-.524.745-.189 1.268a1.271 1.271 0 0 0 1.4.626c.44-.177.524-.745.189-1.268A1.271 1.271 0 0 0 41.394 34.053zM36.394 33.053c-.44.177-.524.745-.189 1.268a1.271 1.271 0 0 0 1.4.626c.44-.177.524-.745.189-1.268A1.271 1.271 0 0 0 36.394 33.053zM39.443 34.027c-.22.088-.262.372-.095.634a.638.638 0 0 0 .7.313c.22-.089.262-.373.094-.634A.634.634 0 0 0 39.443 34.027zM39.454 37.025c.165.038.329.079.495.114A.548.548 0 0 0 39.454 37.025zM40.443 33.027c-.22.088-.262.372-.095.634a.638.638 0 0 0 .7.313c.22-.089.262-.373.094-.634A.634.634 0 0 0 40.443 33.027zM26.852 24.947c.439-.177.524-.745.189-1.268a1.272 1.272 0 0 0-1.4-.626c-.439.178-.523.745-.188 1.268A1.271 1.271 0 0 0 26.852 24.947zM26.639 29.053c-.439.178-.523.745-.188 1.268a1.271 1.271 0 0 0 1.4.626c.439-.177.524-.745.189-1.268A1.272 1.272 0 0 0 26.639 29.053zM24.9 29.34a.636.636 0 0 0-.7-.313.354.354 0 0 0-.17.463c.211.171.426.336.64.5a.383.383 0 0 0 .136-.02C25.023 29.885 25.065 29.6 24.9 29.34zM24.8 26.973c.22-.088.262-.372.095-.633a.636.636 0 0 0-.7-.313c-.22.088-.262.372-.095.633A.636.636 0 0 0 24.8 26.973zM28.8 22.973c.22-.088.262-.372.095-.633a.636.636 0 0 0-.7-.313c-.22.088-.262.372-.095.633A.636.636 0 0 0 28.8 22.973zM28.8 24.973c.22-.088.262-.372.095-.633a.636.636 0 0 0-.7-.313c-.22.088-.262.372-.095.633A.636.636 0 0 0 28.8 24.973zM30.8 25.973c.22-.088.262-.372.095-.633a.636.636 0 0 0-.7-.313c-.22.088-.262.372-.095.633A.636.636 0 0 0 30.8 25.973zM28.8 26.973c.22-.088.262-.372.095-.633a.636.636 0 0 0-.7-.313c-.22.088-.262.372-.095.633A.636.636 0 0 0 28.8 26.973zM30.8 22.973c.22-.088.262-.372.095-.633a.636.636 0 0 0-.7-.313c-.22.088-.262.372-.095.633A.636.636 0 0 0 30.8 22.973zM30.8 27.973c.22-.088.262-.372.095-.633a.636.636 0 0 0-.7-.313c-.22.088-.262.372-.095.633A.636.636 0 0 0 30.8 27.973zM41.394 30.947a1.271 1.271 0 0 0 1.4-.626c.335-.523.251-1.09-.189-1.268a1.271 1.271 0 0 0-1.4.626C40.87 30.2 40.954 30.77 41.394 30.947zM39.394 27.947a1.271 1.271 0 0 0 1.4-.626c.335-.523.251-1.09-.189-1.268a1.271 1.271 0 0 0-1.4.626C38.87 27.2 38.954 27.77 39.394 27.947zM37.394 24.947a1.271 1.271 0 0 0 1.4-.626c.335-.523.251-1.09-.189-1.268a1.271 1.271 0 0 0-1.4.626C36.87 24.2 36.954 24.77 37.394 24.947zM40.049 29.027a.636.636 0 0 0-.7.313c-.167.261-.125.545.095.633a.634.634 0 0 0 .7-.313C40.311 29.4 40.269 29.115 40.049 29.027zM35.443 22.973a.634.634 0 0 0 .7-.313c.168-.261.126-.545-.094-.633a.636.636 0 0 0-.7.313C35.181 22.6 35.223 22.885 35.443 22.973zM35.443 24.973a.634.634 0 0 0 .7-.313c.168-.261.126-.545-.094-.633a.636.636 0 0 0-.7.313C35.181 24.6 35.223 24.885 35.443 24.973zM33.443 24.973a.634.634 0 0 0 .7-.313c.168-.261.126-.545-.094-.633a.636.636 0 0 0-.7.313C33.181 24.6 33.223 24.885 33.443 24.973zM35.443 26.973a.634.634 0 0 0 .7-.313c.168-.261.126-.545-.094-.633a.636.636 0 0 0-.7.313C35.181 26.6 35.223 26.885 35.443 26.973zM33.443 22.973a.634.634 0 0 0 .7-.313c.168-.261.126-.545-.094-.633a.636.636 0 0 0-.7.313C33.181 22.6 33.223 22.885 33.443 22.973zM33.443 27.973a.634.634 0 0 0 .7-.313c.168-.261.126-.545-.094-.633a.636.636 0 0 0-.7.313C33.181 27.6 33.223 27.885 33.443 27.973zM38.143 30.66c.168-.261.126-.545-.094-.633a.636.636 0 0 0-.7.313c-.167.261-.125.545.095.633A.634.634 0 0 0 38.143 30.66zM36.443 29.973a.634.634 0 0 0 .7-.313c.168-.261.126-.545-.094-.633a.636.636 0 0 0-.7.313C36.181 29.6 36.223 29.885 36.443 29.973z"/><path fill="#f6fafd" d="M35,32a3,3,0,1,0-5.81,1.021,37.928,37.928,0,0,0,3.667,1.84A2.991,2.991,0,0,0,35,32Zm-3,2a2,2,0,1,1,2-2A2,2,0,0,1,32,34Z"/><circle cx="32" cy="32" r="2" fill="#f8ef00"/><ellipse cx="8" cy="23" fill="#f6fafd" rx="1.65" ry="2.297" transform="rotate(-45.02 8 23)"/><ellipse cx="9" cy="27" fill="#f6fafd" rx=".825" ry="1.148" transform="rotate(-45.02 9 27)"/><ellipse cx="21" cy="3" fill="#f6fafd" rx=".825" ry="1.148" transform="rotate(-45.02 21 3)"/><ellipse cx="10.746" cy="26.5" fill="#f6fafd" rx=".413" ry=".574" transform="rotate(-45.02 10.745 26.5)"/></g></svg>